<svg width="1239" height="189" viewBox="0 0 1239 189" fill="none" xmlns="http://www.w3.org/2000/svg">
<mask id="mask0_98_4" style="mask-type:alpha" maskUnits="userSpaceOnUse" x="0" y="0" width="1239" height="189">
<rect width="1239" height="189" fill="#D9D9D9"/>
</mask>
<g mask="url(#mask0_98_4)">
<path d="M211.97 5.12599V71.845H72.6882V143.921H176.906V208.692H72.6882V347H-10.5888V5.12599H211.97ZM468.558 286.612H340.964L320.51 347H233.337L357.035 5.12599H453.461L577.159 347H489.012L468.558 286.612ZM447.13 222.328L404.761 97.169L362.879 222.328H447.13ZM858.307 405.44L814.477 346.513C801.49 349.11 788.828 350.409 776.491 350.409C744.349 350.409 714.804 342.942 687.857 328.007C661.234 313.072 639.968 292.294 624.06 265.671C608.476 238.724 600.684 208.53 600.684 175.089C600.684 141.648 608.476 111.617 624.06 84.994C639.968 58.3713 661.234 37.5927 687.857 22.658C714.804 7.72333 744.349 0.255994 776.491 0.255994C808.633 0.255994 838.015 7.72333 864.638 22.658C891.585 37.5927 912.688 58.3713 927.948 84.994C943.532 111.617 951.324 141.648 951.324 175.089C951.324 204.309 945.317 231.094 933.305 255.444C921.617 279.469 905.221 299.436 884.118 315.345L959.116 405.44H858.307ZM685.909 175.089C685.909 205.283 694.025 229.471 710.259 247.652C726.817 265.509 748.894 274.437 776.491 274.437C803.763 274.437 825.515 265.346 841.749 247.165C858.307 228.984 866.586 204.958 866.586 175.089C866.586 144.895 858.307 120.87 841.749 103.013C825.515 84.8316 803.763 75.741 776.491 75.741C748.894 75.741 726.817 84.6693 710.259 102.526C694.025 120.383 685.909 144.57 685.909 175.089ZM1122.3 350.409C1097.3 350.409 1074.9 346.351 1055.1 338.234C1035.29 330.117 1019.38 318.105 1007.37 302.196C995.683 286.287 989.514 267.132 988.865 244.73H1077.5C1078.8 257.392 1083.18 267.132 1090.65 273.95C1098.11 280.443 1107.85 283.69 1119.87 283.69C1132.2 283.69 1141.94 280.93 1149.09 275.411C1156.23 269.567 1159.8 261.613 1159.8 251.548C1159.8 243.107 1156.88 236.126 1151.04 230.607C1145.52 225.088 1138.54 220.542 1130.09 216.971C1121.98 213.4 1110.29 209.341 1095.03 204.796C1072.95 197.978 1054.93 191.16 1040.97 184.342C1027.01 177.524 1015 167.459 1004.94 154.148C994.871 140.837 989.839 123.467 989.839 102.039C989.839 70.2217 1001.36 45.3847 1024.42 27.528C1047.47 9.34666 1077.5 0.255994 1114.51 0.255994C1152.17 0.255994 1182.53 9.34666 1205.58 27.528C1228.63 45.3847 1240.97 70.384 1242.59 102.526H1152.5C1151.85 91.4873 1147.79 82.8837 1140.32 76.715C1132.85 70.2217 1123.28 66.975 1111.59 66.975C1101.52 66.975 1093.41 69.7346 1087.24 75.254C1081.07 80.4486 1077.99 88.0783 1077.99 98.143C1077.99 109.182 1083.18 117.785 1093.57 123.954C1103.96 130.123 1120.19 136.778 1142.27 143.921C1164.35 151.388 1182.2 158.531 1195.84 165.349C1209.8 172.167 1221.81 182.069 1231.88 195.056C1241.94 208.043 1246.97 224.763 1246.97 245.217C1246.97 264.697 1241.94 282.391 1231.88 298.3C1222.14 314.209 1207.85 326.871 1189.02 336.286C1170.19 345.701 1147.95 350.409 1122.3 350.409Z" fill="#4E4E4E" fill-opacity="0.25"/>
</g>
</svg>
