<svg width="1440" height="578" viewBox="0 0 1440 578" fill="none" xmlns="http://www.w3.org/2000/svg">
<rect width="1440" height="576" fill="#001946"/>
<g opacity="0.58">
<path d="M78.288 385.16V432.872H155.232V477.224H78.288V528.968H165.312V575H20.832V339.128H165.312V385.16H78.288ZM347.093 575L299.045 502.76L256.709 575H191.525L267.125 455.048L189.845 339.128H256.709L304.085 410.36L345.749 339.128H410.933L336.005 458.072L413.957 575H347.093ZM622.561 415.064C622.561 428.728 619.425 441.272 613.153 452.696C606.881 463.896 597.249 472.968 584.257 479.912C571.265 486.856 555.137 490.328 535.873 490.328H500.257V575H442.801V339.128H535.873C554.689 339.128 570.593 342.376 583.585 348.872C596.577 355.368 606.321 364.328 612.817 375.752C619.313 387.176 622.561 400.28 622.561 415.064ZM531.505 444.632C542.481 444.632 550.657 442.056 556.033 436.904C561.409 431.752 564.097 424.472 564.097 415.064C564.097 405.656 561.409 398.376 556.033 393.224C550.657 388.072 542.481 385.496 531.505 385.496H500.257V444.632H531.505ZM709.929 385.16V432.872H786.873V477.224H709.929V528.968H796.953V575H652.473V339.128H796.953V385.16H709.929ZM954.542 575L905.486 485.96H891.71V575H834.254V339.128H930.686C949.278 339.128 965.07 342.376 978.062 348.872C991.278 355.368 1001.13 364.328 1007.63 375.752C1014.13 386.952 1017.37 399.496 1017.37 413.384C1017.37 429.064 1012.89 443.064 1003.93 455.384C995.198 467.704 982.206 476.44 964.958 481.592L1019.39 575H954.542ZM891.71 445.304H927.326C937.854 445.304 945.694 442.728 950.846 437.576C956.222 432.424 958.91 425.144 958.91 415.736C958.91 406.776 956.222 399.72 950.846 394.568C945.694 389.416 937.854 386.84 927.326 386.84H891.71V445.304ZM1223.12 339.128V385.16H1160.63V575H1103.17V385.16H1040.67V339.128H1223.12ZM1337.3 577.352C1320.05 577.352 1304.6 574.552 1290.93 568.952C1277.27 563.352 1266.29 555.064 1258.01 544.088C1249.94 533.112 1245.69 519.896 1245.24 504.44H1306.39C1307.29 513.176 1310.31 519.896 1315.46 524.6C1320.61 529.08 1327.33 531.32 1335.62 531.32C1344.13 531.32 1350.85 529.416 1355.78 525.608C1360.71 521.576 1363.17 516.088 1363.17 509.144C1363.17 503.32 1361.16 498.504 1357.13 494.696C1353.32 490.888 1348.5 487.752 1342.68 485.288C1337.08 482.824 1329.01 480.024 1318.49 476.888C1303.25 472.184 1290.82 467.48 1281.19 462.776C1271.56 458.072 1263.27 451.128 1256.33 441.944C1249.38 432.76 1245.91 420.776 1245.91 405.992C1245.91 384.04 1253.86 366.904 1269.77 354.584C1285.67 342.04 1306.39 335.768 1331.93 335.768C1357.91 335.768 1378.85 342.04 1394.76 354.584C1410.66 366.904 1419.17 384.152 1420.29 406.328H1358.13C1357.69 398.712 1354.89 392.776 1349.73 388.52C1344.58 384.04 1337.97 381.8 1329.91 381.8C1322.97 381.8 1317.37 383.704 1313.11 387.512C1308.85 391.096 1306.73 396.36 1306.73 403.304C1306.73 410.92 1310.31 416.856 1317.48 421.112C1324.65 425.368 1335.85 429.96 1351.08 434.888C1366.31 440.04 1378.63 444.968 1388.04 449.672C1397.67 454.376 1405.96 461.208 1412.9 470.168C1419.85 479.128 1423.32 490.664 1423.32 504.776C1423.32 518.216 1419.85 530.424 1412.9 541.4C1406.18 552.376 1396.33 561.112 1383.33 567.608C1370.34 574.104 1355 577.352 1337.3 577.352Z" fill="#878787" fill-opacity="0.2"/>
</g>
</svg>
