<svg width="483" height="156" viewBox="0 0 483 156" fill="none" xmlns="http://www.w3.org/2000/svg">
<path d="M4.45056 40.7654L4.45056 3.53073L44.0123 3.53073V40.7654H4.45056Z" stroke="#DDDDDD" stroke-width="0.2"/>
<circle cx="4.45046" cy="3.53078" r="3.49074" fill="#D9D9D9"/>
<circle cx="4.45046" cy="40.7653" r="3.49074" fill="#D9D9D9"/>
<circle cx="44.0124" cy="3.53084" r="3.49074" fill="#D9D9D9"/>
<circle cx="44.0121" cy="40.7653" r="3.49074" fill="#D9D9D9"/>
<path d="M4.45056 115.235L4.45056 78.0001H44.0123V115.235H4.45056Z" stroke="#DDDDDD" stroke-width="0.2"/>
<circle cx="4.45046" cy="78.0002" r="3.49074" fill="#D9D9D9"/>
<circle cx="4.45046" cy="115.235" r="3.49074" fill="#D9D9D9"/>
<circle cx="44.0121" cy="78.0002" r="3.49074" fill="#D9D9D9"/>
<circle cx="44.0121" cy="115.235" r="3.49074" fill="#D9D9D9"/>
<path d="M4.45056 77.9997L4.45056 40.7651H44.0123V77.9997H4.45056Z" stroke="#DDDDDD" stroke-width="0.2"/>
<circle cx="4.45046" cy="40.7653" r="3.49074" fill="#D9D9D9"/>
<circle cx="4.45046" cy="77.9997" r="3.49074" fill="#D9D9D9"/>
<circle cx="44.0124" cy="40.7652" r="3.49074" fill="#D9D9D9"/>
<circle cx="44.0121" cy="77.9997" r="3.49074" fill="#D9D9D9"/>
<path d="M4.45056 152.469L4.45056 115.234H44.0123V152.469H4.45056Z" stroke="#DDDDDD" stroke-width="0.2"/>
<circle cx="4.45046" cy="115.235" r="3.49074" fill="#D9D9D9"/>
<circle cx="4.45046" cy="152.469" r="3.49074" fill="#D9D9D9"/>
<circle cx="44.0124" cy="115.235" r="3.49074" fill="#D9D9D9"/>
<circle cx="44.0121" cy="152.469" r="3.49074" fill="#D9D9D9"/>
<path d="M241.973 40.7654V3.53073L281.534 3.53073V40.7654H241.973Z" stroke="#DDDDDD" stroke-width="0.2"/>
<circle cx="241.972" cy="3.53078" r="3.49074" fill="#D9D9D9"/>
<circle cx="241.972" cy="40.7653" r="3.49074" fill="#D9D9D9"/>
<circle cx="281.534" cy="3.53084" r="3.49074" fill="#D9D9D9"/>
<circle cx="281.534" cy="40.7653" r="3.49074" fill="#D9D9D9"/>
<path d="M241.972 115.234V77.9998H281.534V115.234H241.972Z" stroke="#DDDDDD" stroke-width="0.2"/>
<circle cx="241.972" cy="77.9998" r="3.49074" fill="#D9D9D9"/>
<circle cx="241.972" cy="115.235" r="3.49074" fill="#D9D9D9"/>
<circle cx="281.534" cy="77.9999" r="3.49074" fill="#D9D9D9"/>
<circle cx="281.534" cy="115.235" r="3.49074" fill="#D9D9D9"/>
<path d="M241.972 77.9998V40.7651H281.534V77.9998H241.972Z" stroke="#DDDDDD" stroke-width="0.2"/>
<circle cx="241.972" cy="40.7653" r="3.49074" fill="#D9D9D9"/>
<circle cx="241.972" cy="77.9997" r="3.49074" fill="#D9D9D9"/>
<circle cx="281.534" cy="40.7653" r="3.49074" fill="#D9D9D9"/>
<circle cx="281.534" cy="77.9997" r="3.49074" fill="#D9D9D9"/>
<path d="M241.972 152.469V115.234H281.534V152.469H241.972Z" stroke="#DDDDDD" stroke-width="0.2"/>
<circle cx="241.972" cy="115.235" r="3.49074" fill="#D9D9D9"/>
<circle cx="241.972" cy="152.469" r="3.49074" fill="#D9D9D9"/>
<circle cx="281.534" cy="115.235" r="3.49074" fill="#D9D9D9"/>
<circle cx="281.534" cy="152.469" r="3.49074" fill="#D9D9D9"/>
<path d="M123.212 40.7654V3.53073L162.773 3.53073V40.7654H123.212Z" stroke="#DDDDDD" stroke-width="0.2"/>
<circle cx="123.212" cy="3.53078" r="3.49074" fill="#D9D9D9"/>
<circle cx="123.211" cy="40.7653" r="3.49074" fill="#D9D9D9"/>
<circle cx="162.773" cy="3.53084" r="3.49074" fill="#D9D9D9"/>
<circle cx="162.773" cy="40.7653" r="3.49074" fill="#D9D9D9"/>
<path d="M123.212 115.235V78.0001H162.773V115.235H123.212Z" stroke="#DDDDDD" stroke-width="0.2"/>
<circle cx="123.211" cy="78.0002" r="3.49074" fill="#D9D9D9"/>
<circle cx="123.211" cy="115.235" r="3.49074" fill="#D9D9D9"/>
<circle cx="162.773" cy="78.0002" r="3.49074" fill="#D9D9D9"/>
<circle cx="162.773" cy="115.235" r="3.49074" fill="#D9D9D9"/>
<path d="M123.212 77.9997V40.7651H162.773V77.9997H123.212Z" stroke="#DDDDDD" stroke-width="0.2"/>
<circle cx="123.211" cy="40.7653" r="3.49074" fill="#D9D9D9"/>
<circle cx="123.211" cy="77.9997" r="3.49074" fill="#D9D9D9"/>
<circle cx="162.773" cy="40.7652" r="3.49074" fill="#D9D9D9"/>
<circle cx="162.773" cy="77.9997" r="3.49074" fill="#D9D9D9"/>
<path d="M123.212 152.469V115.234H162.773V152.469H123.212Z" stroke="#DDDDDD" stroke-width="0.2"/>
<circle cx="123.211" cy="115.235" r="3.49074" fill="#D9D9D9"/>
<circle cx="123.211" cy="152.469" r="3.49074" fill="#D9D9D9"/>
<circle cx="162.773" cy="115.235" r="3.49074" fill="#D9D9D9"/>
<circle cx="162.773" cy="152.469" r="3.49074" fill="#D9D9D9"/>
<path d="M360.733 40.7654V3.53076L400.295 3.53076V40.7654H360.733Z" stroke="#DDDDDD" stroke-width="0.2"/>
<circle cx="360.733" cy="3.53081" r="3.49074" fill="#D9D9D9"/>
<circle cx="360.733" cy="40.7654" r="3.49074" fill="#D9D9D9"/>
<circle cx="400.295" cy="3.53088" r="3.49074" fill="#D9D9D9"/>
<circle cx="400.295" cy="40.7654" r="3.49074" fill="#D9D9D9"/>
<path d="M360.733 115.234V77.9998H400.295V115.234H360.733Z" stroke="#DDDDDD" stroke-width="0.2"/>
<circle cx="360.733" cy="77.9998" r="3.49074" fill="#D9D9D9"/>
<circle cx="360.733" cy="115.235" r="3.49074" fill="#D9D9D9"/>
<circle cx="400.295" cy="77.9999" r="3.49074" fill="#D9D9D9"/>
<circle cx="400.295" cy="115.235" r="3.49074" fill="#D9D9D9"/>
<path d="M360.733 77.9998V40.7651H400.295V77.9998H360.733Z" stroke="#DDDDDD" stroke-width="0.2"/>
<circle cx="360.733" cy="40.7653" r="3.49074" fill="#D9D9D9"/>
<circle cx="360.733" cy="77.9997" r="3.49074" fill="#D9D9D9"/>
<circle cx="400.295" cy="40.7653" r="3.49074" fill="#D9D9D9"/>
<circle cx="400.295" cy="77.9997" r="3.49074" fill="#D9D9D9"/>
<path d="M360.733 152.469V115.234H400.295V152.469H360.733Z" stroke="#DDDDDD" stroke-width="0.2"/>
<circle cx="360.733" cy="115.235" r="3.49074" fill="#D9D9D9"/>
<circle cx="360.733" cy="152.469" r="3.49074" fill="#D9D9D9"/>
<circle cx="400.295" cy="115.235" r="3.49074" fill="#D9D9D9"/>
<circle cx="400.295" cy="152.469" r="3.49074" fill="#D9D9D9"/>
<path d="M44.0378 40.7654V3.53073L83.5996 3.53073V40.7654H44.0378Z" stroke="#DDDDDD" stroke-width="0.2"/>
<circle cx="44.0377" cy="3.53078" r="3.49074" fill="#D9D9D9"/>
<circle cx="44.0377" cy="40.7653" r="3.49074" fill="#D9D9D9"/>
<circle cx="83.5996" cy="3.53084" r="3.49074" fill="#D9D9D9"/>
<circle cx="83.5996" cy="40.7653" r="3.49074" fill="#D9D9D9"/>
<path d="M44.0378 115.235V78.0001H83.5996V115.235H44.0378Z" stroke="#DDDDDD" stroke-width="0.2"/>
<circle cx="44.0377" cy="78.0002" r="3.49074" fill="#D9D9D9"/>
<circle cx="44.0377" cy="115.235" r="3.49074" fill="#D9D9D9"/>
<circle cx="83.5996" cy="78.0002" r="3.49074" fill="#D9D9D9"/>
<circle cx="83.5996" cy="115.235" r="3.49074" fill="#D9D9D9"/>
<path d="M44.0378 77.9997V40.7651H83.5996V77.9997H44.0378Z" stroke="#DDDDDD" stroke-width="0.2"/>
<circle cx="44.0377" cy="40.7653" r="3.49074" fill="#D9D9D9"/>
<circle cx="44.0377" cy="77.9997" r="3.49074" fill="#D9D9D9"/>
<circle cx="83.5996" cy="40.7652" r="3.49074" fill="#D9D9D9"/>
<circle cx="83.5996" cy="77.9997" r="3.49074" fill="#D9D9D9"/>
<path d="M44.0378 152.469V115.234H83.5996V152.469H44.0378Z" stroke="#DDDDDD" stroke-width="0.2"/>
<circle cx="44.0377" cy="115.235" r="3.49074" fill="#D9D9D9"/>
<circle cx="44.0377" cy="152.469" r="3.49074" fill="#D9D9D9"/>
<circle cx="83.5996" cy="115.235" r="3.49074" fill="#D9D9D9"/>
<circle cx="83.5996" cy="152.469" r="3.49074" fill="#D9D9D9"/>
<path d="M281.559 40.7654V3.53073L321.121 3.53073V40.7654H281.559Z" stroke="#DDDDDD" stroke-width="0.2"/>
<circle cx="281.559" cy="3.53078" r="3.49074" fill="#D9D9D9"/>
<circle cx="281.559" cy="40.7653" r="3.49074" fill="#D9D9D9"/>
<circle cx="321.121" cy="3.53084" r="3.49074" fill="#D9D9D9"/>
<circle cx="321.121" cy="40.7653" r="3.49074" fill="#D9D9D9"/>
<path d="M281.559 115.234V77.9998H321.121V115.234H281.559Z" stroke="#DDDDDD" stroke-width="0.2"/>
<circle cx="281.559" cy="77.9998" r="3.49074" fill="#D9D9D9"/>
<circle cx="281.559" cy="115.235" r="3.49074" fill="#D9D9D9"/>
<circle cx="321.121" cy="77.9999" r="3.49074" fill="#D9D9D9"/>
<circle cx="321.121" cy="115.235" r="3.49074" fill="#D9D9D9"/>
<path d="M281.559 77.9998V40.7651H321.121V77.9998H281.559Z" stroke="#DDDDDD" stroke-width="0.2"/>
<circle cx="281.559" cy="40.7653" r="3.49074" fill="#D9D9D9"/>
<circle cx="281.559" cy="77.9997" r="3.49074" fill="#D9D9D9"/>
<circle cx="321.121" cy="40.7653" r="3.49074" fill="#D9D9D9"/>
<circle cx="321.121" cy="77.9997" r="3.49074" fill="#D9D9D9"/>
<path d="M281.559 152.469V115.234H321.121V152.469H281.559Z" stroke="#DDDDDD" stroke-width="0.2"/>
<circle cx="281.559" cy="115.235" r="3.49074" fill="#D9D9D9"/>
<circle cx="281.559" cy="152.469" r="3.49074" fill="#D9D9D9"/>
<circle cx="321.121" cy="115.235" r="3.49074" fill="#D9D9D9"/>
<circle cx="321.121" cy="152.469" r="3.49074" fill="#D9D9D9"/>
<path d="M162.799 40.7654V3.53073L202.36 3.53073V40.7654H162.799Z" stroke="#DDDDDD" stroke-width="0.2"/>
<circle cx="162.798" cy="3.53078" r="3.49074" fill="#D9D9D9"/>
<circle cx="162.798" cy="40.7653" r="3.49074" fill="#D9D9D9"/>
<circle cx="202.36" cy="3.53084" r="3.49074" fill="#D9D9D9"/>
<circle cx="202.36" cy="40.7653" r="3.49074" fill="#D9D9D9"/>
<path d="M162.798 115.235V78.0001H202.36V115.235H162.798Z" stroke="#DDDDDD" stroke-width="0.2"/>
<circle cx="162.798" cy="78.0002" r="3.49074" fill="#D9D9D9"/>
<circle cx="162.798" cy="115.235" r="3.49074" fill="#D9D9D9"/>
<circle cx="202.36" cy="78.0002" r="3.49074" fill="#D9D9D9"/>
<circle cx="202.36" cy="115.235" r="3.49074" fill="#D9D9D9"/>
<path d="M162.799 77.9998V40.7651H202.36V77.9998H162.799Z" stroke="#DDDDDD" stroke-width="0.2"/>
<circle cx="162.798" cy="40.7653" r="3.49074" fill="#D9D9D9"/>
<circle cx="162.798" cy="77.9997" r="3.49074" fill="#D9D9D9"/>
<circle cx="202.36" cy="40.7653" r="3.49074" fill="#D9D9D9"/>
<circle cx="202.36" cy="77.9997" r="3.49074" fill="#D9D9D9"/>
<path d="M162.799 152.469V115.234H202.36V152.469H162.799Z" stroke="#DDDDDD" stroke-width="0.2"/>
<circle cx="162.798" cy="115.235" r="3.49074" fill="#D9D9D9"/>
<circle cx="162.799" cy="152.469" r="3.49074" fill="#D9D9D9"/>
<circle cx="202.36" cy="115.235" r="3.49074" fill="#D9D9D9"/>
<circle cx="202.36" cy="152.469" r="3.49074" fill="#D9D9D9"/>
<path d="M400.32 40.7654V3.53076L439.882 3.53076V40.7654H400.32Z" stroke="#DDDDDD" stroke-width="0.2"/>
<circle cx="400.32" cy="3.53081" r="3.49074" fill="#D9D9D9"/>
<circle cx="400.32" cy="40.7654" r="3.49074" fill="#D9D9D9"/>
<circle cx="439.882" cy="3.53088" r="3.49074" fill="#D9D9D9"/>
<circle cx="439.882" cy="40.7654" r="3.49074" fill="#D9D9D9"/>
<path d="M400.32 115.234V77.9998H439.882V115.234H400.32Z" stroke="#DDDDDD" stroke-width="0.2"/>
<circle cx="400.32" cy="77.9998" r="3.49074" fill="#D9D9D9"/>
<circle cx="400.321" cy="115.235" r="3.49074" fill="#D9D9D9"/>
<circle cx="439.882" cy="77.9999" r="3.49074" fill="#D9D9D9"/>
<circle cx="439.882" cy="115.235" r="3.49074" fill="#D9D9D9"/>
<path d="M400.32 77.9998V40.7651H439.882V77.9998H400.32Z" stroke="#DDDDDD" stroke-width="0.2"/>
<circle cx="400.32" cy="40.7653" r="3.49074" fill="#D9D9D9"/>
<circle cx="400.321" cy="77.9997" r="3.49074" fill="#D9D9D9"/>
<circle cx="439.882" cy="40.7653" r="3.49074" fill="#D9D9D9"/>
<circle cx="439.882" cy="77.9997" r="3.49074" fill="#D9D9D9"/>
<path d="M400.32 152.469V115.234H439.882V152.469H400.32Z" stroke="#DDDDDD" stroke-width="0.2"/>
<circle cx="400.32" cy="115.235" r="3.49074" fill="#D9D9D9"/>
<circle cx="400.321" cy="152.469" r="3.49074" fill="#D9D9D9"/>
<circle cx="439.882" cy="115.235" r="3.49074" fill="#D9D9D9"/>
<circle cx="439.882" cy="152.469" r="3.49074" fill="#D9D9D9"/>
<path d="M83.6244 40.7654V3.53073L123.186 3.53073V40.7654H83.6244Z" stroke="#DDDDDD" stroke-width="0.2"/>
<circle cx="83.6245" cy="3.53078" r="3.49074" fill="#D9D9D9"/>
<circle cx="83.6245" cy="40.7653" r="3.49074" fill="#D9D9D9"/>
<circle cx="123.186" cy="3.53084" r="3.49074" fill="#D9D9D9"/>
<circle cx="123.186" cy="40.7653" r="3.49074" fill="#D9D9D9"/>
<path d="M83.6243 115.235V78.0001H123.186V115.235H83.6243Z" stroke="#DDDDDD" stroke-width="0.2"/>
<circle cx="83.6244" cy="78.0002" r="3.49074" fill="#D9D9D9"/>
<circle cx="83.6244" cy="115.235" r="3.49074" fill="#D9D9D9"/>
<circle cx="123.186" cy="78.0002" r="3.49074" fill="#D9D9D9"/>
<circle cx="123.186" cy="115.235" r="3.49074" fill="#D9D9D9"/>
<path d="M83.6243 77.9997V40.7651H123.186V77.9997H83.6243Z" stroke="#DDDDDD" stroke-width="0.2"/>
<circle cx="83.6244" cy="40.7653" r="3.49074" fill="#D9D9D9"/>
<circle cx="83.6244" cy="77.9997" r="3.49074" fill="#D9D9D9"/>
<circle cx="123.186" cy="40.7652" r="3.49074" fill="#D9D9D9"/>
<circle cx="123.186" cy="77.9997" r="3.49074" fill="#D9D9D9"/>
<path d="M83.6243 152.469V115.234H123.186V152.469H83.6243Z" stroke="#DDDDDD" stroke-width="0.2"/>
<circle cx="83.6244" cy="115.235" r="3.49074" fill="#D9D9D9"/>
<circle cx="83.6244" cy="152.469" r="3.49074" fill="#D9D9D9"/>
<circle cx="123.186" cy="115.235" r="3.49074" fill="#D9D9D9"/>
<circle cx="123.186" cy="152.469" r="3.49074" fill="#D9D9D9"/>
<path d="M321.146 40.7654V3.53073L360.708 3.53073V40.7654H321.146Z" stroke="#DDDDDD" stroke-width="0.2"/>
<circle cx="321.146" cy="3.53078" r="3.49074" fill="#D9D9D9"/>
<circle cx="321.147" cy="40.7653" r="3.49074" fill="#D9D9D9"/>
<circle cx="360.708" cy="3.53084" r="3.49074" fill="#D9D9D9"/>
<circle cx="360.708" cy="40.7653" r="3.49074" fill="#D9D9D9"/>
<path d="M321.146 115.234V77.9998H360.708V115.234H321.146Z" stroke="#DDDDDD" stroke-width="0.2"/>
<circle cx="321.146" cy="77.9998" r="3.49074" fill="#D9D9D9"/>
<circle cx="321.146" cy="115.235" r="3.49074" fill="#D9D9D9"/>
<circle cx="360.708" cy="77.9999" r="3.49074" fill="#D9D9D9"/>
<circle cx="360.708" cy="115.235" r="3.49074" fill="#D9D9D9"/>
<path d="M321.146 77.9998V40.7651H360.708V77.9998H321.146Z" stroke="#DDDDDD" stroke-width="0.2"/>
<circle cx="321.146" cy="40.7653" r="3.49074" fill="#D9D9D9"/>
<circle cx="321.146" cy="77.9997" r="3.49074" fill="#D9D9D9"/>
<circle cx="360.708" cy="40.7653" r="3.49074" fill="#D9D9D9"/>
<circle cx="360.708" cy="77.9997" r="3.49074" fill="#D9D9D9"/>
<path d="M321.146 152.469V115.234H360.708V152.469H321.146Z" stroke="#DDDDDD" stroke-width="0.2"/>
<circle cx="321.146" cy="115.235" r="3.49074" fill="#D9D9D9"/>
<circle cx="321.146" cy="152.469" r="3.49074" fill="#D9D9D9"/>
<circle cx="360.708" cy="115.235" r="3.49074" fill="#D9D9D9"/>
<circle cx="360.708" cy="152.469" r="3.49074" fill="#D9D9D9"/>
<path d="M202.385 40.7654V3.53073L241.947 3.53073V40.7654H202.385Z" stroke="#DDDDDD" stroke-width="0.2"/>
<circle cx="202.385" cy="3.53078" r="3.49074" fill="#D9D9D9"/>
<circle cx="202.385" cy="40.7653" r="3.49074" fill="#D9D9D9"/>
<circle cx="241.947" cy="3.53084" r="3.49074" fill="#D9D9D9"/>
<circle cx="241.947" cy="40.7653" r="3.49074" fill="#D9D9D9"/>
<path d="M202.385 115.234V77.9998H241.947V115.234H202.385Z" stroke="#DDDDDD" stroke-width="0.2"/>
<circle cx="202.385" cy="77.9998" r="3.49074" fill="#D9D9D9"/>
<circle cx="202.385" cy="115.235" r="3.49074" fill="#D9D9D9"/>
<circle cx="241.947" cy="77.9999" r="3.49074" fill="#D9D9D9"/>
<circle cx="241.947" cy="115.235" r="3.49074" fill="#D9D9D9"/>
<path d="M202.385 77.9998V40.7651H241.947V77.9998H202.385Z" stroke="#DDDDDD" stroke-width="0.2"/>
<circle cx="202.385" cy="40.7653" r="3.49074" fill="#D9D9D9"/>
<circle cx="202.385" cy="77.9997" r="3.49074" fill="#D9D9D9"/>
<circle cx="241.947" cy="40.7653" r="3.49074" fill="#D9D9D9"/>
<circle cx="241.947" cy="77.9997" r="3.49074" fill="#D9D9D9"/>
<path d="M202.385 152.469V115.234H241.947V152.469H202.385Z" stroke="#DDDDDD" stroke-width="0.2"/>
<circle cx="202.385" cy="115.235" r="3.49074" fill="#D9D9D9"/>
<circle cx="202.385" cy="152.469" r="3.49074" fill="#D9D9D9"/>
<circle cx="241.947" cy="115.235" r="3.49074" fill="#D9D9D9"/>
<circle cx="241.947" cy="152.469" r="3.49074" fill="#D9D9D9"/>
<path d="M439.907 40.7654V3.53076L479.469 3.53076V40.7654H439.907Z" stroke="#DDDDDD" stroke-width="0.2"/>
<circle cx="439.907" cy="3.53081" r="3.49074" fill="#D9D9D9"/>
<circle cx="439.907" cy="40.7654" r="3.49074" fill="#D9D9D9"/>
<circle cx="479.469" cy="3.53088" r="3.49074" fill="#D9D9D9"/>
<circle cx="479.469" cy="40.7654" r="3.49074" fill="#D9D9D9"/>
<path d="M439.907 115.234V77.9998H479.469V115.234H439.907Z" stroke="#DDDDDD" stroke-width="0.2"/>
<circle cx="439.907" cy="77.9998" r="3.49074" fill="#D9D9D9"/>
<circle cx="439.907" cy="115.235" r="3.49074" fill="#D9D9D9"/>
<circle cx="479.469" cy="77.9999" r="3.49074" fill="#D9D9D9"/>
<circle cx="479.469" cy="115.235" r="3.49074" fill="#D9D9D9"/>
<path d="M439.907 77.9998V40.7651H479.469V77.9998H439.907Z" stroke="#DDDDDD" stroke-width="0.2"/>
<circle cx="439.907" cy="40.7653" r="3.49074" fill="#D9D9D9"/>
<circle cx="439.907" cy="77.9997" r="3.49074" fill="#D9D9D9"/>
<circle cx="479.469" cy="40.7653" r="3.49074" fill="#D9D9D9"/>
<circle cx="479.469" cy="77.9997" r="3.49074" fill="#D9D9D9"/>
<path d="M439.907 152.469V115.234H479.469V152.469H439.907Z" stroke="#DDDDDD" stroke-width="0.2"/>
<circle cx="439.907" cy="115.235" r="3.49074" fill="#D9D9D9"/>
<circle cx="439.907" cy="152.469" r="3.49074" fill="#D9D9D9"/>
<circle cx="479.469" cy="115.235" r="3.49074" fill="#D9D9D9"/>
<circle cx="479.469" cy="152.469" r="3.49074" fill="#D9D9D9"/>
</svg>
