<svg width="156" height="482" viewBox="0 0 156 482" fill="none" xmlns="http://www.w3.org/2000/svg">
<path d="M40.7446 478.509L3.51001 478.509L3.51001 438.947L40.7446 438.947L40.7446 478.509Z" stroke="#DDDDDD" stroke-width="0.2"/>
<circle cx="3.51003" cy="478.509" r="3.49074" transform="rotate(-90 3.51003 478.509)" fill="#D9D9D9"/>
<circle cx="40.7447" cy="478.509" r="3.49074" transform="rotate(-90 40.7447 478.509)" fill="#D9D9D9"/>
<circle cx="3.51003" cy="438.947" r="3.49074" transform="rotate(-90 3.51003 438.947)" fill="#D9D9D9"/>
<circle cx="40.7447" cy="438.948" r="3.49074" transform="rotate(-90 40.7447 438.948)" fill="#D9D9D9"/>
<path d="M115.214 478.509L77.9795 478.509L77.9795 438.947L115.214 438.947L115.214 478.509Z" stroke="#DDDDDD" stroke-width="0.2"/>
<circle cx="77.9795" cy="478.509" r="3.49074" transform="rotate(-90 77.9795 478.509)" fill="#D9D9D9"/>
<circle cx="115.214" cy="478.509" r="3.49074" transform="rotate(-90 115.214 478.509)" fill="#D9D9D9"/>
<circle cx="77.9795" cy="438.948" r="3.49074" transform="rotate(-90 77.9795 438.948)" fill="#D9D9D9"/>
<circle cx="115.214" cy="438.948" r="3.49074" transform="rotate(-90 115.214 438.948)" fill="#D9D9D9"/>
<path d="M77.979 478.509L40.7444 478.509L40.7444 438.947L77.979 438.947L77.979 478.509Z" stroke="#DDDDDD" stroke-width="0.2"/>
<circle cx="40.7447" cy="478.509" r="3.49074" transform="rotate(-90 40.7447 478.509)" fill="#D9D9D9"/>
<circle cx="77.979" cy="478.509" r="3.49074" transform="rotate(-90 77.979 478.509)" fill="#D9D9D9"/>
<circle cx="40.7447" cy="438.947" r="3.49074" transform="rotate(-90 40.7447 438.947)" fill="#D9D9D9"/>
<circle cx="77.979" cy="438.948" r="3.49074" transform="rotate(-90 77.979 438.948)" fill="#D9D9D9"/>
<path d="M152.448 478.509L115.214 478.509L115.214 438.947L152.448 438.947L152.448 478.509Z" stroke="#DDDDDD" stroke-width="0.2"/>
<circle cx="115.214" cy="478.509" r="3.49074" transform="rotate(-90 115.214 478.509)" fill="#D9D9D9"/>
<circle cx="152.448" cy="478.509" r="3.49074" transform="rotate(-90 152.448 478.509)" fill="#D9D9D9"/>
<circle cx="115.214" cy="438.947" r="3.49074" transform="rotate(-90 115.214 438.947)" fill="#D9D9D9"/>
<circle cx="152.448" cy="438.948" r="3.49074" transform="rotate(-90 152.448 438.948)" fill="#D9D9D9"/>
<path d="M40.7446 240.987L3.51001 240.987L3.51001 201.425L40.7446 201.425L40.7446 240.987Z" stroke="#DDDDDD" stroke-width="0.2"/>
<circle cx="3.51003" cy="240.988" r="3.49074" transform="rotate(-90 3.51003 240.988)" fill="#D9D9D9"/>
<circle cx="40.7447" cy="240.987" r="3.49074" transform="rotate(-90 40.7447 240.987)" fill="#D9D9D9"/>
<circle cx="3.51003" cy="201.425" r="3.49074" transform="rotate(-90 3.51003 201.425)" fill="#D9D9D9"/>
<circle cx="40.7447" cy="201.425" r="3.49074" transform="rotate(-90 40.7447 201.425)" fill="#D9D9D9"/>
<path d="M115.214 240.987L77.979 240.987L77.979 201.426L115.214 201.426L115.214 240.987Z" stroke="#DDDDDD" stroke-width="0.2"/>
<circle cx="77.979" cy="240.988" r="3.49074" transform="rotate(-90 77.979 240.988)" fill="#D9D9D9"/>
<circle cx="115.214" cy="240.987" r="3.49074" transform="rotate(-90 115.214 240.987)" fill="#D9D9D9"/>
<circle cx="77.979" cy="201.426" r="3.49074" transform="rotate(-90 77.979 201.426)" fill="#D9D9D9"/>
<circle cx="115.214" cy="201.426" r="3.49074" transform="rotate(-90 115.214 201.426)" fill="#D9D9D9"/>
<path d="M77.979 240.987L40.7444 240.987L40.7444 201.426L77.979 201.426L77.979 240.987Z" stroke="#DDDDDD" stroke-width="0.2"/>
<circle cx="40.7447" cy="240.988" r="3.49074" transform="rotate(-90 40.7447 240.988)" fill="#D9D9D9"/>
<circle cx="77.979" cy="240.987" r="3.49074" transform="rotate(-90 77.979 240.987)" fill="#D9D9D9"/>
<circle cx="40.7447" cy="201.426" r="3.49074" transform="rotate(-90 40.7447 201.426)" fill="#D9D9D9"/>
<circle cx="77.979" cy="201.426" r="3.49074" transform="rotate(-90 77.979 201.426)" fill="#D9D9D9"/>
<path d="M152.448 240.987L115.214 240.987L115.214 201.426L152.448 201.426L152.448 240.987Z" stroke="#DDDDDD" stroke-width="0.2"/>
<circle cx="115.214" cy="240.988" r="3.49074" transform="rotate(-90 115.214 240.988)" fill="#D9D9D9"/>
<circle cx="152.448" cy="240.987" r="3.49074" transform="rotate(-90 152.448 240.987)" fill="#D9D9D9"/>
<circle cx="115.214" cy="201.426" r="3.49074" transform="rotate(-90 115.214 201.426)" fill="#D9D9D9"/>
<circle cx="152.448" cy="201.426" r="3.49074" transform="rotate(-90 152.448 201.426)" fill="#D9D9D9"/>
<path d="M40.7446 359.748L3.51001 359.748L3.51001 320.186L40.7446 320.186L40.7446 359.748Z" stroke="#DDDDDD" stroke-width="0.2"/>
<circle cx="3.51003" cy="359.748" r="3.49074" transform="rotate(-90 3.51003 359.748)" fill="#D9D9D9"/>
<circle cx="40.7447" cy="359.749" r="3.49074" transform="rotate(-90 40.7447 359.749)" fill="#D9D9D9"/>
<circle cx="3.51003" cy="320.186" r="3.49074" transform="rotate(-90 3.51003 320.186)" fill="#D9D9D9"/>
<circle cx="40.7447" cy="320.186" r="3.49074" transform="rotate(-90 40.7447 320.186)" fill="#D9D9D9"/>
<path d="M115.214 359.748L77.9795 359.748L77.9795 320.186L115.214 320.186L115.214 359.748Z" stroke="#DDDDDD" stroke-width="0.2"/>
<circle cx="77.9795" cy="359.749" r="3.49074" transform="rotate(-90 77.9795 359.749)" fill="#D9D9D9"/>
<circle cx="115.214" cy="359.749" r="3.49074" transform="rotate(-90 115.214 359.749)" fill="#D9D9D9"/>
<circle cx="77.9795" cy="320.186" r="3.49074" transform="rotate(-90 77.9795 320.186)" fill="#D9D9D9"/>
<circle cx="115.214" cy="320.186" r="3.49074" transform="rotate(-90 115.214 320.186)" fill="#D9D9D9"/>
<path d="M77.979 359.748L40.7444 359.748L40.7444 320.186L77.979 320.186L77.979 359.748Z" stroke="#DDDDDD" stroke-width="0.2"/>
<circle cx="40.7447" cy="359.749" r="3.49074" transform="rotate(-90 40.7447 359.749)" fill="#D9D9D9"/>
<circle cx="77.979" cy="359.749" r="3.49074" transform="rotate(-90 77.979 359.749)" fill="#D9D9D9"/>
<circle cx="40.7447" cy="320.186" r="3.49074" transform="rotate(-90 40.7447 320.186)" fill="#D9D9D9"/>
<circle cx="77.979" cy="320.186" r="3.49074" transform="rotate(-90 77.979 320.186)" fill="#D9D9D9"/>
<path d="M152.448 359.748L115.214 359.748L115.214 320.186L152.448 320.186L152.448 359.748Z" stroke="#DDDDDD" stroke-width="0.2"/>
<circle cx="115.214" cy="359.749" r="3.49074" transform="rotate(-90 115.214 359.749)" fill="#D9D9D9"/>
<circle cx="152.448" cy="359.749" r="3.49074" transform="rotate(-90 152.448 359.749)" fill="#D9D9D9"/>
<circle cx="115.214" cy="320.186" r="3.49074" transform="rotate(-90 115.214 320.186)" fill="#D9D9D9"/>
<circle cx="152.448" cy="320.186" r="3.49074" transform="rotate(-90 152.448 320.186)" fill="#D9D9D9"/>
<path d="M40.7446 122.227L3.51001 122.227L3.51001 82.665L40.7446 82.665L40.7446 122.227Z" stroke="#DDDDDD" stroke-width="0.2"/>
<circle cx="3.51003" cy="122.226" r="3.49074" transform="rotate(-90 3.51003 122.226)" fill="#D9D9D9"/>
<circle cx="40.7447" cy="122.227" r="3.49074" transform="rotate(-90 40.7447 122.227)" fill="#D9D9D9"/>
<circle cx="3.51003" cy="82.665" r="3.49074" transform="rotate(-90 3.51003 82.665)" fill="#D9D9D9"/>
<circle cx="40.7447" cy="82.665" r="3.49074" transform="rotate(-90 40.7447 82.665)" fill="#D9D9D9"/>
<path d="M115.214 122.226L77.979 122.226L77.979 82.6647L115.214 82.6647L115.214 122.226Z" stroke="#DDDDDD" stroke-width="0.2"/>
<circle cx="77.979" cy="122.226" r="3.49074" transform="rotate(-90 77.979 122.226)" fill="#D9D9D9"/>
<circle cx="115.214" cy="122.226" r="3.49074" transform="rotate(-90 115.214 122.226)" fill="#D9D9D9"/>
<circle cx="77.979" cy="82.6646" r="3.49074" transform="rotate(-90 77.979 82.6646)" fill="#D9D9D9"/>
<circle cx="115.214" cy="82.6646" r="3.49074" transform="rotate(-90 115.214 82.6646)" fill="#D9D9D9"/>
<path d="M77.979 122.226L40.7444 122.226L40.7444 82.6647L77.979 82.6647L77.979 122.226Z" stroke="#DDDDDD" stroke-width="0.2"/>
<circle cx="40.7447" cy="122.226" r="3.49074" transform="rotate(-90 40.7447 122.226)" fill="#D9D9D9"/>
<circle cx="77.979" cy="122.226" r="3.49074" transform="rotate(-90 77.979 122.226)" fill="#D9D9D9"/>
<circle cx="40.7447" cy="82.6646" r="3.49074" transform="rotate(-90 40.7447 82.6646)" fill="#D9D9D9"/>
<circle cx="77.979" cy="82.6646" r="3.49074" transform="rotate(-90 77.979 82.6646)" fill="#D9D9D9"/>
<path d="M152.448 122.226L115.214 122.226L115.214 82.6647L152.448 82.6647L152.448 122.226Z" stroke="#DDDDDD" stroke-width="0.2"/>
<circle cx="115.214" cy="122.226" r="3.49074" transform="rotate(-90 115.214 122.226)" fill="#D9D9D9"/>
<circle cx="152.448" cy="122.226" r="3.49074" transform="rotate(-90 152.448 122.226)" fill="#D9D9D9"/>
<circle cx="115.214" cy="82.6646" r="3.49074" transform="rotate(-90 115.214 82.6646)" fill="#D9D9D9"/>
<circle cx="152.448" cy="82.6646" r="3.49074" transform="rotate(-90 152.448 82.6646)" fill="#D9D9D9"/>
<path d="M40.7446 438.922L3.51001 438.922L3.51001 399.36L40.7446 399.36L40.7446 438.922Z" stroke="#DDDDDD" stroke-width="0.2"/>
<circle cx="3.51003" cy="438.922" r="3.49074" transform="rotate(-90 3.51003 438.922)" fill="#D9D9D9"/>
<circle cx="40.7447" cy="438.922" r="3.49074" transform="rotate(-90 40.7447 438.922)" fill="#D9D9D9"/>
<circle cx="3.51003" cy="399.36" r="3.49074" transform="rotate(-90 3.51003 399.36)" fill="#D9D9D9"/>
<circle cx="40.7447" cy="399.36" r="3.49074" transform="rotate(-90 40.7447 399.36)" fill="#D9D9D9"/>
<path d="M115.214 438.922L77.9795 438.922L77.9795 399.36L115.214 399.36L115.214 438.922Z" stroke="#DDDDDD" stroke-width="0.2"/>
<circle cx="77.9795" cy="438.922" r="3.49074" transform="rotate(-90 77.9795 438.922)" fill="#D9D9D9"/>
<circle cx="115.214" cy="438.922" r="3.49074" transform="rotate(-90 115.214 438.922)" fill="#D9D9D9"/>
<circle cx="77.9795" cy="399.36" r="3.49074" transform="rotate(-90 77.9795 399.36)" fill="#D9D9D9"/>
<circle cx="115.214" cy="399.36" r="3.49074" transform="rotate(-90 115.214 399.36)" fill="#D9D9D9"/>
<path d="M77.979 438.922L40.7444 438.922L40.7444 399.36L77.979 399.36L77.979 438.922Z" stroke="#DDDDDD" stroke-width="0.2"/>
<circle cx="40.7447" cy="438.922" r="3.49074" transform="rotate(-90 40.7447 438.922)" fill="#D9D9D9"/>
<circle cx="77.979" cy="438.922" r="3.49074" transform="rotate(-90 77.979 438.922)" fill="#D9D9D9"/>
<circle cx="40.7447" cy="399.36" r="3.49074" transform="rotate(-90 40.7447 399.36)" fill="#D9D9D9"/>
<circle cx="77.979" cy="399.36" r="3.49074" transform="rotate(-90 77.979 399.36)" fill="#D9D9D9"/>
<path d="M152.448 438.922L115.214 438.922L115.214 399.36L152.448 399.36L152.448 438.922Z" stroke="#DDDDDD" stroke-width="0.2"/>
<circle cx="115.214" cy="438.922" r="3.49074" transform="rotate(-90 115.214 438.922)" fill="#D9D9D9"/>
<circle cx="152.448" cy="438.922" r="3.49074" transform="rotate(-90 152.448 438.922)" fill="#D9D9D9"/>
<circle cx="115.214" cy="399.36" r="3.49074" transform="rotate(-90 115.214 399.36)" fill="#D9D9D9"/>
<circle cx="152.448" cy="399.36" r="3.49074" transform="rotate(-90 152.448 399.36)" fill="#D9D9D9"/>
<path d="M40.7446 201.401L3.51001 201.401L3.51001 161.839L40.7446 161.839L40.7446 201.401Z" stroke="#DDDDDD" stroke-width="0.2"/>
<circle cx="3.51003" cy="201.4" r="3.49074" transform="rotate(-90 3.51003 201.4)" fill="#D9D9D9"/>
<circle cx="40.7447" cy="201.4" r="3.49074" transform="rotate(-90 40.7447 201.4)" fill="#D9D9D9"/>
<circle cx="3.51003" cy="161.838" r="3.49074" transform="rotate(-90 3.51003 161.838)" fill="#D9D9D9"/>
<circle cx="40.7447" cy="161.838" r="3.49074" transform="rotate(-90 40.7447 161.838)" fill="#D9D9D9"/>
<path d="M115.214 201.4L77.979 201.4L77.979 161.839L115.214 161.839L115.214 201.4Z" stroke="#DDDDDD" stroke-width="0.2"/>
<circle cx="77.979" cy="201.4" r="3.49074" transform="rotate(-90 77.979 201.4)" fill="#D9D9D9"/>
<circle cx="115.214" cy="201.4" r="3.49074" transform="rotate(-90 115.214 201.4)" fill="#D9D9D9"/>
<circle cx="77.979" cy="161.838" r="3.49074" transform="rotate(-90 77.979 161.838)" fill="#D9D9D9"/>
<circle cx="115.214" cy="161.838" r="3.49074" transform="rotate(-90 115.214 161.838)" fill="#D9D9D9"/>
<path d="M77.979 201.4L40.7444 201.4L40.7444 161.839L77.979 161.839L77.979 201.4Z" stroke="#DDDDDD" stroke-width="0.2"/>
<circle cx="40.7447" cy="201.4" r="3.49074" transform="rotate(-90 40.7447 201.4)" fill="#D9D9D9"/>
<circle cx="77.979" cy="201.4" r="3.49074" transform="rotate(-90 77.979 201.4)" fill="#D9D9D9"/>
<circle cx="40.7447" cy="161.838" r="3.49074" transform="rotate(-90 40.7447 161.838)" fill="#D9D9D9"/>
<circle cx="77.979" cy="161.838" r="3.49074" transform="rotate(-90 77.979 161.838)" fill="#D9D9D9"/>
<path d="M152.448 201.4L115.214 201.4L115.214 161.839L152.448 161.839L152.448 201.4Z" stroke="#DDDDDD" stroke-width="0.2"/>
<circle cx="115.214" cy="201.4" r="3.49074" transform="rotate(-90 115.214 201.4)" fill="#D9D9D9"/>
<circle cx="152.448" cy="201.4" r="3.49074" transform="rotate(-90 152.448 201.4)" fill="#D9D9D9"/>
<circle cx="115.214" cy="161.838" r="3.49074" transform="rotate(-90 115.214 161.838)" fill="#D9D9D9"/>
<circle cx="152.448" cy="161.838" r="3.49074" transform="rotate(-90 152.448 161.838)" fill="#D9D9D9"/>
<path d="M40.7446 320.161L3.51001 320.161L3.51001 280.599L40.7446 280.599L40.7446 320.161Z" stroke="#DDDDDD" stroke-width="0.2"/>
<circle cx="3.51003" cy="320.161" r="3.49074" transform="rotate(-90 3.51003 320.161)" fill="#D9D9D9"/>
<circle cx="40.7447" cy="320.161" r="3.49074" transform="rotate(-90 40.7447 320.161)" fill="#D9D9D9"/>
<circle cx="3.51003" cy="280.599" r="3.49074" transform="rotate(-90 3.51003 280.599)" fill="#D9D9D9"/>
<circle cx="40.7447" cy="280.599" r="3.49074" transform="rotate(-90 40.7447 280.599)" fill="#D9D9D9"/>
<path d="M115.214 320.161L77.9795 320.161L77.9795 280.599L115.214 280.599L115.214 320.161Z" stroke="#DDDDDD" stroke-width="0.2"/>
<circle cx="77.9795" cy="320.161" r="3.49074" transform="rotate(-90 77.9795 320.161)" fill="#D9D9D9"/>
<circle cx="115.214" cy="320.161" r="3.49074" transform="rotate(-90 115.214 320.161)" fill="#D9D9D9"/>
<circle cx="77.9795" cy="280.6" r="3.49074" transform="rotate(-90 77.9795 280.6)" fill="#D9D9D9"/>
<circle cx="115.214" cy="280.6" r="3.49074" transform="rotate(-90 115.214 280.6)" fill="#D9D9D9"/>
<path d="M77.979 320.161L40.7444 320.161L40.7444 280.599L77.979 280.599L77.979 320.161Z" stroke="#DDDDDD" stroke-width="0.2"/>
<circle cx="40.7447" cy="320.161" r="3.49074" transform="rotate(-90 40.7447 320.161)" fill="#D9D9D9"/>
<circle cx="77.979" cy="320.161" r="3.49074" transform="rotate(-90 77.979 320.161)" fill="#D9D9D9"/>
<circle cx="40.7447" cy="280.599" r="3.49074" transform="rotate(-90 40.7447 280.599)" fill="#D9D9D9"/>
<circle cx="77.979" cy="280.599" r="3.49074" transform="rotate(-90 77.979 280.599)" fill="#D9D9D9"/>
<path d="M152.448 320.161L115.214 320.161L115.214 280.599L152.448 280.599L152.448 320.161Z" stroke="#DDDDDD" stroke-width="0.2"/>
<circle cx="115.214" cy="320.161" r="3.49074" transform="rotate(-90 115.214 320.161)" fill="#D9D9D9"/>
<circle cx="152.448" cy="320.161" r="3.49074" transform="rotate(-90 152.448 320.161)" fill="#D9D9D9"/>
<circle cx="115.214" cy="280.599" r="3.49074" transform="rotate(-90 115.214 280.599)" fill="#D9D9D9"/>
<circle cx="152.448" cy="280.599" r="3.49074" transform="rotate(-90 152.448 280.599)" fill="#D9D9D9"/>
<path d="M40.7446 82.6395L3.51001 82.6395L3.51001 43.0777L40.7446 43.0777L40.7446 82.6395Z" stroke="#DDDDDD" stroke-width="0.2"/>
<circle cx="3.51003" cy="82.6394" r="3.49074" transform="rotate(-90 3.51003 82.6394)" fill="#D9D9D9"/>
<circle cx="40.7447" cy="82.6394" r="3.49074" transform="rotate(-90 40.7447 82.6394)" fill="#D9D9D9"/>
<circle cx="3.51003" cy="43.0777" r="3.49074" transform="rotate(-90 3.51003 43.0777)" fill="#D9D9D9"/>
<circle cx="40.7447" cy="43.0777" r="3.49074" transform="rotate(-90 40.7447 43.0777)" fill="#D9D9D9"/>
<path d="M115.214 82.6393L77.979 82.6393L77.979 43.0775L115.214 43.0775L115.214 82.6393Z" stroke="#DDDDDD" stroke-width="0.2"/>
<circle cx="77.979" cy="82.6394" r="3.49074" transform="rotate(-90 77.979 82.6394)" fill="#D9D9D9"/>
<circle cx="115.214" cy="82.6391" r="3.49074" transform="rotate(-90 115.214 82.6391)" fill="#D9D9D9"/>
<circle cx="77.979" cy="43.0776" r="3.49074" transform="rotate(-90 77.979 43.0776)" fill="#D9D9D9"/>
<circle cx="115.214" cy="43.0776" r="3.49074" transform="rotate(-90 115.214 43.0776)" fill="#D9D9D9"/>
<path d="M77.979 82.6395L40.7444 82.6395L40.7444 43.0777L77.979 43.0777L77.979 82.6395Z" stroke="#DDDDDD" stroke-width="0.2"/>
<circle cx="40.7447" cy="82.6394" r="3.49074" transform="rotate(-90 40.7447 82.6394)" fill="#D9D9D9"/>
<circle cx="77.979" cy="82.6391" r="3.49074" transform="rotate(-90 77.979 82.6391)" fill="#D9D9D9"/>
<circle cx="40.7447" cy="43.0776" r="3.49074" transform="rotate(-90 40.7447 43.0776)" fill="#D9D9D9"/>
<circle cx="77.979" cy="43.0776" r="3.49074" transform="rotate(-90 77.979 43.0776)" fill="#D9D9D9"/>
<path d="M152.448 82.6393L115.214 82.6393L115.214 43.0775L152.448 43.0775L152.448 82.6393Z" stroke="#DDDDDD" stroke-width="0.2"/>
<circle cx="115.214" cy="82.6394" r="3.49074" transform="rotate(-90 115.214 82.6394)" fill="#D9D9D9"/>
<circle cx="152.448" cy="82.6391" r="3.49074" transform="rotate(-90 152.448 82.6391)" fill="#D9D9D9"/>
<circle cx="115.214" cy="43.0776" r="3.49074" transform="rotate(-90 115.214 43.0776)" fill="#D9D9D9"/>
<circle cx="152.448" cy="43.0776" r="3.49074" transform="rotate(-90 152.448 43.0776)" fill="#D9D9D9"/>
<path d="M40.7446 399.335L3.51001 399.335L3.51001 359.774L40.7446 359.774L40.7446 399.335Z" stroke="#DDDDDD" stroke-width="0.2"/>
<circle cx="3.51003" cy="399.335" r="3.49074" transform="rotate(-90 3.51003 399.335)" fill="#D9D9D9"/>
<circle cx="40.7447" cy="399.335" r="3.49074" transform="rotate(-90 40.7447 399.335)" fill="#D9D9D9"/>
<circle cx="3.51003" cy="359.774" r="3.49074" transform="rotate(-90 3.51003 359.774)" fill="#D9D9D9"/>
<circle cx="40.7447" cy="359.774" r="3.49074" transform="rotate(-90 40.7447 359.774)" fill="#D9D9D9"/>
<path d="M115.214 399.335L77.9795 399.335L77.9795 359.774L115.214 359.774L115.214 399.335Z" stroke="#DDDDDD" stroke-width="0.2"/>
<circle cx="77.9795" cy="399.335" r="3.49074" transform="rotate(-90 77.9795 399.335)" fill="#D9D9D9"/>
<circle cx="115.214" cy="399.335" r="3.49074" transform="rotate(-90 115.214 399.335)" fill="#D9D9D9"/>
<circle cx="77.9795" cy="359.774" r="3.49074" transform="rotate(-90 77.9795 359.774)" fill="#D9D9D9"/>
<circle cx="115.214" cy="359.774" r="3.49074" transform="rotate(-90 115.214 359.774)" fill="#D9D9D9"/>
<path d="M77.979 399.335L40.7444 399.335L40.7444 359.774L77.979 359.774L77.979 399.335Z" stroke="#DDDDDD" stroke-width="0.2"/>
<circle cx="40.7447" cy="399.335" r="3.49074" transform="rotate(-90 40.7447 399.335)" fill="#D9D9D9"/>
<circle cx="77.979" cy="399.335" r="3.49074" transform="rotate(-90 77.979 399.335)" fill="#D9D9D9"/>
<circle cx="40.7447" cy="359.774" r="3.49074" transform="rotate(-90 40.7447 359.774)" fill="#D9D9D9"/>
<circle cx="77.979" cy="359.774" r="3.49074" transform="rotate(-90 77.979 359.774)" fill="#D9D9D9"/>
<path d="M152.448 399.335L115.214 399.335L115.214 359.774L152.448 359.774L152.448 399.335Z" stroke="#DDDDDD" stroke-width="0.2"/>
<circle cx="115.214" cy="399.335" r="3.49074" transform="rotate(-90 115.214 399.335)" fill="#D9D9D9"/>
<circle cx="152.448" cy="399.335" r="3.49074" transform="rotate(-90 152.448 399.335)" fill="#D9D9D9"/>
<circle cx="115.214" cy="359.774" r="3.49074" transform="rotate(-90 115.214 359.774)" fill="#D9D9D9"/>
<circle cx="152.448" cy="359.774" r="3.49074" transform="rotate(-90 152.448 359.774)" fill="#D9D9D9"/>
<path d="M40.7446 161.813L3.51001 161.813L3.51001 122.251L40.7446 122.251L40.7446 161.813Z" stroke="#DDDDDD" stroke-width="0.2"/>
<circle cx="3.51003" cy="161.813" r="3.49074" transform="rotate(-90 3.51003 161.813)" fill="#D9D9D9"/>
<circle cx="40.7447" cy="161.813" r="3.49074" transform="rotate(-90 40.7447 161.813)" fill="#D9D9D9"/>
<circle cx="3.51003" cy="122.252" r="3.49074" transform="rotate(-90 3.51003 122.252)" fill="#D9D9D9"/>
<circle cx="40.7447" cy="122.252" r="3.49074" transform="rotate(-90 40.7447 122.252)" fill="#D9D9D9"/>
<path d="M115.214 161.813L77.979 161.813L77.979 122.251L115.214 122.251L115.214 161.813Z" stroke="#DDDDDD" stroke-width="0.2"/>
<circle cx="77.979" cy="161.814" r="3.49074" transform="rotate(-90 77.979 161.814)" fill="#D9D9D9"/>
<circle cx="115.214" cy="161.813" r="3.49074" transform="rotate(-90 115.214 161.813)" fill="#D9D9D9"/>
<circle cx="77.979" cy="122.252" r="3.49074" transform="rotate(-90 77.979 122.252)" fill="#D9D9D9"/>
<circle cx="115.214" cy="122.252" r="3.49074" transform="rotate(-90 115.214 122.252)" fill="#D9D9D9"/>
<path d="M77.979 161.813L40.7444 161.813L40.7444 122.251L77.979 122.251L77.979 161.813Z" stroke="#DDDDDD" stroke-width="0.2"/>
<circle cx="40.7447" cy="161.814" r="3.49074" transform="rotate(-90 40.7447 161.814)" fill="#D9D9D9"/>
<circle cx="77.979" cy="161.813" r="3.49074" transform="rotate(-90 77.979 161.813)" fill="#D9D9D9"/>
<circle cx="40.7447" cy="122.252" r="3.49074" transform="rotate(-90 40.7447 122.252)" fill="#D9D9D9"/>
<circle cx="77.979" cy="122.252" r="3.49074" transform="rotate(-90 77.979 122.252)" fill="#D9D9D9"/>
<path d="M152.448 161.813L115.214 161.813L115.214 122.251L152.448 122.251L152.448 161.813Z" stroke="#DDDDDD" stroke-width="0.2"/>
<circle cx="115.214" cy="161.814" r="3.49074" transform="rotate(-90 115.214 161.814)" fill="#D9D9D9"/>
<circle cx="152.448" cy="161.814" r="3.49074" transform="rotate(-90 152.448 161.814)" fill="#D9D9D9"/>
<circle cx="115.214" cy="122.252" r="3.49074" transform="rotate(-90 115.214 122.252)" fill="#D9D9D9"/>
<circle cx="152.448" cy="122.252" r="3.49074" transform="rotate(-90 152.448 122.252)" fill="#D9D9D9"/>
<path d="M40.7446 280.574L3.51001 280.574L3.51001 241.013L40.7446 241.013L40.7446 280.574Z" stroke="#DDDDDD" stroke-width="0.2"/>
<circle cx="3.51003" cy="280.574" r="3.49074" transform="rotate(-90 3.51003 280.574)" fill="#D9D9D9"/>
<circle cx="40.7447" cy="280.574" r="3.49074" transform="rotate(-90 40.7447 280.574)" fill="#D9D9D9"/>
<circle cx="3.51003" cy="241.013" r="3.49074" transform="rotate(-90 3.51003 241.013)" fill="#D9D9D9"/>
<circle cx="40.7447" cy="241.013" r="3.49074" transform="rotate(-90 40.7447 241.013)" fill="#D9D9D9"/>
<path d="M115.214 280.574L77.979 280.574L77.979 241.013L115.214 241.013L115.214 280.574Z" stroke="#DDDDDD" stroke-width="0.2"/>
<circle cx="77.979" cy="280.575" r="3.49074" transform="rotate(-90 77.979 280.575)" fill="#D9D9D9"/>
<circle cx="115.214" cy="280.575" r="3.49074" transform="rotate(-90 115.214 280.575)" fill="#D9D9D9"/>
<circle cx="77.979" cy="241.013" r="3.49074" transform="rotate(-90 77.979 241.013)" fill="#D9D9D9"/>
<circle cx="115.214" cy="241.013" r="3.49074" transform="rotate(-90 115.214 241.013)" fill="#D9D9D9"/>
<path d="M77.979 280.574L40.7444 280.574L40.7444 241.013L77.979 241.013L77.979 280.574Z" stroke="#DDDDDD" stroke-width="0.2"/>
<circle cx="40.7447" cy="280.575" r="3.49074" transform="rotate(-90 40.7447 280.575)" fill="#D9D9D9"/>
<circle cx="77.979" cy="280.575" r="3.49074" transform="rotate(-90 77.979 280.575)" fill="#D9D9D9"/>
<circle cx="40.7447" cy="241.013" r="3.49074" transform="rotate(-90 40.7447 241.013)" fill="#D9D9D9"/>
<circle cx="77.979" cy="241.013" r="3.49074" transform="rotate(-90 77.979 241.013)" fill="#D9D9D9"/>
<path d="M152.448 280.574L115.214 280.574L115.214 241.013L152.448 241.013L152.448 280.574Z" stroke="#DDDDDD" stroke-width="0.2"/>
<circle cx="115.214" cy="280.575" r="3.49074" transform="rotate(-90 115.214 280.575)" fill="#D9D9D9"/>
<circle cx="152.448" cy="280.575" r="3.49074" transform="rotate(-90 152.448 280.575)" fill="#D9D9D9"/>
<circle cx="115.214" cy="241.013" r="3.49074" transform="rotate(-90 115.214 241.013)" fill="#D9D9D9"/>
<circle cx="152.448" cy="241.013" r="3.49074" transform="rotate(-90 152.448 241.013)" fill="#D9D9D9"/>
<path d="M40.7446 43.0524L3.51001 43.0524L3.51001 3.49059L40.7446 3.49058L40.7446 43.0524Z" stroke="#DDDDDD" stroke-width="0.2"/>
<circle cx="3.51003" cy="43.0525" r="3.49074" transform="rotate(-90 3.51003 43.0525)" fill="#D9D9D9"/>
<circle cx="40.7447" cy="43.0525" r="3.49074" transform="rotate(-90 40.7447 43.0525)" fill="#D9D9D9"/>
<circle cx="3.51003" cy="3.4907" r="3.49074" transform="rotate(-90 3.51003 3.4907)" fill="#D9D9D9"/>
<circle cx="40.7447" cy="3.4907" r="3.49074" transform="rotate(-90 40.7447 3.4907)" fill="#D9D9D9"/>
<path d="M115.214 43.0522L77.979 43.0522L77.979 3.49046L115.214 3.49046L115.214 43.0522Z" stroke="#DDDDDD" stroke-width="0.2"/>
<circle cx="77.979" cy="43.0525" r="3.49074" transform="rotate(-90 77.979 43.0525)" fill="#D9D9D9"/>
<circle cx="115.214" cy="43.0525" r="3.49074" transform="rotate(-90 115.214 43.0525)" fill="#D9D9D9"/>
<circle cx="77.979" cy="3.49052" r="3.49074" transform="rotate(-90 77.979 3.49052)" fill="#D9D9D9"/>
<circle cx="115.214" cy="3.49052" r="3.49074" transform="rotate(-90 115.214 3.49052)" fill="#D9D9D9"/>
<path d="M77.979 43.0522L40.7444 43.0522L40.7444 3.49046L77.979 3.49046L77.979 43.0522Z" stroke="#DDDDDD" stroke-width="0.2"/>
<circle cx="40.7447" cy="43.0525" r="3.49074" transform="rotate(-90 40.7447 43.0525)" fill="#D9D9D9"/>
<circle cx="77.979" cy="43.0525" r="3.49074" transform="rotate(-90 77.979 43.0525)" fill="#D9D9D9"/>
<circle cx="40.7447" cy="3.49052" r="3.49074" transform="rotate(-90 40.7447 3.49052)" fill="#D9D9D9"/>
<circle cx="77.979" cy="3.49052" r="3.49074" transform="rotate(-90 77.979 3.49052)" fill="#D9D9D9"/>
<path d="M152.448 43.0522L115.214 43.0522L115.214 3.49046L152.448 3.49046L152.448 43.0522Z" stroke="#DDDDDD" stroke-width="0.2"/>
<circle cx="115.214" cy="43.0525" r="3.49074" transform="rotate(-90 115.214 43.0525)" fill="#D9D9D9"/>
<circle cx="152.448" cy="43.0525" r="3.49074" transform="rotate(-90 152.448 43.0525)" fill="#D9D9D9"/>
<circle cx="115.214" cy="3.49052" r="3.49074" transform="rotate(-90 115.214 3.49052)" fill="#D9D9D9"/>
<circle cx="152.448" cy="3.49052" r="3.49074" transform="rotate(-90 152.448 3.49052)" fill="#D9D9D9"/>
</svg>
