<svg width="500" height="370" viewBox="0 0 500 370" fill="none" xmlns="http://www.w3.org/2000/svg">
<path d="M500 325.15H0V325.398H500V325.15Z" fill="#EBEBEB"/>
<path d="M449.9 341.13H416.78V341.378H449.9V341.13Z" fill="#EBEBEB"/>
<path d="M331.22 343.831H322.53V344.079H331.22V343.831Z" fill="#EBEBEB"/>
<path d="M415.78 331.914H396.59V332.162H415.78V331.914Z" fill="#EBEBEB"/>
<path d="M95.65 333.582H52.46V333.83H95.65V333.582Z" fill="#EBEBEB"/>
<path d="M110.89 333.582H104.56V333.83H110.89V333.582Z" fill="#EBEBEB"/>
<path d="M225.15 337.773H131.47V338.021H225.15V337.773Z" fill="#EBEBEB"/>
<path d="M237 280.857H43.91C42.3973 280.854 40.9475 280.256 39.8788 279.192C38.8102 278.129 38.21 276.688 38.21 275.186V5.62111C38.2231 4.12747 38.8292 2.6993 39.8964 1.64682C40.9637 0.594346 42.4059 0.00255868 43.91 0H237C238.514 0 239.967 0.597454 241.038 1.66093C242.108 2.7244 242.71 4.16678 242.71 5.67076V275.186C242.71 276.69 242.108 278.132 241.038 279.196C239.967 280.259 238.514 280.857 237 280.857V280.857ZM43.91 0.198627C42.4636 0.201257 41.0774 0.773712 40.0556 1.79034C39.0338 2.80697 38.46 4.1847 38.46 5.62111V275.186C38.46 276.622 39.0338 278 40.0556 279.017C41.0774 280.033 42.4636 280.606 43.91 280.609H237C238.447 280.606 239.834 280.034 240.858 279.017C241.881 278.001 242.457 276.623 242.46 275.186V5.62111C242.457 4.18378 241.881 2.80608 240.858 1.78973C239.834 0.773389 238.447 0.201252 237 0.198627H43.91Z" fill="#EBEBEB"/>
<path d="M453.31 280.857H260.21C258.696 280.854 257.246 280.256 256.175 279.193C255.105 278.13 254.503 276.689 254.5 275.186V5.62111C254.516 4.12656 255.124 2.69841 256.193 1.6462C257.262 0.593999 258.705 0.00253078 260.21 0H453.31C454.812 0.00516873 456.252 0.598111 457.317 1.65031C458.382 2.70251 458.987 4.12918 459 5.62111V275.186C459 276.687 458.401 278.126 457.335 279.189C456.268 280.252 454.821 280.852 453.31 280.857V280.857ZM260.21 0.198627C258.763 0.201252 257.375 0.773389 256.352 1.78973C255.329 2.80608 254.753 4.18378 254.75 5.62111V275.186C254.753 276.623 255.329 278.001 256.352 279.017C257.375 280.034 258.763 280.606 260.21 280.609H453.31C454.757 280.606 456.145 280.034 457.168 279.017C458.191 278.001 458.767 276.623 458.77 275.186V5.62111C458.767 4.18378 458.191 2.80608 457.168 1.78973C456.145 0.773389 454.757 0.201252 453.31 0.198627H260.21Z" fill="#EBEBEB"/>
<path d="M47.9299 324.456V275.484H70.6899V230.059H73.8999V256.099H82.6499V248.898H98.4099V223.971H101.33V193.502H103.66V223.415H109.21V267.728H119.71V223.415H138.68V260.885H158.59V215.47H161.8V241.5H170.55V234.299H186.31V209.372H189.23V178.913H191.56V208.826H197.11V253.129H207.61V208.826H226.58V251.689H239.37V226.762H242.29V196.292H244.62V226.205H250.16V270.519H260.67V226.205H279.64V270.519H288.97V275.484H305.33V230.059H308.54V256.099H317.29V248.898H333.05V223.971H335.97V193.502H338.3V223.415H343.39V220.922H362.36V223.415H372.86V220.922H378.41V191.009H380.74V221.478H383.66V246.396H399.42V253.606H408.17V227.566H411.38V272.992H434.14V324.456H47.9299Z" fill="#E0E0E0"/>
<path d="M367.553 81.6264C373.426 67.5442 366.692 51.3996 352.513 45.5665C338.333 39.7335 322.077 46.4208 316.203 60.503C310.33 74.5853 317.064 90.7299 331.243 96.5629C345.423 102.396 361.679 95.7087 367.553 81.6264Z" fill="#FAFAFA"/>
<path d="M356.29 70.7603C356.29 69.4881 356.799 68.2681 357.705 67.3685C358.61 66.4689 359.839 65.9635 361.12 65.9635C361.591 65.961 362.06 66.0313 362.51 66.1721C362.438 65.6821 362.401 65.1876 362.4 64.6923C362.4 63.3581 362.665 62.037 363.179 60.8044C363.693 59.5717 364.446 58.4517 365.396 57.5083C366.346 56.5649 367.474 55.8166 368.715 55.306C369.956 54.7954 371.287 54.5326 372.63 54.5326C373.264 54.537 373.896 54.5969 374.52 54.7114C375.525 53.0617 377.044 51.7822 378.846 51.0667C380.649 50.3512 382.638 50.2386 384.511 50.746C386.384 51.2534 388.039 52.3531 389.226 53.8787C390.413 55.4042 391.068 57.2724 391.09 59.2003H391.24C393.425 59.2003 395.521 60.0625 397.067 61.5972C398.612 63.1319 399.48 65.2133 399.48 67.3837C399.48 69.5541 398.612 71.6355 397.067 73.1702C395.521 74.7049 393.425 75.5671 391.24 75.5671H361C359.737 75.5385 358.536 75.0188 357.656 74.1199C356.775 73.221 356.284 72.0146 356.29 70.7603V70.7603Z" fill="#F0F0F0"/>
<path d="M47.6999 146.228C47.6997 145.481 47.8752 144.744 48.2126 144.076C48.5499 143.408 49.0397 142.828 49.6429 142.381C50.246 141.934 50.9459 141.634 51.6868 141.504C52.4276 141.373 53.1889 141.416 53.9099 141.63C53.7063 140.191 53.8144 138.725 54.2269 137.331C54.6395 135.937 55.347 134.646 56.3021 133.545C57.2573 132.444 58.4381 131.558 59.7656 130.947C61.0931 130.336 62.5367 130.013 63.9999 130C64.6342 129.999 65.2672 130.059 65.8899 130.179C66.8914 128.518 68.4123 127.227 70.2208 126.504C72.0294 125.781 74.0264 125.664 75.9076 126.173C77.7889 126.681 79.4512 127.787 80.6413 129.32C81.8314 130.854 82.4841 132.732 82.4999 134.668H82.6499C84.8353 134.668 86.9311 135.53 88.4764 137.065C90.0217 138.6 90.8899 140.681 90.8899 142.851C90.8899 145.022 90.0217 147.103 88.4764 148.638C86.9311 150.173 84.8353 151.035 82.6499 151.035H52.3899C51.1307 151.001 49.9349 150.479 49.0584 149.581C48.1818 148.682 47.6942 147.479 47.6999 146.228V146.228Z" fill="#F0F0F0"/>
<path d="M209.56 88.9048C209.56 87.9075 209.362 86.9201 208.978 85.9989C208.593 85.0776 208.029 84.2408 207.319 83.5361C206.608 82.8314 205.765 82.2727 204.837 81.892C203.909 81.5112 202.914 81.3159 201.91 81.3173C201.169 81.3211 200.432 81.4281 199.72 81.635C200.097 79.1022 199.858 76.5166 199.024 74.0939C198.189 71.6713 196.784 69.4819 194.925 67.7083C193.066 65.9347 190.806 64.6282 188.335 63.898C185.864 63.1678 183.253 63.0349 180.72 63.5104C179.123 60.9093 176.719 58.894 173.868 57.768C171.018 56.6421 167.877 56.4665 164.917 57.2676C161.958 58.0688 159.34 59.8034 157.46 62.2101C155.579 64.6168 154.537 67.5653 154.49 70.6113H154.25C150.792 70.6113 147.475 71.9757 145.029 74.4044C142.584 76.8331 141.21 80.1271 141.21 83.5617C141.21 86.9964 142.584 90.2904 145.029 92.719C147.475 95.1477 150.792 96.5121 154.25 96.5121H202.12C204.114 96.4577 206.008 95.632 207.398 94.2109C208.788 92.7898 209.563 90.8858 209.56 88.9048Z" fill="#F0F0F0"/>
<path d="M346.79 154.064C346.783 152.647 346.445 151.251 345.803 149.986C345.161 148.721 344.232 147.621 343.089 146.773C341.946 145.925 340.621 145.352 339.217 145.099C337.814 144.846 336.37 144.92 335 145.315C335.141 144.388 335.211 143.451 335.21 142.514C335.213 139.968 334.709 137.446 333.728 135.093C332.747 132.74 331.308 130.603 329.494 128.804C327.679 127.005 325.525 125.579 323.155 124.608C320.784 123.638 318.244 123.141 315.68 123.148C314.479 123.149 313.28 123.262 312.1 123.486C310.19 120.329 307.292 117.88 303.85 116.511C300.408 115.142 296.609 114.928 293.033 115.902C289.457 116.876 286.299 118.985 284.042 121.907C281.785 124.829 280.551 128.403 280.53 132.086H280.25C276.089 132.086 272.098 133.728 269.156 136.65C266.213 139.572 264.56 143.536 264.56 147.668C264.56 151.801 266.213 155.764 269.156 158.687C272.098 161.609 276.089 163.251 280.25 163.251H337.85C340.253 163.183 342.535 162.184 344.206 160.467C345.876 158.75 346.804 156.452 346.79 154.064V154.064Z" fill="#F0F0F0"/>
<path d="M295.68 85.131C295.68 84.3408 295.996 83.583 296.559 83.0243C297.121 82.4655 297.884 82.1516 298.68 82.1516C298.972 82.1484 299.262 82.192 299.54 82.2807C299.496 81.9747 299.473 81.6662 299.47 81.3571C299.47 80.5281 299.635 79.7073 299.954 78.9415C300.274 78.1757 300.743 77.4801 301.333 76.8943C301.924 76.3086 302.625 75.8443 303.397 75.5279C304.168 75.2116 304.995 75.0494 305.83 75.0508C306.222 75.0485 306.614 75.0817 307 75.1501C307.627 74.1264 308.572 73.333 309.692 72.8895C310.813 72.446 312.049 72.3766 313.213 72.6916C314.376 73.0067 315.406 73.6891 316.145 74.636C316.884 75.5829 317.293 76.7428 317.31 77.9407H317.4C318.092 77.9104 318.783 78.0195 319.432 78.2616C320.08 78.5037 320.672 78.8737 321.173 79.3493C321.673 79.825 322.072 80.3963 322.344 81.029C322.616 81.6617 322.756 82.3425 322.756 83.0305C322.756 83.7185 322.616 84.3994 322.344 85.032C322.072 85.6647 321.673 86.2361 321.173 86.7117C320.672 87.1873 320.08 87.5574 319.432 87.7994C318.783 88.0415 318.092 88.1507 317.4 88.1203H298.6C297.817 88.0996 297.072 87.7752 296.527 87.2165C295.981 86.6579 295.677 85.9093 295.68 85.131V85.131Z" fill="#F0F0F0"/>
<path d="M94.3699 52.9536C94.3699 52.1634 94.0538 51.4056 93.4912 50.8468C92.9286 50.2881 92.1656 49.9742 91.3699 49.9742C91.0781 49.9709 90.7877 50.0145 90.5099 50.1033C90.5501 49.797 90.5702 49.4885 90.5699 49.1797C90.5712 48.3507 90.4079 47.5296 90.0894 46.7633C89.7709 45.997 89.3034 45.3006 88.7136 44.714C88.1238 44.1273 87.4233 43.6619 86.6523 43.3444C85.8812 43.0268 85.0546 42.8634 84.2199 42.8634C83.8241 42.8644 83.4291 42.9009 83.0399 42.9726C82.4157 41.9465 81.4716 41.1505 80.3507 40.7052C79.2299 40.26 77.9934 40.1898 76.8288 40.5054C75.6642 40.8209 74.635 41.5049 73.8971 42.4538C73.1592 43.4026 72.753 44.5645 72.7399 45.7633H72.6399C71.282 45.7633 69.9797 46.299 69.0195 47.2526C68.0593 48.2062 67.5199 49.4995 67.5199 50.8481C67.5199 52.1967 68.0593 53.4901 69.0195 54.4436C69.9797 55.3972 71.282 55.9329 72.6399 55.9329H91.4499C92.2316 55.9122 92.9743 55.5892 93.5197 55.0327C94.0651 54.4762 94.3702 53.7302 94.3699 52.9536V52.9536Z" fill="#F0F0F0"/>
<path d="M250 370C357.083 370 443.89 364.967 443.89 358.758C443.89 352.549 357.083 347.516 250 347.516C142.918 347.516 56.1101 352.549 56.1101 358.758C56.1101 364.967 142.918 370 250 370Z" fill="#F5F5F5"/>
<path d="M403.91 332.281H402.91C402.91 331.099 403.91 303.242 408.8 298.515C413.88 293.609 419.8 298.435 419.9 298.515L419.26 299.279C419.04 299.101 413.93 294.979 409.5 299.279C404.89 303.649 403.92 331.993 403.91 332.281Z" fill="#407BFF"/>
<path d="M403.51 337.872L402.51 337.773C402.51 337.445 405.65 304.006 393.51 290.172L394.26 289.527C406.7 303.718 403.65 336.482 403.51 337.872Z" fill="#407BFF"/>
<path d="M403.7 334.297C403.6 332.718 401.25 295.505 410.65 286.915L411.33 287.64C402.27 295.913 404.67 333.85 404.7 334.227L403.7 334.297Z" fill="#407BFF"/>
<path d="M402.51 334.267C402.51 334.019 402.22 309.101 395.61 305.337C395.056 304.971 394.421 304.744 393.759 304.675C393.097 304.605 392.428 304.696 391.81 304.94C387.95 306.529 385.88 313.878 385.86 313.967L384.86 313.709C384.95 313.382 387.08 305.764 391.4 304.026C392.157 303.724 392.977 303.607 393.79 303.685C394.602 303.762 395.384 304.033 396.07 304.473C403.18 308.515 403.48 333.214 403.48 334.267H402.51Z" fill="#407BFF"/>
<path d="M405.26 334.297C405.21 333.493 404.18 314.524 409.6 307.483C411.06 305.596 412.69 304.682 414.45 304.821C418.34 305.089 421.35 310.303 421.45 310.531L420.58 311.018C420.58 310.968 417.71 306.052 414.35 305.814C412.95 305.725 411.61 306.479 410.35 308.088C405.15 314.832 406.19 334.039 406.21 334.237L405.26 334.297Z" fill="#407BFF"/>
<path d="M404.38 336.919L403.38 336.84C403.38 336.383 406.78 291.315 401.2 283.816L402.01 283.23C407.81 290.987 404.52 335.042 404.38 336.919Z" fill="#407BFF"/>
<path d="M389.91 308.605C389.91 308.605 393.37 309.876 392.34 312.865C391.31 315.855 380.34 320.81 380.34 320.81C380.34 320.81 375.76 316.639 379.97 309.886C384.18 303.133 389.82 306.47 389.91 308.605Z" fill="#407BFF"/>
<path opacity="0.2" d="M389.91 308.605C389.91 308.605 393.37 309.876 392.34 312.865C391.31 315.855 380.34 320.81 380.34 320.81C380.34 320.81 375.76 316.639 379.97 309.886C384.18 303.133 389.82 306.47 389.91 308.605Z" fill="white"/>
<path d="M405 302.904C405 302.904 401.31 302.746 401.1 305.884C400.89 309.022 409.1 317.801 409.1 317.801C409.1 317.801 414.94 315.706 413.69 307.87C412.44 300.034 405.87 300.968 405 302.904Z" fill="#407BFF"/>
<path opacity="0.2" d="M405 302.904C405 302.904 401.31 302.746 401.1 305.884C400.89 309.022 409.1 317.801 409.1 317.801C409.1 317.801 414.94 315.706 413.69 307.87C412.44 300.034 405.87 300.968 405 302.904Z" fill="white"/>
<path d="M408.08 287.809C408.08 287.809 405.62 287.551 405.82 286.061C406.02 284.571 415.37 280.748 420.89 286.935C420.89 286.935 417.36 292.963 412.25 293.043C407.14 293.122 408.08 287.809 408.08 287.809Z" fill="#407BFF"/>
<path opacity="0.2" d="M408.08 287.809C408.08 287.809 405.62 287.551 405.82 286.061C406.02 284.571 415.37 280.748 420.89 286.935C420.89 286.935 417.36 292.963 412.25 293.043C407.14 293.122 408.08 287.809 408.08 287.809Z" fill="white"/>
<path d="M403.5 284.204C403.5 284.204 405.72 285.266 406.35 283.906C406.98 282.545 401.07 274.382 393.09 276.725C393.09 276.725 392.88 283.677 397.17 286.448C401.46 289.219 403.5 284.204 403.5 284.204Z" fill="#407BFF"/>
<path opacity="0.2" d="M403.5 284.204C403.5 284.204 405.72 285.266 406.35 283.906C406.98 282.545 401.07 274.382 393.09 276.725C393.09 276.725 392.88 283.677 397.17 286.448C401.46 289.219 403.5 284.204 403.5 284.204Z" fill="white"/>
<path d="M415.13 307.403C415.13 307.403 413.44 306.043 415.27 305.417C417.1 304.791 426.08 304.94 426.17 313.779C426.17 313.779 415.71 315.507 414.42 312.141C413.13 308.774 415.13 307.403 415.13 307.403Z" fill="#407BFF"/>
<path opacity="0.2" d="M415.13 307.403C415.13 307.403 413.44 306.043 415.27 305.417C417.1 304.791 426.08 304.94 426.17 313.779C426.17 313.779 415.71 315.507 414.42 312.141C413.13 308.774 415.13 307.403 415.13 307.403Z" fill="white"/>
<path d="M393.81 287.59C393.81 287.59 395.5 286.23 393.67 285.604C391.84 284.978 382.86 285.127 382.77 293.966C382.77 293.966 393.23 295.694 394.52 292.328C395.81 288.961 393.81 287.59 393.81 287.59Z" fill="#407BFF"/>
<path opacity="0.2" d="M393.81 287.59C393.81 287.59 395.5 286.23 393.67 285.604C391.84 284.978 382.86 285.127 382.77 293.966C382.77 293.966 393.23 295.694 394.52 292.328C395.81 288.961 393.81 287.59 393.81 287.59Z" fill="white"/>
<path d="M399.34 294.701C399.34 294.701 399.48 293.052 398.14 293.708C396.8 294.363 392.14 299.379 396.97 304.136C396.97 304.136 403.5 299.329 402.32 296.826C401.14 294.323 399.34 294.701 399.34 294.701Z" fill="#407BFF"/>
<path opacity="0.2" d="M399.34 294.701C399.34 294.701 399.48 293.052 398.14 293.708C396.8 294.363 392.14 299.379 396.97 304.136C396.97 304.136 403.5 299.329 402.32 296.826C401.14 294.323 399.34 294.701 399.34 294.701Z" fill="white"/>
<path d="M416.65 297.064C416.65 297.064 415.65 295.744 417.12 295.575C418.59 295.406 425.26 297.174 423.71 303.778C423.71 303.778 415.6 303.172 415.26 300.431C414.92 297.69 416.65 297.064 416.65 297.064Z" fill="#407BFF"/>
<path opacity="0.2" d="M416.65 297.064C416.65 297.064 415.65 295.744 417.12 295.575C418.59 295.406 425.26 297.174 423.71 303.778C423.71 303.778 415.6 303.172 415.26 300.431C414.92 297.69 416.65 297.064 416.65 297.064Z" fill="white"/>
<path d="M389.26 358.758H417.08L420.08 328.517H386.26L389.26 358.758Z" fill="#263238"/>
<path d="M384.78 331.844H421.56V325.17H384.78V331.844Z" fill="#263238"/>
<path opacity="0.2" d="M384.78 331.844H421.56V325.17H384.78V331.844Z" fill="white"/>
<path d="M100.99 340.405H95.2V357.129H100.99V340.405Z" fill="#263238"/>
<g opacity="0.2">
<path d="M100.99 340.405H95.2V357.129H100.99V340.405Z" fill="white"/>
</g>
<path d="M77.3699 334.069C77.5886 334.065 77.7971 333.976 77.9499 333.82L119.54 292.516C119.694 292.362 119.78 292.154 119.779 291.937C119.778 291.72 119.69 291.512 119.535 291.359C119.38 291.206 119.17 291.121 118.951 291.122C118.733 291.123 118.524 291.21 118.37 291.364L76.7799 332.698C76.6254 332.853 76.5387 333.061 76.5387 333.279C76.5387 333.497 76.6254 333.706 76.7799 333.86C76.9427 334.002 77.1537 334.076 77.3699 334.069Z" fill="#263238"/>
<path d="M98.1599 341.785C103.971 341.788 109.652 340.08 114.487 336.877C119.321 333.674 123.091 329.121 125.321 323.792C127.551 318.462 128.141 312.596 127.016 306.934C125.891 301.272 123.101 296.068 119 291.98L116.67 294.304C119.091 296.714 121.01 299.575 122.318 302.723C123.625 305.87 124.296 309.242 124.291 312.647C124.287 316.052 123.607 319.422 122.29 322.566C120.974 325.71 119.047 328.566 116.62 330.97C114.192 333.374 111.312 335.28 108.143 336.579C104.974 337.878 101.578 338.544 98.1495 338.539C94.7212 338.534 91.3273 337.859 88.1617 336.552C84.9961 335.245 82.1208 333.331 79.6999 330.92L77.3699 333.244C80.0983 335.957 83.3394 338.108 86.9072 339.574C90.4749 341.04 94.299 341.791 98.1599 341.785V341.785Z" fill="#263238"/>
<path d="M80.86 358.053V358.758H115.19V358.053L104.41 353.435H91.63L80.86 358.053Z" fill="#263238"/>
<g opacity="0.2">
<path d="M77.3699 334.069C77.5886 334.065 77.7971 333.976 77.9499 333.82L119.54 292.516C119.694 292.362 119.78 292.154 119.779 291.937C119.778 291.72 119.69 291.512 119.535 291.359C119.38 291.206 119.17 291.121 118.951 291.122C118.733 291.123 118.524 291.21 118.37 291.364L76.7799 332.698C76.6254 332.853 76.5387 333.061 76.5387 333.279C76.5387 333.497 76.6254 333.706 76.7799 333.86C76.9427 334.002 77.1537 334.076 77.3699 334.069Z" fill="white"/>
</g>
<path d="M98.1596 337.634C112.088 337.634 123.38 326.42 123.38 312.587C123.38 298.754 112.088 287.541 98.1596 287.541C84.231 287.541 72.9396 298.754 72.9396 312.587C72.9396 326.42 84.231 337.634 98.1596 337.634Z" fill="#407BFF"/>
<path opacity="0.2" d="M98.1596 337.634C112.088 337.634 123.38 326.42 123.38 312.587C123.38 298.754 112.088 287.541 98.1596 287.541C84.231 287.541 72.9396 298.754 72.9396 312.587C72.9396 326.42 84.231 337.634 98.1596 337.634Z" fill="white"/>
<path opacity="0.5" d="M73 314.335C76.14 312.836 77.66 311.604 77.37 313.342C77.1861 314.813 77.1861 316.301 77.37 317.771C77.37 317.771 77.89 318.765 79.37 318.308C80.85 317.851 80.78 317.662 81.44 317.662C82.1 317.662 86.35 317.771 85.03 319.4C83.71 321.029 84.27 321.774 83.03 322.101C81.79 322.429 81.4 324.088 81.29 324.376C80.9111 324.893 80.4751 325.366 79.99 325.786L77.26 326.829C78.1458 328.092 79.1503 329.269 80.26 330.344C80.8897 330.968 81.5576 331.551 82.26 332.092C82.9859 331.645 83.8086 331.376 84.66 331.308C86.07 331.308 86.29 332.063 86.98 332.351C87.67 332.639 87.6 332.351 87.6 332.351C87.6 332.351 88.26 333.145 88.97 332.788C89.68 332.43 92.17 332.788 92.61 332.788C93.05 332.788 95.01 331.924 95.89 332.549C96.77 333.175 96.98 333.006 97.08 333.761C97.17 334.347 97.08 335.529 95.97 337.555C98.6131 337.786 101.276 337.598 103.86 336.998C102.8 336.373 103.3 332.351 102.44 330.623C101.58 328.894 101.55 328.457 101.88 327.693C102.21 326.928 102.88 327.693 103.41 327.693C103.849 327.611 104.249 327.386 104.544 327.053C104.839 326.72 105.014 326.299 105.04 325.855C105.14 325.013 105.321 324.181 105.58 323.373C105.58 323.373 106.58 321.535 107 321.535C107.728 321.608 108.463 321.571 109.18 321.426C109.61 321.208 109.61 320.88 109.84 320.314C110.07 319.748 110.16 317.195 109.61 317.334C109.039 317.313 108.481 317.16 107.98 316.888C107.325 316.705 106.656 316.576 105.98 316.5C105.66 316.5 105.54 315.507 105.54 315.507C105.54 315.507 107.61 314.315 107.61 313.878C107.61 313.441 106.85 313.352 106.75 312.041C106.65 310.73 107.75 310.75 108.92 310.978C110.09 311.207 108.92 311.505 108.92 312.528C108.92 313.551 109.03 313.451 110.34 312.528C111.65 311.604 111.34 312.587 111.65 312.528C112.325 312.579 112.994 312.688 113.65 312.855C113.65 312.855 113.54 315.507 113.65 318.218C113.76 320.93 117.79 318.318 118.98 317.354C119.56 316.888 121.24 317.116 122.79 317.901C123.517 314.543 123.536 311.073 122.848 307.708C122.16 304.343 120.778 301.155 118.79 298.346C118.755 298.383 118.709 298.407 118.658 298.416C118.608 298.425 118.556 298.418 118.51 298.395C118.03 298.187 116.51 298.624 116.22 298.306C115.93 297.988 114.47 298.624 113.77 298.306C113.36 298.073 113.022 297.733 112.791 297.324C112.561 296.915 112.446 296.451 112.46 295.982C112.263 294.612 111.876 293.275 111.31 292.01C111.13 291.553 111.1 291.334 111.22 291.275C108.202 289.448 104.831 288.271 101.325 287.819C97.8198 287.367 94.2579 287.651 90.87 288.653C91.8 290.222 92.51 292.02 91.53 292.794C89.62 294.314 90.68 295.615 92 296.767C92.2112 296.925 92.3826 297.13 92.5006 297.365C92.6186 297.6 92.68 297.86 92.68 298.122C92.68 298.385 92.6186 298.644 92.5006 298.88C92.3826 299.115 92.2112 299.32 92 299.478C91.59 299.905 90.83 300.988 91.53 301.524C92.23 302.06 93.81 302.716 92.69 303.361C91.57 304.007 92.24 305.635 90.38 304.235C88.52 302.835 89.18 301.524 87.77 301.524C86.36 301.524 86.13 303.153 84.28 303.689C82.43 304.225 82.28 304.126 81.78 303.907C81.28 303.689 81.23 302.289 80.03 301.087C79.8496 300.888 79.6237 300.735 79.3711 300.64C79.1186 300.546 78.847 300.514 78.5792 300.546C78.3115 300.578 78.0554 300.674 77.8328 300.825C77.6101 300.976 77.4274 301.178 77.3 301.415C77.09 301.961 76.74 304.483 77.3 304.791C77.86 305.099 77.2 306.827 76.11 307.155C75.02 307.483 73.94 305.764 73.54 306.887C73.54 306.96 73.52 307.049 73.48 307.155V307.284C72.9792 309.599 72.8176 311.974 73 314.335V314.335ZM99 326.501C97.26 326.938 99 326.501 97.18 324.445C95.36 322.389 98.18 323.79 98.18 323.79C98.5086 322.814 98.7758 321.819 98.98 320.81C99.2 319.519 100.83 320.81 101.73 320.81C102.63 320.81 103.55 322.111 102.48 323.79C102.48 323.79 102.57 324.872 101.73 324.664C100.89 324.455 100.7 326.064 99 326.501ZM98.21 329.421C98.72 329.103 99.99 329.858 99.78 331.258L98.14 331.695C97.5594 331.3 97.0318 330.832 96.57 330.305C96.05 329.719 97.65 329.719 98.16 329.421H98.21ZM84.79 310.154C84.79 309.072 85.11 308.277 85.99 308.069C87.4 307.751 87.73 309.062 88.99 309.181C90.25 309.3 89.69 312.587 89.69 312.587C89.69 312.587 90.14 314.266 87.9 313.729C85.66 313.193 84.46 313.61 84.24 312.806C84.02 312.001 84.79 311.237 84.79 310.154Z" fill="white"/>
<path d="M264.1 122.622C264.1 122.622 261.26 128.312 257.19 130.746C257.19 130.746 263.19 131.113 269.04 124.409L264.1 122.622Z" fill="#407BFF"/>
<path opacity="0.7" d="M264.1 122.622C264.1 122.622 261.26 128.312 257.19 130.746C257.19 130.746 263.19 131.113 269.04 124.409L264.1 122.622Z" fill="white"/>
<path d="M292.473 108.311C294.857 96.3444 286.446 84.6115 273.687 82.1048C260.928 79.5981 248.652 87.2668 246.269 99.2334C243.885 111.2 252.296 122.933 265.055 125.439C277.814 127.946 290.09 120.277 292.473 108.311Z" fill="#407BFF"/>
<path opacity="0.7" d="M292.473 108.311C294.857 96.3444 286.446 84.6115 273.687 82.1048C260.928 79.5981 248.652 87.2668 246.269 99.2334C243.885 111.2 252.296 122.933 265.055 125.439C277.814 127.946 290.09 120.277 292.473 108.311Z" fill="white"/>
<path d="M259.76 116.355C259.977 116.688 260.228 116.998 260.51 117.279L259.81 118.739L262.07 119.97L262.93 118.59C263.321 118.677 263.72 118.72 264.12 118.719L264.67 120.238L267.14 119.523L266.77 117.944C267.11 117.735 267.422 117.485 267.7 117.199L269.18 117.894L270.41 115.65L269.03 114.796C269.115 114.408 269.155 114.011 269.15 113.614L270.69 113.068L269.96 110.615L268.38 110.982C268.163 110.646 267.908 110.336 267.62 110.059L268.32 108.599L266.06 107.367L265.2 108.748C264.811 108.654 264.411 108.611 264.01 108.619L263.47 107.089L261 107.814L261.37 109.393C261.025 109.599 260.709 109.85 260.43 110.138L258.96 109.443L257.73 111.687L259.11 112.541C259.022 112.929 258.978 113.326 258.98 113.723L257.45 114.269L258.17 116.722L259.76 116.355ZM262.17 114.22C262.056 113.842 262.058 113.439 262.175 113.063C262.292 112.686 262.52 112.353 262.828 112.105C263.137 111.857 263.513 111.706 263.908 111.671C264.303 111.636 264.7 111.718 265.048 111.908C265.396 112.098 265.679 112.386 265.862 112.736C266.044 113.086 266.118 113.482 266.073 113.873C266.028 114.265 265.867 114.635 265.61 114.935C265.353 115.236 265.012 115.453 264.63 115.56C264.124 115.702 263.581 115.64 263.121 115.387C262.661 115.134 262.319 114.711 262.17 114.21V114.22Z" fill="white"/>
<path d="M268.9 105.272C269.308 105.787 269.778 106.251 270.3 106.652L269.41 109.185L273.34 110.793L274.51 108.38C275.174 108.461 275.846 108.461 276.51 108.38L277.68 110.793L281.61 109.175L280.72 106.652C281.238 106.239 281.708 105.769 282.12 105.252L284.66 106.136L286.28 102.233L283.86 101.071C283.937 100.411 283.937 99.7444 283.86 99.0845L286.29 97.9225L284.66 94.0195L282.12 94.9133C281.71 94.3969 281.24 93.9302 280.72 93.5229L281.6 90.9905L277.64 89.3816L276.47 91.7949C275.806 91.7138 275.134 91.7138 274.47 91.7949L273.32 89.3816L269.4 91.0004L270.29 93.5329C269.765 93.9348 269.295 94.4021 268.89 94.9233L266.35 94.0394L264.72 97.9424L267.15 99.1043C267.068 99.7639 267.068 100.431 267.15 101.091L264.72 102.253L266.36 106.156L268.9 105.272ZM272.47 101.299C272.22 100.704 272.154 100.049 272.28 99.4162C272.405 98.7837 272.717 98.2024 273.175 97.746C273.634 97.2895 274.218 96.9784 274.855 96.852C275.491 96.7256 276.151 96.7897 276.751 97.0361C277.351 97.2825 277.864 97.7001 278.225 98.236C278.585 98.772 278.778 99.4022 278.778 100.047C278.778 100.692 278.585 101.322 278.224 101.858C277.863 102.393 277.35 102.811 276.75 103.057C275.948 103.386 275.047 103.386 274.244 103.056C273.442 102.727 272.804 102.095 272.47 101.299V101.299Z" fill="white"/>
<path d="M256.79 104.278C256.955 104.493 257.151 104.684 257.37 104.844L257 105.837L258.61 106.503L259.09 105.51C259.359 105.539 259.631 105.539 259.9 105.51L260.38 106.503L261.99 105.837L261.62 104.844C261.834 104.681 262.026 104.491 262.19 104.278L263.19 104.636L263.86 103.037L262.86 102.56C262.89 102.293 262.89 102.023 262.86 101.756L263.86 101.279L263.19 99.6898L262.19 100.047C262.023 99.837 261.832 99.647 261.62 99.4813L261.98 98.4881L260.37 97.8228L259.89 98.8159C259.622 98.7762 259.349 98.7762 259.08 98.8159L258.6 97.8228L257 98.4881L257.36 99.4813C257.146 99.6478 256.954 99.8415 256.79 100.057L255.79 99.6898L255.12 101.289L256.12 101.765C256.08 102.032 256.08 102.303 256.12 102.57L255.12 103.047L255.79 104.646L256.79 104.278ZM258.25 102.679C258.149 102.436 258.122 102.169 258.173 101.911C258.224 101.654 258.351 101.417 258.538 101.23C258.724 101.044 258.962 100.917 259.222 100.864C259.481 100.812 259.75 100.838 259.995 100.937C260.24 101.037 260.45 101.206 260.598 101.424C260.746 101.641 260.826 101.898 260.828 102.161C260.829 102.423 260.752 102.681 260.607 102.9C260.461 103.12 260.254 103.292 260.01 103.394C259.682 103.53 259.314 103.533 258.984 103.401C258.655 103.269 258.391 103.013 258.25 102.689V102.679Z" fill="white"/>
<path d="M344.59 142.216C347.66 143.001 353.99 166.796 356.1 166.945C358.21 167.094 373.5 160.162 373.5 160.162C373.5 160.162 375.5 168.107 375.09 168.047C374.68 167.988 359.66 178.872 354.51 178.485C349.36 178.098 340.14 156.1 340.14 156.1L344.59 142.216Z" fill="#407BFF"/>
<path opacity="0.6" d="M340.14 156.1C340.14 156.1 341.32 158.92 343.08 162.565L343.64 163.717C344.21 164.859 344.82 166.071 345.47 167.282C345.65 167.63 345.84 167.977 346.03 168.325C347.08 170.232 348.2 172.109 349.3 173.718L349.97 174.711C350.771 175.861 351.73 176.894 352.82 177.78C353.301 178.191 353.891 178.456 354.52 178.544C354.806 178.573 355.094 178.573 355.38 178.544C355.717 178.504 356.051 178.441 356.38 178.356C358.305 177.8 360.162 177.038 361.92 176.081L362.85 175.585C364.46 174.721 366.1 173.767 367.63 172.824L368.54 172.258C371.14 170.649 373.32 169.179 374.38 168.504C374.59 168.357 374.815 168.23 375.05 168.126C375.15 168.126 375.1 167.66 374.97 166.945C374.59 164.74 373.47 160.241 373.47 160.241L373.1 160.41L372.18 160.817C370.97 161.353 369.03 162.217 366.9 163.121L365.96 163.518C364.3 164.223 362.57 164.928 361.02 165.504L360.02 165.862C359.36 166.12 358.74 166.339 358.19 166.508C357.79 166.637 357.43 166.746 357.12 166.825C356.766 166.945 356.394 167.009 356.02 167.014C355.62 167.014 355.02 166.11 354.43 164.71C354.25 164.343 354.07 163.925 353.88 163.479C353.23 161.929 352.5 160.003 351.75 157.927C351.59 157.52 351.44 157.103 351.29 156.686C349.91 152.931 348.45 148.909 347.13 146.069C346.788 145.307 346.404 144.564 345.98 143.844V143.844C345.45 142.951 344.98 142.394 344.52 142.285L341.32 152.216L340.14 156.1Z" fill="white"/>
<g opacity="0.2">
<path d="M373.14 160.33L372.22 160.738L374.42 168.424C374.631 168.277 374.855 168.151 375.09 168.047C375.19 168.047 375.14 167.58 375.01 166.865L373.14 160.33Z" fill="black"/>
<path d="M366 163.439L367.67 172.745L368.58 172.179L366.94 163.042L366 163.439Z" fill="black"/>
<path d="M361.06 165.445L360.06 165.803L362 176.002L362.93 175.505L361.06 165.445Z" fill="black"/>
<path d="M355.38 178.465C355.717 178.425 356.051 178.362 356.38 178.276L358.23 166.448C357.83 166.577 357.47 166.687 357.16 166.766L355.38 178.465Z" fill="black"/>
<path d="M354 163.419L349.34 173.718L350.01 174.711L354.55 164.7C354.33 164.283 354.15 163.866 354 163.419Z" fill="black"/>
<path d="M345.47 167.282C345.65 167.63 345.84 167.978 346.03 168.325L351.83 157.868C351.67 157.46 351.52 157.043 351.37 156.626L345.47 167.282Z" fill="black"/>
<path d="M343.08 162.565L343.64 163.717C346.298 158.196 347.525 152.102 347.21 145.99C346.868 145.228 346.484 144.485 346.06 143.765C346.753 150.183 345.725 156.669 343.08 162.565V162.565Z" fill="black"/>
</g>
<path opacity="0.2" d="M340.14 156.1C340.14 156.1 341.32 158.921 343.08 162.565L343.64 163.717C344.21 164.859 344.82 166.071 345.47 167.283C345.65 167.63 345.84 167.978 346.03 168.326C347.08 170.232 348.2 172.109 349.3 173.718L349.97 174.711C350.771 175.861 351.73 176.894 352.82 177.78C353.82 165.197 345.47 153.409 345.47 153.409C344.17 152.834 342.798 152.44 341.39 152.237L340.14 156.1Z" fill="black"/>
<path d="M316.65 105.887C317.193 104.835 317.991 103.934 318.972 103.265C319.953 102.595 321.087 102.179 322.27 102.054C326.33 101.657 327.13 104.547 330.01 103.971C332.89 103.394 335.95 104.06 335.84 106.791C335.73 109.522 337.11 112.462 338.99 113.296C340.87 114.13 340.37 119.185 338.1 121.032C335.83 122.88 339.93 127.498 337.1 131.033C334.27 134.569 336.36 135.264 335.85 136.436C335.751 136.745 335.574 137.024 335.336 137.247C335.098 137.469 334.807 137.628 334.49 137.707C334.49 137.707 335.42 136.525 334.49 135.939C333.56 135.353 334.49 133.288 334.49 133.288C334.49 133.288 332.8 134.569 333.13 135.939C333.46 137.31 323.84 140.567 318.26 139.822C312.68 139.078 312.26 136.436 312.26 136.436C312.26 136.436 311.6 138.492 312.69 139.088C312.69 139.088 310.22 138.094 310.32 136.436C310.42 134.777 310.81 133.784 309.32 132.304C307.83 130.825 307.06 128.908 308.32 126.723C307.647 127.48 307.289 128.464 307.32 129.474C307.32 129.474 305.41 128.253 307.32 125.909C309.23 123.565 306.9 122.363 307.32 118.053C307.74 113.743 309.72 115.074 310.81 111.389C311.9 107.705 312.42 104.278 316.65 105.887Z" fill="#263238"/>
<path d="M314.81 350.694H306.15C306.009 350.698 305.873 350.748 305.763 350.836C305.653 350.923 305.575 351.044 305.54 351.18L304.14 357.487C304.105 357.621 304.098 357.761 304.121 357.897C304.143 358.034 304.194 358.165 304.27 358.281C304.347 358.397 304.447 358.495 304.564 358.571C304.681 358.646 304.812 358.696 304.95 358.718C305.026 358.728 305.104 358.728 305.18 358.718C307.98 358.669 310.02 358.5 313.54 358.5C315.7 358.5 322.24 358.728 325.23 358.728C328.22 358.728 328.61 355.749 327.39 355.52C321.9 354.329 317.76 352.68 316 351.121C315.671 350.835 315.247 350.683 314.81 350.694Z" fill="#263238"/>
<path d="M351.52 350.475H342.86C342.718 350.476 342.58 350.525 342.47 350.613C342.359 350.702 342.282 350.824 342.25 350.962L340.85 357.258C340.821 357.393 340.818 357.532 340.843 357.667C340.868 357.802 340.92 357.931 340.995 358.046C341.07 358.162 341.168 358.261 341.282 358.339C341.396 358.417 341.525 358.472 341.66 358.5H341.89C344.69 358.5 346.73 358.281 350.25 358.281C352.42 358.281 358.95 358.51 361.94 358.51C364.93 358.51 365.32 355.58 364.1 355.302C358.61 354.12 354.47 352.471 352.72 350.902C352.389 350.614 351.96 350.461 351.52 350.475Z" fill="#263238"/>
<path d="M310.22 191.336H348C351.59 210.831 361.88 289.755 353.8 351.23L341.18 352.6C341.18 352.6 343.18 258.114 331.85 227.933C330.55 244.081 329.01 261.262 327.67 270.409C324.42 292.973 317 351.568 317 351.568L304.2 351.915C304.2 351.915 307 295.019 308.2 272.902C309.58 248.908 310.16 196.262 310.22 191.336Z" fill="#263238"/>
<path opacity="0.2" d="M310.22 191.336H348C351.59 210.831 361.88 289.755 353.8 351.23L341.18 352.6C341.18 352.6 343.18 258.114 331.85 227.933C330.55 244.081 329.01 261.262 327.67 270.409C324.42 292.973 317 351.568 317 351.568L304.2 351.915C304.2 351.915 307 295.019 308.2 272.902C309.58 248.908 310.16 196.262 310.22 191.336Z" fill="white"/>
<path opacity="0.2" d="M331.89 227.953C333.754 233.242 335.168 238.677 336.12 244.201C337.18 229.83 332.95 214.585 332.95 214.585L331.89 227.953Z" fill="black"/>
<path d="M348.36 191.783H310.28V196.282L348.84 195.825L348.36 191.783Z" fill="#263238"/>
<path d="M322.52 197.752H323.88V189.767H322.52V197.752Z" fill="#263238"/>
<path d="M341.79 197.752H343.15V189.767H341.79V197.752Z" fill="#263238"/>
<path d="M331.01 196.034H338.05V190.999H331.01V196.034Z" fill="white"/>
<path opacity="0.2" d="M322.52 197.752H323.88V189.767H322.52V197.752Z" fill="white"/>
<path opacity="0.2" d="M341.79 197.752H343.15V189.767H341.79V197.752Z" fill="white"/>
<path d="M344.59 142.216C344.59 142.216 320.53 141.293 302.59 144.967C302.59 144.967 310.51 173.371 310.21 191.783H348.35C348.35 191.783 350.83 161.225 344.59 142.216Z" fill="#407BFF"/>
<path opacity="0.6" d="M302.61 144.997L302.79 145.662C303.04 146.576 303.52 148.403 304.13 150.876C304.2 151.184 304.28 151.511 304.36 151.869C304.53 152.574 304.71 153.319 304.89 154.104C305.14 155.166 305.41 156.308 305.67 157.5C305.74 157.828 305.81 158.146 305.89 158.493C306.18 159.874 306.49 161.324 306.79 162.823L307.12 164.482C307.18 164.8 307.24 165.127 307.31 165.475C307.61 167.074 307.91 168.712 308.19 170.371C308.19 170.689 308.28 170.997 308.34 171.314C308.58 172.784 308.8 174.294 309.01 175.744C309.06 176.072 309.1 176.399 309.14 176.737C309.43 178.852 309.67 180.958 309.84 183.023C309.84 183.302 309.84 183.57 309.92 183.848C309.92 183.848 309.92 183.957 309.92 184.007C310.07 185.943 310.17 187.83 310.2 189.638C310.2 189.975 310.2 190.313 310.2 190.631C310.2 190.949 310.2 191.445 310.2 191.842H348.34C348.34 191.842 348.34 191.356 348.43 190.472C348.43 190.184 348.48 189.856 348.5 189.479C348.58 187.979 348.69 185.814 348.75 183.192V182.199C348.75 179.925 348.81 177.353 348.75 174.592C348.75 174.264 348.75 173.936 348.75 173.599C348.75 171.801 348.66 169.934 348.56 168.017C348.56 167.69 348.56 167.362 348.51 167.024C348.42 165.395 348.31 163.747 348.16 162.059C348.16 161.731 348.11 161.393 348.08 161.065C347.89 159.079 347.66 157.093 347.38 155.107L347.23 154.113C346.93 152.127 346.57 150.141 346.14 148.214C346.07 147.887 345.99 147.559 345.91 147.221C345.57 145.771 345.19 144.351 344.77 143L344.53 142.246C344.53 142.246 320.53 141.292 302.61 144.997Z" fill="white"/>
<g opacity="0.2">
<path d="M302.61 144.997L302.79 145.662C307.082 144.834 311.425 144.293 315.79 144.043C315.79 144.043 322.85 148.651 328.79 147.38C334.73 146.109 333.79 142.544 333.79 142.544L344.79 142.991L344.55 142.236C344.55 142.236 320.53 141.292 302.61 144.997Z" fill="black"/>
<path d="M304.13 150.856C304.2 151.164 304.28 151.492 304.36 151.849C318.67 149.277 337.18 148.463 346.2 148.204C346.13 147.877 346.05 147.549 345.97 147.211C336.85 147.45 318.42 148.284 304.13 150.856Z" fill="black"/>
<path d="M305.67 157.45C305.74 157.778 305.81 158.096 305.89 158.443C320.89 155.97 339.54 155.275 347.44 155.077L347.29 154.083C339.28 154.272 320.62 154.977 305.67 157.45Z" fill="black"/>
<path d="M307.12 164.412C307.18 164.73 307.24 165.058 307.31 165.405C321.78 163.002 339.84 162.257 348.22 162.039C348.22 161.711 348.17 161.373 348.14 161.045C339.72 161.244 321.64 161.989 307.12 164.412Z" fill="black"/>
<path d="M308.19 170.282C308.24 170.609 308.29 170.927 308.35 171.275C322.62 168.941 340.23 168.206 348.62 167.978C348.62 167.65 348.62 167.322 348.57 166.984C340.15 167.193 322.52 167.938 308.19 170.282Z" fill="black"/>
<path d="M309 175.684C309.05 176.012 309.09 176.339 309.13 176.677C323.13 174.8 340.28 174.532 348.81 174.542C348.81 174.214 348.81 173.886 348.81 173.549C340.26 173.539 323.11 173.797 309 175.684Z" fill="black"/>
<path d="M309.85 182.954C309.85 183.281 309.91 183.609 309.94 183.947C323.94 182.616 340.57 182.884 348.77 183.142V182.149C340.58 181.881 323.92 181.613 309.85 182.954Z" fill="black"/>
<path d="M310.22 189.568C310.22 189.906 310.22 190.244 310.22 190.561C324.13 189.499 340.39 190.025 348.44 190.402C348.44 190.114 348.49 189.787 348.51 189.409C340.47 189.042 324.18 188.516 310.22 189.568Z" fill="black"/>
</g>
<path opacity="0.2" d="M326.56 166.756L308.2 170.312C308.2 170.629 308.29 170.937 308.35 171.255C308.59 172.725 308.81 174.234 309.02 175.684C309.07 176.012 309.11 176.34 309.15 176.677C309.44 178.793 309.68 180.898 309.85 182.964C309.85 183.242 309.85 183.51 309.93 183.788C326.13 179.13 328.12 170.55 328.12 170.55L326.56 166.756Z" fill="black"/>
<path opacity="0.2" d="M304.89 154.054C305.14 155.117 305.41 156.259 305.67 157.451C305.74 157.778 305.81 158.096 305.89 158.444C306.18 159.824 306.49 161.274 306.79 162.774C308.011 159.007 308.094 154.968 307.03 151.154L304.89 154.054Z" fill="black"/>
<path d="M316.65 143.179C320.11 146.298 328.57 145.165 328.57 145.165C328.57 145.165 333.85 143.735 332.74 142.097C329.63 141.58 328.12 140.11 327.5 138.293C327.161 137.15 327.056 135.951 327.19 134.767C327.237 134.101 327.324 133.437 327.45 132.781L317 125.134C318.36 130.159 320 139.505 316.65 143.179Z" fill="#EBB376"/>
<path opacity="0.2" d="M319.4 129.971C319.82 136.208 324.98 137.916 327.5 138.273C327.161 137.13 327.056 135.932 327.19 134.748L319.4 129.971Z" fill="black"/>
<path d="M334.7 108.926C334.7 108.926 337.61 118.301 333.04 122.76C328.47 127.219 325.77 109.343 325.77 109.343L334.7 108.926Z" fill="#263238"/>
<path d="M319.31 132.603C320.625 134.021 322.371 134.972 324.282 135.311C326.192 135.65 328.162 135.358 329.89 134.48C332.141 133.376 333.889 131.467 334.78 129.136C334.905 128.811 335.011 128.48 335.1 128.143C336.74 121.907 336 111.528 329.17 108.618C327.666 107.967 326.018 107.709 324.385 107.868C322.752 108.028 321.187 108.599 319.839 109.529C318.491 110.459 317.405 111.715 316.684 113.18C315.963 114.644 315.631 116.267 315.72 117.894C316 124.866 315.82 128.978 319.31 132.603Z" fill="#EBB376"/>
<path d="M325.79 119.99C325.74 120.556 326.06 120.983 326.44 121.033C326.82 121.082 327.13 120.576 327.14 120.04C327.15 119.503 326.86 119.046 326.49 119.046C326.12 119.046 325.8 119.414 325.79 119.99Z" fill="#263238"/>
<path d="M333.12 120.169C333.07 120.735 333.41 121.162 333.78 121.211C334.15 121.261 334.47 120.755 334.48 120.218C334.49 119.682 334.19 119.225 333.82 119.225C333.45 119.225 333.14 119.583 333.12 120.169Z" fill="#263238"/>
<path d="M330.75 120.427C331.393 122.176 332.278 123.827 333.38 125.333C332.982 125.605 332.528 125.787 332.051 125.866C331.574 125.945 331.086 125.919 330.62 125.79L330.75 120.427Z" fill="#D58745"/>
<path d="M324.38 117.934C324.441 117.945 324.503 117.939 324.561 117.918C324.619 117.897 324.67 117.862 324.71 117.815C324.961 117.479 325.289 117.207 325.666 117.021C326.043 116.835 326.459 116.739 326.88 116.742C326.967 116.748 327.053 116.72 327.12 116.665C327.187 116.609 327.23 116.53 327.24 116.444C327.248 116.356 327.222 116.268 327.166 116.2C327.11 116.131 327.029 116.087 326.94 116.077C326.407 116.063 325.879 116.176 325.399 116.406C324.919 116.635 324.501 116.975 324.18 117.398C324.149 117.428 324.124 117.464 324.107 117.505C324.09 117.545 324.082 117.588 324.082 117.631C324.082 117.674 324.09 117.717 324.107 117.758C324.124 117.798 324.149 117.834 324.18 117.864V117.864C324.241 117.901 324.309 117.925 324.38 117.934V117.934Z" fill="#263238"/>
<path d="M335.63 118.023C335.691 118.048 335.759 118.048 335.82 118.023C335.902 117.988 335.966 117.923 336 117.841C336.033 117.76 336.033 117.668 336 117.586V117.586C335.787 117.101 335.459 116.674 335.045 116.34C334.631 116.006 334.142 115.777 333.62 115.67C333.533 115.658 333.444 115.681 333.374 115.733C333.303 115.784 333.255 115.862 333.24 115.948C333.231 116.035 333.256 116.123 333.31 116.193C333.364 116.263 333.443 116.31 333.53 116.325C333.939 116.423 334.32 116.614 334.643 116.883C334.966 117.152 335.221 117.491 335.39 117.874C335.416 117.916 335.451 117.951 335.493 117.977C335.534 118.003 335.581 118.019 335.63 118.023V118.023Z" fill="#263238"/>
<path d="M321.05 109.294L321.52 112.362C321.003 112.622 320.604 113.066 320.403 113.606C320.203 114.146 320.216 114.742 320.44 115.272C321.51 117.835 320.14 121.887 318.19 123.535C318.19 123.535 318.09 122.413 317.19 122.711C316.29 123.009 316.67 128.829 318.6 131.56C316.138 129.026 314.377 125.902 313.49 122.492C311.87 116.871 312.04 112.7 313.15 110.476L321.05 109.294Z" fill="#263238"/>
<path d="M312.54 123.545C313.286 125.14 314.638 126.376 316.3 126.982C318.51 127.766 319.78 125.84 319.3 123.685C318.87 121.768 317.21 118.997 314.92 119.166C314.425 119.209 313.949 119.373 313.534 119.644C313.118 119.915 312.778 120.285 312.542 120.719C312.306 121.153 312.182 121.639 312.182 122.132C312.181 122.625 312.305 123.111 312.54 123.545Z" fill="#EBB376"/>
<path d="M330.66 127.349C330.126 128.022 329.641 128.732 329.21 129.474L328.78 129.315C326.86 128.561 326.22 127.587 326.09 126.723C326.017 126.06 326.18 125.393 326.55 124.836C327.522 125.834 328.699 126.613 330 127.121L330.66 127.349Z" fill="#263238"/>
<path d="M330 127.12L329.56 127.736C327.75 127.021 326.56 126.276 326.22 125.512C326.296 125.283 326.403 125.065 326.54 124.866C327.518 125.854 328.698 126.623 330 127.12V127.12Z" fill="white"/>
<path d="M328.78 129.315C326.86 128.561 326.22 127.587 326.09 126.723C326.826 127.023 327.503 127.45 328.09 127.985C328.456 128.345 328.697 128.811 328.78 129.315V129.315Z" fill="#DE5753"/>
<path d="M313.11 110.476C313.11 110.476 313.77 106.97 320.29 105.589C326.81 104.209 332.29 105.301 334.63 108.34C336.081 110.404 336.77 112.902 336.58 115.412C336.58 115.412 336.63 115.203 334.63 114.816C332.63 114.428 331.47 112.462 330.69 111.836C329.91 111.211 328.12 111.707 328.12 111.707C328.805 111.714 329.469 111.945 330.01 112.363C330.71 113.018 330.65 114.845 332.01 114.915C331.809 115.065 331.578 115.171 331.332 115.226C331.087 115.282 330.832 115.284 330.586 115.235C330.339 115.185 330.106 115.084 329.902 114.938C329.697 114.792 329.526 114.605 329.4 114.389C328.48 112.75 324.85 111.965 323.73 112.561C322.61 113.157 318.26 111.965 317.8 110.575L313.11 110.476Z" fill="#263238"/>
<path d="M391.45 149.336C387.69 141.193 377.25 141.014 373.36 146.754C369.47 152.495 372.43 155.692 369.55 158.314C365.37 162.078 361.24 163.101 362.55 168.772C363.55 172.854 371.71 175.207 378.94 172.566C390.69 168.275 395.81 158.741 391.45 149.336Z" fill="#263238"/>
<path opacity="0.2" d="M391.45 149.336C387.69 141.193 377.25 141.014 373.36 146.754C369.47 152.495 372.43 155.692 369.55 158.314C365.37 162.078 361.24 163.101 362.55 168.772C363.55 172.854 371.71 175.207 378.94 172.566C390.69 168.275 395.81 158.741 391.45 149.336Z" fill="white"/>
<path d="M385.7 148.314C384.04 148.026 384.88 149.575 384.26 149.863C383.64 150.151 383.73 150.22 384.09 151.392C384.45 152.564 384.99 154.63 386.52 154.054C388.05 153.478 387.7 152.306 388.13 151.929C388.56 151.551 387.52 151.333 387.43 150.359C387.382 149.885 387.191 149.437 386.882 149.072C386.574 148.707 386.162 148.443 385.7 148.314V148.314Z" fill="#407BFF"/>
<path d="M385.16 156.666C383.5 156.378 384.33 157.927 383.71 158.205C383.09 158.484 383.18 158.573 383.54 159.745C383.9 160.917 384.45 162.973 385.98 162.406C387.51 161.84 387.15 160.649 387.58 160.281C388.01 159.914 386.97 159.675 386.88 158.702C386.833 158.23 386.644 157.783 386.337 157.42C386.03 157.057 385.62 156.794 385.16 156.666V156.666Z" fill="#407BFF"/>
<path d="M372.77 164.561C371.19 163.747 371.52 165.385 370.77 165.425C370.02 165.465 370.11 165.564 370.08 166.706C370.05 167.848 369.91 169.855 371.65 169.874C373.39 169.894 373.42 168.742 373.99 168.563C374.56 168.385 373.56 167.829 373.8 166.945C373.902 166.49 373.858 166.015 373.673 165.587C373.488 165.16 373.172 164.8 372.77 164.561V164.561Z" fill="#407BFF"/>
<path d="M379.74 149.198C380.24 148.433 379.19 147.132 378.45 147.351C377.71 147.569 377.73 146.208 377.07 146.814C376.41 147.42 376.53 148.205 376.47 149.327C376.516 149.85 376.685 150.355 376.963 150.801C377.241 151.248 377.62 151.624 378.07 151.899C378.56 152.108 379.22 152.564 379.52 151.71C379.82 150.856 379.11 150.131 379.74 149.198Z" fill="#407BFF"/>
<path d="M378.24 165.783C377.48 166.27 378.1 167.769 378.92 167.849C379.74 167.928 379.26 169.09 380.12 168.842C380.98 168.594 381.12 167.849 381.59 166.856C381.717 166.365 381.715 165.85 381.586 165.36C381.456 164.87 381.203 164.421 380.85 164.055C380.42 163.697 379.92 163.062 379.33 163.717C378.74 164.373 379.2 165.177 378.24 165.783Z" fill="#407BFF"/>
<path d="M374.51 158.066C374.971 157.39 375.338 156.655 375.6 155.881C375.6 155.881 373.26 155.226 372.6 156.229C372.414 156.538 372.296 156.883 372.254 157.241C372.213 157.599 372.249 157.961 372.36 158.304C372.36 158.304 374.05 158.593 374.51 158.066Z" fill="#EBB376"/>
<path d="M319.17 157.063L339.38 161.92L341.09 162.774L340.9 163.479L339.03 163.25L319.05 157.54L319.17 157.063Z" fill="#263238"/>
<path opacity="0.2" d="M319.17 157.063L339.38 161.92L341.09 162.774L340.9 163.479L339.03 163.25L319.05 157.54L319.17 157.063Z" fill="white"/>
<path d="M343.88 164.561C345.99 164.561 346.06 163.062 346.06 163.062C345.498 163.359 344.84 163.424 344.23 163.241V163.241C344.121 163.212 344.017 163.169 343.92 163.112C342.966 162.745 341.94 162.599 340.92 162.684L340.7 163.509C341.581 164.259 342.722 164.637 343.88 164.561V164.561Z" fill="#263238"/>
<path d="M343.88 164.561C345.99 164.561 346.06 163.062 346.06 163.062C345.498 163.359 344.84 163.423 344.23 163.24V163.24C343.94 163.24 343.52 163.35 343.74 163.777C343.96 164.204 344.74 163.638 344.55 164.154C344.36 164.67 343.36 164.025 343.88 164.561Z" fill="#407BFF"/>
<path d="M316.65 170.54L324.77 167.918C324.77 167.918 326.88 162.813 327.64 162.516C328.4 162.218 333.69 159.665 334.48 160.36C335.27 161.056 335.23 166.319 335.23 167.312C335.23 168.305 327.64 172.139 327.64 172.139L325.94 172.01L318.02 174.989L316.65 170.54Z" fill="#EBB376"/>
<path d="M302.6 144.997C297.42 148.135 290.82 178.177 293.46 182.15C296.1 186.122 323.88 175.377 323.88 175.377L322.52 168.077C322.52 168.077 304.1 173.331 302.6 171.732C301.1 170.133 307.31 157.699 307.31 157.699C307.31 157.699 307.49 151.74 306.45 148.085C305.41 144.431 302.6 144.997 302.6 144.997Z" fill="#407BFF"/>
<path opacity="0.6" d="M292.87 178.873C292.868 179.29 292.888 179.708 292.93 180.124C292.957 180.817 293.138 181.495 293.46 182.11C294.3 183.381 297.71 183.103 301.96 182.249L302.96 182.021C304.96 181.564 307.06 181.028 309.16 180.352L310.16 180.064C312.16 179.449 314.16 178.803 315.94 178.197L316.94 177.87C319.05 177.135 320.85 176.479 322.09 176.022L323.04 175.665L323.89 175.347L322.53 168.038L321.76 168.246L320.76 168.524C319.49 168.862 317.64 169.358 315.6 169.865L314.6 170.103C312.96 170.5 311.24 170.898 309.6 171.216L308.6 171.414C307.187 171.696 305.758 171.888 304.32 171.99C303.987 172.016 303.653 172.016 303.32 171.99C303.078 171.979 302.841 171.911 302.63 171.792C302.595 171.777 302.563 171.753 302.54 171.722C302.342 171.431 302.259 171.077 302.31 170.729C302.394 169.779 302.592 168.842 302.9 167.938C303.01 167.601 303.12 167.253 303.25 166.895C303.49 166.2 303.76 165.475 304.06 164.75C304.18 164.442 304.3 164.135 304.43 163.827C304.94 162.595 305.43 161.413 305.93 160.41C306.09 160.063 306.23 159.745 306.37 159.417C306.89 158.315 307.24 157.61 307.24 157.61C307.293 155.428 307.199 153.245 306.96 151.075C306.851 150.035 306.657 149.005 306.38 147.996C305.33 144.381 302.54 144.917 302.54 144.917C302.408 144.994 302.284 145.084 302.17 145.186C300.96 146.179 299.68 148.582 298.47 151.691C298.34 152.018 298.22 152.356 298.09 152.684C297.29 154.879 296.52 157.361 295.83 159.944C295.75 160.271 295.66 160.589 295.58 160.937C294.98 163.271 294.46 165.644 294.03 167.889C293.96 168.226 293.9 168.574 293.84 168.882C293.211 172.176 292.886 175.52 292.87 178.873Z" fill="white"/>
<g opacity="0.2">
<path d="M320.78 168.534C321.11 170.431 321.58 173.192 322.08 176.032L323.03 175.675C322.55 172.943 322.03 170.133 321.75 168.256L320.78 168.534Z" fill="black"/>
<path d="M315.62 169.875L314.62 170.113L315.94 178.207L316.94 177.879L315.62 169.875Z" fill="black"/>
<path d="M308.68 171.424L309.2 180.362L310.2 180.074L309.69 171.225L308.68 171.424Z" fill="black"/>
<path d="M304.92 146.914C305.944 148.139 306.667 149.584 307.03 151.134C306.921 150.094 306.727 149.065 306.45 148.056C305.4 144.441 302.61 144.977 302.61 144.977C302.477 145.053 302.353 145.143 302.24 145.245C303.278 145.531 304.209 146.111 304.92 146.914V146.914Z" fill="black"/>
<path d="M306 160.43C306.16 160.083 306.3 159.765 306.44 159.437L298.54 151.71C298.41 152.038 298.29 152.376 298.16 152.704L306 160.43Z" fill="black"/>
<path d="M295.65 160.996L304.13 164.77C304.25 164.462 304.37 164.154 304.5 163.846L295.9 160.023C295.82 160.35 295.73 160.668 295.65 160.996Z" fill="black"/>
<path d="M293.91 169.02L302.97 167.958C303.08 167.62 303.19 167.273 303.32 166.915L294.1 167.998C294 168.335 294 168.683 293.91 169.02Z" fill="black"/>
<path d="M303.39 171.98L302 182.259L303 182.03L304.4 172C304.063 172.019 303.726 172.013 303.39 171.98V171.98Z" fill="black"/>
<path d="M292.87 178.872C292.868 179.29 292.888 179.708 292.93 180.123L302.7 171.781C302.665 171.766 302.633 171.742 302.61 171.712C302.411 171.421 302.329 171.066 302.38 170.719L292.87 178.872Z" fill="black"/>
</g>
<path d="M257.49 156.666C261.52 157.123 270 172.804 270 172.804L272.27 172.973C272.27 172.973 276.75 183.749 273.97 186.5C272.84 187.612 270.3 187.781 267.36 183.421C263 177.005 259.1 169.825 259.1 169.825L257.49 156.666Z" fill="#263238"/>
<path d="M237.08 128.868C237.08 128.868 233.16 120.447 227.46 127.488C221.76 134.529 230.87 147.033 230.06 153.488C229.25 159.943 226.36 161.066 226.36 161.066C226.36 161.066 232.94 161.989 235.89 157.451C238.84 152.912 237.08 128.868 237.08 128.868Z" fill="#263238"/>
<path d="M262 193.025L227 198.288L228 169.219L258.67 168.474C258.67 168.474 262.43 180.749 262 193.025Z" fill="#263238"/>
<path opacity="0.2" d="M262 193.025L227 198.288L228 169.219L258.67 168.474C258.67 168.474 262.43 180.749 262 193.025Z" fill="black"/>
<path d="M281.8 351.667L286.45 350.406C284.75 327.127 280.15 299.031 276.24 277.967C275.63 274.67 275.04 271.551 274.47 268.642C274.19 267.261 273.94 265.93 273.68 264.669C272.44 258.353 271.39 253.367 270.74 250.289C270.27 248.034 270 246.803 270 246.803L253.28 251.619L254.67 255.8L259.27 269.605L259.79 271.184L262.79 280.301L268 295.804C268.71 319.549 281.8 351.667 281.8 351.667Z" fill="#EBB376"/>
<path d="M241.27 350.575L246.07 350.108C248.58 324.863 248.68 293.43 248.33 271.591C248.28 268.205 248.21 265.037 248.15 262.176C248.15 262.028 248.15 261.888 248.15 261.749C248.02 256.069 247.87 251.55 247.76 248.68L247.62 245.214L230.32 247.131L231.4 254.281L233 264.749L233.31 266.814L234.39 273.965L237.28 293.152C233.87 316.669 241.27 350.575 241.27 350.575Z" fill="#EBB376"/>
<path opacity="0.2" d="M233 264.749L248.2 262.147C248.2 261.998 248.2 261.859 248.2 261.719C248.07 256.039 247.92 251.52 247.81 248.65L231.38 254.241L233 264.749Z" fill="black"/>
<path opacity="0.2" d="M272.42 258.343L256.42 261.034L254.67 255.78L270.74 250.269C271.16 252.255 271.73 254.976 272.42 258.343Z" fill="black"/>
<path d="M231 201.754C231 201.754 220.63 225.818 230.32 260.716L249.22 258.571V240.586L253.3 257.916L272.3 254.142C266.47 225.818 261.22 212.977 261.22 212.977L259.81 198.725L231 201.754Z" fill="#407BFF"/>
<path opacity="0.7" d="M231 201.754C231 201.754 220.63 225.818 230.32 260.716L249.22 258.571V240.586L253.3 257.916L272.3 254.142C266.47 225.818 261.22 212.977 261.22 212.977L259.81 198.725L231 201.754Z" fill="white"/>
<path d="M239.76 206.978L254.68 205.667V200.86L239.76 202.141V206.978Z" fill="#263238"/>
<path d="M238.45 202.251L230.97 202.896L230.3 207.812L238.45 207.087V202.251Z" fill="#263238"/>
<path d="M255.82 200.761V205.568L259.17 205.27V200.483L255.82 200.761Z" fill="#263238"/>
<path d="M250.74 201.317C250.561 201.153 250.349 201.029 250.118 200.952C249.887 200.875 249.642 200.847 249.4 200.87L245.88 201.168C245.443 201.203 245.036 201.401 244.739 201.721C244.443 202.041 244.279 202.461 244.28 202.896V205.131C244.281 205.372 244.332 205.61 244.43 205.831C244.528 206.051 244.671 206.249 244.85 206.412C245.171 206.707 245.593 206.87 246.03 206.869H246.19L249.71 206.561C250.146 206.526 250.552 206.328 250.847 206.007C251.142 205.687 251.304 205.267 251.3 204.833V202.598C251.301 202.358 251.252 202.12 251.155 201.899C251.059 201.679 250.918 201.481 250.74 201.317V201.317ZM249.63 205.657L246.11 205.975C245.992 205.985 245.874 205.97 245.762 205.932C245.65 205.894 245.547 205.833 245.46 205.754C245.373 205.675 245.303 205.579 245.255 205.471C245.206 205.364 245.181 205.248 245.18 205.131V202.896C245.182 202.686 245.263 202.483 245.407 202.329C245.551 202.175 245.749 202.079 245.96 202.062L249.48 201.754H249.56C249.77 201.756 249.973 201.834 250.13 201.973C250.214 202.054 250.282 202.151 250.328 202.259C250.374 202.366 250.399 202.482 250.4 202.598V202.936H250.26L249.26 203.016C249.114 203.042 248.983 203.121 248.893 203.238C248.802 203.354 248.758 203.5 248.769 203.647C248.781 203.793 248.846 203.931 248.953 204.033C249.061 204.134 249.202 204.193 249.35 204.197L250.35 204.128H250.4V204.863C250.393 205.066 250.311 205.26 250.169 205.407C250.026 205.553 249.835 205.643 249.63 205.657V205.657Z" fill="white"/>
<path d="M239 349.581C239 348.975 246.42 349.452 246.42 349.452C246.42 349.452 250.98 354.05 255.42 355.093C259.86 356.136 257.42 358.768 252.42 358.768H240.16C236.64 358.758 238.84 355.778 239 349.581Z" fill="#263238"/>
<path d="M250.31 351.319C249.24 351.189 248.201 350.873 247.24 350.386C247.24 350.386 247.19 350.386 247.18 350.336C247.17 350.313 247.165 350.287 247.165 350.262C247.165 350.236 247.17 350.211 247.18 350.187C247.18 350.118 247.83 348.4 248.84 347.983C248.996 347.908 249.167 347.869 249.34 347.869C249.513 347.869 249.684 347.908 249.84 347.983C250.17 348.141 250.34 348.35 250.32 348.598C250.3 348.847 249.77 349.373 249.17 349.691C249.729 349.598 250.304 349.66 250.83 349.869C250.928 349.922 251.015 349.994 251.083 350.081C251.152 350.168 251.202 350.269 251.23 350.376C251.283 350.51 251.294 350.656 251.262 350.796C251.23 350.936 251.156 351.063 251.05 351.161C250.831 351.3 250.568 351.357 250.31 351.319ZM247.92 350.267C249.01 350.724 250.37 351.131 250.72 350.843C250.72 350.843 250.84 350.743 250.77 350.455C250.737 350.345 250.662 350.252 250.56 350.197C249.69 349.985 248.778 350.009 247.92 350.267V350.267ZM249.25 348.28C249.147 348.281 249.045 348.301 248.95 348.34C248.365 348.722 247.917 349.278 247.67 349.929C248.77 349.512 249.83 348.936 249.85 348.608C249.85 348.509 249.69 348.41 249.59 348.36C249.486 348.297 249.371 348.257 249.25 348.241V348.28Z" fill="#407BFF"/>
<path d="M280.48 349.581C280.48 348.975 287.91 349.452 287.91 349.452C287.91 349.452 292.47 354.05 296.91 355.093C301.35 356.136 298.91 358.768 293.91 358.768H281.65C278.14 358.758 280.34 355.778 280.48 349.581Z" fill="#263238"/>
<path d="M291.81 351.319C290.739 351.19 289.7 350.874 288.74 350.386C288.711 350.378 288.686 350.361 288.67 350.336C288.66 350.313 288.655 350.287 288.655 350.262C288.655 350.236 288.66 350.211 288.67 350.187C288.67 350.118 289.31 348.4 290.32 347.983C290.476 347.908 290.647 347.869 290.82 347.869C290.993 347.869 291.164 347.908 291.32 347.983C291.66 348.141 291.82 348.35 291.81 348.598C291.8 348.847 291.25 349.373 290.65 349.691C291.209 349.598 291.784 349.66 292.31 349.869C292.409 349.92 292.496 349.992 292.565 350.079C292.634 350.167 292.684 350.268 292.71 350.376C292.763 350.51 292.774 350.656 292.742 350.796C292.71 350.936 292.636 351.063 292.53 351.161C292.319 351.303 292.062 351.359 291.81 351.319ZM289.41 350.267C290.51 350.724 291.86 351.131 292.21 350.843C292.21 350.843 292.34 350.743 292.26 350.455C292.245 350.4 292.219 350.349 292.183 350.304C292.146 350.26 292.101 350.223 292.05 350.197C291.18 349.985 290.268 350.009 289.41 350.267V350.267ZM290.74 348.28C290.637 348.281 290.535 348.301 290.44 348.34C289.855 348.72 289.41 349.277 289.17 349.929C290.27 349.512 291.33 348.936 291.35 348.608C291.35 348.509 291.18 348.41 291.08 348.36C290.977 348.296 290.861 348.256 290.74 348.241V348.28Z" fill="#407BFF"/>
<path opacity="0.2" d="M249.2 240.586C252.43 233.952 254.68 228.499 254.68 228.499C254.68 228.499 255.39 245.273 253.28 257.916L249.2 240.586Z" fill="black"/>
<path d="M231 201.754L259.18 199.281C259.18 199.281 261.92 169.487 257.51 156.666C257.51 156.666 256.77 156.666 255.51 156.755C250.89 157.004 239.15 157.868 229 160.728C228.32 160.907 227.67 161.115 227 161.314C230.149 174.555 231.495 188.157 231 201.754Z" fill="#407BFF"/>
<path d="M245.49 164.939C238.93 163.946 237.02 161.106 237.02 161.106C241.29 157.292 238.02 150.429 238.02 150.429L245.9 152.088C245.693 153.18 245.563 154.285 245.51 155.395C245.34 160.162 247.51 160.261 247.51 160.261C248.81 162.873 245.49 164.939 245.49 164.939Z" fill="#EBB376"/>
<path opacity="0.2" d="M245.87 152.088C245.663 153.18 245.533 154.285 245.48 155.395C240.13 155.266 237.99 150.429 237.99 150.429L245.87 152.088Z" fill="black"/>
<path d="M236.67 128.114C236.67 128.114 232.67 128.223 230.9 134.509C229.13 140.796 232.82 151.869 238.32 151.025C243.82 150.181 236.67 128.114 236.67 128.114Z" fill="#263238"/>
<path d="M235.76 128.819C235.76 128.819 236.89 125.412 242.69 125.502C256.49 125.72 257.74 141.392 254.51 145.583C251.28 149.774 245.39 148.85 245.39 148.85L235.76 128.819Z" fill="#263238"/>
<path d="M251.54 149.089C251.46 149.307 251.38 149.526 251.29 149.734C250.797 151.06 249.86 152.177 248.637 152.9C247.414 153.623 245.979 153.908 244.57 153.707C244.063 153.68 243.558 153.617 243.06 153.518C242.75 153.458 242.41 153.389 242.06 153.299C230.43 150.38 231.71 129.047 243.16 129.395C250.05 129.613 252.16 133.367 252.43 140.419C252.664 143.338 252.362 146.276 251.54 149.089V149.089Z" fill="#EBB376"/>
<path d="M248 139.932C248.519 140.97 249.16 141.944 249.91 142.832C249.7 143.108 249.416 143.321 249.092 143.447C248.767 143.573 248.413 143.608 248.07 143.547L248 139.932Z" fill="#D58745"/>
<path d="M243.81 139.237C243.81 139.803 243.49 140.23 243.12 140.23C242.75 140.23 242.43 139.773 242.44 139.237C242.45 138.701 242.75 138.244 243.13 138.244C243.51 138.244 243.81 138.671 243.81 139.237Z" fill="#263238"/>
<path d="M243 138.244L244.24 137.767C244.24 137.767 243.59 138.79 243 138.244Z" fill="#263238"/>
<path d="M250.85 139.177C250.85 139.743 250.54 140.17 250.16 140.17C249.78 140.17 249.48 139.713 249.48 139.177C249.48 138.641 249.8 138.184 250.18 138.184C250.56 138.184 250.86 138.611 250.85 139.177Z" fill="#263238"/>
<path d="M250 138.184L251.24 137.707C251.24 137.707 250.63 138.73 250 138.184Z" fill="#263238"/>
<path d="M240.87 135.81C240.782 135.811 240.696 135.779 240.63 135.721C240.597 135.688 240.57 135.648 240.552 135.605C240.534 135.561 240.524 135.515 240.524 135.468C240.524 135.421 240.534 135.374 240.552 135.331C240.57 135.287 240.597 135.248 240.63 135.214C241.069 134.79 241.6 134.473 242.184 134.289C242.767 134.105 243.385 134.058 243.99 134.152C244.086 134.168 244.171 134.22 244.227 134.299C244.283 134.377 244.306 134.474 244.29 134.569C244.274 134.664 244.221 134.748 244.142 134.804C244.063 134.86 243.966 134.883 243.87 134.867C243.389 134.792 242.897 134.827 242.431 134.968C241.965 135.109 241.538 135.353 241.18 135.681C241.144 135.728 241.097 135.764 241.042 135.786C240.988 135.809 240.929 135.817 240.87 135.81Z" fill="#263238"/>
<path d="M251.64 135.383C251.564 135.387 251.489 135.362 251.43 135.314C251.098 135.043 250.709 134.85 250.293 134.747C249.876 134.644 249.441 134.634 249.02 134.718C248.929 134.748 248.829 134.741 248.742 134.698C248.656 134.655 248.591 134.58 248.56 134.49C248.53 134.399 248.537 134.299 248.58 134.214C248.623 134.128 248.699 134.063 248.79 134.033C249.32 133.912 249.87 133.912 250.4 134.033C250.93 134.153 251.426 134.391 251.85 134.728C251.927 134.785 251.979 134.87 251.994 134.965C252.009 135.06 251.986 135.156 251.93 135.234C251.898 135.281 251.854 135.319 251.804 135.344C251.753 135.37 251.697 135.384 251.64 135.383V135.383Z" fill="#263238"/>
<path d="M235.28 140.736C235.28 140.736 238.68 135.205 238.33 130.805C238.33 130.805 252.16 125.69 252.4 139.475C252.4 139.475 254.12 127.299 242.28 126.654C230.44 126.008 229.95 143.219 235.9 148.503C235.9 148.592 233.17 144.182 235.28 140.736Z" fill="#263238"/>
<path d="M236.36 142.216C236.344 141.821 236.248 141.433 236.079 141.076C235.91 140.718 235.671 140.397 235.376 140.132C235.081 139.866 234.736 139.662 234.361 139.53C233.985 139.399 233.587 139.343 233.19 139.366C231.05 139.535 229.89 143.855 235.19 145.066C235.93 145.245 236.38 144.51 236.36 142.216Z" fill="#EBB376"/>
<path d="M247.5 146.05C246.746 146.094 245.995 145.912 245.346 145.528C244.697 145.144 244.179 144.575 243.86 143.894C243.848 143.864 243.843 143.831 243.843 143.798C243.844 143.766 243.852 143.733 243.865 143.703C243.879 143.673 243.898 143.646 243.922 143.624C243.946 143.601 243.974 143.583 244.005 143.572C244.036 143.56 244.069 143.554 244.102 143.555C244.135 143.556 244.167 143.563 244.198 143.577C244.228 143.59 244.255 143.609 244.278 143.633C244.3 143.657 244.318 143.685 244.33 143.716C244.604 144.306 245.054 144.799 245.619 145.128C246.184 145.456 246.837 145.605 247.49 145.553H247.61C247.676 145.553 247.74 145.579 247.787 145.626C247.834 145.672 247.86 145.735 247.86 145.801C247.86 145.867 247.834 145.93 247.787 145.977C247.74 146.023 247.676 146.05 247.61 146.05H247.5Z" fill="#263238"/>
<path d="M229 160.748C229.27 161.006 239.05 170.461 247.3 168.097C255.18 165.833 255.5 157.719 255.51 156.755C250.84 157.004 239.1 157.907 229 160.748Z" fill="#EBB376"/>
<path d="M224.69 201.754L225.69 202.608L226.17 203.025C234.6 186.261 230.32 160.112 230.32 160.112L227 161.334C227.22 165.435 227.23 169.656 227.12 173.748C226.827 183.12 226.016 192.47 224.69 201.754V201.754Z" fill="#263238"/>
<path d="M253.88 156.666C253.88 156.666 262.88 176.121 260.71 196.262L262.42 194.901C262.42 194.901 262.22 165.386 257.49 156.666H253.88Z" fill="#263238"/>
<path d="M271.47 173.43L268.11 168.465C268.11 168.465 267.39 166.151 266.17 165.654C264.95 165.157 261.17 164.591 260.17 164.929C259.17 165.267 258.68 168.465 258.68 168.465L266.14 170.848L268.21 174.92L271.47 173.43Z" fill="#EBB376"/>
<path d="M250.07 126.257C248.511 125.953 246.901 126.032 245.38 126.485V126.485C244.484 126.245 243.534 126.297 242.67 126.634C240.852 126.568 239.035 126.796 237.29 127.309L234.19 136.436L234.45 136.933L237.95 128.342C239.07 129.494 241.36 131.322 243.28 131.014C245.83 130.666 244.52 128.511 243.78 127.498C244.014 127.261 244.326 127.117 244.659 127.091C244.991 127.066 245.322 127.161 245.59 127.359C246.196 128.235 246.998 128.96 247.933 129.477C248.868 129.994 249.911 130.289 250.98 130.338C253.85 130.259 250.07 126.257 250.07 126.257Z" fill="#407BFF"/>
<path opacity="0.2" d="M250.07 126.257C248.511 125.953 246.901 126.032 245.38 126.485V126.485C244.484 126.245 243.534 126.297 242.67 126.634C240.852 126.568 239.035 126.796 237.29 127.309L234.19 136.436L234.45 136.933L237.95 128.342C239.07 129.494 241.36 131.322 243.28 131.014C245.83 130.666 244.52 128.511 243.78 127.498C244.014 127.261 244.326 127.117 244.659 127.091C244.991 127.066 245.322 127.161 245.59 127.359C246.196 128.235 246.998 128.96 247.933 129.477C248.868 129.994 249.911 130.289 250.98 130.338C253.85 130.259 250.07 126.257 250.07 126.257Z" fill="black"/>
<g opacity="0.3">
<path d="M249.18 126.515L249.75 129.862C249.75 129.862 251.7 130.339 251.61 129.326C251.52 128.313 250.02 126.545 250.02 126.545C249.743 126.498 249.46 126.488 249.18 126.515V126.515Z" fill="white"/>
<path d="M248.77 126.475L249.36 129.852C249.36 129.852 248.49 129.643 248.36 129.425L247.82 126.545C247.82 126.545 248.49 126.485 248.77 126.475Z" fill="white"/>
<path d="M241.87 127.121L242.43 130.467C242.43 130.467 244.38 130.944 244.3 129.931C244.22 128.918 242.7 127.15 242.7 127.15C242.426 127.103 242.147 127.093 241.87 127.121V127.121Z" fill="white"/>
<path d="M241.45 127.121L242.04 130.497C242.04 130.497 241.18 130.299 241.04 130.07L240.51 127.19C240.51 127.19 241.18 127.121 241.45 127.121Z" fill="white"/>
</g>
<path d="M258.15 173.261C258.043 173.262 257.939 173.231 257.85 173.172C255.6 171.533 254.16 168.206 252.76 165.048C251.25 161.612 249.82 158.354 247.68 157.838C247.616 157.824 247.555 157.797 247.501 157.759C247.448 157.721 247.402 157.673 247.368 157.618C247.333 157.562 247.31 157.5 247.3 157.436C247.29 157.371 247.294 157.305 247.31 157.242C247.341 157.114 247.421 157.004 247.534 156.935C247.646 156.866 247.781 156.845 247.91 156.874C250.54 157.5 252.07 160.976 253.68 164.651C255.02 167.719 256.41 170.887 258.44 172.367C258.493 172.406 258.538 172.454 258.573 172.51C258.607 172.566 258.63 172.627 258.64 172.692C258.651 172.757 258.648 172.823 258.632 172.886C258.617 172.95 258.589 173.01 258.55 173.062C258.503 173.123 258.442 173.173 258.373 173.208C258.304 173.242 258.228 173.26 258.15 173.261V173.261Z" fill="#263238"/>
<path d="M253.83 177.383H265.29C266.14 177.383 266.83 176.698 266.83 175.853V169.1C266.83 168.255 266.14 167.571 265.29 167.571H253.83C252.979 167.571 252.29 168.255 252.29 169.1V175.853C252.29 176.698 252.979 177.383 253.83 177.383Z" fill="#263238"/>
<path opacity="0.7" d="M253.83 177.383H265.29C266.14 177.383 266.83 176.698 266.83 175.853V169.1C266.83 168.255 266.14 167.571 265.29 167.571H253.83C252.979 167.571 252.29 168.255 252.29 169.1V175.853C252.29 176.698 252.979 177.383 253.83 177.383Z" fill="white"/>
<path d="M252 167.571H253.68C253.501 167.571 253.325 167.606 253.16 167.674C252.995 167.741 252.845 167.841 252.718 167.966C252.592 168.092 252.492 168.241 252.424 168.405C252.355 168.568 252.32 168.744 252.32 168.921V176.032C252.32 176.21 252.355 176.385 252.424 176.549C252.492 176.713 252.592 176.862 252.718 176.987C252.845 177.113 252.995 177.212 253.16 177.28C253.325 177.348 253.501 177.383 253.68 177.383H252C251.639 177.383 251.293 177.241 251.038 176.987C250.783 176.734 250.64 176.39 250.64 176.032V168.921C250.64 168.563 250.783 168.22 251.038 167.966C251.293 167.713 251.639 167.571 252 167.571V167.571Z" fill="#263238"/>
<path opacity="0.3" d="M252 167.571H253.68C253.501 167.571 253.325 167.606 253.16 167.674C252.995 167.741 252.845 167.841 252.718 167.966C252.592 168.092 252.492 168.241 252.424 168.405C252.355 168.568 252.32 168.744 252.32 168.921V176.032C252.32 176.21 252.355 176.385 252.424 176.549C252.492 176.713 252.592 176.862 252.718 176.987C252.845 177.113 252.995 177.212 253.16 177.28C253.325 177.348 253.501 177.383 253.68 177.383H252C251.639 177.383 251.293 177.241 251.038 176.987C250.783 176.734 250.64 176.39 250.64 176.032V168.921C250.64 168.563 250.783 168.22 251.038 167.966C251.293 167.713 251.639 167.571 252 167.571V167.571Z" fill="white"/>
<path d="M257.39 172.804C257.389 173.243 257.475 173.677 257.643 174.083C257.812 174.488 258.059 174.857 258.371 175.167C258.684 175.477 259.055 175.723 259.463 175.89C259.871 176.057 260.309 176.143 260.75 176.141H262.75C263.206 176.166 263.662 176.098 264.091 175.942C264.52 175.786 264.912 175.544 265.244 175.232C265.575 174.921 265.839 174.545 266.02 174.128C266.2 173.712 266.293 173.263 266.293 172.809C266.293 172.356 266.2 171.907 266.02 171.49C265.839 171.074 265.575 170.698 265.244 170.386C264.912 170.074 264.52 169.833 264.091 169.677C263.662 169.52 263.206 169.453 262.75 169.477H260.75C260.309 169.476 259.873 169.561 259.465 169.728C259.057 169.894 258.687 170.139 258.375 170.448C258.063 170.757 257.815 171.125 257.646 171.529C257.477 171.933 257.39 172.367 257.39 172.804V172.804Z" fill="#263238"/>
<path opacity="0.4" d="M257.39 172.804C257.389 173.243 257.475 173.677 257.643 174.083C257.812 174.488 258.059 174.857 258.371 175.167C258.684 175.477 259.055 175.723 259.463 175.89C259.871 176.057 260.309 176.143 260.75 176.141H262.75C263.206 176.166 263.662 176.098 264.091 175.942C264.52 175.786 264.912 175.544 265.244 175.232C265.575 174.921 265.839 174.545 266.02 174.128C266.2 173.712 266.293 173.263 266.293 172.809C266.293 172.356 266.2 171.907 266.02 171.49C265.839 171.074 265.575 170.698 265.244 170.386C264.912 170.074 264.52 169.833 264.091 169.677C263.662 169.52 263.206 169.453 262.75 169.477H260.75C260.309 169.476 259.873 169.561 259.465 169.728C259.057 169.894 258.687 170.139 258.375 170.448C258.063 170.757 257.815 171.125 257.646 171.529C257.477 171.933 257.39 172.367 257.39 172.804V172.804Z" fill="white"/>
<path d="M259.6 172.805C259.6 173.394 259.776 173.97 260.106 174.46C260.435 174.95 260.904 175.332 261.452 175.557C262 175.783 262.603 175.842 263.185 175.727C263.767 175.612 264.302 175.328 264.721 174.911C265.141 174.495 265.427 173.964 265.542 173.386C265.658 172.808 265.599 172.209 265.372 171.664C265.145 171.12 264.76 170.655 264.267 170.327C263.773 170 263.193 169.825 262.6 169.825C261.804 169.825 261.041 170.139 260.479 170.698C259.916 171.257 259.6 172.014 259.6 172.805Z" fill="#263238"/>
<path opacity="0.2" d="M259.6 172.805C259.6 173.394 259.776 173.97 260.106 174.46C260.435 174.95 260.904 175.332 261.452 175.557C262 175.783 262.603 175.842 263.185 175.727C263.767 175.612 264.302 175.328 264.721 174.911C265.141 174.495 265.427 173.964 265.542 173.386C265.658 172.808 265.599 172.209 265.372 171.664C265.145 171.12 264.76 170.655 264.267 170.327C263.773 170 263.193 169.825 262.6 169.825C261.804 169.825 261.041 170.139 260.479 170.698C259.916 171.257 259.6 172.014 259.6 172.805Z" fill="white"/>
<path d="M260.2 172.805C260.198 173.283 260.339 173.751 260.605 174.149C260.872 174.547 261.251 174.858 261.696 175.042C262.14 175.226 262.629 175.275 263.102 175.182C263.574 175.089 264.008 174.859 264.348 174.521C264.689 174.183 264.92 173.752 265.014 173.283C265.107 172.814 265.058 172.328 264.873 171.886C264.688 171.445 264.375 171.068 263.974 170.804C263.573 170.539 263.102 170.399 262.62 170.401C262.302 170.401 261.988 170.463 261.694 170.584C261.4 170.705 261.134 170.882 260.909 171.105C260.684 171.328 260.506 171.593 260.384 171.885C260.263 172.176 260.2 172.489 260.2 172.805Z" fill="#263238"/>
<path d="M253.9 169.835H255.34C255.638 169.835 255.88 169.595 255.88 169.299V168.812C255.88 168.516 255.638 168.276 255.34 168.276H253.9C253.602 168.276 253.36 168.516 253.36 168.812V169.299C253.36 169.595 253.602 169.835 253.9 169.835Z" fill="white"/>
<path d="M243.22 180.6L253.36 176.101C253.36 176.101 254.62 174.93 257.7 175.178C258.17 175.178 259.7 177.273 263.96 176.101C263.96 176.101 264.28 178.376 263.07 179.597C261.86 180.819 253.88 180.004 253.88 180.004L245.88 184.553L243.22 180.6Z" fill="#EBB376"/>
<path d="M223.41 162.615C218.01 165.346 226.02 187.443 231.41 189.608C236.8 191.773 250.64 182.061 250.64 182.061L247.25 178.207C247.25 178.207 234.58 183.52 233.13 182.676C231.68 181.832 227 161.334 227 161.334L223.41 162.615Z" fill="#263238"/>
<path d="M243.49 175.417C243.274 175.427 243.057 175.427 242.84 175.417C239.19 174.97 236.62 171.166 235.43 167.75C234.1 163.916 234.33 160.371 236 158.702C236.095 158.611 236.223 158.559 236.355 158.559C236.488 158.559 236.615 158.611 236.71 158.702C236.757 158.748 236.794 158.803 236.819 158.864C236.845 158.924 236.858 158.989 236.858 159.055C236.858 159.12 236.845 159.185 236.819 159.246C236.794 159.306 236.757 159.361 236.71 159.407C235.33 160.778 235.19 164.005 236.38 167.422C237.38 170.401 239.76 174.036 242.96 174.433C245.47 174.731 248.09 172.914 250.53 169.17C250.605 169.067 250.717 168.996 250.842 168.972C250.968 168.948 251.098 168.974 251.206 169.042C251.314 169.111 251.391 169.218 251.421 169.342C251.452 169.465 251.433 169.596 251.37 169.706C248.34 174.304 245.51 175.417 243.49 175.417Z" fill="#263238"/>
<path d="M192.21 352.69C192.21 352.69 175.52 260.498 175.32 208.557L192.24 208.011C192.24 208.011 189.82 255.681 199.49 352.342L192.21 352.69Z" fill="#E4897B"/>
<path d="M150.59 351.995C150.59 351.995 146.03 258.343 152.59 206.809L169.42 208.557C169.42 208.557 160.83 255.453 157.85 352.561L150.59 351.995Z" fill="#E4897B"/>
<path d="M160.48 357.427L159.41 352.63L159.23 343.98H152C151.967 343.662 151.847 343.36 151.654 343.104C151.462 342.849 151.203 342.65 150.905 342.529C150.608 342.408 150.283 342.369 149.965 342.416C149.647 342.464 149.348 342.596 149.1 342.798L148.1 350.743C146.26 352.382 141.93 354.11 136.17 355.361C134.89 355.639 135.3 358.718 138.43 358.718C141.56 358.718 148.43 358.48 150.68 358.48C154.37 358.48 156.51 358.658 159.44 358.708C159.52 358.718 159.6 358.718 159.68 358.708C159.955 358.64 160.192 358.468 160.341 358.229C160.491 357.989 160.541 357.702 160.48 357.427V357.427Z" fill="#263238"/>
<path d="M202.51 357.427L201.44 352.63L199.82 343.98H192.54C192.506 343.662 192.387 343.36 192.194 343.104C192.002 342.849 191.743 342.65 191.445 342.529C191.148 342.408 190.823 342.369 190.505 342.416C190.187 342.464 189.888 342.596 189.64 342.798L190.07 350.743C188.23 352.382 183.9 354.11 178.14 355.361C176.86 355.639 177.27 358.718 180.4 358.718C183.53 358.718 190.4 358.48 192.66 358.48C196.34 358.48 198.48 358.658 201.42 358.708C201.5 358.718 201.58 358.718 201.66 358.708C201.943 358.648 202.191 358.48 202.35 358.241C202.509 358.001 202.566 357.709 202.51 357.427V357.427Z" fill="#263238"/>
<path d="M202 201.665L150.26 197.801C150.26 197.801 161.81 159 165.26 154.024C168.71 149.049 180.26 144.411 180.26 144.411L194.75 147.291L202 201.665Z" fill="#407BFF"/>
<path opacity="0.2" d="M202 201.665L150.26 197.801C150.26 197.801 161.81 159 165.26 154.024C168.71 149.049 180.26 144.411 180.26 144.411L194.75 147.291L202 201.665Z" fill="black"/>
<path d="M166.76 255.333C168.13 246.514 169.76 238.837 171.86 233.167C172.15 236.891 172.99 244.925 174.13 255.333H196.69C195.96 227.704 195.56 195.885 195.51 191.882H154.24C152.45 201.873 148.95 225.758 146.48 255.333H166.76Z" fill="#263238"/>
<path opacity="0.2" d="M166.76 255.333C168.13 246.514 169.76 238.837 171.86 233.167C172.15 236.891 172.99 244.925 174.13 255.333H196.69C195.96 227.704 195.56 195.885 195.51 191.882H154.24C152.45 201.873 148.95 225.758 146.48 255.333H166.76Z" fill="white"/>
<path opacity="0.2" d="M171.86 233.167C169.823 239.139 168.282 245.268 167.25 251.49C166.09 235.282 170.71 218.101 170.71 218.101L171.86 233.167Z" fill="black"/>
<path d="M172.83 253.814L173.1 256.456L197.39 255.294V252.711L172.83 253.814Z" fill="#407BFF"/>
<path d="M145.92 253.268L167.66 254.092L167.06 256.456L145.92 255.333V253.268Z" fill="#407BFF"/>
<path d="M154.82 158.285L144.51 177.402L123.4 176.181C123.982 177.258 124.63 178.3 125.34 179.299C126.5 180.928 131.51 181.693 131.99 181.286C132.636 180.848 133.303 180.444 133.99 180.074C133.99 180.074 149.21 182.914 151.14 182.726C153.07 182.537 159.14 162.188 159.14 162.188L154.82 158.285Z" fill="#E4897B"/>
<path opacity="0.2" d="M123.4 176.181C123.984 177.258 124.632 178.299 125.34 179.3C126.5 180.928 131.51 181.693 131.99 181.286C132.634 180.843 133.301 180.435 133.99 180.064C133.99 180.064 149.21 182.915 151.14 182.716C151.89 182.646 153.26 179.538 154.65 175.764C156.86 169.805 159.13 162.168 159.13 162.168L154.8 158.196L150.8 165.614L144.49 177.313L123.4 176.181Z" fill="black"/>
<path opacity="0.2" d="M150.82 165.703C151.06 169.557 152.03 173.43 154.55 175.704L154.67 175.804C156.88 169.845 159.15 162.208 159.15 162.208L154.82 158.235L150.82 165.703Z" fill="black"/>
<path d="M165 143.716C162.42 144.282 151.15 159.516 151.15 159.516L159.05 166.309L165 143.716Z" fill="#407BFF"/>
<path opacity="0.2" d="M165 143.716C162.42 144.282 151.15 159.516 151.15 159.516L159.05 166.309L165 143.716Z" fill="white"/>
<path d="M161.24 195.934L155.54 195.865L156.03 191.833H161.24V195.934Z" fill="black"/>
<path d="M181.86 191.833H194.09V196.332L181.86 196.183V191.833Z" fill="black"/>
<path d="M180.5 196.173L162.6 195.954V191.833H180.5V196.173Z" fill="black"/>
<path d="M173.37 191.048H166.33V196.083H173.37V191.048Z" fill="white"/>
<path d="M194.09 191.833H156C156 191.833 155.52 164.859 165 143.716L205 149.744C205.425 149.808 205.83 149.97 206.181 150.217C206.532 150.464 206.82 150.789 207.022 151.166C207.224 151.544 207.335 151.963 207.345 152.39C207.355 152.817 207.264 153.241 207.08 153.627C204 160.132 197.27 175.386 194.09 191.833Z" fill="#407BFF"/>
<path opacity="0.6" d="M194.09 191.833H156C156 191.833 155.52 164.859 165 143.716L205 149.744C205.425 149.808 205.83 149.97 206.181 150.217C206.532 150.464 206.82 150.789 207.022 151.166C207.224 151.544 207.335 151.963 207.345 152.39C207.355 152.817 207.264 153.241 207.08 153.627C204 160.132 197.27 175.386 194.09 191.833Z" fill="white"/>
<path d="M181.68 149.814C181.68 149.814 189.68 151.254 193.04 148.443C191.5 146.616 191.24 143.477 191.57 140.19C191.817 137.87 192.258 135.575 192.89 133.328C193.08 132.603 193.29 131.927 193.48 131.341L183.27 138.184L183.33 138.661C183.33 139.118 183.42 139.594 183.43 140.061C183.5 141.188 183.347 142.319 182.98 143.388C182.61 144.312 182.58 145.017 182.14 145.493C181.481 146.054 180.638 146.354 179.77 146.338C178.65 147.817 181.68 149.814 181.68 149.814Z" fill="#E4897B"/>
<path opacity="0.2" d="M182.14 145.464C185.808 144.856 189.145 142.99 191.57 140.19C191.817 137.87 192.258 135.575 192.89 133.328L183.33 138.631C183.33 139.088 183.42 139.564 183.43 140.031C183.5 141.159 183.347 142.289 182.98 143.358C182.61 144.282 182.58 144.997 182.14 145.464Z" fill="black"/>
<path d="M200.21 129.107C197.74 128.839 189.33 124.062 189.33 124.062L194.63 119.344C194.63 119.344 204.07 127.399 204.27 128.511C204.47 129.623 200.21 129.107 200.21 129.107Z" fill="#407BFF"/>
<path opacity="0.2" d="M200.21 129.107C197.74 128.839 189.33 124.062 189.33 124.062L194.63 119.344C194.63 119.344 204.07 127.399 204.27 128.511C204.47 129.623 200.21 129.107 200.21 129.107Z" fill="black"/>
<path d="M175.9 114.964C175.9 114.964 173.01 124.27 177.54 128.679C182.07 133.089 184.74 115.381 184.74 115.381L175.9 114.964Z" fill="#263238"/>
<path d="M191.17 138.432C189.868 139.84 188.137 140.785 186.242 141.122C184.347 141.459 182.394 141.17 180.68 140.299C178.447 139.208 176.714 137.316 175.83 135.006C175.7 134.688 175.6 134.36 175.5 134.013C173.88 127.826 174.61 117.547 181.38 114.647C182.871 114.003 184.504 113.748 186.122 113.907C187.74 114.066 189.291 114.633 190.627 115.554C191.962 116.476 193.038 117.721 193.753 119.172C194.468 120.622 194.797 122.23 194.71 123.843C194.45 130.755 194.62 134.837 191.17 138.432Z" fill="#E4897B"/>
<path d="M184.19 125.998C184.24 126.554 183.91 126.991 183.54 126.991C183.17 126.991 182.86 126.544 182.84 125.998C182.82 125.452 183.12 125.005 183.49 125.005C183.86 125.005 184.17 125.432 184.19 125.998Z" fill="#263238"/>
<path d="M177.78 126.127C177.83 126.683 177.5 127.12 177.13 127.12C176.76 127.12 176.45 126.673 176.43 126.127C176.41 125.581 176.72 125.134 177.09 125.134C177.46 125.134 177.77 125.601 177.78 126.127Z" fill="#263238"/>
<path d="M179.82 126.366C179.179 128.103 178.301 129.743 177.21 131.242C177.607 131.509 178.058 131.687 178.531 131.764C179.004 131.841 179.488 131.815 179.95 131.689L179.82 126.366Z" fill="#DE5753"/>
<path d="M175.38 123.565C175.433 123.596 175.493 123.613 175.555 123.613C175.617 123.613 175.677 123.596 175.73 123.565C176.057 123.308 176.439 123.13 176.847 123.046C177.255 122.961 177.677 122.972 178.08 123.078C178.123 123.102 178.171 123.117 178.22 123.121C178.269 123.125 178.319 123.118 178.365 123.101C178.411 123.084 178.454 123.058 178.488 123.023C178.523 122.988 178.55 122.946 178.567 122.9C178.584 122.854 178.591 122.805 178.587 122.756C178.582 122.707 178.568 122.66 178.543 122.617C178.519 122.575 178.485 122.538 178.445 122.509C178.405 122.481 178.359 122.461 178.31 122.452C177.799 122.308 177.261 122.285 176.739 122.387C176.217 122.489 175.728 122.712 175.31 123.038C175.275 123.063 175.244 123.095 175.221 123.131C175.198 123.167 175.182 123.208 175.175 123.25C175.167 123.293 175.168 123.336 175.178 123.378C175.187 123.42 175.205 123.46 175.23 123.495V123.495C175.276 123.525 175.327 123.549 175.38 123.565Z" fill="#263238"/>
<path d="M185.39 123.446C185.458 123.439 185.524 123.415 185.58 123.377C185.611 123.346 185.636 123.31 185.653 123.27C185.67 123.23 185.678 123.187 185.678 123.143C185.678 123.1 185.67 123.057 185.653 123.017C185.636 122.977 185.611 122.94 185.58 122.91V122.91C185.183 122.563 184.707 122.316 184.194 122.19C183.681 122.064 183.144 122.062 182.63 122.185C182.588 122.197 182.548 122.218 182.514 122.246C182.48 122.274 182.452 122.308 182.431 122.347C182.41 122.386 182.398 122.429 182.394 122.472C182.391 122.516 182.396 122.56 182.41 122.602V122.602C182.435 122.685 182.493 122.754 182.57 122.795C182.646 122.836 182.736 122.845 182.82 122.82V122.82C183.229 122.733 183.653 122.742 184.058 122.848C184.462 122.953 184.837 123.151 185.15 123.426C185.225 123.462 185.31 123.469 185.39 123.446V123.446Z" fill="#263238"/>
<path d="M189.42 115.332L188.78 116.623C191.06 117.437 190.53 120.069 190.04 121.261C188.98 123.793 190.33 127.806 192.27 129.444C192.27 129.444 192.36 128.332 193.27 128.62C194.18 128.908 193.79 134.688 191.87 137.399C191.87 137.399 194.72 134.976 196.46 128.948C198.06 123.376 198.37 118.699 197.27 116.504L189.42 115.332Z" fill="#263238"/>
<path d="M197.87 129.454C197.128 131.034 195.787 132.259 194.14 132.861C191.96 133.635 190.7 131.729 191.14 129.593C191.57 127.697 193.21 124.946 195.48 125.104C195.972 125.148 196.445 125.312 196.857 125.58C197.27 125.849 197.61 126.215 197.846 126.645C198.082 127.075 198.208 127.557 198.212 128.047C198.217 128.537 198.099 129.02 197.87 129.454V129.454Z" fill="#E4897B"/>
<path d="M175.19 118.391C175.19 118.391 180.96 116.772 198.76 122.284C198.76 122.284 201.47 115.888 194.76 111.27C188.05 106.652 173.58 107.923 175.19 118.391Z" fill="#407BFF"/>
<path d="M177.81 116.643C180.024 116.656 182.224 116.991 184.34 117.636C184.34 117.636 185.26 114.1 184.74 113.852C184.22 113.604 178.74 112.233 178.53 109.353C178.006 109.833 177.652 110.469 177.522 111.166C177.393 111.862 177.494 112.582 177.81 113.217C177.165 113.281 176.517 113.145 175.953 112.829C175.389 112.512 174.937 112.03 174.66 111.449C174.66 111.449 173.24 114.806 177.81 116.643Z" fill="#263238"/>
<path d="M193.76 120.834L199.02 121.44C199.02 121.44 204.33 126.991 204.79 128.391C205.25 129.792 200.21 129.116 200.21 129.116C200.21 129.116 204.12 129.176 203.9 128.391C203.68 127.607 193.76 120.834 193.76 120.834Z" fill="#407BFF"/>
<path opacity="0.2" d="M193.76 120.834L199.02 121.44C199.02 121.44 204.33 126.991 204.79 128.391C205.25 129.792 200.21 129.116 200.21 129.116C200.21 129.116 204.12 129.176 203.9 128.391C203.68 127.607 193.76 120.834 193.76 120.834Z" fill="white"/>
<path d="M180.19 134.519H179.66C179.628 134.518 179.596 134.51 179.566 134.496C179.537 134.483 179.511 134.463 179.489 134.439C179.468 134.415 179.452 134.387 179.441 134.356C179.431 134.325 179.427 134.293 179.43 134.261C179.43 134.228 179.437 134.196 179.45 134.166C179.463 134.136 179.483 134.11 179.508 134.088C179.532 134.066 179.561 134.05 179.593 134.041C179.624 134.031 179.657 134.028 179.69 134.032C183.61 134.241 184.47 131.848 184.51 131.748C184.531 131.687 184.575 131.636 184.633 131.606C184.69 131.577 184.758 131.571 184.82 131.589C184.883 131.612 184.934 131.657 184.964 131.717C184.994 131.776 184.999 131.844 184.98 131.907C184.94 131.997 184.06 134.519 180.19 134.519Z" fill="#263238"/>
<path d="M188.78 147.301C188.78 147.301 189.39 192.22 200.04 209.252L211.65 203.512C207.846 194.704 205.518 185.338 204.76 175.784C204.296 169.861 204.868 163.904 206.45 158.176C206.93 156.514 207.528 154.887 208.24 153.309C208.93 151.77 207.32 150.091 205.63 149.833L188.78 147.301Z" fill="#407BFF"/>
<path d="M197.95 145.463L188.78 147.291L191.06 154.908L200.04 148.989L197.95 145.463Z" fill="#407BFF"/>
<path opacity="0.2" d="M197.95 145.463L188.78 147.291L191.06 154.908L200.04 148.989L197.95 145.463Z" fill="white"/>
<path d="M177.81 144.818L174.19 149.962C174.19 149.962 163.87 154.928 152.12 204.783L145.64 199.39C145.64 199.39 159.8 147.509 165 143.716L177.81 144.818Z" fill="#407BFF"/>
<path d="M180.23 144.411L174.19 149.972L176.38 144.252L178.57 142.971L180.23 144.411Z" fill="#407BFF"/>
<path opacity="0.2" d="M180.23 144.411L174.19 149.972L176.38 144.252L178.57 142.971L180.23 144.411Z" fill="white"/>
<path d="M183.56 129.335C182.994 129.408 182.419 129.307 181.911 129.047C181.404 128.787 180.988 128.38 180.72 127.879C180.451 127.379 180.343 126.809 180.409 126.246C180.475 125.682 180.712 125.152 181.089 124.726C181.465 124.3 181.964 123.998 182.518 123.86C183.072 123.723 183.655 123.756 184.189 123.955C184.724 124.155 185.184 124.512 185.51 124.978C185.835 125.444 186.009 125.997 186.01 126.564C186.054 127.254 185.821 127.933 185.361 128.453C184.902 128.972 184.254 129.289 183.56 129.335V129.335ZM183.56 124.29C183.091 124.215 182.611 124.284 182.183 124.489C181.755 124.694 181.401 125.024 181.168 125.434C180.936 125.845 180.835 126.317 180.881 126.786C180.926 127.255 181.116 127.7 181.424 128.058C181.731 128.417 182.143 128.674 182.602 128.793C183.061 128.913 183.546 128.89 183.992 128.727C184.437 128.564 184.821 128.269 185.093 127.883C185.365 127.496 185.51 127.036 185.51 126.564C185.554 126.006 185.374 125.453 185.008 125.027C184.643 124.601 184.122 124.336 183.56 124.29Z" fill="#263238"/>
<path d="M176.86 129.107C176.294 129.18 175.719 129.079 175.211 128.819C174.704 128.559 174.288 128.152 174.02 127.651C173.752 127.15 173.643 126.581 173.709 126.017C173.775 125.454 174.012 124.924 174.389 124.498C174.766 124.072 175.264 123.77 175.818 123.632C176.372 123.494 176.955 123.528 177.489 123.727C178.024 123.927 178.484 124.283 178.81 124.75C179.135 125.216 179.31 125.769 179.31 126.336C179.351 127.025 179.117 127.703 178.659 128.222C178.2 128.74 177.554 129.058 176.86 129.107V129.107ZM176.86 124.062C176.392 123.987 175.911 124.056 175.483 124.261C175.056 124.465 174.701 124.795 174.469 125.206C174.236 125.617 174.135 126.089 174.181 126.558C174.227 127.027 174.416 127.471 174.724 127.83C175.032 128.189 175.443 128.446 175.902 128.565C176.361 128.685 176.846 128.662 177.292 128.499C177.737 128.336 178.122 128.041 178.393 127.654C178.665 127.268 178.81 126.808 178.81 126.336C178.83 125.792 178.639 125.261 178.276 124.852C177.913 124.444 177.406 124.189 176.86 124.141V124.062Z" fill="#263238"/>
<path d="M181.22 126.763C181.22 126.763 180.02 125.948 179.22 126.564L178.92 126.167C180.02 125.333 181.46 126.316 181.52 126.356L181.22 126.763Z" fill="#263238"/>
<path d="M192.849 124.863L185.725 126.301L185.825 126.787L192.949 125.349L192.849 124.863Z" fill="#263238"/>
<path opacity="0.2" d="M193.49 173.132C193.49 173.132 199.21 176.757 204.76 175.784C204.296 169.862 204.868 163.904 206.45 158.176C205.95 157.351 205.61 156.865 205.61 156.865L193.49 173.132Z" fill="black"/>
<path d="M196.69 158.285C196.69 158.285 187.36 171.295 186.5 172.188C185.64 173.082 163.55 172.188 163.55 172.188C163.55 172.188 160.47 170.023 160.08 169.765C156.822 169.423 153.542 169.337 150.27 169.507C149.68 169.765 150.58 175.466 151.22 176.141C151.86 176.816 159.27 177.72 160.08 177.402C160.792 177.208 161.535 177.147 162.27 177.224C162.27 177.224 186.44 179.369 188.78 178.485C191.12 177.601 200.61 167.769 200.61 167.769L196.69 158.285Z" fill="#E4897B"/>
<path d="M208.15 150.667C215.08 155.276 201.85 174.592 201.85 174.592L191.06 164.74C191.06 164.74 200.55 145.622 208.15 150.667Z" fill="#407BFF"/>
<path opacity="0.2" d="M208.15 150.667C215.08 155.276 201.85 174.592 201.85 174.592L191.06 164.74C191.06 164.74 200.55 145.622 208.15 150.667Z" fill="white"/>
<path d="M165.25 177.512L165.13 178.693C165.089 179.091 164.897 179.458 164.591 179.719C164.286 179.979 163.892 180.114 163.49 180.094L119.38 175.784C118.971 175.732 118.596 175.53 118.33 175.217C118.063 174.905 117.924 174.505 117.94 174.095L118.06 172.904L165.25 177.512Z" fill="#263238"/>
<path opacity="0.2" d="M165.25 177.512L165.13 178.693C165.089 179.091 164.897 179.458 164.591 179.719C164.286 179.979 163.892 180.114 163.49 180.094L119.38 175.784C118.971 175.732 118.596 175.53 118.33 175.217C118.063 174.905 117.924 174.505 117.94 174.095L118.06 172.904L165.25 177.512Z" fill="white"/>
<path opacity="0.2" d="M148.78 175.903L148.67 177.095C148.625 177.49 148.43 177.853 148.126 178.111C147.821 178.369 147.43 178.503 147.03 178.485L119.38 175.784C118.971 175.732 118.596 175.53 118.33 175.217C118.063 174.905 117.924 174.505 117.94 174.095L118.06 172.904L148.78 175.903Z" fill="white"/>
<path d="M147.13 177.393L118 174.552C117.528 174.49 117.086 174.29 116.73 173.977C116.373 173.664 116.119 173.252 116 172.795L111.37 151.323C111.31 151.136 111.3 150.937 111.339 150.744C111.378 150.552 111.465 150.372 111.593 150.223C111.721 150.073 111.885 149.958 112.07 149.888C112.255 149.818 112.454 149.796 112.65 149.823L141.79 152.664C142.267 152.736 142.711 152.948 143.067 153.271C143.423 153.595 143.675 154.016 143.79 154.481L148.42 175.923C148.479 176.11 148.489 176.308 148.449 176.5C148.409 176.692 148.32 176.87 148.19 177.017C148.061 177.165 147.895 177.277 147.709 177.343C147.524 177.408 147.324 177.426 147.13 177.393V177.393Z" fill="#263238"/>
<path opacity="0.2" d="M147.13 177.393L118 174.552C117.528 174.49 117.086 174.29 116.73 173.977C116.373 173.664 116.119 173.252 116 172.795L111.37 151.323C111.31 151.136 111.3 150.937 111.339 150.744C111.378 150.552 111.465 150.372 111.593 150.223C111.721 150.073 111.885 149.958 112.07 149.888C112.255 149.818 112.454 149.796 112.65 149.823L141.79 152.664C142.267 152.736 142.711 152.948 143.067 153.271C143.423 153.595 143.675 154.016 143.79 154.481L148.42 175.923C148.479 176.11 148.489 176.308 148.449 176.5C148.409 176.692 148.32 176.87 148.19 177.017C148.061 177.165 147.895 177.277 147.709 177.343C147.524 177.408 147.324 177.426 147.13 177.393V177.393Z" fill="white"/>
<path opacity="0.2" d="M146 177.283L118 174.552C117.528 174.49 117.086 174.29 116.73 173.977C116.373 173.664 116.119 173.252 116 172.795L111.37 151.323C111.31 151.136 111.3 150.937 111.339 150.744C111.378 150.552 111.465 150.372 111.593 150.223C111.721 150.073 111.885 149.958 112.07 149.888C112.255 149.818 112.454 149.796 112.65 149.823L140.65 152.555C141.127 152.626 141.573 152.837 141.929 153.161C142.285 153.484 142.536 153.906 142.65 154.372L147.31 175.784C147.381 175.974 147.399 176.18 147.362 176.38C147.326 176.579 147.236 176.766 147.102 176.919C146.968 177.072 146.795 177.187 146.601 177.251C146.407 177.315 146.2 177.326 146 177.283Z" fill="white"/>
<path opacity="0.2" d="M131.56 164.591C131.78 166.012 130.98 167.064 129.76 166.945C129.088 166.805 128.476 166.462 128.008 165.962C127.541 165.462 127.241 164.831 127.15 164.154C126.93 162.734 127.74 161.682 128.95 161.801C129.622 161.941 130.234 162.284 130.702 162.784C131.169 163.284 131.469 163.915 131.56 164.591Z" fill="white"/>
</svg>
