<svg width="500" height="370" viewBox="0 0 500 370" fill="none" xmlns="http://www.w3.org/2000/svg">
<path d="M500 325.15H0V325.398H500V325.15Z" fill="#EBEBEB"/>
<path d="M449.9 341.13H416.78V341.378H449.9V341.13Z" fill="#EBEBEB"/>
<path d="M331.22 343.831H322.53V344.079H331.22V343.831Z" fill="#EBEBEB"/>
<path d="M415.78 331.914H396.59V332.162H415.78V331.914Z" fill="#EBEBEB"/>
<path d="M95.65 333.582H52.46V333.83H95.65V333.582Z" fill="#EBEBEB"/>
<path d="M110.89 333.582H104.56V333.83H110.89V333.582Z" fill="#EBEBEB"/>
<path d="M225.15 337.773H131.47V338.021H225.15V337.773Z" fill="#EBEBEB"/>
<path d="M237 280.857H43.91C42.3973 280.854 40.9475 280.256 39.8788 279.192C38.8102 278.129 38.21 276.688 38.21 275.186V5.62111C38.2231 4.12747 38.8292 2.6993 39.8964 1.64682C40.9637 0.594346 42.4059 0.00255868 43.91 0H237C238.514 0 239.967 0.597454 241.038 1.66093C242.108 2.7244 242.71 4.16678 242.71 5.67076V275.186C242.71 276.69 242.108 278.132 241.038 279.196C239.967 280.259 238.514 280.857 237 280.857V280.857ZM43.91 0.198626C42.4636 0.201257 41.0774 0.773712 40.0556 1.79034C39.0338 2.80697 38.46 4.1847 38.46 5.62111V275.186C38.46 276.622 39.0338 278 40.0556 279.017C41.0774 280.033 42.4636 280.606 43.91 280.608H237C238.447 280.606 239.834 280.034 240.858 279.017C241.881 278.001 242.457 276.623 242.46 275.186V5.62111C242.457 4.18378 241.881 2.80608 240.858 1.78973C239.834 0.773389 238.447 0.201252 237 0.198626H43.91Z" fill="#EBEBEB"/>
<path d="M453.31 280.857H260.21C258.696 280.854 257.246 280.256 256.175 279.193C255.105 278.13 254.503 276.689 254.5 275.186V5.62111C254.516 4.12656 255.124 2.69841 256.193 1.6462C257.262 0.593999 258.705 0.00253078 260.21 0H453.31C454.812 0.00516873 456.252 0.598111 457.317 1.65031C458.382 2.70251 458.987 4.12918 459 5.62111V275.186C459 276.687 458.401 278.126 457.335 279.189C456.268 280.252 454.821 280.851 453.31 280.857V280.857ZM260.21 0.198626C258.763 0.201252 257.375 0.773389 256.352 1.78973C255.329 2.80608 254.753 4.18378 254.75 5.62111V275.186C254.753 276.623 255.329 278.001 256.352 279.017C257.375 280.034 258.763 280.606 260.21 280.608H453.31C454.757 280.606 456.145 280.034 457.168 279.017C458.191 278.001 458.767 276.623 458.77 275.186V5.62111C458.767 4.18378 458.191 2.80608 457.168 1.78973C456.145 0.773389 454.757 0.201252 453.31 0.198626H260.21Z" fill="#EBEBEB"/>
<path d="M306.24 190.224L449.37 190.224V43.3402L306.24 43.3402V190.224Z" fill="#EBEBEB"/>
<path d="M301.24 190.224L444.37 190.224V43.3402L301.24 43.3402V190.224Z" fill="#F0F0F0"/>
<path d="M440.76 46.8259H305.03V186.807H440.76V46.8259Z" fill="#E0E0E0"/>
<path d="M440.76 46.8259H308.42V186.807H440.76V46.8259Z" fill="#F5F5F5"/>
<path d="M373.21 186.818H375.9V46.8361H373.21V186.818Z" fill="#EBEBEB"/>
<path d="M391.38 46.8259L429.1 186.807H432.72L395 46.8259H391.38Z" fill="white"/>
<path d="M372.07 189.489H374.37V44.6611H372.07V189.489Z" fill="#F0F0F0"/>
<path d="M405.07 46.8259L440.76 179.299V106.483L424.69 46.8259H405.07Z" fill="white"/>
<path d="M308.42 59.5281V72.9651L339.1 186.807H342.72L308.42 59.5281Z" fill="white"/>
<path d="M308.42 86.6604V159.477L315.78 186.808H335.4L308.42 86.6604Z" fill="white"/>
<path d="M425.89 203.323H317.43C315.088 203.323 312.842 204.247 311.186 205.892C309.53 207.537 308.6 209.767 308.6 212.093L296.6 288.027H422.72L434.72 212.093C434.72 209.767 433.79 207.537 432.134 205.892C430.478 204.247 428.232 203.323 425.89 203.323V203.323Z" fill="#EBEBEB"/>
<path d="M296.91 232.69L297.05 232.293H255.05V324.654H307.05V243.366C307.089 240.627 306.052 237.98 304.159 235.987C302.266 233.994 299.666 232.811 296.91 232.69V232.69Z" fill="#E0E0E0"/>
<path d="M254.61 232.66C251.751 232.66 249.009 233.788 246.987 235.796C244.966 237.804 243.83 240.527 243.83 243.366V324.654H265.38V243.366C265.38 240.528 264.246 237.807 262.226 235.799C260.207 233.792 257.467 232.663 254.61 232.66V232.66Z" fill="#F0F0F0"/>
<path d="M417.91 232.69L418.05 232.293H376.05V324.654H428.05V243.366C428.089 240.627 427.052 237.98 425.159 235.987C423.266 233.994 420.666 232.811 417.91 232.69V232.69Z" fill="#E0E0E0"/>
<path d="M364.83 259.604H272.42V324.654H364.83V259.604Z" fill="#E0E0E0"/>
<path d="M278.44 252.94H382.44V275.494H278.44C276.945 275.494 275.464 275.201 274.083 274.631C272.703 274.062 271.448 273.227 270.393 272.175C269.338 271.124 268.502 269.875 267.933 268.502C267.365 267.128 267.075 265.657 267.08 264.172V264.172C267.093 261.189 268.296 258.332 270.425 256.227C272.554 254.122 275.436 252.94 278.44 252.94V252.94Z" fill="#F5F5F5"/>
<path d="M375.61 232.66C372.751 232.66 370.009 233.788 367.987 235.796C365.966 237.804 364.83 240.527 364.83 243.366V324.654H386.38V243.366C386.38 240.528 385.246 237.807 383.226 235.799C381.207 233.792 378.467 232.663 375.61 232.66Z" fill="#F0F0F0"/>
<path d="M405.05 289.15H422.72L434.72 212.093C434.72 210.94 434.491 209.799 434.047 208.735C433.603 207.67 432.951 206.703 432.13 205.888C431.309 205.074 430.335 204.428 429.262 203.988C428.19 203.548 427.04 203.322 425.88 203.323V203.323C423.538 203.323 421.292 204.247 419.636 205.892C417.98 207.537 417.05 209.767 417.05 212.093L405.05 289.15Z" fill="#E0E0E0"/>
<path d="M75.8199 288.295C75.8199 287.898 74.4799 248.888 68.0899 242.721C61.8799 236.762 54.7399 242.492 54.4399 242.721L53.7999 241.966C53.8799 241.896 61.9299 235.371 68.7999 241.966C75.4699 248.411 76.7999 286.597 76.7999 288.226L75.8199 288.295Z" fill="#E0E0E0"/>
<path d="M76.3699 295.952C76.3699 295.486 72.0099 249.116 89.0599 229.681L89.8099 230.336C73.0399 249.444 77.3199 295.386 77.3699 295.883L76.3699 295.952Z" fill="#E0E0E0"/>
<path d="M75.7399 291.056L74.7399 290.986C74.7399 290.46 78.0799 238.281 65.5699 226.85L66.2499 226.125C79.1099 237.864 75.8899 288.891 75.7399 291.056Z" fill="#E0E0E0"/>
<path d="M77.3701 290.987H76.3701C76.3701 289.547 76.7801 255.741 86.4501 250.269C87.368 249.676 88.416 249.312 89.5056 249.206C90.5952 249.101 91.6943 249.257 92.7101 249.663C98.5601 252.056 101.46 262.395 101.58 262.832L100.58 263.1C100.58 262.991 97.6901 252.791 92.3001 250.576C91.4243 250.236 90.4792 250.108 89.5435 250.203C88.6078 250.298 87.7084 250.613 86.9201 251.123C77.7701 256.347 77.3701 290.679 77.3701 290.987Z" fill="#E0E0E0"/>
<path d="M73.6 291.046L72.6 290.997C72.6 290.728 74.05 264.271 66.87 254.956C65.12 252.692 63.23 251.619 61.24 251.758C56.53 252.086 52.58 258.928 52.54 258.998L51.67 258.511C51.84 258.213 55.92 251.132 61.16 250.765C63.51 250.606 65.7 251.808 67.66 254.35C75.08 263.964 73.67 289.993 73.6 291.046Z" fill="#E0E0E0"/>
<path d="M75.1801 294.651C74.9801 292.079 70.4801 231.677 78.4001 221.041L79.21 221.627C71.5 231.975 76.13 293.946 76.21 294.572L75.1801 294.651Z" fill="#E0E0E0"/>
<path d="M94.87 255.78C94.87 255.78 90.11 257.518 91.52 261.63C92.93 265.741 108 272.504 108 272.504C108 272.504 114.29 266.774 108.51 257.449C102.73 248.123 95 252.84 94.87 255.78Z" fill="#EBEBEB"/>
<path d="M74.2 247.954C74.2 247.954 79.26 247.746 79.55 252.076C79.84 256.406 68.55 268.403 68.55 268.403C68.55 268.403 60.55 265.513 62.25 254.708C63.95 243.902 72.94 245.303 74.2 247.954Z" fill="#EBEBEB"/>
<path d="M69.9101 227.218C69.9101 227.218 73.2901 226.86 73.0201 224.814C72.7501 222.769 59.9001 217.495 52.3201 226.016C52.3201 226.016 57.1701 234.299 64.1901 234.408C71.2101 234.517 69.9101 227.218 69.9101 227.218Z" fill="#EBEBEB"/>
<path d="M76.2 222.262C76.2 222.262 73.2 223.732 72.29 221.855C71.38 219.978 79.54 208.775 90.5 212.003C90.5 212.003 90.79 221.577 84.89 225.351C78.99 229.125 76.2 222.262 76.2 222.262Z" fill="#EBEBEB"/>
<path d="M60.22 254.132C60.22 254.132 62.55 252.265 60.04 251.351C57.53 250.437 45.19 250.696 45.04 262.832C45.04 262.832 59.41 265.205 61.19 260.577C62.97 255.949 60.22 254.132 60.22 254.132Z" fill="#EBEBEB"/>
<path d="M89.5201 226.92C89.5201 226.92 87.1901 225.043 89.7001 224.139C92.2101 223.236 104.55 223.484 104.7 235.62C104.7 235.62 90.3301 237.984 88.5501 233.366C86.7701 228.748 89.5201 226.92 89.5201 226.92Z" fill="#EBEBEB"/>
<path d="M81.92 236.692C81.92 236.692 81.72 234.418 83.56 235.312C85.4 236.206 91.84 243.088 85.17 249.623C85.17 249.623 76.17 243.029 77.82 239.592C79.47 236.156 81.92 236.692 81.92 236.692Z" fill="#EBEBEB"/>
<path d="M58.1401 239.92C58.1401 239.92 59.5401 238.112 57.5001 237.884C55.4601 237.656 46.3201 240.089 48.5001 249.146C48.5001 249.146 59.6301 248.312 60.1101 244.548C60.5901 240.784 58.1401 239.92 58.1401 239.92Z" fill="#EBEBEB"/>
<path d="M95.7501 324.654H57.5601L53.4401 283.121H99.8801L95.7501 324.654Z" fill="#F0F0F0"/>
<path d="M101.92 278.543H51.4V287.71H101.92V278.543Z" fill="#E6E6E6"/>
<path d="M250 370C357.082 370 443.89 364.967 443.89 358.758C443.89 352.549 357.082 347.516 250 347.516C142.917 347.516 56.11 352.549 56.11 358.758C56.11 364.967 142.917 370 250 370Z" fill="#F5F5F5"/>
<path d="M257.46 16.3668V302.388C257.461 302.942 257.351 303.492 257.137 304.003C256.922 304.515 256.606 304.979 256.209 305.369C255.811 305.758 255.339 306.065 254.821 306.271C254.303 306.477 253.748 306.578 253.19 306.569H119.19C118.19 306.581 117.227 306.198 116.51 305.506C116.143 305.143 115.854 304.711 115.658 304.235C115.462 303.759 115.364 303.249 115.37 302.735V16.0192C115.353 15.5757 115.423 15.1331 115.578 14.7168C115.733 14.3005 115.969 13.9186 116.273 13.593C116.577 13.2674 116.942 13.0045 117.348 12.8192C117.754 12.634 118.193 12.5301 118.64 12.5134H156.7C157.232 12.5217 157.75 12.6877 158.187 12.9904C158.623 13.293 158.959 13.7183 159.15 14.2117L160.73 18.065C160.924 18.5558 161.261 18.9783 161.697 19.2788C162.133 19.5794 162.649 19.7446 163.18 19.7533H209.75C210.278 19.7509 210.794 19.5917 211.23 19.2962C211.667 19.0007 212.005 18.5823 212.2 18.0948L213.78 14.2216C213.971 13.7271 214.306 13.3004 214.742 12.9961C215.179 12.6918 215.697 12.5238 216.23 12.5134H253.74C254.745 12.542 255.699 12.9622 256.395 13.6832C257.091 14.4041 257.474 15.3681 257.46 16.3668Z" fill="#407BFF"/>
<path opacity="0.6" d="M257.46 35.3555H115.36V275.494H257.46V35.3555Z" fill="white"/>
<path opacity="0.6" d="M133.03 24.0337H135.01V21.4118H133.03V24.0337Z" fill="white"/>
<path opacity="0.6" d="M129.81 24.0334H131.79V20.5376H129.81V24.0334Z" fill="white"/>
<path opacity="0.6" d="M126.57 24.0334H128.55V19.6637H126.57V24.0334Z" fill="white"/>
<path opacity="0.6" d="M123.35 24.0337H125.33V18.79H123.35V24.0337Z" fill="white"/>
<path opacity="0.6" d="M239.32 20.4585H238.15V23.0804H239.32V20.4585Z" fill="white"/>
<path opacity="0.6" d="M240.12 24.0337H249.47V19.4951H240.12V24.0337Z" fill="white"/>
<g opacity="0.1">
<path d="M179.29 19.7533L138.38 171.93L137.93 173.639L137.19 176.38L136.72 178.088L115.36 257.538V161.403L155.36 12.5134H156.66C157.192 12.5217 157.71 12.6877 158.147 12.9904C158.583 13.293 158.919 13.7183 159.11 14.2117L160.69 18.065C160.884 18.5558 161.221 18.9783 161.657 19.2788C162.093 19.5794 162.609 19.7446 163.14 19.7533H179.29Z" fill="white"/>
<path d="M257.46 97.4656V193.64L231.95 288.553L231.33 290.858L227.12 306.519H201.27L205.48 290.867L206.15 288.355L209.53 275.782L210.21 273.269L211.56 268.234L212.24 265.721L213.59 260.686L214.26 258.174L235.53 179.061V179.051L236.51 175.406V175.396L257.46 97.4656Z" fill="white"/>
<path d="M193.3 19.7534L152.65 170.977L152.4 171.881L150.18 180.173L149.93 181.077L116.5 305.457C116.133 305.094 115.844 304.662 115.648 304.186C115.452 303.71 115.354 303.2 115.36 302.686V288.057L144.12 181.077L144.37 180.173L146.59 171.881L146.84 170.977L187.49 19.7534H193.3Z" fill="white"/>
</g>
<path opacity="0.9" d="M248.49 55.7542V54.2546L247.71 54.1851C247.604 53.6933 247.408 53.2252 247.13 52.8046L247.63 52.2087L246.56 51.1461L245.96 51.6426C245.541 51.3588 245.068 51.1628 244.57 51.0666L244.5 50.292H243L242.93 51.0666C242.432 51.1628 241.959 51.3588 241.54 51.6426L240.93 51.1461L239.87 52.2087L240.37 52.8046C240.084 53.2208 239.887 53.6905 239.79 54.1851L239.01 54.2546V55.7542L239.79 55.8237C239.887 56.3182 240.084 56.788 240.37 57.2042L239.87 57.8L240.93 58.8627L241.54 58.3661C241.959 58.65 242.432 58.846 242.93 58.9421L243 59.7168H244.51L244.58 58.9421C245.078 58.846 245.551 58.65 245.97 58.3661L246.57 58.8627L247.64 57.8L247.14 57.2042C247.418 56.7835 247.614 56.3155 247.72 55.8237L248.49 55.7542ZM243.74 57.0254C243.344 57.0254 242.958 56.9089 242.629 56.6907C242.3 56.4724 242.044 56.1622 241.892 55.7993C241.741 55.4363 241.701 55.0369 241.778 54.6516C241.856 54.2663 242.046 53.9124 242.326 53.6346C242.606 53.3569 242.962 53.1677 243.35 53.0911C243.738 53.0144 244.14 53.0538 244.505 53.2041C244.871 53.3544 245.183 53.609 245.403 53.9356C245.623 54.2623 245.74 54.6463 245.74 55.0391C245.74 55.5659 245.529 56.0711 245.154 56.4436C244.779 56.8161 244.27 57.0254 243.74 57.0254Z" fill="white"/>
<path d="M137.46 54.8108L132.36 50.6297C132.323 50.6007 132.277 50.585 132.23 50.585C132.183 50.585 132.137 50.6007 132.1 50.6297L127 54.8108C126.966 54.8363 126.94 54.8721 126.928 54.9129C126.916 54.9537 126.917 54.9974 126.931 55.0374C126.946 55.0775 126.973 55.1119 127.009 55.1354C127.045 55.159 127.087 55.1705 127.13 55.1683H128.27C128.324 55.1683 128.376 55.1889 128.415 55.2259C128.454 55.2629 128.477 55.3134 128.48 55.367V59.2203C128.48 59.2739 128.501 59.3255 128.538 59.3644C128.575 59.4032 128.626 59.4263 128.68 59.4288H135.77C135.824 59.4263 135.875 59.4032 135.912 59.3644C135.949 59.3255 135.97 59.2739 135.97 59.2203V55.367C135.97 55.34 135.975 55.3133 135.986 55.2886C135.997 55.2638 136.012 55.2414 136.032 55.2229C136.052 55.2043 136.075 55.1899 136.1 55.1805C136.126 55.1711 136.153 55.167 136.18 55.1683H137.32C137.364 55.173 137.408 55.1633 137.445 55.1406C137.483 55.1179 137.512 55.0836 137.528 55.0428C137.544 55.0021 137.546 54.9573 137.534 54.9154C137.521 54.8734 137.495 54.8367 137.46 54.8108V54.8108Z" fill="white"/>
<g opacity="0.6">
<path d="M241.09 285.326H248.88C249.029 285.323 249.172 285.262 249.277 285.157C249.381 285.051 249.44 284.908 249.44 284.76C249.44 284.612 249.381 284.471 249.276 284.366C249.171 284.262 249.029 284.204 248.88 284.204H241.09C240.942 284.204 240.799 284.262 240.694 284.366C240.589 284.471 240.53 284.612 240.53 284.76C240.53 284.908 240.589 285.051 240.693 285.157C240.798 285.262 240.941 285.323 241.09 285.326Z" fill="white"/>
<path d="M248.88 287.014H241.09C240.942 287.014 240.799 287.073 240.694 287.177C240.589 287.282 240.53 287.423 240.53 287.571C240.53 287.719 240.589 287.861 240.693 287.967C240.798 288.073 240.941 288.134 241.09 288.137H248.88C249.029 288.134 249.172 288.073 249.277 287.967C249.381 287.861 249.44 287.719 249.44 287.571C249.44 287.423 249.381 287.282 249.276 287.177C249.171 287.073 249.029 287.014 248.88 287.014Z" fill="white"/>
<path d="M248.88 289.865H241.09C240.942 289.865 240.799 289.923 240.694 290.027C240.589 290.132 240.53 290.273 240.53 290.421C240.53 290.568 240.589 290.71 240.694 290.814C240.799 290.918 240.942 290.977 241.09 290.977H248.88C249.029 290.977 249.171 290.918 249.276 290.814C249.381 290.71 249.44 290.568 249.44 290.421C249.44 290.273 249.381 290.132 249.276 290.027C249.171 289.923 249.029 289.865 248.88 289.865V289.865Z" fill="white"/>
<path d="M189.92 287.014H186.59V283.707C186.572 283.571 186.504 283.446 186.4 283.356C186.296 283.266 186.163 283.216 186.025 283.216C185.887 283.216 185.753 283.266 185.649 283.356C185.546 283.446 185.478 283.571 185.46 283.707V287.014H182.13C181.981 287.014 181.839 287.073 181.734 287.177C181.629 287.281 181.57 287.423 181.57 287.57C181.57 287.719 181.629 287.861 181.733 287.967C181.838 288.073 181.981 288.134 182.13 288.136H185.46V291.444C185.478 291.58 185.546 291.704 185.649 291.795C185.753 291.885 185.887 291.935 186.025 291.935C186.163 291.935 186.296 291.885 186.4 291.795C186.504 291.704 186.572 291.58 186.59 291.444V288.136H189.92C190.069 288.134 190.212 288.073 190.317 287.967C190.421 287.861 190.48 287.719 190.48 287.57C190.48 287.423 190.421 287.281 190.316 287.177C190.211 287.073 190.068 287.014 189.92 287.014Z" fill="white"/>
<path d="M130.18 283.935H124C123.85 283.938 123.706 283.998 123.6 284.104C123.493 284.21 123.433 284.352 123.43 284.502V290.689C123.433 290.837 123.494 290.979 123.6 291.083C123.707 291.187 123.85 291.245 124 291.245H130.23C130.378 291.245 130.521 291.186 130.626 291.082C130.731 290.978 130.79 290.836 130.79 290.689V284.502C130.79 284.424 130.774 284.347 130.743 284.275C130.712 284.204 130.666 284.14 130.609 284.087C130.552 284.033 130.484 283.993 130.41 283.967C130.337 283.941 130.258 283.93 130.18 283.935ZM129.61 290.123H124.51V285.028H129.61V290.123Z" fill="white"/>
</g>
<g opacity="0.6">
<path d="M181.82 268.82C181.723 268.819 181.628 268.788 181.55 268.731L177.55 266.139C177.485 266.109 177.428 266.065 177.381 266.011C177.335 265.957 177.3 265.894 177.281 265.825C177.261 265.757 177.256 265.685 177.267 265.615C177.278 265.545 177.303 265.477 177.342 265.418C177.381 265.358 177.433 265.308 177.493 265.27C177.554 265.232 177.622 265.207 177.692 265.197C177.763 265.187 177.835 265.192 177.904 265.213C177.973 265.233 178.036 265.268 178.09 265.314L181.83 267.728L185.57 265.314C185.682 265.242 185.818 265.216 185.949 265.242C186.079 265.268 186.195 265.344 186.27 265.453C186.341 265.564 186.366 265.698 186.338 265.827C186.31 265.955 186.231 266.067 186.12 266.139L182.12 268.731C182.033 268.792 181.927 268.824 181.82 268.82V268.82Z" fill="#407BFF"/>
<path d="M181.82 266.794C181.725 266.792 181.631 266.765 181.55 266.715L177.55 264.123C177.438 264.05 177.36 263.936 177.332 263.806C177.304 263.676 177.328 263.54 177.4 263.428C177.473 263.319 177.587 263.243 177.716 263.217C177.846 263.191 177.98 263.217 178.09 263.288L181.83 265.702L185.57 263.288C185.681 263.216 185.817 263.191 185.948 263.218C186.078 263.245 186.192 263.322 186.265 263.433C186.338 263.543 186.364 263.678 186.337 263.807C186.309 263.937 186.231 264.05 186.12 264.123L182.12 266.715C182.029 266.768 181.926 266.796 181.82 266.794V266.794Z" fill="#407BFF"/>
</g>
<path opacity="0.1" d="M248.84 97.4656C247.854 97.4682 246.91 97.8583 246.212 98.5506C245.515 99.2428 245.123 100.181 245.12 101.16V254.43C245.12 255.409 245.512 256.349 246.21 257.042C246.907 257.735 247.853 258.124 248.84 258.124C249.827 258.124 250.773 257.735 251.47 257.042C252.168 256.349 252.56 255.409 252.56 254.43V101.16C252.56 100.675 252.464 100.194 252.277 99.7462C252.09 99.298 251.816 98.8907 251.47 98.5477C251.125 98.2046 250.715 97.9325 250.264 97.7468C249.812 97.5611 249.329 97.4656 248.84 97.4656Z" fill="black"/>
<path opacity="0.6" d="M248.84 98.4985C248.044 98.4985 247.281 98.8124 246.719 99.3712C246.156 99.9299 245.84 100.688 245.84 101.478V122.155C245.942 122.865 246.298 123.515 246.844 123.985C247.39 124.455 248.088 124.714 248.81 124.714C249.532 124.714 250.23 124.455 250.776 123.985C251.322 123.515 251.678 122.865 251.78 122.155V101.448C251.772 100.673 251.461 99.932 250.912 99.3813C250.363 98.8306 249.62 98.514 248.84 98.4985V98.4985Z" fill="white"/>
<path opacity="0.3" d="M125.35 68.6848H247.48C248.147 68.6835 248.809 68.8131 249.425 69.0662C250.042 69.3193 250.603 69.6908 251.075 70.1596C251.547 70.6283 251.921 71.185 252.176 71.7977C252.431 72.4104 252.561 73.067 252.56 73.7299V73.7299C252.561 74.3933 252.431 75.0504 252.176 75.6636C251.921 76.2769 251.547 76.8342 251.076 77.3037C250.604 77.7733 250.043 78.1458 249.426 78.4C248.809 78.6541 248.148 78.7849 247.48 78.7849H125.35C124.681 78.7849 124.02 78.6542 123.402 78.4002C122.784 78.1461 122.223 77.7738 121.751 77.3044C121.278 76.835 120.903 76.2777 120.647 75.6644C120.392 75.0511 120.26 74.3938 120.26 73.7299C120.26 73.0666 120.392 72.4097 120.648 71.7969C120.903 71.1842 121.279 70.6276 121.751 70.159C122.224 69.6904 122.785 69.319 123.403 69.066C124.02 68.813 124.682 68.6835 125.35 68.6848V68.6848Z" fill="black"/>
<path d="M245.55 75.0307C245.007 75.0288 244.486 74.8147 244.1 74.4348C243.907 74.2474 243.755 74.0231 243.652 73.7757C243.549 73.5282 243.497 73.2626 243.5 72.9948C243.497 72.727 243.549 72.4614 243.652 72.2139C243.755 71.9664 243.907 71.7422 244.1 71.5547C244.29 71.3656 244.516 71.2155 244.765 71.1131C245.014 71.0107 245.281 70.958 245.55 70.958C245.819 70.958 246.086 71.0107 246.335 71.1131C246.584 71.2155 246.81 71.3656 247 71.5547C247.193 71.7422 247.345 71.9664 247.448 72.2139C247.551 72.4614 247.603 72.727 247.6 72.9948C247.61 73.2709 247.561 73.546 247.458 73.8025C247.355 74.059 247.199 74.2913 247 74.4845C246.606 74.8463 246.086 75.0421 245.55 75.0307ZM245.55 71.952C245.413 71.9485 245.276 71.9732 245.149 72.0244C245.021 72.0757 244.906 72.1525 244.81 72.2499C244.712 72.3478 244.634 72.4639 244.58 72.5917C244.527 72.7195 244.5 72.8565 244.5 72.9948C244.498 73.1319 244.524 73.268 244.578 73.3945C244.631 73.5209 244.71 73.6351 244.81 73.7297C245.01 73.9168 245.275 74.021 245.55 74.021C245.825 74.021 246.09 73.9168 246.29 73.7297C246.39 73.6351 246.469 73.5209 246.522 73.3945C246.576 73.268 246.602 73.1319 246.6 72.9948C246.6 72.8565 246.573 72.7195 246.52 72.5917C246.466 72.4639 246.388 72.3478 246.29 72.2499C246.194 72.1525 246.079 72.0757 245.951 72.0244C245.824 71.9732 245.687 71.9485 245.55 71.952V71.952Z" fill="white"/>
<path d="M248.59 76.4711C248.458 76.4692 248.332 76.4157 248.24 76.3221L246.24 74.3955C246.148 74.301 246.096 74.1745 246.096 74.0429C246.096 73.9113 246.148 73.7848 246.24 73.6903C246.286 73.6438 246.342 73.6069 246.403 73.5817C246.464 73.5565 246.529 73.5435 246.595 73.5435C246.661 73.5435 246.726 73.5565 246.787 73.5817C246.848 73.6069 246.903 73.6438 246.95 73.6903L248.9 75.6269C248.992 75.7198 249.043 75.8446 249.043 75.9745C249.043 76.1045 248.992 76.2293 248.9 76.3221C248.817 76.406 248.708 76.4586 248.59 76.4711V76.4711Z" fill="white"/>
<path opacity="0.6" d="M239.2 152.088H122.44C121.236 152.088 120.26 153.057 120.26 154.253V201.208C120.26 202.403 121.236 203.373 122.44 203.373H239.2C240.404 203.373 241.38 202.403 241.38 201.208V154.253C241.38 153.057 240.404 152.088 239.2 152.088Z" fill="#407BFF"/>
<path d="M167.91 157.083H125.58V195.716H167.91V157.083Z" fill="#407BFF"/>
<path opacity="0.6" d="M167.91 157.083H125.58V195.716H167.91V157.083Z" fill="white"/>
<path opacity="0.3" d="M165.86 159.119H127.74V193.571H165.86V159.119Z" fill="white"/>
<path opacity="0.3" d="M165.86 186.281V193.571H127.75L127.74 176.727L135.61 169.895L147.28 181.196L153.46 176.727L165.86 186.281Z" fill="white"/>
<g opacity="0.6">
<path d="M159.51 169.885C159.51 170.488 159.33 171.077 158.992 171.579C158.655 172.08 158.176 172.471 157.615 172.702C157.054 172.932 156.436 172.993 155.841 172.875C155.245 172.758 154.698 172.467 154.269 172.041C153.84 171.614 153.547 171.071 153.429 170.48C153.31 169.888 153.371 169.275 153.604 168.718C153.836 168.161 154.229 167.685 154.734 167.35C155.239 167.015 155.833 166.836 156.44 166.836C156.843 166.835 157.243 166.913 157.616 167.065C157.989 167.218 158.328 167.443 158.614 167.726C158.899 168.009 159.125 168.346 159.279 168.717C159.433 169.087 159.511 169.484 159.51 169.885V169.885Z" fill="white"/>
<path opacity="0.3" d="M159.51 169.885C159.51 170.488 159.33 171.077 158.992 171.579C158.655 172.08 158.176 172.471 157.615 172.702C157.054 172.932 156.436 172.993 155.841 172.875C155.245 172.758 154.698 172.467 154.269 172.041C153.84 171.614 153.547 171.071 153.429 170.48C153.31 169.888 153.371 169.275 153.604 168.718C153.836 168.161 154.229 167.685 154.734 167.35C155.239 167.015 155.833 166.836 156.44 166.836C156.843 166.835 157.243 166.913 157.616 167.065C157.989 167.218 158.328 167.443 158.614 167.726C158.899 168.009 159.125 168.346 159.279 168.717C159.433 169.087 159.511 169.484 159.51 169.885V169.885Z" fill="white"/>
</g>
<g opacity="0.3">
<path d="M217.06 160.39H175.56C175.223 160.39 174.9 160.257 174.662 160.021C174.424 159.784 174.29 159.463 174.29 159.129V159.129C174.29 158.964 174.323 158.8 174.387 158.648C174.451 158.495 174.544 158.357 174.662 158.24C174.781 158.124 174.921 158.032 175.075 157.97C175.229 157.908 175.394 157.876 175.56 157.877H217.06C217.226 157.876 217.39 157.908 217.544 157.97C217.697 158.032 217.837 158.125 217.954 158.241C218.071 158.358 218.164 158.496 218.227 158.648C218.29 158.801 218.321 158.964 218.32 159.129C218.321 159.294 218.29 159.458 218.227 159.611C218.164 159.764 218.072 159.903 217.954 160.02C217.837 160.137 217.698 160.23 217.544 160.294C217.391 160.357 217.226 160.39 217.06 160.39V160.39Z" fill="white"/>
<path d="M233.27 167.928H175.56C175.394 167.929 175.229 167.898 175.075 167.836C174.921 167.773 174.781 167.681 174.662 167.565C174.544 167.449 174.451 167.31 174.387 167.158C174.323 167.006 174.29 166.842 174.29 166.677V166.677C174.29 166.342 174.424 166.021 174.662 165.785C174.9 165.548 175.223 165.416 175.56 165.416H233.27C233.607 165.416 233.93 165.548 234.168 165.785C234.406 166.021 234.54 166.342 234.54 166.677V166.677C234.54 166.842 234.507 167.006 234.443 167.158C234.379 167.31 234.285 167.449 234.167 167.565C234.049 167.681 233.909 167.773 233.755 167.836C233.601 167.898 233.436 167.929 233.27 167.928V167.928Z" fill="white"/>
<path d="M198.84 175.476H175.56C175.223 175.476 174.9 175.343 174.662 175.106C174.424 174.87 174.29 174.549 174.29 174.215C174.29 174.049 174.323 173.886 174.387 173.733C174.451 173.581 174.544 173.442 174.662 173.326C174.781 173.21 174.921 173.118 175.075 173.056C175.229 172.993 175.394 172.962 175.56 172.963H198.84C199.006 172.962 199.17 172.993 199.324 173.056C199.477 173.118 199.617 173.21 199.734 173.327C199.851 173.443 199.944 173.582 200.007 173.734C200.07 173.887 200.101 174.05 200.1 174.215V174.215C200.101 174.38 200.07 174.543 200.007 174.696C199.944 174.849 199.852 174.989 199.734 175.106C199.617 175.223 199.478 175.316 199.324 175.38C199.171 175.443 199.006 175.476 198.84 175.476V175.476Z" fill="white"/>
</g>
<path opacity="0.6" d="M239.2 206.71H122.44C121.236 206.71 120.26 207.679 120.26 208.875V255.83C120.26 257.026 121.236 257.995 122.44 257.995H239.2C240.404 257.995 241.38 257.026 241.38 255.83V208.875C241.38 207.679 240.404 206.71 239.2 206.71Z" fill="#407BFF"/>
<path d="M167.91 211.705H125.58V250.338H167.91V211.705Z" fill="#407BFF"/>
<path opacity="0.6" d="M167.91 211.705H125.58V250.338H167.91V211.705Z" fill="white"/>
<path opacity="0.3" d="M165.86 213.741H127.74V248.193H165.86V213.741Z" fill="white"/>
<path opacity="0.3" d="M165.86 240.903V248.193H127.75L127.74 231.349L135.61 224.517L147.28 235.818L153.46 231.349L165.86 240.903Z" fill="white"/>
<g opacity="0.6">
<path d="M159.51 224.507C159.51 225.11 159.33 225.699 158.992 226.201C158.655 226.702 158.176 227.093 157.615 227.324C157.054 227.554 156.436 227.615 155.841 227.497C155.245 227.379 154.698 227.089 154.269 226.663C153.84 226.236 153.547 225.693 153.429 225.102C153.31 224.51 153.371 223.897 153.604 223.34C153.836 222.783 154.229 222.307 154.734 221.972C155.239 221.637 155.833 221.458 156.44 221.458C156.843 221.456 157.243 221.534 157.616 221.687C157.989 221.84 158.328 222.064 158.614 222.348C158.899 222.631 159.125 222.968 159.279 223.338C159.433 223.709 159.511 224.106 159.51 224.507Z" fill="white"/>
<path opacity="0.3" d="M159.51 224.507C159.51 225.11 159.33 225.699 158.992 226.201C158.655 226.702 158.176 227.093 157.615 227.324C157.054 227.554 156.436 227.615 155.841 227.497C155.245 227.379 154.698 227.089 154.269 226.663C153.84 226.236 153.547 225.693 153.429 225.102C153.31 224.51 153.371 223.897 153.604 223.34C153.836 222.783 154.229 222.307 154.734 221.972C155.239 221.637 155.833 221.458 156.44 221.458C156.843 221.456 157.243 221.534 157.616 221.687C157.989 221.84 158.328 222.064 158.614 222.348C158.899 222.631 159.125 222.968 159.279 223.338C159.433 223.709 159.511 224.106 159.51 224.507Z" fill="white"/>
</g>
<g opacity="0.3">
<path d="M217.06 215.012H175.56C175.223 215.012 174.9 214.879 174.662 214.643C174.424 214.406 174.29 214.085 174.29 213.751C174.29 213.586 174.323 213.422 174.387 213.27C174.451 213.117 174.544 212.979 174.662 212.863C174.781 212.746 174.921 212.654 175.075 212.592C175.229 212.53 175.394 212.498 175.56 212.5H217.06C217.226 212.498 217.39 212.53 217.544 212.592C217.697 212.655 217.837 212.747 217.954 212.863C218.071 212.98 218.164 213.118 218.227 213.27C218.29 213.423 218.321 213.586 218.32 213.751C218.321 213.916 218.29 214.08 218.227 214.233C218.164 214.386 218.072 214.525 217.954 214.642C217.837 214.759 217.698 214.852 217.544 214.916C217.391 214.979 217.226 215.012 217.06 215.012V215.012Z" fill="white"/>
<path d="M233.27 222.55H175.56C175.394 222.552 175.229 222.52 175.075 222.458C174.921 222.396 174.781 222.304 174.662 222.187C174.544 222.071 174.451 221.933 174.387 221.78C174.323 221.628 174.29 221.464 174.29 221.299V221.299C174.29 220.964 174.424 220.644 174.662 220.407C174.9 220.17 175.223 220.038 175.56 220.038H233.27C233.607 220.038 233.93 220.17 234.168 220.407C234.406 220.644 234.54 220.964 234.54 221.299V221.299C234.54 221.464 234.507 221.628 234.443 221.78C234.379 221.933 234.285 222.071 234.167 222.187C234.049 222.304 233.909 222.396 233.755 222.458C233.601 222.52 233.436 222.552 233.27 222.55Z" fill="white"/>
<path d="M198.84 230.098H175.56C175.223 230.098 174.9 229.965 174.662 229.728C174.424 229.492 174.29 229.171 174.29 228.837C174.29 228.671 174.323 228.508 174.387 228.355C174.451 228.203 174.544 228.065 174.662 227.948C174.781 227.832 174.921 227.74 175.075 227.678C175.229 227.615 175.394 227.584 175.56 227.585H198.84C199.006 227.584 199.17 227.615 199.324 227.678C199.477 227.74 199.617 227.832 199.734 227.949C199.851 228.065 199.944 228.204 200.007 228.356C200.07 228.509 200.101 228.672 200.1 228.837C200.101 229.002 200.07 229.166 200.007 229.318C199.944 229.471 199.852 229.611 199.734 229.728C199.617 229.845 199.478 229.938 199.324 230.002C199.171 230.065 199.006 230.098 198.84 230.098V230.098Z" fill="white"/>
</g>
<path opacity="0.6" d="M239.2 97.4656H122.44C121.236 97.4656 120.26 98.4349 120.26 99.6306V146.586C120.26 147.781 121.236 148.751 122.44 148.751H239.2C240.404 148.751 241.38 147.781 241.38 146.586V99.6306C241.38 98.4349 240.404 97.4656 239.2 97.4656Z" fill="#407BFF"/>
<path d="M167.91 102.461H125.58V141.094H167.91V102.461Z" fill="#407BFF"/>
<path opacity="0.6" d="M167.91 102.461H125.58V141.094H167.91V102.461Z" fill="white"/>
<path opacity="0.3" d="M165.86 104.497H127.74V138.949H165.86V104.497Z" fill="white"/>
<path opacity="0.3" d="M165.86 131.659V138.949H127.75L127.74 122.105L135.61 115.272L147.28 126.574L153.46 122.105L165.86 131.659Z" fill="white"/>
<g opacity="0.6">
<path d="M159.51 115.263C159.51 115.866 159.33 116.455 158.992 116.957C158.655 117.458 158.176 117.849 157.615 118.08C157.054 118.31 156.436 118.371 155.841 118.253C155.245 118.135 154.698 117.845 154.269 117.419C153.84 116.992 153.547 116.449 153.429 115.858C153.31 115.266 153.371 114.653 153.604 114.096C153.836 113.539 154.229 113.063 154.734 112.728C155.239 112.393 155.833 112.214 156.44 112.214C156.843 112.213 157.243 112.291 157.616 112.443C157.989 112.596 158.328 112.821 158.614 113.104C158.899 113.387 159.125 113.724 159.279 114.094C159.433 114.465 159.511 114.862 159.51 115.263V115.263Z" fill="white"/>
<path opacity="0.3" d="M159.51 115.263C159.51 115.866 159.33 116.455 158.992 116.957C158.655 117.458 158.176 117.849 157.615 118.08C157.054 118.31 156.436 118.371 155.841 118.253C155.245 118.135 154.698 117.845 154.269 117.419C153.84 116.992 153.547 116.449 153.429 115.858C153.31 115.266 153.371 114.653 153.604 114.096C153.836 113.539 154.229 113.063 154.734 112.728C155.239 112.393 155.833 112.214 156.44 112.214C156.843 112.213 157.243 112.291 157.616 112.443C157.989 112.596 158.328 112.821 158.614 113.104C158.899 113.387 159.125 113.724 159.279 114.094C159.433 114.465 159.511 114.862 159.51 115.263V115.263Z" fill="white"/>
</g>
<g opacity="0.3">
<path d="M217.06 105.768H175.56C175.393 105.768 175.228 105.735 175.074 105.672C174.92 105.609 174.78 105.516 174.662 105.399C174.544 105.281 174.45 105.142 174.387 104.989C174.323 104.836 174.29 104.672 174.29 104.507V104.507C174.29 104.342 174.323 104.178 174.387 104.026C174.451 103.873 174.544 103.735 174.662 103.618C174.781 103.502 174.921 103.41 175.075 103.348C175.229 103.285 175.394 103.254 175.56 103.255H217.06C217.226 103.254 217.39 103.286 217.544 103.348C217.697 103.41 217.837 103.503 217.954 103.619C218.071 103.735 218.164 103.874 218.227 104.026C218.29 104.179 218.321 104.342 218.32 104.507C218.321 104.672 218.29 104.836 218.227 104.989C218.164 105.142 218.072 105.281 217.954 105.398C217.837 105.515 217.698 105.608 217.544 105.672C217.391 105.735 217.226 105.768 217.06 105.768V105.768Z" fill="white"/>
<path d="M233.27 113.306H175.56C175.394 113.307 175.229 113.276 175.075 113.214C174.921 113.151 174.781 113.059 174.662 112.943C174.544 112.827 174.451 112.688 174.387 112.536C174.323 112.383 174.29 112.22 174.29 112.055V112.055C174.29 111.72 174.424 111.399 174.662 111.163C174.9 110.926 175.223 110.793 175.56 110.793H233.27C233.607 110.793 233.93 110.926 234.168 111.163C234.406 111.399 234.54 111.72 234.54 112.055V112.055C234.54 112.22 234.507 112.383 234.443 112.536C234.379 112.688 234.285 112.827 234.167 112.943C234.049 113.059 233.909 113.151 233.755 113.214C233.601 113.276 233.436 113.307 233.27 113.306V113.306Z" fill="white"/>
<path d="M198.84 120.854H175.56C175.223 120.854 174.9 120.721 174.662 120.484C174.424 120.248 174.29 119.927 174.29 119.592V119.592C174.29 119.427 174.323 119.264 174.387 119.111C174.451 118.959 174.544 118.82 174.662 118.704C174.781 118.588 174.921 118.496 175.075 118.433C175.229 118.371 175.394 118.34 175.56 118.341H198.84C199.006 118.34 199.17 118.371 199.324 118.434C199.477 118.496 199.617 118.588 199.734 118.705C199.851 118.821 199.944 118.96 200.007 119.112C200.07 119.264 200.101 119.428 200.1 119.592V119.592C200.101 119.758 200.07 119.921 200.007 120.074C199.944 120.227 199.852 120.366 199.734 120.484C199.617 120.601 199.478 120.694 199.324 120.758C199.171 120.821 199.006 120.854 198.84 120.854V120.854Z" fill="white"/>
</g>
<path d="M332.16 179.876L323.86 187.284C323.86 187.284 327.07 189.797 327.94 190.681C328.81 191.565 324.15 194.475 322.77 193.66C321.39 192.846 319.31 189.211 318.52 187.701C317.73 186.192 321.52 183.779 321.52 183.779L328.23 177.293L332.16 179.876Z" fill="#B97964"/>
<path d="M345.91 163.866C345.62 169.825 330.37 182.388 330.37 182.388L325.57 179.26C325.57 179.26 337.78 166.439 336.19 162.565C335.63 161.205 333.69 159.487 331.42 157.848C328.373 155.723 325.197 153.786 321.91 152.048L325.42 143.477L328.19 136.724C333.35 138.82 346.21 157.967 345.91 163.866Z" fill="#407BFF"/>
<path opacity="0.2" d="M331.42 157.907C328.373 155.782 325.197 153.845 321.91 152.107L325.42 143.537C328.28 146.466 332.69 152.127 331.42 157.907Z" fill="black"/>
<path d="M248.86 141.461L231.64 134.509C231.64 134.509 230.3 132.294 229.15 132.006C228 131.718 220.9 132.155 220.36 133C219.82 133.844 220.93 139.187 222.36 139.634C223.79 140.081 229.89 138.839 230.42 138.502L245.81 146.317L248.86 141.461Z" fill="#B97964"/>
<path d="M347.15 353.147L340.87 354.249L338.3 345.748L335.95 337.952L343.19 335.439L345.29 344.814L347.15 353.147Z" fill="#B97964"/>
<path opacity="0.2" d="M345.32 345.003L338.33 345.917L335.96 338.031L343.19 335.479L345.32 345.003Z" fill="black"/>
<path d="M305.24 353.306H298.87L297.82 344.815L296.87 336.879L304.44 335.737L304.87 345.053L305.24 353.306Z" fill="#B97964"/>
<path opacity="0.2" d="M304.87 345.619L297.82 345.311L296.87 337.127L304.44 335.866L304.87 345.619Z" fill="black"/>
<path d="M345.91 338.19L335.59 339.998C325.18 314.176 317.77 292.715 312.59 274.868C309.77 265.235 307.54 256.674 305.85 249.047L306.29 277.093V340.365H295.83C270.34 220.196 288.41 192.26 288.41 192.26L318.9 187.195C320.108 192.807 320.963 198.489 321.46 204.207L322.83 214.248L334.75 275.395L345.91 338.19Z" fill="#407BFF"/>
<g opacity="0.5">
<path d="M345.91 338.19L335.59 339.997C326.08 316.45 319.07 296.469 313.95 279.585C313.46 277.987 312.95 276.417 312.5 274.868C309.94 266.129 308.24 258.263 306.24 251.212C306.159 250.491 305.998 249.782 305.76 249.096L306.24 277.142V340.415H295.83C280.26 266.923 280.94 227.903 283.83 208.716C285.67 196.48 288.41 192.419 288.41 192.419L318.9 187.304C320.109 192.906 320.964 198.578 321.46 204.286L321.87 207.266L322.87 214.277L334.79 275.414L345.91 338.19Z" fill="white"/>
</g>
<path d="M333.98 338.726L346.78 334.515L346.6 339.918L336.02 343.275L333.98 338.726Z" fill="#407BFF"/>
<path opacity="0.6" d="M333.98 338.726L346.78 334.515L346.6 339.918L336.02 343.275L333.98 338.726Z" fill="white"/>
<path d="M294.46 339.312L307.81 337.376L306.69 342.669L295.68 344.149L294.46 339.312Z" fill="#407BFF"/>
<path opacity="0.6" d="M294.46 339.312L307.81 337.376L306.69 342.669L295.68 344.149L294.46 339.312Z" fill="white"/>
<path opacity="0.2" d="M314 279.585C313.51 277.986 313 276.417 312.55 274.868C310 266.129 308.29 258.263 306.29 251.212L305.29 238.222C305.29 238.222 311.81 223.95 309.37 213.9C309.59 214.476 313.91 225.42 312.22 236.345C311.824 250.782 312.419 265.229 314 279.585V279.585Z" fill="black"/>
<path d="M312.78 126.594C312.714 126.671 312.64 126.741 312.56 126.803C311.511 127.833 310.267 128.646 308.9 129.196C304.9 130.676 301.99 130.467 299.9 128.848C296.96 126.395 295.68 121.539 295.27 115.54C295.029 113.16 295.171 110.756 295.69 108.42C295.685 108.387 295.685 108.353 295.69 108.32C295.69 108.241 295.69 108.132 295.76 108.052C296.102 106.729 296.773 105.512 297.711 104.513C298.649 103.513 299.825 102.764 301.13 102.332C302.259 101.923 303.429 101.637 304.62 101.478C316.29 99.8689 320.88 118.828 312.78 126.594Z" fill="#B97964"/>
<path opacity="0.2" d="M312.56 126.803C311.491 127.782 310.237 128.542 308.87 129.037C304.87 130.507 301.95 130.169 299.87 128.521C302.418 128.816 304.994 128.272 307.2 126.971C308.022 126.543 308.932 126.306 309.86 126.276C310.789 126.247 311.712 126.427 312.56 126.803V126.803Z" fill="black"/>
<path d="M315.83 135.771C317.68 138.641 314.08 141.412 314.08 141.412C306.36 141.044 303.81 137.975 303.81 137.975C308.3 133.01 303.65 125.502 303.65 125.502L304.99 125.631L313.5 124.26C313.5 124.26 312.87 129.226 312.93 130.328C313.3 135.91 315.83 135.771 315.83 135.771Z" fill="#B97964"/>
<path d="M295.67 108.35C295.67 108.35 296.08 116.563 304.29 119.076C304.29 119.076 308.72 127.1 313.64 126.594C320.36 125.909 325.03 115.67 321.47 106.364C316.86 94.2577 297.67 95.6679 295.67 108.35Z" fill="#263238"/>
<path d="M300.06 117.239C299.9 115.968 300.65 113.703 302.68 113.743C304.71 113.783 306.56 118.709 301.68 120.437C301 120.695 300.4 119.89 300.06 117.239Z" fill="#B97964"/>
<path d="M298.19 352.104H305.31C305.457 352.107 305.598 352.158 305.713 352.25C305.827 352.341 305.907 352.468 305.94 352.61L307.4 359.165C307.429 359.304 307.43 359.448 307.403 359.588C307.377 359.728 307.322 359.862 307.243 359.981C307.164 360.1 307.062 360.202 306.943 360.282C306.824 360.362 306.691 360.418 306.55 360.446C306.47 360.456 306.39 360.456 306.31 360.446C303.4 360.396 303.17 360.218 299.51 360.218C297.26 360.218 290.46 360.456 287.35 360.456C284.24 360.456 283.84 357.407 285.11 357.119C290.82 355.888 295.11 354.14 296.95 352.541C297.292 352.243 297.736 352.087 298.19 352.104Z" fill="#263238"/>
<path d="M295.74 353.395C295.239 353.434 294.738 353.305 294.32 353.027C294.17 352.913 294.056 352.76 293.991 352.584C293.925 352.408 293.911 352.217 293.95 352.034C293.949 351.933 293.976 351.834 294.029 351.748C294.082 351.662 294.159 351.592 294.25 351.548C295.07 351.13 297.47 352.59 297.73 352.759C297.761 352.774 297.785 352.799 297.8 352.83C297.814 352.86 297.818 352.895 297.81 352.928C297.807 352.963 297.792 352.997 297.769 353.023C297.746 353.05 297.715 353.069 297.68 353.077C297.047 353.253 296.396 353.359 295.74 353.395ZM294.64 351.875C294.565 351.855 294.485 351.855 294.41 351.875C294.41 351.875 294.31 351.945 294.3 352.084C294.286 352.199 294.3 352.315 294.34 352.424C294.38 352.533 294.445 352.631 294.53 352.709C295.36 353.087 296.304 353.136 297.17 352.849C296.398 352.365 295.539 352.034 294.64 351.875V351.875Z" fill="#407BFF"/>
<path d="M297.64 353.136H297.55C296.79 352.729 295.31 351.101 295.46 350.326C295.485 350.197 295.555 350.081 295.657 349.998C295.76 349.914 295.888 349.869 296.02 349.869C296.154 349.855 296.29 349.868 296.418 349.907C296.547 349.946 296.667 350.011 296.77 350.097C297.63 350.783 297.77 352.898 297.77 353.007C297.772 353.038 297.765 353.069 297.751 353.097C297.737 353.125 297.716 353.149 297.69 353.166C297.671 353.16 297.654 353.15 297.64 353.136ZM296.15 350.157H296.06C295.84 350.157 295.82 350.296 295.81 350.336C295.71 350.813 296.66 352.044 297.42 352.61C297.367 351.772 297.06 350.969 296.54 350.306C296.432 350.21 296.294 350.154 296.15 350.147V350.157Z" fill="#407BFF"/>
<path d="M340.63 352.104H347.74C347.888 352.103 348.031 352.153 348.146 352.245C348.261 352.338 348.34 352.467 348.37 352.61L349.83 359.165C349.861 359.304 349.863 359.448 349.837 359.588C349.812 359.728 349.758 359.861 349.68 359.98C349.602 360.1 349.501 360.202 349.382 360.282C349.264 360.362 349.13 360.418 348.99 360.446H348.75C345.84 360.396 345.6 360.218 341.95 360.218C339.69 360.218 332.9 360.456 329.79 360.456C326.68 360.456 326.27 357.407 327.55 357.119C333.26 355.888 337.55 354.14 339.38 352.541C339.725 352.243 340.172 352.086 340.63 352.104V352.104Z" fill="#263238"/>
<path d="M338.18 353.395C337.675 353.436 337.171 353.306 336.75 353.027C336.607 352.908 336.499 352.753 336.436 352.579C336.372 352.404 336.357 352.217 336.39 352.034C336.388 351.933 336.415 351.833 336.468 351.747C336.521 351.661 336.598 351.591 336.69 351.548C337.51 351.13 339.9 352.59 340.17 352.759C340.2 352.775 340.223 352.8 340.238 352.831C340.252 352.861 340.256 352.895 340.25 352.928C340.245 352.963 340.231 352.995 340.208 353.022C340.184 353.048 340.154 353.067 340.12 353.077C339.487 353.252 338.836 353.358 338.18 353.395V353.395ZM337.07 351.875C336.998 351.856 336.922 351.856 336.85 351.875C336.8 351.875 336.74 351.945 336.74 352.084C336.723 352.199 336.736 352.316 336.776 352.425C336.816 352.534 336.883 352.632 336.97 352.709C337.8 353.087 338.744 353.136 339.61 352.849C338.836 352.362 337.973 352.031 337.07 351.875Z" fill="#407BFF"/>
<path d="M340.07 353.137H340C339.23 352.73 337.75 351.101 337.9 350.326C337.929 350.197 338.001 350.082 338.105 349.999C338.208 349.916 338.337 349.871 338.47 349.869C338.602 349.857 338.736 349.87 338.863 349.909C338.99 349.949 339.108 350.013 339.21 350.098C340.07 350.783 340.21 352.898 340.26 353.008C340.259 353.038 340.252 353.069 340.238 353.096C340.224 353.123 340.204 353.148 340.18 353.167C340.141 353.169 340.102 353.159 340.07 353.137ZM338.58 350.157H338.5C338.27 350.157 338.25 350.296 338.24 350.336C338.15 350.813 339.09 352.044 339.85 352.61C339.805 351.772 339.502 350.967 338.98 350.306C338.869 350.209 338.728 350.153 338.58 350.147V350.157Z" fill="#407BFF"/>
<path d="M288.41 192.398C288.41 192.398 284.41 153.746 294.41 137.965C294.41 137.965 308.41 133.138 328.19 136.763C328.19 136.763 320.8 163.906 319.94 192.379L288.41 192.398Z" fill="#263238"/>
<path d="M325.51 185.298L292.51 186.162C290.261 180.58 288.869 174.695 288.38 168.703C287.993 164.237 287.936 159.749 288.21 155.276C288.471 150.264 289.14 145.283 290.21 140.379C298.64 131.152 328.13 136.734 328.13 136.734C323.7 157.699 325.51 185.298 325.51 185.298Z" fill="#407BFF"/>
<path d="M297 102.54C296.79 101.994 293.79 104.785 293.65 104.993C293.003 105.892 292.624 106.954 292.555 108.056C292.486 109.159 292.73 110.259 293.26 111.23C294.43 113.217 296.86 114.597 297.07 116.891C297.16 117.944 296.74 118.977 296.74 120.039C296.807 121.44 297.412 122.762 298.43 123.734C300.38 125.72 303.58 126.564 303.78 129.782C303.751 131.193 303.648 132.602 303.47 134.003C303.388 134.707 303.475 135.42 303.724 136.085C303.972 136.749 304.375 137.346 304.9 137.826C305.789 138.312 306.741 138.673 307.73 138.899C308.68 139.246 309.64 140.021 309.6 141.024C309.452 141.66 309.231 142.276 308.94 142.861C308.829 143.445 308.891 144.048 309.121 144.597C309.35 145.146 309.735 145.616 310.23 145.95C312.16 147.42 315.31 147.261 316.86 149.297C317.128 149.582 317.33 149.922 317.451 150.293C317.573 150.664 317.611 151.056 317.563 151.444C317.516 151.831 317.383 152.203 317.175 152.534C316.967 152.864 316.689 153.146 316.36 153.359C316.36 153.359 320.08 153.617 320.74 150.081C321.029 150.968 320.955 151.932 320.534 152.764C320.113 153.597 319.378 154.231 318.49 154.531C318.49 154.531 322.03 155.057 322.7 150.608C323.004 151.222 323.513 151.713 324.139 151.999C324.766 152.285 325.472 152.348 326.14 152.177C326.14 152.177 323.4 151.243 325.5 148.304C326.7 146.625 328.28 144.907 328.5 142.772C328.78 140.388 326.8 138.571 327.14 136.178C327.45 133.933 329.6 132.314 330.14 130.11C330.428 128.694 330.167 127.222 329.41 125.988C328.26 124.002 325.97 123.009 325.97 120.486C325.97 118.5 326.78 116.573 327.21 114.617C327.597 113.255 327.484 111.801 326.89 110.515C326.251 109.569 325.452 108.739 324.53 108.062C321.84 105.669 323.23 101.915 320.81 99.2829C320.25 98.6624 319.554 98.1783 318.775 97.8683C317.996 97.5583 317.156 97.4307 316.32 97.4953C315.355 97.6839 314.403 97.9327 313.47 98.2401C311.47 98.7268 310.27 97.7336 308.74 96.7008C306.26 95.0323 302.68 94.2478 299.89 95.6381C298.653 96.2515 297.681 97.2868 297.15 98.5544C296.619 99.822 296.566 101.237 297 102.54V102.54Z" fill="#263238"/>
<path d="M301.8 126.852C301.044 126.898 300.287 126.79 299.575 126.534C298.862 126.277 298.211 125.879 297.66 125.363C296.36 124.022 296.2 122.165 296.21 120.397V119.92C296.21 118.083 296.21 116.504 295.21 114.955C294.89 114.468 294.51 113.962 294.15 113.544C293.412 112.709 292.806 111.768 292.35 110.754C292.101 110.136 291.984 109.474 292.005 108.81C292.025 108.145 292.184 107.492 292.47 106.89C293.87 103.911 297.73 102.451 298.88 102.074C298.938 102.053 299.003 102.056 299.059 102.082C299.115 102.108 299.159 102.155 299.18 102.213C299.201 102.271 299.198 102.335 299.172 102.391C299.146 102.446 299.098 102.49 299.04 102.511C296.75 103.275 293.94 104.884 292.9 107.089C292.637 107.632 292.492 108.223 292.473 108.825C292.454 109.427 292.562 110.027 292.79 110.585C293.225 111.555 293.809 112.453 294.52 113.247C294.89 113.713 295.27 114.19 295.6 114.696C296.7 116.355 296.68 118.083 296.66 119.91V120.387C296.66 122.095 296.8 123.853 297.98 125.065C299.63 126.753 302.27 126.525 304.39 126.137C304.45 126.131 304.51 126.147 304.559 126.182C304.608 126.218 304.641 126.27 304.652 126.329C304.664 126.388 304.652 126.449 304.62 126.5C304.588 126.551 304.538 126.588 304.48 126.604C303.595 126.763 302.699 126.846 301.8 126.852V126.852Z" fill="#263238"/>
<path d="M325.68 150.121C325.643 150.12 325.606 150.111 325.573 150.094C325.54 150.076 325.512 150.052 325.49 150.022C324.63 148.79 326.49 146.695 327.79 145.304C328.065 145.02 328.325 144.721 328.57 144.411C329.147 143.734 329.485 142.888 329.534 142.003C329.583 141.117 329.339 140.24 328.84 139.504L328.49 139.018C327.69 137.906 326.78 136.634 327.49 135.105C327.801 134.501 328.194 133.943 328.66 133.446C329.077 133.013 329.434 132.525 329.72 131.996C330.187 131.094 330.277 130.046 329.972 129.078C329.667 128.11 328.991 127.299 328.09 126.822C328.063 126.808 328.038 126.788 328.019 126.764C327.999 126.74 327.985 126.712 327.977 126.682C327.968 126.653 327.966 126.622 327.97 126.591C327.974 126.56 327.984 126.531 328 126.504C328.035 126.452 328.087 126.415 328.148 126.398C328.209 126.382 328.273 126.388 328.33 126.415C329.327 126.96 330.073 127.868 330.41 128.948C330.748 130.027 330.651 131.195 330.14 132.205C329.834 132.766 329.457 133.287 329.02 133.754C328.582 134.213 328.212 134.732 327.92 135.294C327.34 136.585 328.1 137.637 328.92 138.75L329.27 139.246C329.825 140.059 330.098 141.029 330.048 142.009C329.997 142.99 329.626 143.927 328.99 144.679C328.739 145.008 328.468 145.323 328.18 145.622C327.09 146.814 325.27 148.83 325.91 149.754C325.946 149.804 325.961 149.866 325.952 149.927C325.942 149.989 325.909 150.044 325.86 150.081C325.807 150.117 325.743 150.131 325.68 150.121Z" fill="#263238"/>
<path opacity="0.2" d="M288.41 168.703C288.023 164.237 287.966 159.749 288.24 155.276C291.91 152.237 294.76 150.072 294.76 150.072C294.76 150.072 295.83 161.483 288.41 168.703Z" fill="black"/>
<path d="M296.27 137.052C296.27 137.052 298.93 150.369 288.15 157.053C288.15 157.053 262.36 156.984 257.46 155.395C252.56 153.806 237.62 144.043 237.62 144.043L241.39 137.538C241.39 137.538 255.81 142.613 260.16 144.043C264.51 145.473 296.27 137.052 296.27 137.052Z" fill="#407BFF"/>
<path d="M329.933 80.7947L360.773 80.7519C362.811 80.7491 364.461 79.1061 364.458 77.0822L364.415 46.4541C364.412 44.4302 362.758 42.7918 360.72 42.7946L329.88 42.8374C327.842 42.8402 326.192 44.4832 326.195 46.5071L326.238 77.1352C326.241 79.1591 327.895 80.7975 329.933 80.7947Z" fill="#407BFF"/>
<path d="M349.45 78.8543C349.45 78.8543 344.45 90.2356 333.19 93.7512C333.19 93.7512 339.4 90.2058 338.94 78.3379L349.45 78.8543Z" fill="#407BFF"/>
<path d="M353.564 57.4392L343.978 66.3418L339.62 62.2951" stroke="white" stroke-width="5" stroke-linecap="round" stroke-linejoin="round"/>
</svg>
