<svg width="358" height="357" viewBox="0 0 358 357" fill="none" xmlns="http://www.w3.org/2000/svg">
<path d="M310.793 77.8071C309.934 83.5925 307.432 89.0096 303.584 93.4145C299.736 97.8193 294.704 101.026 289.086 102.655C283.469 104.283 277.502 104.264 271.895 102.6C266.288 100.936 261.276 97.6972 257.456 93.268C253.636 88.8389 251.169 83.406 250.347 77.6152C249.524 71.8245 250.382 65.9195 252.818 60.6021C255.254 55.2847 259.166 50.7787 264.089 47.6197C269.011 44.4607 274.737 42.7816 280.586 42.782V73.3137L310.793 77.8071Z" fill="#EBEBEB"/>
<path d="M317.336 67.1115C317.338 68.6127 317.227 70.1119 317.003 71.5964L286.805 67.1115V36.5798C290.815 36.5765 294.787 37.3639 298.493 38.8971C302.198 40.4302 305.566 42.679 308.401 45.5148C311.237 48.3506 313.486 51.7178 315.019 55.4236C316.552 59.1294 317.34 63.1011 317.336 67.1115V67.1115Z" fill="#DBDBDB"/>
<path d="M316.363 84.1714H283.892V85.0257H316.363V84.1714Z" fill="#C7C7C7"/>
<path d="M318.643 87.3065C318.107 87.3082 317.583 87.1508 317.137 86.8542C316.69 86.5577 316.342 86.1354 316.135 85.6407C315.929 85.146 315.874 84.6012 315.978 84.0754C316.081 83.5495 316.339 83.0662 316.717 82.6866C317.095 82.307 317.578 82.0482 318.103 81.943C318.629 81.8379 319.174 81.891 319.669 82.0957C320.164 82.3004 320.588 82.6475 320.886 83.093C321.184 83.5385 321.343 84.0624 321.343 84.5984C321.344 84.9536 321.275 85.3056 321.14 85.6341C321.005 85.9626 320.806 86.2612 320.555 86.5128C320.304 86.7644 320.006 86.964 319.678 87.1002C319.35 87.2364 318.999 87.3065 318.643 87.3065V87.3065ZM318.643 82.7532C318.276 82.7515 317.916 82.859 317.61 83.062C317.304 83.2651 317.065 83.5545 316.924 83.8936C316.782 84.2327 316.745 84.6061 316.816 84.9665C316.888 85.3269 317.064 85.658 317.324 85.9177C317.584 86.1775 317.915 86.3543 318.275 86.4255C318.636 86.4968 319.009 86.4593 319.348 86.318C319.687 86.1766 319.977 85.9377 320.18 85.6315C320.383 85.3254 320.49 84.9658 320.489 84.5984C320.489 84.109 320.294 83.6397 319.948 83.2936C319.602 82.9476 319.133 82.7532 318.643 82.7532Z" fill="#C7C7C7"/>
<path d="M352.122 82.8901H326.896V84.0263H352.122V82.8901Z" fill="#C7C7C7"/>
<path d="M341.171 85.1711H326.896V86.3073H341.171V85.1711Z" fill="#C7C7C7"/>
<path d="M20.1523 142.783H12.0966V200.105H20.1523V142.783Z" fill="#EBEBEB"/>
<path d="M34.0001 156.665H25.9443V200.113H34.0001V156.665Z" fill="#EBEBEB"/>
<path d="M47.8478 178.381H39.792V200.105H47.8478V178.381Z" fill="#EBEBEB"/>
<path d="M61.6871 165.976H53.6313V200.104H61.6871V165.976Z" fill="#EBEBEB"/>
<path d="M75.5348 152.949H67.479V200.113H75.5348V152.949Z" fill="#EBEBEB"/>
<path d="M89.3824 145.286H81.3267V200.113H89.3824V145.286Z" fill="#EBEBEB"/>
<path d="M7.42378 135.496L7.51775 151.65L7.569 167.805L7.6288 200.105L7.42378 199.908C14.8275 199.908 22.2312 199.908 29.6348 199.908L51.8459 199.951L74.057 199.994L96.268 200.113L74.057 200.233L51.8459 200.284L29.6348 200.327C22.2312 200.327 14.8275 200.327 7.42378 200.327H7.22729V200.122L7.28709 167.822V151.667L7.42378 135.496Z" fill="#EBEBEB"/>
<path d="M5.64685 138.717C6.22492 138.555 6.82372 138.48 7.42374 138.494C8.02382 138.479 8.62283 138.554 9.20062 138.717C8.62233 138.878 8.02399 138.955 7.42374 138.947C6.82355 138.954 6.22537 138.877 5.64685 138.717Z" fill="#EBEBEB"/>
<path d="M5.64685 143.646C6.22537 143.486 6.82355 143.408 7.42374 143.415C8.02399 143.407 8.62233 143.485 9.20062 143.646C8.62233 143.807 8.02399 143.885 7.42374 143.876C6.82355 143.883 6.22537 143.806 5.64685 143.646Z" fill="#EBEBEB"/>
<path d="M5.64685 148.558C6.22537 148.398 6.82355 148.32 7.42374 148.327C8.02399 148.319 8.62233 148.397 9.20062 148.558C8.62233 148.719 8.02399 148.796 7.42374 148.788C6.82355 148.795 6.22537 148.718 5.64685 148.558V148.558Z" fill="#EBEBEB"/>
<path d="M5.64685 153.47C6.22537 153.31 6.82355 153.233 7.42374 153.24C8.02399 153.231 8.62233 153.309 9.20062 153.47C8.62283 153.633 8.02382 153.708 7.42374 153.692C6.82372 153.707 6.22492 153.632 5.64685 153.47Z" fill="#EBEBEB"/>
<path d="M5.64685 158.365C6.22537 158.205 6.82355 158.127 7.42374 158.134C8.02425 158.121 8.62327 158.199 9.20062 158.365C8.62193 158.523 8.02359 158.598 7.42374 158.587C6.82394 158.597 6.22574 158.522 5.64685 158.365V158.365Z" fill="#EBEBEB"/>
<path d="M5.64685 163.285C6.22492 163.124 6.82372 163.049 7.42374 163.063C8.02382 163.048 8.62283 163.123 9.20062 163.285C8.62233 163.446 8.02399 163.524 7.42374 163.516C6.82355 163.523 6.22537 163.445 5.64685 163.285V163.285Z" fill="#EBEBEB"/>
<path d="M5.64685 168.198C6.22537 168.038 6.82355 167.96 7.42374 167.967C8.02399 167.959 8.62233 168.036 9.20062 168.198C8.62233 168.359 8.02399 168.436 7.42374 168.428C6.82355 168.435 6.22537 168.357 5.64685 168.198V168.198Z" fill="#EBEBEB"/>
<path d="M5.64685 173.11C6.22537 172.95 6.82355 172.872 7.42374 172.879C8.02399 172.871 8.62233 172.949 9.20062 173.11C8.62233 173.271 8.02399 173.348 7.42374 173.34C6.82355 173.347 6.22537 173.27 5.64685 173.11V173.11Z" fill="#EBEBEB"/>
<path d="M5.64685 178.013C6.22537 177.853 6.82355 177.775 7.42374 177.782C8.02399 177.774 8.62233 177.852 9.20062 178.013C8.62283 178.176 8.02382 178.251 7.42374 178.235C6.82372 178.249 6.22492 178.174 5.64685 178.013V178.013Z" fill="#EBEBEB"/>
<path d="M5.64685 182.934C6.22537 182.774 6.82355 182.696 7.42374 182.703C8.02425 182.69 8.62327 182.768 9.20062 182.934C8.62283 183.097 8.02382 183.172 7.42374 183.156C6.82394 183.166 6.22574 183.091 5.64685 182.934V182.934Z" fill="#EBEBEB"/>
<path d="M5.64685 187.837C6.22574 187.68 6.82394 187.605 7.42374 187.615C8.02382 187.599 8.62283 187.674 9.20062 187.837C8.62327 188.003 8.02425 188.081 7.42374 188.068C6.82355 188.075 6.22537 187.997 5.64685 187.837V187.837Z" fill="#EBEBEB"/>
<path d="M5.64685 192.749C6.22537 192.589 6.82355 192.512 7.42374 192.519C8.02399 192.511 8.62233 192.588 9.20062 192.749C8.62233 192.91 8.02399 192.988 7.42374 192.98C6.82355 192.987 6.22537 192.909 5.64685 192.749Z" fill="#EBEBEB"/>
<path d="M46.8056 233.122H0.0854492V333.824H46.8056V233.122Z" fill="#407BFF"/>
<path opacity="0.7" d="M46.8056 233.122H0.0854492V333.824H46.8056V233.122Z" fill="white"/>
<path opacity="0.5" d="M46.8055 233.122H32.9578V333.824H46.8055V233.122Z" fill="white"/>
<path d="M108.971 156.784H62.2593V333.823H108.971V156.784Z" fill="#407BFF"/>
<path opacity="0.7" d="M108.971 156.784H62.2593V333.823H108.971V156.784Z" fill="white"/>
<path opacity="0.5" d="M108.98 156.784H95.1318V333.823H108.98V156.784Z" fill="white"/>
<path d="M171.162 214.32H124.442V333.824H171.162V214.32Z" fill="#407BFF"/>
<path opacity="0.7" d="M171.162 214.32H124.442V333.824H171.162V214.32Z" fill="white"/>
<path opacity="0.5" d="M171.162 214.32H157.314V333.824H171.162V214.32Z" fill="white"/>
<path d="M233.336 116.693H186.616V333.815H233.336V116.693Z" fill="#407BFF"/>
<path opacity="0.7" d="M233.336 116.693H186.616V333.815H233.336V116.693Z" fill="white"/>
<path opacity="0.5" d="M233.336 116.693H219.488V333.815H233.336V116.693Z" fill="white"/>
<path d="M295.501 151.625H248.789V333.824H295.501V151.625Z" fill="#407BFF"/>
<path opacity="0.7" d="M295.501 151.625H248.789V333.824H295.501V151.625Z" fill="white"/>
<path opacity="0.5" d="M295.51 151.625H281.662V333.824H295.51V151.625Z" fill="white"/>
<path d="M357.692 85.752H310.972V333.824H357.692V85.752Z" fill="#407BFF"/>
<path opacity="0.7" d="M357.692 85.752H310.972V333.824H357.692V85.752Z" fill="white"/>
<path opacity="0.5" d="M357.692 85.752H343.844V333.824H357.692V85.752Z" fill="white"/>
<path d="M66.9578 127.62H91.1251L142.04 207.973H117.864L66.9578 127.62Z" fill="#407BFF"/>
<path opacity="0.1" d="M66.9578 127.62H91.1251L142.04 207.973H117.864L66.9578 127.62Z" fill="black"/>
<path d="M197.474 82.3174H221.65L272.556 162.679H248.388L197.474 82.3174Z" fill="#407BFF"/>
<path opacity="0.1" d="M197.474 82.3174H221.65L272.556 162.679H248.388L197.474 82.3174Z" fill="black"/>
<path d="M91.0996 127.62H66.9237L0.0854492 233.122H24.2528L91.0996 127.62Z" fill="#407BFF"/>
<path d="M221.692 82.3174H197.516L117.906 207.972H142.074L221.692 82.3174Z" fill="#407BFF"/>
<path d="M352.045 37.0154H327.878L248.269 162.679H272.436L352.045 37.0154Z" fill="#407BFF"/>
<path d="M322.265 37.0157H357.76L348.654 20.2292L322.265 37.0157Z" fill="#407BFF"/>
<path d="M357.76 333.824L313.048 334.029L268.327 334.106L178.884 334.242L89.4423 334.106L44.7211 334.029L0 333.824L44.7211 333.61L89.4423 333.533L178.884 333.396L268.327 333.542L313.048 333.61L357.76 333.824Z" fill="#263238"/>
<path d="M171.127 173.648C154.119 187.667 109.919 238.06 107.655 241.537C101.735 250.661 96.6179 295.048 123.032 288.812C149.446 282.576 178.884 208.195 187.769 182.985C192.484 169.624 185.009 162.209 171.127 173.648Z" fill="#C7C7C7"/>
<path opacity="0.1" d="M132.198 284.191C155.939 266.251 179.884 205.316 187.726 182.985C190.605 174.844 188.948 168.898 184.07 168.104L132.198 284.191Z" fill="black"/>
<path d="M111.952 194.885C108.911 189.221 68.0683 205.418 71.3658 214.285C83.4281 246.748 100.761 277.647 107.074 283.772C115.352 291.802 128.329 287.146 132.292 280.355C137.794 270.855 114.968 200.498 111.952 194.885Z" fill="#D3766A"/>
<path d="M80.4039 221.162C85.6065 223.494 113.293 199.557 112.012 193.825C110.85 188.7 110.201 173.425 113.592 162.405C116.429 153.145 121.708 139.724 116.779 138.007C109.611 135.496 100.906 151.676 96.4728 161.252C93.1155 156.596 89.7839 152.906 87.0758 151.462C78.0205 146.678 51.5125 184.411 55.6642 193.971C59.6281 203.205 75.1929 218.838 80.4039 221.162Z" fill="#D3766A"/>
<path d="M105.261 143.218L98.6252 138.517L77.9411 167.708L84.5768 172.41L105.261 143.218Z" fill="#C7C7C7"/>
<path d="M72.0063 193.792L61.9686 186.675L80.3013 160.8L90.339 167.907L72.0063 193.792Z" fill="#263238"/>
<path d="M99.5226 161.645C98.8136 166.916 93.0045 163.063 93.0045 163.063C93.0045 163.063 100.035 170.632 97.199 175.792C94.4482 180.755 87.5884 175.843 87.093 175.501C87.4603 175.903 93.7392 183.028 90.3563 187.914C86.8367 193.04 80.797 186.889 80.4126 186.487C80.6432 186.983 83.5477 193.518 80.1306 196.645C74.2618 202.027 66.3683 185.539 60.2005 183.634C60.2005 183.634 55.8095 193.714 55.6216 193.979C55.6216 193.979 47.7879 178.432 50.8035 170.256C51.2226 169.062 52.0372 168.046 53.1123 167.378C54.1875 166.71 55.4586 166.43 56.7151 166.583C56.7151 166.583 53.6311 161.85 56.1769 157.912C57.4839 155.896 61.8749 156.203 61.8749 156.203C61.8749 156.203 59.5683 152.308 62.0543 148.951C64.0191 146.26 68.1196 146.986 68.1196 146.986C68.1196 146.986 67.6327 142.219 70.5372 140.152C76.3719 135.897 101.035 150.343 99.5226 161.645Z" fill="#D3766A"/>
<path d="M68.7858 146.994C68.7736 146.994 68.7618 146.99 68.7512 146.984C68.7405 146.979 68.7315 146.97 68.7248 146.96C68.718 146.95 68.7138 146.938 68.7124 146.926C68.711 146.914 68.7125 146.902 68.7168 146.89C68.7211 146.879 68.728 146.869 68.737 146.861C68.746 146.852 68.7568 146.847 68.7685 146.843C68.7803 146.84 68.7926 146.84 68.8045 146.842C68.8164 146.845 68.8276 146.85 68.8371 146.858C78.0974 149.625 87.426 155.511 93.3376 163.234C93.534 163.49 93.2094 163.917 92.9361 163.678C85.3245 156.878 78.0205 151.454 68.7858 146.994Z" fill="#263238"/>
<path d="M61.7807 156.075C61.6868 156.075 61.7807 155.862 61.8747 155.896C71.4084 158.809 81.728 165.72 87.5029 175.425C87.6994 175.758 87.5029 176.279 87.2808 175.895C82.9581 169.727 70.1184 160.073 61.7807 156.075Z" fill="#263238"/>
<path d="M80.5833 187.308C74.6889 178.218 66.4793 171.931 57.1165 166.677C56.9969 166.609 57.1165 166.438 57.219 166.472C62.4984 167.788 68.1195 171.76 72.2286 175.211C76.1064 178.351 79.0956 182.451 80.8994 187.103C80.9678 187.291 80.7029 187.504 80.5833 187.308Z" fill="#263238"/>
<path d="M93.1839 163.055C93.4145 163.362 92.714 163.362 92.9361 163.678C93.8758 164.985 98.8392 173.357 96.507 175.937C94.6447 177.996 90.5784 176.911 89.1773 175.886L85.6577 173.323L88.0668 176.979C89.1454 178.593 89.956 180.37 90.4673 182.242C90.9371 184.078 90.9201 186.026 89.9462 187.436C89.5243 188.151 88.871 188.7 88.0944 188.994C87.3178 189.287 86.4643 189.307 85.6748 189.05C83.9062 188.425 82.3269 187.357 81.0874 185.949L77.5422 182.19L79.6522 186.88C80.242 188.189 80.664 189.566 80.908 190.981C81.1853 192.31 81.0665 193.691 80.5663 194.953C80.3169 195.513 79.9159 195.992 79.4088 196.336C78.9016 196.68 78.3083 196.876 77.6959 196.901C76.3215 196.747 75.0185 196.208 73.9371 195.346C71.5744 193.508 69.358 191.488 67.308 189.306C66.2316 188.239 65.1552 187.171 64.0276 186.146C62.9535 185.054 61.657 184.206 60.2261 183.66C61.5628 184.353 62.7523 185.298 63.7286 186.445C64.7708 187.538 65.7532 188.683 66.7442 189.862C68.6881 192.234 70.8503 194.42 73.2025 196.388C74.4548 197.476 75.9998 198.172 77.6447 198.387C78.5541 198.412 79.4509 198.17 80.2239 197.69C80.9968 197.21 81.612 196.514 81.9929 195.688C82.6663 194.14 82.8598 192.426 82.5482 190.767C82.3047 189.19 81.8567 187.65 81.2155 186.188L79.7889 187.06C81.2312 188.743 83.0856 190.023 85.1708 190.776C86.34 191.156 87.6047 191.12 88.7502 190.673C89.8573 190.199 90.7952 189.401 91.4412 188.384C92.011 187.395 92.3644 186.297 92.4778 185.161C92.5912 184.026 92.4621 182.879 92.099 181.797C91.5114 179.743 90.5877 177.8 89.3653 176.048L88.2547 177.116C90.0743 178.363 94.4909 180.072 97.7969 177.236C101.513 172.887 94.5678 164.498 93.1839 163.055Z" fill="#263238"/>
<path d="M93.0044 163.063C94.019 163.478 95.0903 163.737 96.1823 163.832C96.6194 163.88 97.0615 163.811 97.4627 163.631C97.8638 163.45 98.2093 163.166 98.4632 162.807C98.9131 161.945 99.103 160.972 99.0099 160.005C98.9587 158.928 98.8476 157.809 98.6938 156.647C99.3986 157.603 99.8988 158.693 100.163 159.851C100.34 160.481 100.39 161.14 100.311 161.789C100.232 162.439 100.025 163.066 99.7019 163.635C99.2818 164.234 98.6841 164.685 97.9933 164.925C97.3421 165.129 96.6467 165.147 95.9858 164.977C94.8146 164.67 93.7708 164 93.0044 163.063V163.063Z" fill="#263238"/>
<path d="M117.172 202.873L71.2974 236.104C71.2974 236.104 100.274 287.275 114.011 289.009C123.177 290.162 134.736 287.505 134.308 270.078C133.881 252.651 117.172 202.873 117.172 202.873Z" fill="#C7C7C7"/>
<path d="M121.375 216.498C122.904 219.585 124.198 222.783 125.245 226.066C126.381 229.303 127.423 232.558 128.337 235.864C130.149 242.534 131.507 249.318 132.403 256.17C132.925 259.997 133.258 263.859 133.728 267.677C133.728 267.695 133.72 267.713 133.708 267.726C133.695 267.738 133.677 267.746 133.659 267.746C133.641 267.746 133.624 267.738 133.611 267.726C133.598 267.713 133.591 267.695 133.591 267.677C133.215 264.26 132.617 260.843 131.959 257.511C131.301 254.18 130.575 250.737 129.755 247.38C128.149 240.793 126.424 234.233 124.51 227.732C123.972 225.912 123.417 224.092 122.801 222.29C122.186 220.487 121.554 218.548 121.093 216.626C121.084 216.455 121.289 216.344 121.375 216.498Z" fill="#263238"/>
<path d="M118.513 216.515C117.223 217.233 116.027 218.138 114.823 218.975L111.072 221.538C108.509 223.247 106.041 225.041 103.546 226.826C98.5572 230.388 93.5683 233.934 88.6477 237.581C87.2894 238.581 85.9396 239.589 84.6155 240.631C83.2914 241.673 81.9075 242.912 80.5064 243.997C80.421 244.057 80.5065 244.176 80.6175 244.117C81.8818 243.262 83.1803 242.528 84.4788 241.682C85.7773 240.836 87.0416 239.973 88.3401 239.051C90.846 237.285 93.3376 235.503 95.815 233.703C100.693 230.158 105.596 226.63 110.397 222.982L114.412 219.915C115.813 218.847 117.3 217.839 118.598 216.652C118.667 216.592 118.598 216.455 118.513 216.515Z" fill="#263238"/>
<path d="M159.168 333.653H230.406C230.995 331.363 231.559 329.108 232.114 326.887C232.763 324.324 233.404 321.838 234.019 319.412C234.156 318.865 234.301 318.327 234.438 317.789L235.813 312.356C236.086 311.279 236.36 310.229 236.616 309.178C236.872 308.127 237.163 307.068 237.419 306.043C237.496 305.778 237.556 305.505 237.633 305.24C237.71 304.975 237.778 304.659 237.846 304.385C237.915 304.112 238.026 303.676 238.12 303.326L238.402 302.233C238.581 301.549 238.752 300.874 238.914 300.217C239.162 299.234 239.41 298.277 239.64 297.355C239.743 296.945 239.854 296.501 239.948 296.142C240.119 295.492 240.281 294.86 240.435 294.237C240.546 293.818 240.648 293.382 240.742 293.015C241.169 291.386 241.562 289.851 241.921 288.411C242.015 288.035 242.109 287.667 242.212 287.3C242.365 286.676 242.519 286.087 242.656 285.506C242.758 285.147 242.852 284.788 242.929 284.447C243.245 283.225 243.536 282.106 243.783 281.115C243.86 280.859 243.92 280.603 243.988 280.363C244.151 279.706 244.305 279.133 244.433 278.655C244.484 278.441 244.527 278.245 244.578 278.065C244.629 277.886 244.68 277.664 244.723 277.493C244.766 277.322 244.791 277.245 244.817 277.134C244.843 277.023 244.911 276.792 244.945 276.647C244.979 276.502 244.945 276.493 244.997 276.434C245.108 276.007 245.159 275.793 245.159 275.793H175.826C175.826 275.793 173.537 283.661 169.846 296.355L167.446 304.693C165.054 313.09 162.218 322.966 159.168 333.653Z" fill="#37474F"/>
<path d="M218.745 333.653H220.522C223.159 322.747 225.721 311.815 228.21 300.857C228.808 298.192 229.398 295.524 229.979 292.853C230.038 292.605 230.09 292.357 230.141 292.11C230.192 291.862 229.97 291.913 229.936 292.05L229.867 292.298C229.064 295.159 228.253 298.03 227.476 300.9C224.451 311.806 221.541 322.724 218.745 333.653Z" fill="#263238"/>
<path d="M178.073 275.734L181.131 291.051L183.643 303.591L187.914 325.008L188.35 327.204L189.084 330.86L189.631 333.628H230.414C230.995 331.33 231.576 329.074 232.123 326.862C232.772 324.299 233.413 321.813 234.028 319.387C234.164 318.84 234.31 318.302 234.446 317.764L235.822 312.331C236.095 311.254 236.368 310.204 236.625 309.153C236.881 308.102 237.171 307.043 237.428 306.018C237.505 305.753 237.564 305.479 237.641 305.215C237.718 304.95 237.786 304.634 237.855 304.36C237.923 304.087 238.034 303.651 238.128 303.301L238.41 302.208C238.589 301.524 238.76 300.849 238.923 300.191C239.17 299.209 239.418 298.252 239.649 297.33C239.76 296.911 239.862 296.475 239.956 296.117C240.127 295.467 240.289 294.835 240.443 294.212C240.554 293.793 240.657 293.357 240.751 292.99C241.178 291.361 241.571 289.826 241.93 288.385C242.024 288.01 242.118 287.642 242.22 287.275C242.374 286.651 242.528 286.062 242.664 285.481C242.767 285.122 242.861 284.763 242.938 284.422C243.254 283.2 243.544 282.081 243.792 281.09C243.869 280.834 243.929 280.577 243.997 280.338C244.159 279.68 244.313 279.108 244.441 278.63C244.492 278.416 244.535 278.22 244.586 278.04C244.638 277.861 244.689 277.639 244.732 277.468C244.774 277.297 244.8 277.22 244.826 277.109C244.851 276.998 244.92 276.767 244.954 276.622C244.988 276.477 244.954 276.468 245.005 276.408C245.116 275.981 245.167 275.768 245.167 275.768L178.073 275.734Z" fill="#263238"/>
<path d="M178.03 275.699C178.03 276.075 178.312 280.21 178.987 286.523C179.175 288.359 179.397 290.384 179.662 292.554C180.063 295.971 180.576 299.747 181.2 303.736C182.259 310.698 183.651 318.259 185.471 325.708C186.112 328.382 186.821 331.03 187.572 333.619H277.083C276.032 319.95 275.058 307.64 274.298 297.919C273.222 284.25 272.538 275.665 272.538 275.665H191.331L178.03 275.699Z" fill="#37474F"/>
<path d="M178.252 283.943C178.346 287.146 178.483 290.341 178.696 293.536C178.91 296.953 179.226 300.439 179.679 303.89C179.679 304.018 179.679 304.138 179.679 304.266C180.106 307.495 180.59 310.718 181.131 313.936C181.644 316.935 181.985 320.164 183.352 322.94C183.853 324.011 184.565 324.97 185.445 325.759C186.253 326.495 187.24 327.008 188.307 327.246C188.484 327.287 188.664 327.316 188.845 327.331H188.999C188.965 327.351 188.937 327.379 188.919 327.414C188.901 327.449 188.893 327.488 188.896 327.528C188.896 328.595 188.896 329.689 189.025 330.757C189.025 330.757 189.025 330.851 189.025 330.893C189.136 331.825 189.306 332.739 189.477 333.661H191.015C191.015 333.661 191.015 333.661 191.015 333.61C190.75 332.602 190.52 331.577 190.272 330.56C190.024 329.544 189.657 328.501 189.418 327.442C189.418 327.399 189.375 327.374 189.349 327.34C190.324 327.389 191.289 327.137 192.116 326.619C192.943 326.101 193.59 325.342 193.971 324.444C194.356 323.072 194.38 321.624 194.039 320.241C193.766 318.404 193.492 316.576 193.185 314.739C192.664 311.373 191.989 308.042 191.391 304.693C191.297 304.189 191.212 303.668 191.118 303.164C189.922 296.33 188.666 289.495 187.154 282.781C187.102 282.499 187.034 282.217 186.974 281.927C186.915 281.636 186.633 281.79 186.65 281.969C186.692 282.422 186.744 282.883 186.795 283.328C187.057 285.925 187.367 288.507 187.726 291.076C188.162 294.1 188.452 297.141 188.879 300.165C189.025 301.199 189.17 302.224 189.324 303.258C190.016 308.23 190.742 313.21 191.587 318.165C191.989 320.463 193.424 324.589 190.11 325.306C189.35 325.471 188.558 325.371 187.863 325.025C186.397 324.142 185.301 322.758 184.779 321.129C183.965 318.42 183.376 315.649 183.019 312.843C182.484 309.813 182.002 306.777 181.575 303.736C181.04 299.932 180.47 296.136 179.867 292.349C179.576 290.418 179.269 288.487 178.961 286.557L178.526 283.874C178.551 283.686 178.252 283.738 178.252 283.943Z" fill="#263238"/>
<path d="M257.477 307.726C253.748 307.69 250.038 307.19 246.432 306.239C244.766 305.812 243.126 305.283 241.494 304.745C239.875 304.299 238.359 303.539 237.035 302.506C234.523 300.345 233.353 296.936 232.268 293.904C231.073 290.492 230.105 287.004 229.372 283.465C229.372 283.285 229.081 283.345 229.073 283.507C228.986 287.512 229.492 291.508 230.576 295.365C231.473 298.636 232.686 302.293 235.335 304.591C238.111 307 241.895 307.846 245.449 308.29C249.452 308.754 253.498 308.697 257.486 308.119C257.538 308.118 257.588 308.096 257.624 308.058C257.66 308.021 257.679 307.97 257.678 307.918C257.677 307.866 257.655 307.816 257.618 307.78C257.58 307.744 257.529 307.725 257.477 307.726V307.726Z" fill="#263238"/>
<path d="M263.671 283.567C263.87 288.573 264.081 293.588 264.303 298.611C264.816 310.286 265.385 321.961 266.012 333.636H267.72C266.951 321.933 266.14 310.232 265.285 298.534C264.915 293.534 264.537 288.536 264.149 283.542C264.146 283.478 264.117 283.419 264.07 283.376C264.023 283.334 263.961 283.312 263.897 283.315C263.834 283.319 263.774 283.347 263.732 283.394C263.689 283.442 263.667 283.504 263.671 283.567V283.567Z" fill="#263238"/>
<path d="M162.653 312.783L280.671 303.591C280.671 303.591 257.665 213.141 211.62 165.199C201.001 154.145 188.384 162.149 182.301 168.949C166.865 186.248 162.286 312.399 162.653 312.783Z" fill="#C7C7C7"/>
<path d="M277.98 293.869L163.004 301.789C163.078 300.08 163.166 298.178 163.268 296.082L276.272 288.308C276.87 290.341 277.442 292.204 277.98 293.869Z" fill="#DBDBDB"/>
<path d="M274.699 283.473L163.465 291.162C163.567 289.345 163.673 287.443 163.781 285.455L272.854 277.963C273.515 279.877 274.13 281.713 274.699 283.473Z" fill="#DBDBDB"/>
<path d="M224.161 176.587C249.003 209.365 290.478 294.775 296.577 307.29C300.712 315.833 255.35 338.275 253.428 332.064C250.959 324.119 210.39 219.3 204.735 181.106C201.582 160.219 215.533 165.25 224.161 176.587Z" fill="#D3766A"/>
<path d="M252.172 327.844C253.232 335.575 258.571 351.131 262.552 353.472C266.533 355.813 287.403 355.343 297.927 355.343C308.452 355.343 310.528 352.456 310.348 348.902C310.169 345.348 288.094 344.63 288.094 344.63C288.094 344.63 317.592 352.934 325.008 354.292C332.423 355.651 349.517 359.879 351.985 353.839C353.105 351.114 348.423 348.355 348.423 348.355C348.423 348.355 355.599 350.414 356.735 346.911C358.034 342.93 352.336 340.735 352.336 340.735C352.336 340.735 356.812 341.589 356.923 338.377C357.145 331.116 329.1 327.545 329.1 327.545C329.1 327.545 350.576 337.796 351.311 331.893C352.267 323.692 308.247 314.705 303.668 311.134C300.338 308.407 297.22 305.431 294.339 302.233L252.172 327.844Z" fill="#D3766A"/>
<path d="M310.195 350.73C310.266 350.222 310.213 349.704 310.039 349.222C309.864 348.739 309.575 348.307 309.195 347.962C308.438 347.279 307.571 346.728 306.632 346.33C304.683 345.511 302.665 344.868 300.601 344.408C296.449 343.374 292.204 342.64 287.966 341.572C292.341 341.503 296.706 341.985 300.96 343.007C303.124 343.494 305.211 344.276 307.162 345.331C308.154 345.881 309.025 346.625 309.725 347.518C310.077 347.965 310.306 348.497 310.389 349.061C310.471 349.625 310.404 350.2 310.195 350.73V350.73Z" fill="#263238"/>
<path d="M348.423 348.415C345.39 347.689 342.443 346.851 339.411 345.997C336.378 345.143 333.431 344.289 330.492 343.375L321.608 340.641C318.643 339.727 315.679 338.83 312.689 337.95C315.794 338.282 318.873 338.821 321.907 339.565C324.948 340.248 327.946 341.102 330.919 341.991C333.892 342.879 336.856 343.862 339.769 344.946C342.682 346.031 345.587 347.159 348.423 348.415Z" fill="#263238"/>
<path d="M319.839 330.714C322.711 330.896 325.565 331.281 328.382 331.867C331.191 332.422 333.969 333.126 336.703 333.977C339.422 334.801 342.091 335.779 344.699 336.908C347.33 338.018 349.882 339.308 352.336 340.769C349.619 339.846 346.98 338.83 344.28 337.941C341.581 337.053 338.915 336.147 336.199 335.336C333.482 334.524 330.774 333.713 328.049 332.927C325.324 332.141 322.573 331.449 319.839 330.714Z" fill="#263238"/>
<path d="M324.153 323.803C328.771 324.164 333.323 325.123 337.694 326.656C342.087 328.074 346.275 330.065 350.149 332.577C345.792 331.056 341.555 329.441 337.215 328.023C332.875 326.605 328.553 325.196 324.153 323.803Z" fill="#263238"/>
<path d="M300.191 304.548L247.286 326.101C247.286 326.101 206.358 211.697 202.616 185.548C198.874 159.399 206.358 155.196 224.537 175.886C242.716 196.577 300.191 304.548 300.191 304.548Z" fill="#C7C7C7"/>
<path d="M291.281 294.622C289.871 295.023 288.496 295.621 287.121 296.142L282.849 297.748C279.979 298.833 277.126 299.969 274.307 301.114C268.617 303.403 262.928 305.676 257.289 308.059C255.735 308.717 254.188 309.375 252.651 310.067C251.113 310.759 249.481 311.647 247.875 312.373C247.773 312.416 247.875 312.561 247.944 312.519C249.37 311.997 250.84 311.587 252.275 311.066C253.71 310.545 255.196 309.981 256.64 309.409C259.488 308.27 262.335 307.131 265.183 305.992C270.761 303.694 276.348 301.422 281.875 299.004L286.497 296.971C288.112 296.27 289.803 295.63 291.341 294.784C291.362 294.776 291.38 294.76 291.389 294.739C291.399 294.718 291.4 294.694 291.392 294.673C291.384 294.651 291.368 294.634 291.347 294.624C291.326 294.615 291.302 294.614 291.281 294.622V294.622Z" fill="#263238"/>
<path d="M241.964 311.092C238.507 302.059 235.178 292.981 231.977 283.857C228.757 274.742 225.656 265.585 222.58 256.41C219.505 247.235 216.601 238.026 213.79 228.774C210.979 219.522 208.288 210.219 206.033 200.814L208.237 207.725L210.501 214.61L215.08 228.415L224.221 255.923C227.245 265.098 230.277 274.273 233.242 283.473C236.206 292.674 239.128 301.883 241.964 311.092Z" fill="#263238"/>
<path d="M209.638 213.141C209.032 212.619 208.497 212.018 208.049 211.355C207.595 210.707 207.187 210.028 206.828 209.322C206.095 207.914 205.574 206.406 205.281 204.846C205.725 205.498 206.133 206.174 206.503 206.87C206.887 207.554 207.229 208.246 207.588 208.938C208.263 210.322 208.938 211.697 209.638 213.141Z" fill="#263238"/>
<path d="M204.666 133.856C204.666 133.856 204.342 141.228 204.999 143.783C205.657 146.337 211.415 149.019 211.415 149.019C211.415 149.019 204.863 151.343 203.001 150.899C201.138 150.454 198.131 145.679 198.131 145.679C198.131 145.679 200.899 153.325 203.564 153.726C205.213 153.974 199.507 154.034 199.507 154.034C197.615 153.904 195.838 153.079 194.518 151.719C192.553 149.523 204.666 133.856 204.666 133.856Z" fill="#263238"/>
<path d="M185.172 185.804C192.254 185.744 201.241 172.708 203.744 163.32C203.915 162.679 195.987 140.553 194.868 135.983C194.646 135.043 168.01 149.908 168.01 149.908C168.01 149.908 173.135 158.749 175.049 166.694C175.202 167.386 178.329 185.855 185.172 185.804Z" fill="#D3766A"/>
<path d="M168.01 149.933C168.01 149.933 173.135 158.775 175.057 166.72C175.057 166.873 175.288 168.027 175.664 169.701C188.931 165.122 195.526 154.674 198.584 147.575C196.875 142.561 195.321 137.845 194.876 136.009C194.637 135.077 168.01 149.933 168.01 149.933Z" fill="#263238"/>
<path d="M204.299 104.99C207.656 115.344 202.65 145.517 195.346 152.342C184.762 162.235 167.155 163.448 158.689 150.685C150.463 138.315 157.681 99.1125 165.865 92.8848C177.91 83.71 199.387 89.6899 204.299 104.99Z" fill="#D3766A"/>
<path d="M176.381 122.263C177.288 122.226 178.192 122.138 179.089 121.999C180.055 122.04 181.007 121.761 181.797 121.204C182.015 120.981 182.152 120.692 182.186 120.382C182.22 120.072 182.15 119.76 181.985 119.496C181.225 118.402 179.918 118.223 178.662 118.308C177.383 118.346 176.164 118.861 175.245 119.752C175.045 119.968 174.913 120.238 174.865 120.528C174.818 120.819 174.857 121.117 174.979 121.385C175.1 121.653 175.298 121.88 175.547 122.036C175.797 122.192 176.087 122.271 176.381 122.263V122.263Z" fill="#263238"/>
<path d="M164.704 121.939C164.704 121.862 164.524 122.007 164.516 122.092C164.242 124.134 163.584 126.432 161.628 126.8C161.568 126.8 161.56 126.919 161.628 126.919C163.926 126.979 164.772 123.921 164.704 121.939Z" fill="#263238"/>
<path d="M163.234 119.512C160.005 118.718 158.664 125.245 161.654 125.971C164.644 126.697 165.942 120.179 163.234 119.512Z" fill="#263238"/>
<path d="M161.098 114.02C161.994 114.184 162.898 114.3 163.806 114.37C164.741 114.63 165.735 114.573 166.634 114.208C166.898 114.04 167.097 113.789 167.201 113.495C167.305 113.201 167.307 112.88 167.206 112.584C166.719 111.346 165.498 110.876 164.233 110.671C162.983 110.425 161.686 110.653 160.594 111.312C160.353 111.476 160.164 111.707 160.051 111.977C159.939 112.246 159.908 112.543 159.961 112.83C160.015 113.118 160.151 113.383 160.353 113.594C160.555 113.806 160.814 113.953 161.098 114.02Z" fill="#263238"/>
<path d="M175.843 142.783C175.271 143.184 174.681 143.757 173.93 143.697C173.177 143.562 172.461 143.271 171.828 142.843C171.816 142.833 171.801 142.828 171.785 142.829C171.77 142.829 171.755 142.834 171.743 142.844C171.731 142.854 171.722 142.868 171.719 142.883C171.716 142.899 171.718 142.914 171.726 142.928C171.949 143.378 172.29 143.759 172.713 144.03C173.136 144.301 173.624 144.451 174.126 144.466C174.559 144.425 174.969 144.257 175.307 143.984C175.644 143.71 175.893 143.343 176.023 142.928C176.074 142.8 175.92 142.732 175.843 142.783Z" fill="#263238"/>
<path d="M174.715 136.342C174.065 137.058 173.275 137.634 172.393 138.032C171.512 138.43 170.557 138.643 169.59 138.657C168.743 138.677 167.897 138.576 167.078 138.358C166.918 138.326 166.761 138.281 166.608 138.221L166.173 138.076C166.067 138.038 165.977 137.967 165.917 137.873C165.857 137.778 165.829 137.666 165.84 137.555V137.555C165.845 137.484 165.863 137.415 165.891 137.35V137.35V137.17C166.104 135.599 166.651 133.241 166.651 133.241C166.036 133.429 162.901 134.257 163.08 133.446C164.609 126.74 166.309 119.282 169.248 112.943C169.264 112.896 169.298 112.856 169.343 112.834C169.388 112.811 169.44 112.808 169.487 112.824C169.535 112.84 169.574 112.874 169.597 112.919C169.619 112.963 169.623 113.015 169.607 113.063C168.394 119.564 166.045 125.809 164.72 132.327C165.833 132.017 166.983 131.865 168.138 131.874C168.351 131.976 167.001 136.41 166.959 137.128V137.205C169.521 137.982 171.657 137.512 174.502 136.171C174.724 136.034 174.861 136.197 174.715 136.342Z" fill="#263238"/>
<path d="M182.549 124.331C181.965 124.048 181.344 123.849 180.704 123.741C180.046 123.633 179.376 123.619 178.714 123.699C178.016 123.792 177.344 124.018 176.732 124.365C176.107 124.739 175.575 125.25 175.177 125.86L174.459 126.962H175.783C176.723 126.942 177.662 127.02 178.585 127.193C179.546 127.348 180.451 127.745 181.217 128.346C180.752 127.36 179.922 126.594 178.902 126.21C177.898 125.79 176.82 125.575 175.732 125.578L176.339 126.654C176.982 125.781 177.904 125.154 178.953 124.878C180.124 124.545 181.332 124.362 182.549 124.331V124.331Z" fill="#263238"/>
<path d="M178.372 129.243C177.402 128.933 176.477 128.496 175.621 127.944C175.425 127.791 174.673 127.141 174.767 126.979C174.912 126.497 175.121 126.037 175.39 125.612C174.996 125.98 174.682 126.425 174.468 126.919C174.511 127.206 174.617 127.479 174.778 127.719C174.939 127.96 175.151 128.162 175.399 128.312C176.29 128.879 177.316 129.201 178.372 129.243Z" fill="#263238"/>
<path d="M203.803 133.395C198.37 131.31 197.208 112.354 197.208 112.354L195.218 122.537C192.782 120.091 190.882 117.164 189.64 113.943C188.495 110.526 189.349 105.956 190.084 103.743C190.084 103.743 183.07 108.33 175.775 109.569C173.092 110.03 156.127 108.843 156.212 107.638C156.528 104.068 162.79 92.3043 167.941 89.4339C173.87 86.1279 187.461 82.2666 198.601 87.7254C207.511 92.0822 205.982 99.1384 207.554 104.307C207.554 104.307 213.781 110.287 213.867 113.08C214.038 119.069 205.802 134.164 203.803 133.395Z" fill="#263238"/>
<path d="M176.322 135.454C174.142 134.687 172.356 133.087 171.355 131.005C170.354 128.923 170.22 126.529 170.982 124.348V124.348C171.521 122.808 172.482 121.451 173.754 120.43C175.026 119.409 176.56 118.766 178.179 118.574C179.799 118.381 181.441 118.648 182.917 119.342C184.393 120.037 185.644 121.132 186.529 122.502C187.413 123.873 187.895 125.464 187.919 127.095C187.944 128.727 187.51 130.332 186.667 131.728C185.825 133.125 184.607 134.257 183.152 134.996C181.698 135.734 180.065 136.05 178.44 135.906C177.718 135.847 177.006 135.695 176.322 135.454V135.454ZM172.05 124.732C171.557 126.142 171.492 127.666 171.865 129.112C172.237 130.558 173.03 131.862 174.144 132.857C175.257 133.853 176.64 134.496 178.119 134.705C179.597 134.915 181.105 134.681 182.451 134.034C183.797 133.387 184.92 132.355 185.68 131.069C186.439 129.783 186.801 128.301 186.718 126.81C186.635 125.319 186.112 123.886 185.215 122.692C184.318 121.498 183.087 120.597 181.678 120.102C181.084 119.895 180.467 119.76 179.841 119.701C178.169 119.56 176.497 119.977 175.087 120.887C173.677 121.798 172.609 123.15 172.05 124.732Z" fill="#407BFF"/>
<path d="M158.689 131.738C155.153 131.182 152.889 126.868 153.632 122.118C153.937 119.966 154.904 117.963 156.4 116.386C157 115.669 157.775 115.119 158.651 114.791C159.527 114.462 160.472 114.366 161.396 114.511C162.32 114.657 163.19 115.039 163.923 115.62C164.655 116.202 165.224 116.963 165.575 117.83C166.509 119.791 166.807 121.995 166.429 124.134C165.72 128.628 162.559 131.925 159.228 131.823C159.047 131.806 158.867 131.778 158.689 131.738V131.738ZM157.22 117.215C155.891 118.626 155.039 120.419 154.785 122.341C154.136 126.458 155.973 130.174 158.869 130.627C161.765 131.08 164.652 128.107 165.301 123.998C165.638 122.099 165.373 120.142 164.541 118.402C164.244 117.72 163.787 117.119 163.208 116.651C162.63 116.183 161.947 115.86 161.218 115.711C161.071 115.689 160.923 115.675 160.774 115.669C160.107 115.664 159.447 115.799 158.835 116.063C158.223 116.328 157.673 116.717 157.22 117.206V117.215Z" fill="#407BFF"/>
<path d="M171.016 125.39L171.931 124.673C170.863 123.314 168.172 121.255 165.626 123.032L166.301 123.981C168.582 122.366 170.922 125.271 171.016 125.39Z" fill="#407BFF"/>
<path d="M208.587 135.471L209.707 135.163C209.561 134.633 208.212 130.037 205.743 129.081C203.445 128.226 187.854 126.467 187.188 126.39L187.06 127.551C191.536 128.047 203.556 129.491 205.333 130.166C206.956 130.789 208.229 134.206 208.587 135.471Z" fill="#407BFF"/>
<path d="M197.815 131.131C197.815 131.131 204.564 121.366 208.998 123.767C213.431 126.167 208.391 140.297 203.214 142.253C202.567 142.55 201.867 142.712 201.156 142.731C200.444 142.751 199.737 142.626 199.075 142.365C198.412 142.105 197.81 141.713 197.303 141.214C196.796 140.714 196.395 140.118 196.124 139.46L197.815 131.131Z" fill="#D3766A"/>
<path d="M207.451 127.782C207.469 127.782 207.487 127.789 207.5 127.802C207.512 127.815 207.52 127.832 207.52 127.85C207.52 127.868 207.512 127.886 207.5 127.899C207.487 127.911 207.469 127.919 207.451 127.919C203.821 129.405 201.924 132.788 200.617 136.291C201.693 134.941 203.18 134.189 204.974 135.436C205.068 135.505 204.974 135.65 204.871 135.633C204.232 135.431 203.546 135.433 202.908 135.638C202.27 135.843 201.711 136.241 201.309 136.777C200.638 137.679 200.066 138.65 199.6 139.673C199.43 139.998 198.84 139.827 198.96 139.451V139.374C198.908 134.77 202.479 128.269 207.451 127.782Z" fill="#263238"/>
<path d="M175.288 167.924L184.01 182.934L202.138 157.955L209.109 163.73C209.109 163.73 193.407 200.224 193.065 198.712L183.908 185.804L174.861 197.465L173.255 172.238L175.288 167.924Z" fill="#EBEBEB"/>
<path d="M173.075 172.512C173.075 172.358 173.332 172.247 173.349 172.426C173.947 177.048 174.912 193.245 175.237 196.081L175.279 196.03C175.621 195.534 183.822 185.684 183.907 185.778C185.77 187.812 192.45 197.123 192.963 198.012C195.278 192.177 205.316 171.145 208.271 165.507C208.285 165.47 208.312 165.441 208.348 165.425C208.383 165.409 208.423 165.408 208.459 165.421C208.495 165.435 208.525 165.462 208.541 165.497C208.557 165.533 208.558 165.573 208.545 165.609C206.648 171.674 193.749 200.053 193.492 200.019C193.339 200.173 185.035 188.649 183.89 186.351C182.703 188.418 174.562 199.353 174.493 198.738C174.024 195.099 173.075 176.407 173.075 172.512Z" fill="#263238"/>
<path d="M100.291 134.445C101.067 135.172 101.908 135.827 102.803 136.401C103.008 136.538 103.23 136.666 103.452 136.794C103.674 136.922 103.845 137.025 104.05 137.127L104.469 137.35L110.782 140.459C110.207 140.183 109.65 139.869 109.116 139.519C108.656 139.227 108.211 138.91 107.783 138.571C107.382 138.264 106.989 137.922 106.596 137.563C97.011 128.627 97.6688 110.03 108.065 96.0284C116.078 85.2219 127.526 80.3013 136.752 82.7018C137.9 82.993 139.014 83.4053 140.075 83.932L133.762 80.8139C133.745 80.8072 133.727 80.8072 133.71 80.8139C133.446 80.6686 133.164 80.549 132.856 80.4294C132.549 80.3099 132.378 80.2244 132.13 80.139L131.797 80.0194L131.233 79.8315L130.908 79.7375C125.279 78.0887 118.761 79.242 112.695 82.8299L111.773 83.3938C107.868 85.9325 104.461 89.1635 101.718 92.9274C91.3642 106.929 90.6979 125.526 100.291 134.445Z" fill="#37474F"/>
<path d="M145.798 131.199C135.231 145.431 119.564 150.958 108.21 145.371L101.906 142.253C113.208 147.849 128.884 142.313 139.494 128.081C151.676 111.653 152.445 89.818 141.202 79.336C140.291 78.4857 139.305 77.7194 138.255 77.0466C137.627 76.6431 136.977 76.2752 136.307 75.9446L142.612 79.0541C143.278 79.3958 143.936 79.7632 144.577 80.1647C145.622 80.8398 146.605 81.6059 147.515 82.4541C158.758 92.9446 157.989 114.797 145.798 131.199Z" fill="#37474F"/>
<path d="M97.0366 138.862C97.9473 139.71 98.9306 140.476 99.9753 141.151C100.742 141.642 101.541 142.078 102.367 142.458C102.392 142.465 102.419 142.465 102.444 142.458C102.794 142.621 103.136 142.766 103.486 142.903C103.7 142.997 103.905 143.065 104.127 143.142C107.141 144.191 110.346 144.579 113.524 144.278C114.25 144.218 114.976 144.124 115.694 144.005C116.805 143.82 117.904 143.566 118.983 143.244L120.085 142.903C120.82 142.655 121.554 142.382 122.272 142.048C122.989 141.715 123.75 141.408 124.467 141.04C125.185 140.673 125.92 140.28 126.629 139.853C131.665 136.809 136.041 132.789 139.502 128.03C151.676 111.611 152.453 89.7755 141.211 79.285C140.75 78.8493 140.263 78.4308 139.776 78.0634C139.289 77.6961 138.785 77.3287 138.272 76.9956C137.982 76.8162 137.691 76.6368 137.418 76.4659L137.213 76.3549C136.974 76.2097 136.718 76.0815 136.47 75.9534C125.142 70.2554 109.398 75.7825 98.7964 90.0659C86.5547 106.545 85.7688 128.371 97.0366 138.862ZM101.761 92.9277C104.503 89.1638 107.911 85.9328 111.816 83.3941L112.738 82.8303C118.803 79.2423 125.322 78.0891 130.951 79.7378L131.276 79.8318L131.84 80.0197L132.173 80.1393C132.421 80.2247 132.651 80.3272 132.899 80.4298C133.147 80.5323 133.454 80.6689 133.753 80.8142C133.77 80.8075 133.788 80.8075 133.804 80.8142C134.869 81.3286 135.872 81.962 136.794 82.7021C137.205 83.0167 137.599 83.3532 137.973 83.7102C147.558 92.6544 146.909 111.26 136.521 125.262C128.508 136.06 117.052 140.981 107.826 138.571C106.53 138.238 105.277 137.753 104.093 137.128C103.888 137.025 103.691 136.914 103.495 136.795C103.298 136.675 103.051 136.538 102.846 136.402C101.936 135.83 101.081 135.175 100.291 134.445C90.6979 125.527 91.3642 106.929 101.761 92.9277V92.9277Z" fill="#455A64"/>
<path opacity="0.4" d="M106.604 137.58C106.997 137.939 107.39 138.281 107.792 138.588C117.018 140.998 128.474 136.077 136.487 125.279C146.875 111.277 147.524 92.6714 137.939 83.7271C137.564 83.3702 137.171 83.0337 136.76 82.7191C127.534 80.3186 116.087 85.2819 108.074 96.0457C97.6773 110.047 97.0195 128.645 106.604 137.58Z" fill="white"/>
<g opacity="0.3">
<path d="M122.033 84.4105L141.536 116.505C142.392 114.494 143.086 112.417 143.612 110.295L126.876 82.7788C125.211 83.1599 123.589 83.7065 122.033 84.4105V84.4105Z" fill="#EBEBEB"/>
<path d="M133.608 82.1982L144.713 100.488C144.526 93.8078 142.287 87.7766 137.948 83.7274C137.573 83.3705 137.179 83.034 136.769 82.7193C135.733 82.4517 134.675 82.2773 133.608 82.1982V82.1982Z" fill="#EBEBEB"/>
<path d="M118.556 86.2472L139.485 120.64C139.964 119.786 140.425 118.932 140.827 118.035L120.734 85.0171C120.008 85.393 119.282 85.7945 118.556 86.2472Z" fill="#EBEBEB"/>
<path d="M100.095 115.651C99.9102 117.102 99.8217 118.563 99.8301 120.025L111.457 139.135C112.426 139.212 113.4 139.212 114.37 139.135L100.095 115.651Z" fill="#EBEBEB"/>
<path d="M103.051 104.785L122.588 136.88C125.759 135.422 128.679 133.473 131.242 131.105L109.107 94.7214C108.757 95.1486 108.415 95.5757 108.074 96.0456C106.061 98.7505 104.375 101.684 103.051 104.785V104.785Z" fill="#EBEBEB"/>
</g>
<path d="M13.8223 5.96265H12.968V45.4556H13.8223V5.96265Z" fill="#263238"/>
<path d="M13.395 6.38991C12.7624 6.39329 12.143 6.20879 11.6154 5.85978C11.0877 5.51078 10.6756 5.01298 10.4311 4.42948C10.1867 3.84598 10.121 3.20305 10.2423 2.58216C10.3636 1.96128 10.6666 1.39039 11.1127 0.941853C11.5589 0.493316 12.1281 0.187324 12.7483 0.0626542C13.3686 -0.0620158 14.0118 0.000248432 14.5966 0.241558C15.1814 0.482868 15.6815 0.892362 16.0333 1.41814C16.3851 1.94391 16.5729 2.5623 16.5729 3.19493C16.5707 4.03866 16.2357 4.84744 15.6407 5.44564C15.0457 6.04384 14.2387 6.38316 13.395 6.38991ZM13.395 0.854227C12.9314 0.850842 12.4772 0.98524 12.09 1.24037C11.7028 1.49551 11.4002 1.85988 11.2204 2.28728C11.0406 2.71468 10.9918 3.18585 11.0802 3.64102C11.1685 4.09619 11.3901 4.51486 11.7168 4.84393C12.0434 5.17299 12.4605 5.39762 12.915 5.48933C13.3695 5.58104 13.841 5.5357 14.2697 5.35905C14.6984 5.1824 15.065 4.8824 15.323 4.49712C15.5809 4.11183 15.7187 3.65861 15.7187 3.19493C15.7187 2.57709 15.4744 1.9843 15.0391 1.54582C14.6039 1.10734 14.0129 0.858737 13.395 0.854227V0.854227Z" fill="#263238"/>
<path d="M52.461 0.427246H21.7841V1.81117H52.461V0.427246Z" fill="#263238"/>
<path d="M39.1514 3.19531H21.7841V4.57923H39.1514V3.19531Z" fill="#263238"/>
<path d="M131.293 11.0798H124.69V17.6834H131.293V11.0798Z" fill="#407BFF"/>
<path d="M166.182 11.0798H135.505V12.4638H166.182V11.0798Z" fill="#263238"/>
<path d="M152.872 13.8477H135.505V15.2316H152.872V13.8477Z" fill="#263238"/>
<path d="M131.293 24.5432H124.69V31.1467H131.293V24.5432Z" fill="#37474F"/>
<path d="M166.182 24.5432H135.505V25.9271H166.182V24.5432Z" fill="#263238"/>
<path d="M152.872 27.311H135.505V28.695H152.872V27.311Z" fill="#263238"/>
<path d="M131.293 38.0154H124.69V44.6189H131.293V38.0154Z" fill="#C7C7C7"/>
<path d="M166.182 38.0154H135.505V39.3993H166.182V38.0154Z" fill="#263238"/>
<path d="M152.872 40.7827H135.505V42.1666H152.872V40.7827Z" fill="#263238"/>
<path d="M131.293 51.4783H124.69V58.0818H131.293V51.4783Z" fill="#455A64"/>
<path d="M166.182 51.4783H135.505V52.8622H166.182V51.4783Z" fill="#263238"/>
<path d="M152.872 54.2461H135.505V55.63H152.872V54.2461Z" fill="#263238"/>
<path d="M2.46897 69.1107H2.59711H2.71671L5.10013 68.2564H5.24536L6.60365 67.778L6.76596 67.7267L8.92726 66.975L9.09812 66.9066L10.4222 66.4453L10.6187 66.3855L13.1047 65.5313L13.3097 65.4629L14.8047 64.9418L15.0353 64.8649L16.8976 64.2157L17.1454 64.1303L18.777 63.5579L19.0418 63.4725L21.2971 62.6865L21.5278 62.6011L23.2363 62.0031L23.4584 61.9262L25.1072 61.3539L25.3037 61.2855L27.1831 60.6277L27.3624 60.5594L28.9941 59.9956L29.1564 59.9443L31.4459 59.1413L31.6167 59.0901L34.0258 58.2358L34.1539 58.1845L35.9991 57.5438H36.1187L38.5107 56.6896H38.6132L40.6293 55.9891H40.7233L42.8333 55.2544L40.8258 54.6051H40.7403L38.4167 53.8619H38.3142L36.3238 53.2212H36.2127L33.6499 52.3669H33.5047L31.7961 51.8202L31.6423 51.7689L27.9092 50.5644L27.7212 50.5046L26.8243 49.8725L26.6278 49.8127L22.98 48.6338L22.7579 48.5654L21.9549 48.3091L21.7157 48.2408L17.974 47.0534L17.6836 46.9679L16.8293 46.6946L16.5559 46.6091L12.6177 45.3363L12.3273 45.2509L11.8745 45.1056L11.6011 45.0117L7.26143 43.6192L7.00515 43.5338L6.61219 43.4056L6.38153 43.3373L2.05038 41.9363C2.05038 42.0559 1.97349 42.1755 1.93932 42.3036C1.93932 42.4061 1.87098 42.5086 1.84535 42.6112V42.6966C1.80264 42.8162 1.76847 42.9443 1.7343 43.0639C0.878427 46.1319 0.348692 49.2817 0.153893 52.4609V52.4609V52.8453C0.0727258 54.2993 0.0727258 55.7567 0.153893 57.2107C0.153893 57.4926 0.153894 57.7659 0.20515 58.0649C0.505256 61.8256 1.26554 65.5352 2.46897 69.1107Z" fill="#C7C7C7"/>
<path d="M40.8342 54.4L40.7317 55.7839H40.6377L40.7488 54.3402L40.8342 54.4ZM38.3227 53.5969L38.5191 56.5527H38.6217L38.4252 53.6653L38.3227 53.5969ZM36.0076 57.4326H36.1272L36.3322 52.999H36.2212L36.0076 57.4326ZM33.5387 52.0592L34.0342 58.1246L34.1624 58.0733L33.684 52.0934L33.5387 52.0592ZM31.4543 59.013L31.6252 58.9618L31.8387 51.5125L31.685 51.4613L31.4543 59.013ZM27.9518 50.2567L27.7639 50.1969L28.396 55.1175L29.0026 59.8673L29.1649 59.816L28.5327 55.0919L27.9518 50.2567ZM27.1915 60.508L27.3709 60.4397L26.8242 49.8723L26.6277 49.8125L27.1915 60.508ZM22.9885 48.6678L22.7664 48.5995L25.1156 61.2256L25.3121 61.1572L22.9885 48.6678ZM21.6985 48.2577L23.2191 61.8748L23.4412 61.7979L21.9377 48.3261L21.6985 48.2577ZM17.9483 47.0447L17.6578 46.9592L21.2714 62.5582L21.502 62.4728L17.9483 47.0959V47.0447ZM16.5729 46.6005L18.7769 63.4296L19.0417 63.3442L16.8463 46.6859L16.5729 46.6005ZM12.3015 45.2422L16.8548 64.0874L17.1026 64.002L12.6347 45.3276L12.3015 45.2422ZM11.5754 45.003L14.7618 64.8135L14.9925 64.7366L11.8488 45.0884L11.5754 45.003ZM6.97943 43.5251L13.0618 65.403L13.2669 65.3346L7.27842 43.6105L6.97943 43.5251ZM6.35581 43.3286L10.3794 66.3341L10.5759 66.2743L6.62918 43.3969L6.35581 43.3286ZM1.83671 42.6195L8.88446 66.8638L9.05531 66.7954L1.9734 42.3035C1.9734 42.406 1.90505 42.5085 1.87943 42.611L1.83671 42.6195ZM1.70003 43.0809L6.56084 67.6668L6.72315 67.6155L1.8538 42.7135C1.81109 42.8331 1.77691 42.9613 1.74274 43.0809H1.70003ZM0.136711 52.8623L5.10003 68.1879H5.24526L0.119629 52.5206V52.905L0.136711 52.8623ZM0.205055 58.0648L2.59702 69.0507H2.71661L0.153797 57.2532C0.16234 57.5095 0.179427 57.7829 0.205055 58.0648V58.0648Z" fill="#DBDBDB"/>
<path d="M2.46887 69.1105L5.8945 68.7432L46.2588 54.6819L42.8418 55.0492L2.46887 69.1105Z" fill="#A6A6A6"/>
<path d="M42.8418 55.049L46.2589 54.6817L5.50156 41.5686L2.07593 41.9359L42.8418 55.049Z" fill="#A6A6A6"/>
<path d="M65.4203 11.0969L65.7022 55.0748L24.4238 41.7482C30.2414 23.2361 46.2761 11.2251 65.4203 11.0969Z" fill="#37474F"/>
<path d="M64.2925 11.1143L65.4202 13.0278V13.2841L64.1387 11.1228L64.2925 11.1143ZM62.695 11.1997L65.4543 17.3334V16.9916L62.8915 11.1826L62.695 11.1997ZM57.9026 11.772L65.497 24.2444V23.9027L58.082 11.7464L57.9026 11.772ZM56.8774 11.9685L65.5398 30.4806V30.0449L57.0483 11.9429C56.9907 11.9466 56.9336 11.9552 56.8774 11.9685V11.9685ZM59.782 27.1233L65.5739 35.666V35.3499L59.9699 27.055L53.187 16.9831L50.9146 13.6258C50.8444 13.6462 50.7759 13.6719 50.7096 13.7027L53.0076 17.1198L59.782 27.1233ZM50.197 13.8906L65.5739 40.8685V40.3902L50.4021 13.8052L50.197 13.8906ZM45.0031 16.2655L65.6166 43.2947V42.8846L45.2337 16.1374L45.0031 16.2655ZM44.5332 16.5218L65.6594 48.8645V48.352L44.7639 16.3937C44.6939 16.457 44.6165 16.5115 44.5332 16.556V16.5218ZM40.0568 19.4178L65.685 50.1716V49.7188L40.3131 19.2384L40.0568 19.4178ZM39.5357 19.8193L62.9513 54.1866L63.4553 54.3489L39.7835 19.6313C39.6953 19.6863 39.6124 19.7492 39.5357 19.8193ZM35.6744 23.1509L61.7041 53.7851L62.2935 53.9731L35.8965 22.9374C35.8267 23.0129 35.7526 23.0842 35.6744 23.1509ZM35.2558 23.5781L55.7583 51.863L56.2111 52.0082L35.4694 23.3901L35.2558 23.5781ZM31.8985 27.3796L53.5202 51.1369L54.0498 51.3163L32.0608 27.1746L31.8985 27.3796ZM31.3689 28.0801L46.9935 49.0183L47.3865 49.1464L31.5312 27.8665C31.4714 27.9349 31.4201 28.0118 31.3689 28.0801V28.0801ZM28.695 32.0952L43.4056 47.8736L43.8413 48.0188L28.8061 31.9329C28.7652 31.9842 28.7281 32.0385 28.695 32.0952ZM28.2935 32.7871L38.9548 46.4555L39.2794 46.558L28.396 32.5992C28.3583 32.6598 28.3241 32.7226 28.2935 32.7871V32.7871ZM26.0553 37.3233L33.2654 44.6102L33.6583 44.7469L26.1493 37.1695C26.1148 37.2188 26.0834 37.2701 26.0553 37.3233V37.3233ZM25.6624 38.263L29.9337 43.5339L30.2071 43.6278L25.7136 38.0922C25.693 38.148 25.6759 38.2051 25.6624 38.263V38.263Z" fill="#263238"/>
<path d="M65.702 55.075L106.98 68.3931C104.28 77.1922 98.8526 84.9051 91.4819 90.4178C84.1112 95.9305 75.179 98.9574 65.9754 99.0614C61.4257 99.0853 56.9012 98.3845 52.5719 96.9855C38.9035 92.5689 29.105 82.7619 24.5859 68.9312L65.702 55.075Z" fill="#407BFF"/>
<path d="M106.981 68.3933H110.398C107.697 77.1915 102.269 84.9034 94.8984 90.4146C87.5276 95.9258 78.5955 98.951 69.3927 99.0531H65.9756C75.1781 98.9497 84.1095 95.924 91.4801 90.413C98.8506 84.9019 104.279 77.1908 106.981 68.3933V68.3933Z" fill="#407BFF"/>
<g opacity="0.1">
<path d="M106.981 68.3933H110.398C107.697 77.1915 102.269 84.9034 94.8984 90.4146C87.5276 95.9258 78.5955 98.951 69.3927 99.0531H65.9756C75.1781 98.9497 84.1095 95.924 91.4801 90.413C98.8506 84.9019 104.279 77.1908 106.981 68.3933V68.3933Z" fill="black"/>
</g>
<path opacity="0.1" d="M105.118 67.812L105.588 72.2201C105.592 72.237 105.592 72.2545 105.588 72.2713L105.11 67.8035L105.118 67.812ZM100.386 66.2829L103.854 75.9105L100.437 66.3341L100.386 66.2829ZM98.6771 65.7447L100.779 80.8397V80.7799L98.6771 65.7618V65.7447ZM95.6957 64.7794L100.104 81.7708V81.711L95.7213 64.8135L95.6957 64.7794ZM94.5338 64.412L96.8746 85.598L96.9429 85.5211L94.6534 64.395L94.5338 64.412ZM91.0143 63.2759L96.1399 86.3412L96.2168 86.2643L91.0911 63.3271L91.0143 63.2759ZM90.16 62.9939L92.2359 89.8095L92.3469 89.7327L90.271 63.0281L90.16 62.9939ZM86.9394 61.9603L86.7941 61.909L91.6122 90.2965L91.7233 90.211L86.9394 61.9603ZM85.6665 61.5502L86.0338 93.9015L86.1791 93.8161L85.8117 61.5929L85.6665 61.5502ZM81.9846 60.3628L81.7967 60.2944L85.5555 94.1492L85.7092 94.0724L81.9846 60.3628ZM80.669 96.3447L80.874 96.2678L81.156 60.098L80.9851 60.0296L80.669 96.3447ZM77.5082 58.9191L77.2946 58.8422L80.3017 96.4814L80.4896 96.4131L77.5082 58.9191ZM75.5178 97.9166C75.5985 97.9045 75.6784 97.8874 75.757 97.8653L76.9529 58.6884L76.7308 58.6201L75.5178 97.9166ZM72.5705 57.2789L72.3057 57.1934L75.0821 98.0191L75.3213 97.9678L72.5705 57.2789ZM68.4017 55.9291L68.0941 55.8351L69.5464 98.8905H69.8283H70.1102L71.9384 57.1251L71.6735 57.0397L69.8283 98.8392L68.4017 55.9291ZM63.276 55.9291L62.9941 56.0145L64.0107 99.0357H64.2755H64.5745L67.7353 55.6985L67.4278 55.6045L64.3012 98.7538L63.276 55.9291ZM58.5519 98.4548L58.7997 98.4975L62.7293 56.1085L62.4474 56.2025L58.5519 98.4548ZM59.1157 57.3301L58.3127 98.4121H58.5519L59.3464 57.2105L59.1157 57.3301ZM52.572 96.9769H52.6404H52.7685L58.8424 57.3558L58.5946 57.4412L52.572 96.9769ZM52.4524 95.1487L52.3157 96.9256L52.5208 96.994L52.6574 95.1573L53.1017 89.3824L53.9559 77.8241L55.4167 58.5774L55.2288 58.6457L53.7509 77.8156L52.8966 89.3653L52.4524 95.1487ZM46.1564 94.397L46.3102 94.4739L54.776 58.808L54.571 58.8764L46.1564 94.397ZM49.8127 60.4824L45.6182 94.098L45.772 94.1749L49.9323 60.3884L49.8127 60.4824ZM41.27 91.5693L41.3811 91.6462L49.2574 60.6618L49.0951 60.713L41.27 91.5693ZM38.767 64.2326L35.9223 87.298C35.9546 87.319 35.9834 87.3449 36.0077 87.3749L38.8439 64.1899L38.767 64.2326ZM31.9328 82.8814L31.9841 82.9497L37.964 64.5145H37.8785L31.9328 82.8814ZM44.4992 62.3105L40.4926 91.0055C40.5254 91.0368 40.5629 91.0627 40.6037 91.0824L44.5504 62.1909L44.4992 62.3105ZM36.5203 87.8447L36.5971 87.9045L40.8685 73.0145L43.5338 63.6176L43.8414 62.5326H43.7218L43.3886 63.5407L40.7233 72.9377L36.5203 87.8447ZM35.0167 65.4201L31.4544 82.2151C31.4528 82.2378 31.4528 82.2607 31.4544 82.2834L35.0338 65.403L35.0167 65.4201ZM29.1821 78.9176C29.1762 78.9342 29.1762 78.9522 29.1821 78.9688L34.2479 65.7105H34.1881L29.1821 78.9176ZM31.5057 66.6417L28.6439 78.0291V78.0804L31.5142 66.6331L31.5057 66.6417ZM26.4399 73.7236L30.0876 67.0945L26.4399 73.7236ZM27.371 68.0427L25.8162 72.3141L27.3795 68.0427H27.371ZM24.6715 69.1874C24.7427 69.0752 24.8196 68.9669 24.9022 68.8628V68.8628L24.6715 69.1874Z" fill="black"/>
<path d="M65.4202 11.0966C89.3398 10.9428 108.851 30.5057 108.988 54.7926C109.057 59.4058 108.373 63.9994 106.963 68.3926L65.685 55.0745L65.4202 11.0966Z" fill="#455A64"/>
<path d="M103.623 33.8291L103.769 34.111L65.6425 46.2758V45.9427L103.623 33.8291ZM103.88 34.316L65.6767 50.7266V51.0341L104.016 34.5809C103.976 34.49 103.93 34.4016 103.88 34.316V34.316ZM65.6169 41.1502V41.4492L100.642 29.1562C100.589 29.064 100.526 28.9781 100.454 28.9L65.6169 41.1502ZM100.83 29.3698L65.634 44.8748V45.2251L100.992 29.6261C100.95 29.5236 100.881 29.4381 100.83 29.3698ZM65.54 30.6V30.805L92.236 20.3487L92.0566 20.2035L65.54 30.6ZM92.8169 20.8271L65.5656 34.3246V34.5809L92.9963 20.9125C92.9393 20.8785 92.8792 20.8499 92.8169 20.8271V20.8271ZM65.5742 35.5206V35.7683L96.6868 24.3894C96.6256 24.3197 96.56 24.2541 96.4903 24.1929L65.5742 35.5206ZM97.1822 24.8849L65.6084 40.0482V40.3472L97.336 25.0386C97.2762 24.9788 97.2164 24.9105 97.1481 24.8507L97.1822 24.8849ZM65.4717 19.9728V20.0924L79.1998 13.3095H79.046L65.4717 19.9728ZM80.8486 13.8904L65.5315 23.2874V23.3899L81.0109 13.9075L80.8486 13.8904ZM65.5058 25.2778V25.4402L86.7516 16.6412C86.6918 16.602 86.6289 16.5677 86.5636 16.5386L65.5058 25.2778ZM87.7682 17.2391L65.5571 29.1392V29.3698L87.9561 17.3587L87.7682 17.2391ZM65.446 14.8472V14.9326L71.8274 11.5155H71.6993L65.446 14.8472ZM74.4501 11.9939L65.4631 18.1532V18.2643L74.5867 12.011C74.5416 12.0033 74.4958 12.0005 74.4501 12.0025V11.9939ZM65.429 12.6261V12.703L67.5646 11.1311H67.4536L65.429 12.6261ZM108.834 58.9789L91.3561 63.3613L91.5782 63.4382L108.834 59.1155C108.834 59.1155 108.834 59.0301 108.834 58.9789ZM85.1626 61.3623L85.4872 61.4648L108.877 58.3382C108.877 58.2869 108.877 58.2442 108.877 58.1929L85.1626 61.3623ZM107.98 64.6598L101.078 66.4879L101.24 66.5392L107.963 64.7623C107.973 64.7289 107.979 64.6945 107.98 64.6598V64.6598ZM97.541 65.3517L97.7802 65.4286L108.031 64.3522C108.036 64.3182 108.036 64.2838 108.031 64.2497L97.541 65.3517ZM108.963 53.0246L81.7114 60.2432L81.9933 60.3286L108.963 53.1954V53.0246ZM73.8521 57.6975L74.2621 57.8341L108.937 52.6316C108.941 52.5719 108.941 52.5119 108.937 52.4522L73.8521 57.6975ZM89.733 51.504L71.9898 57.0995L72.3144 57.2105L89.8013 51.7005L101.343 48.0613L107.126 46.2502L108.083 45.9512C108.083 45.8829 108.083 45.8145 108.083 45.7377L107.109 46.0452L101.334 47.8648L89.733 51.504ZM66.1209 55.2115L66.5566 55.3482L107.98 45.6437C107.97 45.5745 107.956 45.5061 107.938 45.4387L66.1209 55.2115ZM106.272 39.7065L65.7279 55.0834L66.0867 55.1944L106.366 39.9542C106.342 39.869 106.31 39.7861 106.272 39.7065ZM65.6682 51.3844V51.6748L106.272 39.6211C106.249 39.5354 106.218 39.4523 106.178 39.3733L65.6682 51.3844Z" fill="#37474F"/>
<path d="M65.4202 11.0967H68.8373C92.7569 10.9344 112.277 30.4972 112.405 54.7842C112.476 59.401 111.789 63.9982 110.372 68.3927H106.955C108.364 63.9995 109.048 59.4059 108.979 54.7927C108.834 30.5058 89.3312 10.9429 65.4202 11.0967Z" fill="#37474F"/>
<path d="M270.949 67.0775C270.951 72.2282 269.52 77.278 266.818 81.663C264.116 86.048 260.248 89.5958 255.647 91.9102C251.046 94.2247 245.891 95.2147 240.76 94.7699C235.628 94.3251 230.722 92.4628 226.587 89.3911L212.97 92.868L218.642 80.1906C216.648 76.4644 215.53 72.3326 215.373 68.1094C215.215 63.8861 216.023 59.6826 217.734 55.8183C219.446 51.9541 222.015 48.531 225.248 45.8091C228.481 43.0873 232.292 41.1384 236.392 40.1108C240.491 39.0831 244.771 39.0036 248.905 39.8784C253.04 40.7532 256.921 42.5593 260.253 45.1592C263.585 47.7592 266.28 51.0846 268.133 54.8826C269.987 58.6807 270.95 62.8513 270.949 67.0775V67.0775Z" fill="white"/>
<path d="M270.949 67.0775C270.946 72.2285 269.518 77.2782 266.823 81.6684C266.155 82.7615 265.419 83.8115 264.619 84.8121C263.789 85.7863 262.902 86.7105 261.962 87.58C261.501 88.0263 261.016 88.4483 260.51 88.8443L258.981 90.0232C258.468 90.4076 257.896 90.7066 257.358 91.0569L256.504 91.5609C256.222 91.7232 255.931 91.8513 255.649 91.9966L253.941 92.8508L252.13 93.5257C251.531 93.7561 250.918 93.9444 250.293 94.0895C249.669 94.2347 249.054 94.4483 248.422 94.5423C247.16 94.7923 245.881 94.9493 244.595 95.0121C243.31 95.1146 242.019 95.1146 240.734 95.0121C235.553 94.6033 230.588 92.7572 226.399 89.6815L226.655 89.7327L213.055 93.2352L212.304 93.4317L212.62 92.7141L218.258 80.0197V80.387C216.213 76.6148 215.078 72.4169 214.943 68.1282C214.734 62.7865 216.06 57.4968 218.767 52.8865C221.473 48.2763 225.444 44.539 230.211 42.1182C234.977 39.6973 240.338 38.6944 245.657 39.2284C250.976 39.7625 256.03 41.8111 260.22 45.1312C263.554 47.7376 266.252 51.0675 268.111 54.8693C269.969 58.6711 270.94 62.8456 270.949 67.0775V67.0775ZM270.949 67.0775C270.954 62.8644 269.993 58.7064 268.14 54.9227C266.287 51.1391 263.592 47.8304 260.261 45.2509C256.93 42.6714 253.052 40.8897 248.925 40.0426C244.798 39.1955 240.532 39.3056 236.454 40.3644C232.403 41.4025 228.643 43.3513 225.459 46.0624C222.31 48.793 219.794 52.1777 218.087 55.9805C216.416 59.7935 215.633 63.9364 215.797 68.0964C215.961 72.2564 217.069 76.3246 219.035 79.994L219.138 80.1734L219.052 80.3528L213.346 93.0217L212.919 92.5091L226.587 89.092H226.724L226.843 89.186C230.918 92.2547 235.766 94.1299 240.845 94.6021C242.108 94.7245 243.38 94.7445 244.646 94.6619C245.918 94.6107 247.186 94.4737 248.439 94.2518C249.071 94.1664 249.678 93.9614 250.293 93.8162C250.918 93.6878 251.532 93.5107 252.13 93.2865L253.924 92.6458L255.632 91.8342C255.914 91.689 256.213 91.5694 256.487 91.4157L257.341 90.9202C257.888 90.587 258.451 90.288 258.972 89.9121L260.51 88.7759C261.013 88.3857 261.495 87.9694 261.954 87.5287C262.9 86.6695 263.79 85.7507 264.619 84.778C265.422 83.7862 266.161 82.7448 266.832 81.6599C269.525 77.2727 270.95 72.2253 270.949 67.0775V67.0775Z" fill="#263238"/>
<path d="M238.649 83.616L226.194 71.0069L230.371 66.8723L237.65 74.2361L252.77 50.5386L257.734 53.6994L238.649 83.616Z" fill="#407BFF"/>
</svg>
