<svg width="500" height="370" viewBox="0 0 500 370" fill="none" xmlns="http://www.w3.org/2000/svg">
<path d="M500 325.15H0V325.399H500V325.15Z" fill="#EBEBEB"/>
<path d="M449.9 341.13H416.78V341.378H449.9V341.13Z" fill="#EBEBEB"/>
<path d="M331.22 343.831H322.53V344.079H331.22V343.831Z" fill="#EBEBEB"/>
<path d="M415.78 331.914H396.59V332.162H415.78V331.914Z" fill="#EBEBEB"/>
<path d="M95.65 333.582H52.46V333.83H95.65V333.582Z" fill="#EBEBEB"/>
<path d="M110.89 333.582H104.56V333.83H110.89V333.582Z" fill="#EBEBEB"/>
<path d="M225.15 337.773H131.47V338.021H225.15V337.773Z" fill="#EBEBEB"/>
<path d="M237 280.857H43.9101C42.3974 280.854 40.9476 280.255 39.879 279.192C38.8103 278.129 38.2101 276.688 38.2101 275.186V5.62111C38.2233 4.12747 38.8293 2.6993 39.8965 1.64682C40.9638 0.594346 42.4061 0.00255868 43.9101 0H237C238.514 0 239.967 0.597454 241.038 1.66093C242.109 2.7244 242.71 4.16678 242.71 5.67076V275.186C242.71 276.69 242.109 278.132 241.038 279.196C239.967 280.259 238.514 280.857 237 280.857V280.857ZM43.9101 0.198626C42.4637 0.201257 41.0775 0.773712 40.0557 1.79034C39.034 2.80697 38.4601 4.18469 38.4601 5.62111V275.186C38.4601 276.622 39.034 278 40.0557 279.017C41.0775 280.033 42.4637 280.606 43.9101 280.608H237C238.447 280.606 239.835 280.034 240.858 279.017C241.881 278.001 242.457 276.623 242.46 275.186V5.62111C242.457 4.18378 241.881 2.80608 240.858 1.78973C239.835 0.773389 238.447 0.201252 237 0.198626H43.9101Z" fill="#EBEBEB"/>
<path d="M453.31 280.857H260.21C258.696 280.854 257.246 280.256 256.175 279.193C255.105 278.13 254.503 276.689 254.5 275.186V5.62111C254.516 4.12656 255.124 2.69841 256.193 1.6462C257.262 0.593999 258.705 0.00253078 260.21 0H453.31C454.812 0.00516873 456.252 0.598111 457.317 1.65031C458.382 2.70251 458.987 4.12918 459 5.62111V275.186C459 276.687 458.401 278.126 457.335 279.189C456.268 280.252 454.821 280.851 453.31 280.857V280.857ZM260.21 0.198626C258.763 0.201252 257.375 0.773389 256.352 1.78973C255.329 2.80608 254.753 4.18378 254.75 5.62111V275.186C254.753 276.623 255.329 278.001 256.352 279.017C257.375 280.034 258.763 280.606 260.21 280.608H453.31C454.757 280.606 456.144 280.034 457.168 279.017C458.191 278.001 458.767 276.623 458.77 275.186V5.62111C458.767 4.18378 458.191 2.80608 457.168 1.78973C456.144 0.773389 454.757 0.201252 453.31 0.198626H260.21Z" fill="#EBEBEB"/>
<path d="M179.14 186.4L410.83 186.4V33.3891L179.14 33.3891L179.14 186.4Z" fill="#E6E6E6"/>
<path d="M175.55 186.4L407.24 186.4V33.3891L175.55 33.3891L175.55 186.4Z" fill="#F5F5F5"/>
<path d="M400.8 179.21V40.5593L181.98 40.5593V179.21H400.8Z" fill="white"/>
<path d="M184.7 179.22V40.5691H181.99V179.22H184.7Z" fill="#E6E6E6"/>
<path d="M178.21 145.751L404.58 145.751V136.108L178.21 136.108V145.751Z" fill="#F5F5F5"/>
<g opacity="0.4">
<path d="M190.23 25.8313H168.36V155.276H190.23V25.8313Z" fill="#E6E6E6"/>
<path d="M190.24 144.878H201.08L201.08 25.8314H190.24V144.878Z" fill="#F5F5F5"/>
<path d="M222.95 25.8313H201.08V155.276H222.95V25.8313Z" fill="#E6E6E6"/>
<path d="M222.96 144.878H233.8L233.8 25.8314H222.96V144.878Z" fill="#F5F5F5"/>
<path d="M255.67 25.8313H233.8V155.276H255.67V25.8313Z" fill="#E6E6E6"/>
<path d="M255.68 144.878H266.52V25.8314H255.68V144.878Z" fill="#F5F5F5"/>
<path d="M288.39 25.8313H266.52V155.276H288.39V25.8313Z" fill="#E6E6E6"/>
<path d="M288.4 144.878H299.24V25.8314H288.4V144.878Z" fill="#F5F5F5"/>
<path d="M321.11 25.8313H299.24V155.276H321.11V25.8313Z" fill="#E6E6E6"/>
<path d="M321.11 144.878H331.95V25.8314H321.11V144.878Z" fill="#F5F5F5"/>
<path d="M353.82 25.8313H331.95V155.276H353.82V25.8313Z" fill="#E6E6E6"/>
<path d="M353.83 144.878H364.67V25.8314H353.83V144.878Z" fill="#F5F5F5"/>
<path d="M386.54 25.8313H364.67V155.276H386.54V25.8313Z" fill="#E6E6E6"/>
<path d="M386.55 144.878H397.39V25.8314H386.55V144.878Z" fill="#F5F5F5"/>
<path d="M419.26 25.8313H397.39V155.276H419.26V25.8313Z" fill="#E6E6E6"/>
</g>
<path d="M82.79 325.15H134.08V220.475H82.79L82.79 325.15Z" fill="#EBEBEB"/>
<path d="M92.53 325.151H82.79V303.828H102.75L92.53 325.151Z" fill="#F5F5F5"/>
<path d="M375.43 325.15H426.72V220.475H375.43V325.15Z" fill="#EBEBEB"/>
<path d="M82.7902 312.07L383.93 312.07V220.474L82.7902 220.474V312.07Z" fill="#F5F5F5"/>
<path d="M373.92 286.229H284.65C284.433 286.229 284.224 286.144 284.07 285.991C283.916 285.838 283.83 285.631 283.83 285.415V227.426C283.83 227.21 283.916 227.003 284.07 226.851C284.224 226.698 284.433 226.612 284.65 226.612H301.13C301.307 226.608 301.48 226.664 301.62 226.771C304.07 228.549 306.787 229.934 309.67 230.873C313.147 232.016 316.788 232.593 320.45 232.581H338.11C344.866 232.699 351.483 230.674 357 226.801C357.138 226.696 357.307 226.64 357.48 226.642H373.97C374.188 226.642 374.396 226.728 374.55 226.88C374.704 227.033 374.79 227.24 374.79 227.456V285.415C374.79 285.526 374.768 285.636 374.723 285.739C374.679 285.841 374.614 285.933 374.533 286.009C374.451 286.086 374.355 286.144 374.249 286.182C374.144 286.22 374.032 286.236 373.92 286.229ZM285.47 284.601H373.1V228.271H357.7C351.959 232.244 345.107 234.328 338.11 234.229H320.45C316.61 234.242 312.794 233.634 309.15 232.432C306.192 231.468 303.4 230.061 300.87 228.261H285.47V284.601Z" fill="#E6E6E6"/>
<path d="M278 286.229H188.72C188.503 286.229 188.294 286.144 188.14 285.991C187.986 285.838 187.9 285.631 187.9 285.415V227.426C187.9 227.21 187.986 227.003 188.14 226.851C188.294 226.698 188.503 226.612 188.72 226.612H204.31C204.487 226.608 204.66 226.664 204.8 226.771C207.232 228.548 209.932 229.933 212.8 230.873C216.277 232.016 219.917 232.593 223.58 232.581H241.24C247.972 232.679 254.561 230.644 260.05 226.771C260.192 226.667 260.364 226.611 260.54 226.612H278C278.108 226.611 278.215 226.631 278.315 226.671C278.415 226.712 278.506 226.772 278.583 226.848C278.659 226.923 278.72 227.014 278.76 227.113C278.801 227.213 278.821 227.319 278.82 227.426V285.385C278.824 285.495 278.806 285.604 278.766 285.706C278.727 285.808 278.667 285.902 278.591 285.981C278.514 286.059 278.422 286.122 278.321 286.165C278.219 286.208 278.11 286.23 278 286.229V286.229ZM189.55 284.601H277.18V228.271H260.86C255.126 232.243 248.281 234.327 241.29 234.229H223.63C219.79 234.242 215.974 233.634 212.33 232.432C209.367 231.474 206.57 230.067 204.04 228.261H189.54L189.55 284.601Z" fill="#E6E6E6"/>
<path d="M182.07 286.229H92.8C92.5826 286.229 92.374 286.144 92.2202 285.991C92.0664 285.838 91.98 285.631 91.98 285.415V227.426C91.9787 227.319 91.999 227.213 92.0397 227.113C92.0805 227.014 92.1408 226.923 92.2172 226.848C92.2936 226.772 92.3846 226.712 92.4847 226.671C92.5848 226.631 92.692 226.611 92.8 226.612H108.39C108.563 226.61 108.733 226.666 108.87 226.771C111.304 228.545 114.004 229.929 116.87 230.873C120.35 232.016 123.994 232.593 127.66 232.581H145.32C152.058 232.678 158.653 230.643 164.15 226.771C164.291 226.664 164.463 226.608 164.64 226.612H182.02C182.238 226.612 182.446 226.698 182.6 226.851C182.754 227.003 182.84 227.21 182.84 227.426V285.385C182.848 285.598 182.772 285.806 182.628 285.963C182.484 286.121 182.284 286.217 182.07 286.229ZM93.62 284.601H181.25V228.271H165C159.262 232.243 152.414 234.327 145.42 234.229H127.71C123.87 234.243 120.054 233.636 116.41 232.432C113.447 231.474 110.65 230.067 108.12 228.261H93.62V284.601Z" fill="#E6E6E6"/>
<path d="M374.19 325.151H383.93V303.828H363.98L374.19 325.151Z" fill="#F5F5F5"/>
<path d="M143.94 202.936H135.85C135.91 197.374 135.85 183.252 135.28 150.906C134.28 92.3113 132.41 88.6963 132.41 88.6963L142 117.636C144.277 124.442 145.603 131.526 145.94 138.69C147 161.254 143 179.27 143.94 202.936Z" fill="#E6E6E6"/>
<path d="M150.09 108.907C160.88 92.6888 182.42 84.2274 204.44 76.2625C213.08 73.1341 188.82 111.936 171.18 129.534C157.48 143.199 144.18 142.891 140.25 156.348C139.49 140.716 140.79 122.88 150.09 108.907Z" fill="#E6E6E6"/>
<path d="M137.73 98.4984C129.27 79.5296 107.9 54.9298 83.88 37.5998C74.45 30.7968 97.72 89.2424 114.13 113.137C126.91 131.768 138.83 143.11 140.69 156.398C148.75 139.773 146.18 117.457 137.73 98.4984Z" fill="#E6E6E6"/>
<path d="M138.53 220.474C143.103 220.474 147.503 218.736 150.828 215.617C154.152 212.499 156.149 208.235 156.41 203.7L158 187.622H119.06L120.64 203.7C120.903 208.236 122.902 212.5 126.228 215.618C129.555 218.737 133.956 220.474 138.53 220.474V220.474Z" fill="#F0F0F0"/>
<path d="M116.54 187.71H160.52L161.78 182H115.28L116.54 187.71Z" fill="#F0F0F0"/>
<path d="M118.71 197.503H158.35L159.49 191.793H117.57L118.71 197.503Z" fill="#F0F0F0"/>
<path d="M250 370C357.082 370 443.89 364.967 443.89 358.758C443.89 352.549 357.082 347.516 250 347.516C142.917 347.516 56.1099 352.549 56.1099 358.758C56.1099 364.967 142.917 370 250 370Z" fill="#F5F5F5"/>
<path d="M405.28 261.521H94.71V296.439H405.28V261.521Z" fill="#407BFF"/>
<path opacity="0.3" d="M405.29 261.521H338.67V296.439H405.29V261.521Z" fill="black"/>
<path d="M129 296.439H94.7101V358.758H129V296.439Z" fill="#407BFF"/>
<path opacity="0.3" d="M94.7201 296.439V299.925L119 307.204V358.758H129V296.439H94.7201Z" fill="black"/>
<path d="M405.29 296.439H371V358.758H405.29V296.439Z" fill="#407BFF"/>
<path opacity="0.2" d="M405.29 296.439H371V358.758H405.29V296.439Z" fill="black"/>
<path opacity="0.3" d="M371 296.439V299.925L395.29 307.204V358.758H405.29V296.439H371Z" fill="black"/>
<path d="M338.67 296.439H304.38V358.758H338.67V296.439Z" fill="#407BFF"/>
<path opacity="0.3" d="M304.38 296.439V299.925L328.67 307.204V358.758H338.67V296.439H304.38Z" fill="black"/>
<path d="M195.62 296.439H161.33V358.758H195.62V296.439Z" fill="#407BFF"/>
<path opacity="0.2" d="M195.62 296.439H161.33V358.758H195.62V296.439Z" fill="black"/>
<path opacity="0.3" d="M161.33 296.439V299.925L185.62 307.204V358.758H195.62V296.439H161.33Z" fill="black"/>
<path d="M362.48 254.658H172.6C172.008 254.662 171.422 254.545 170.878 254.313C170.335 254.081 169.845 253.739 169.441 253.31C169.037 252.881 168.727 252.373 168.531 251.819C168.334 251.264 168.256 250.676 168.3 250.09L176.12 126.852C176.219 125.624 176.774 124.476 177.678 123.632C178.582 122.787 179.769 122.307 181.01 122.284H370.88C371.472 122.279 372.058 122.397 372.602 122.629C373.145 122.861 373.634 123.202 374.039 123.632C374.443 124.061 374.753 124.569 374.949 125.123C375.146 125.677 375.224 126.266 375.18 126.852L367.36 250.09C367.261 251.316 366.707 252.463 365.805 253.307C364.904 254.151 363.719 254.632 362.48 254.658V254.658Z" fill="#263238"/>
<path opacity="0.6" d="M362.48 254.658H172.6C172.008 254.662 171.422 254.545 170.878 254.313C170.335 254.081 169.845 253.739 169.441 253.31C169.037 252.881 168.727 252.373 168.531 251.819C168.334 251.264 168.256 250.676 168.3 250.09L176.12 126.852C176.219 125.624 176.774 124.476 177.678 123.632C178.582 122.787 179.769 122.307 181.01 122.284H370.88C371.472 122.279 372.058 122.397 372.602 122.629C373.145 122.861 373.634 123.202 374.039 123.632C374.443 124.061 374.753 124.569 374.949 125.123C375.146 125.677 375.224 126.266 375.18 126.852L367.36 250.09C367.261 251.316 366.707 252.463 365.805 253.307C364.904 254.151 363.719 254.632 362.48 254.658V254.658Z" fill="black"/>
<path d="M361.06 254.658H171.19C170.597 254.664 170.01 254.547 169.465 254.316C168.92 254.084 168.43 253.743 168.025 253.314C167.619 252.884 167.309 252.376 167.111 251.821C166.914 251.266 166.836 250.676 166.88 250.089L174.7 126.852C174.799 125.624 175.354 124.476 176.258 123.632C177.162 122.787 178.349 122.307 179.59 122.284H369.46C370.052 122.278 370.639 122.394 371.183 122.626C371.728 122.857 372.218 123.199 372.622 123.628C373.026 124.058 373.336 124.566 373.532 125.121C373.728 125.676 373.806 126.266 373.76 126.852L365.94 250.089C365.841 251.316 365.287 252.462 364.385 253.307C363.484 254.151 362.299 254.632 361.06 254.658V254.658Z" fill="#263238"/>
<path d="M360.82 256.227H134.89C133.85 256.217 132.828 256.501 131.944 257.044C131.059 257.587 130.347 258.367 129.89 259.296C129.774 259.537 129.722 259.803 129.739 260.069C129.756 260.336 129.841 260.594 129.986 260.818C130.131 261.043 130.332 261.227 130.569 261.354C130.806 261.48 131.071 261.544 131.34 261.54H364.32C364.589 261.544 364.854 261.48 365.091 261.354C365.328 261.227 365.529 261.043 365.674 260.818C365.819 260.594 365.904 260.336 365.921 260.069C365.938 259.803 365.886 259.537 365.77 259.296C365.319 258.374 364.615 257.597 363.74 257.054C362.864 256.511 361.852 256.224 360.82 256.227V256.227Z" fill="#263238"/>
<path opacity="0.6" d="M360.82 256.227H328.69C327.657 256.224 326.645 256.51 325.769 257.053C324.894 257.596 324.19 258.373 323.74 259.296C323.624 259.536 323.573 259.802 323.589 260.067C323.605 260.333 323.689 260.59 323.833 260.814C323.977 261.039 324.177 261.223 324.412 261.35C324.648 261.477 324.912 261.543 325.18 261.54H364.32C364.589 261.544 364.854 261.48 365.091 261.354C365.328 261.228 365.528 261.043 365.674 260.819C365.819 260.594 365.904 260.336 365.921 260.07C365.937 259.803 365.886 259.537 365.77 259.296C365.319 258.374 364.615 257.597 363.739 257.054C362.864 256.511 361.852 256.225 360.82 256.227V256.227Z" fill="black"/>
<path d="M340.9 260.1H332.6C332.408 260.098 332.225 260.02 332.09 259.885C331.955 259.749 331.88 259.566 331.88 259.375V259.375C331.88 259.185 331.955 259.002 332.09 258.866C332.225 258.731 332.408 258.653 332.6 258.65H340.9C340.996 258.65 341.091 258.669 341.179 258.706C341.268 258.742 341.348 258.795 341.416 258.863C341.484 258.93 341.538 259.01 341.574 259.098C341.611 259.186 341.63 259.28 341.63 259.375V259.375C341.63 259.471 341.611 259.565 341.574 259.653C341.538 259.741 341.484 259.821 341.416 259.888C341.348 259.955 341.268 260.009 341.179 260.045C341.091 260.082 340.996 260.1 340.9 260.1V260.1Z" fill="#407BFF"/>
<path opacity="0.7" d="M234.17 260.1H225.88C225.686 260.1 225.501 260.024 225.364 259.888C225.227 259.752 225.15 259.568 225.15 259.375V259.375C225.15 259.28 225.169 259.186 225.206 259.098C225.242 259.01 225.296 258.93 225.364 258.863C225.432 258.795 225.512 258.742 225.601 258.706C225.689 258.669 225.784 258.65 225.88 258.65H234.17C234.266 258.65 234.361 258.669 234.449 258.706C234.538 258.742 234.618 258.795 234.686 258.863C234.754 258.93 234.808 259.01 234.844 259.098C234.881 259.186 234.9 259.28 234.9 259.375C234.9 259.568 234.823 259.752 234.686 259.888C234.549 260.024 234.364 260.1 234.17 260.1V260.1Z" fill="white"/>
<path d="M349.49 258.65H344.06C343.729 258.65 343.46 258.917 343.46 259.246V259.504C343.46 259.834 343.729 260.1 344.06 260.1H349.49C349.822 260.1 350.09 259.834 350.09 259.504V259.246C350.09 258.917 349.822 258.65 349.49 258.65Z" fill="#407BFF"/>
<path d="M171.16 245.64L178.42 131.301C178.457 130.824 178.673 130.378 179.025 130.051C179.376 129.724 179.838 129.539 180.32 129.533H367.81C368.04 129.53 368.268 129.574 368.479 129.663C368.691 129.752 368.881 129.884 369.038 130.051C369.196 130.217 369.316 130.414 369.392 130.63C369.468 130.845 369.498 131.074 369.48 131.301L362.23 245.64C362.19 246.118 361.972 246.564 361.619 246.891C361.266 247.218 360.803 247.402 360.32 247.408H172.84C172.61 247.41 172.383 247.364 172.171 247.275C171.96 247.185 171.77 247.054 171.612 246.888C171.454 246.722 171.333 246.525 171.255 246.311C171.177 246.096 171.145 245.868 171.16 245.64V245.64Z" fill="white"/>
<path opacity="0.1" d="M277.82 126.008L215.37 243.892H169.3C169.069 243.896 168.84 243.851 168.627 243.762C168.414 243.672 168.223 243.54 168.065 243.372C167.906 243.205 167.785 243.007 167.709 242.79C167.632 242.574 167.602 242.343 167.62 242.115L174.88 127.786C174.917 127.308 175.133 126.861 175.484 126.532C175.835 126.203 176.297 126.017 176.78 126.008H277.82Z" fill="#407BFF"/>
<path opacity="0.1" d="M332.51 126.008L270.06 243.892H255.5L317.95 126.008H332.51Z" fill="#407BFF"/>
<path opacity="0.1" d="M365.94 127.786L358.68 242.115C358.645 242.594 358.43 243.042 358.079 243.371C357.727 243.7 357.263 243.887 356.78 243.893H285.78L348.23 126.008H364.23C364.463 126.002 364.695 126.045 364.911 126.133C365.126 126.221 365.321 126.353 365.482 126.521C365.643 126.688 365.767 126.887 365.846 127.105C365.925 127.323 365.957 127.555 365.94 127.786V127.786Z" fill="#407BFF"/>
<path opacity="0.4" d="M275.63 126.127C275.602 126.487 275.441 126.824 275.176 127.072C274.912 127.32 274.564 127.461 274.2 127.468C274.026 127.47 273.854 127.436 273.694 127.368C273.534 127.3 273.391 127.2 273.272 127.073C273.153 126.947 273.063 126.798 273.005 126.635C272.948 126.472 272.926 126.299 272.94 126.127C272.965 125.766 273.126 125.427 273.391 125.179C273.656 124.931 274.005 124.79 274.37 124.786C274.544 124.784 274.716 124.818 274.876 124.886C275.035 124.954 275.179 125.054 275.298 125.181C275.416 125.307 275.507 125.456 275.564 125.619C275.621 125.782 275.644 125.955 275.63 126.127V126.127Z" fill="white"/>
<path d="M244.65 98.7071C239.18 104.924 236.02 123.982 240.07 133.357C244.12 142.732 197.13 152.118 235.9 167.352C274.67 182.587 305.68 164.919 294.46 149.138C283.24 133.357 295.67 107.079 282.68 100.475C270.94 94.4565 255.61 86.2433 244.65 98.7071Z" fill="#263238"/>
<path d="M233.06 175.446C231.01 182.398 228.83 189.35 226.57 196.302C224.31 203.253 221.96 210.126 219.47 217.028L218.52 219.63L218.04 220.931L217.89 221.318L217.65 221.904C217.5 222.282 217.27 222.689 217.07 223.076C216.092 224.85 214.634 226.315 212.86 227.307C211.25 228.175 209.452 228.646 207.62 228.678C205.05 228.69 202.504 228.194 200.13 227.218C198.187 226.434 196.305 225.508 194.5 224.447C187.943 220.443 181.934 215.616 176.62 210.086L180.93 205.041C182.38 205.965 183.93 206.948 185.43 207.871C186.93 208.795 188.5 209.689 190.02 210.573C192.998 212.304 196.073 213.866 199.23 215.25C200.668 215.88 202.153 216.402 203.67 216.81C204.719 217.155 205.829 217.284 206.93 217.187C207.21 217.187 207.16 217.028 206.93 217.117C206.7 217.207 206.45 217.465 206.44 217.435C206.43 217.406 206.44 217.435 206.44 217.376C206.445 217.356 206.445 217.336 206.44 217.316L206.52 217.068L206.9 215.787L207.67 213.205L213.78 192.349C215.86 185.397 218 178.445 220.2 171.493L233.06 175.446Z" fill="#B65B52"/>
<path d="M180.62 204.882L169 200.611L173.61 212.807C173.61 212.807 181.81 213.979 184.99 209.698L182.4 206.252C181.951 205.636 181.333 205.16 180.62 204.882V204.882Z" fill="#B55B52"/>
<path d="M158.75 204.157L163.17 214.158L173.66 212.787L169.04 200.592L158.75 204.157Z" fill="#B55B52"/>
<path d="M224.58 157.46C219.26 158.801 215.58 180.521 215.58 180.521L230.23 190.452C230.23 190.452 244.23 168.544 240.18 162.744C235.88 156.656 232.33 155.504 224.58 157.46Z" fill="#407BFF"/>
<path opacity="0.5" d="M224.58 157.46C219.26 158.801 215.58 180.521 215.58 180.521L230.23 190.452C230.23 190.452 244.23 168.544 240.18 162.744C235.88 156.656 232.33 155.504 224.58 157.46Z" fill="white"/>
<path opacity="0.2" d="M224.1 165.356L235.47 167.968L236.56 179.021C234.634 182.924 232.508 186.726 230.19 190.413L221.3 184.454C221.69 179.339 222.65 168.832 224.1 165.356Z" fill="black"/>
<path d="M224.58 157.46C224.58 157.46 218.43 159.605 230.74 234.746H283.1C282.22 213.582 282.2 200.522 292.38 157.093C285.051 155.588 277.621 154.615 270.15 154.183C261.34 153.756 254.15 153.478 246.37 154.183C236.16 155.107 224.58 157.46 224.58 157.46Z" fill="#407BFF"/>
<path opacity="0.5" d="M224.58 157.46C224.58 157.46 218.43 159.605 230.74 234.746H283.1C282.22 213.582 282.2 200.522 292.38 157.093C285.051 155.588 277.621 154.615 270.15 154.183C261.34 153.756 254.15 153.478 246.37 154.183C236.16 155.107 224.58 157.46 224.58 157.46Z" fill="white"/>
<path opacity="0.2" d="M280.06 177.254L286.82 182.974C285.38 190.572 284.41 196.878 283.82 202.529C282.53 196.888 279.31 181.574 280.06 177.254Z" fill="black"/>
<path d="M267.79 127.587C266.29 135.184 264.79 149.108 270.15 154.183C270.15 154.183 265.15 165.564 251.9 165.564C238.65 165.564 246.37 154.183 246.37 154.183C254.9 152.197 254.68 145.87 253.2 139.971L267.79 127.587Z" fill="#B55B52"/>
<path d="M268.45 151.342C267.19 153.875 263.13 159.665 251.79 161.731C251.475 161.788 251.15 161.724 250.88 161.552C248.76 160.082 247.44 156.973 248.37 153.368C248.432 153.147 248.43 152.913 248.364 152.692C248.299 152.472 248.173 152.274 248 152.121C247.827 151.968 247.615 151.866 247.387 151.827C247.159 151.788 246.925 151.812 246.71 151.899C245.839 152.261 245.002 152.699 244.21 153.21C244.036 153.324 243.895 153.481 243.8 153.666C242.97 155.216 239.61 162.803 249.75 167.481C249.912 167.549 250.084 167.59 250.26 167.6C256.26 167.719 266.75 166.547 273.38 154.689C273.498 154.475 273.551 154.231 273.532 153.988C273.512 153.744 273.421 153.512 273.27 153.319C272.379 152.35 271.344 151.523 270.2 150.866C270.056 150.774 269.894 150.713 269.725 150.687C269.556 150.662 269.383 150.672 269.218 150.717C269.053 150.762 268.899 150.841 268.767 150.948C268.635 151.056 268.527 151.19 268.45 151.342Z" fill="#FAFAFA"/>
<path d="M271.23 182.607L257.73 182.22C257.589 182.22 257.449 182.192 257.32 182.135C257.191 182.078 257.075 181.995 256.981 181.891C256.887 181.787 256.815 181.664 256.772 181.531C256.729 181.397 256.715 181.256 256.73 181.117L256.86 179.459C256.899 179.18 257.04 178.925 257.255 178.742C257.471 178.559 257.747 178.46 258.03 178.466L271.53 178.853C271.672 178.852 271.813 178.881 271.943 178.938C272.072 178.995 272.189 179.079 272.283 179.185C272.378 179.29 272.449 179.414 272.491 179.548C272.534 179.683 272.547 179.825 272.53 179.965L272.4 181.614C272.361 181.893 272.22 182.148 272.005 182.331C271.789 182.514 271.514 182.612 271.23 182.607V182.607Z" fill="#FAFAFA"/>
<path opacity="0.2" d="M261.84 132.642L253.2 139.962C253.571 141.334 253.818 142.737 253.94 144.153C257.19 143.686 261.67 140.131 262.02 136.744C262.211 135.377 262.15 133.987 261.84 132.642V132.642Z" fill="black"/>
<path d="M277.87 113.217C275.46 125.7 274.71 131.033 267.47 136.664C256.58 145.146 241.67 139.465 240.29 126.524C239.04 114.875 243.19 96.4227 256.29 93.0063C259.161 92.2487 262.178 92.2314 265.058 92.956C267.937 93.6806 270.582 95.1231 272.743 97.1469C274.904 99.1707 276.509 101.709 277.407 104.521C278.304 107.333 278.463 110.326 277.87 113.217Z" fill="#B55B52"/>
<path d="M270.72 103.98C269.16 111.796 268.79 122.155 276 122.155C283.21 122.155 288.86 109.969 282.64 100.425C276.42 90.881 271.63 99.3722 270.72 103.98Z" fill="#263238"/>
<path d="M283.18 104.944C283.18 113.445 272.4 109.244 267.63 105.579C262.86 101.915 262.63 102.312 253.79 102.302C244.95 102.292 243.18 101.686 240.57 97.4954C237.96 93.3044 238.2 90.5435 244.08 91.4274C249.96 92.3113 245.02 86.3525 249.4 83.0454C253.78 79.7383 258.97 80.5725 264.96 88.1203C270.95 95.6681 283.18 90.2158 283.18 104.944Z" fill="#263238"/>
<path d="M280.015 124.324C281.149 120.482 280.037 116.775 277.53 116.045C275.023 115.315 272.071 117.838 270.937 121.681C269.803 125.523 270.915 129.229 273.422 129.959C275.929 130.689 278.881 128.166 280.015 124.324Z" fill="white"/>
<path d="M260 133.933C257.679 133.933 255.382 133.463 253.25 132.553C253.204 132.534 253.163 132.507 253.128 132.472C253.093 132.438 253.065 132.396 253.047 132.351C253.028 132.306 253.019 132.257 253.019 132.208C253.02 132.159 253.03 132.111 253.05 132.066C253.092 131.975 253.167 131.904 253.26 131.867C253.353 131.83 253.457 131.83 253.55 131.867C255.559 132.724 257.721 133.171 259.908 133.183C262.094 133.195 264.261 132.771 266.28 131.937C268.243 131.139 270.026 129.959 271.524 128.467C273.021 126.974 274.203 125.2 275 123.247C278 114.716 281.06 104.07 277.52 97.4257C276.808 96.1325 275.822 95.0077 274.631 94.1283C273.44 93.2489 272.072 92.6357 270.62 92.3309C270.524 92.3053 270.441 92.2429 270.391 92.1575C270.34 92.072 270.326 91.9702 270.35 91.8741C270.376 91.7784 270.439 91.6966 270.525 91.6464C270.611 91.5962 270.713 91.5817 270.81 91.606C272.361 91.9375 273.823 92.5969 275.094 93.5395C276.366 94.482 277.418 95.6855 278.18 97.0682C281.86 103.931 278.79 114.786 275.7 123.475C274.862 125.526 273.619 127.389 272.044 128.955C270.469 130.521 268.594 131.758 266.53 132.592C264.461 133.456 262.244 133.911 260 133.933V133.933Z" fill="white"/>
<path opacity="0.6" d="M279.65 124.359C278.76 127.339 276.72 129.434 275.09 128.968C273.46 128.501 272.86 125.66 273.75 122.641C274.64 119.622 276.68 117.557 278.31 118.033C279.94 118.51 280.54 121.34 279.65 124.359Z" fill="#407BFF"/>
<path d="M254.288 130.91L250.37 130.159C249.682 130.027 249.016 130.474 248.883 131.158L248.839 131.383C248.706 132.067 249.157 132.728 249.846 132.86L253.763 133.611C254.452 133.743 255.118 133.295 255.251 132.611L255.295 132.387C255.427 131.703 254.977 131.041 254.288 130.91Z" fill="white"/>
<path d="M249.17 114.259C249.17 114.259 246.85 118.44 244.65 120.317C245.84 121.757 248.24 121.479 248.24 121.479L249.17 114.259Z" fill="#A02724"/>
<path d="M251.38 126.822H251.47C253.737 127 255.988 126.319 257.77 124.916C257.807 124.878 257.827 124.828 257.827 124.776C257.827 124.725 257.807 124.675 257.77 124.637C257.752 124.62 257.731 124.606 257.708 124.596C257.685 124.586 257.66 124.582 257.635 124.582C257.61 124.582 257.585 124.586 257.562 124.596C257.539 124.606 257.518 124.62 257.5 124.637C255.799 125.966 253.658 126.614 251.5 126.455C251.474 126.451 251.448 126.452 251.423 126.458C251.397 126.464 251.374 126.476 251.353 126.492C251.332 126.508 251.315 126.528 251.303 126.55C251.29 126.573 251.282 126.598 251.28 126.624C251.275 126.663 251.282 126.703 251.299 126.738C251.317 126.774 251.345 126.803 251.38 126.822V126.822Z" fill="#263238"/>
<path d="M262.82 109.343C262.877 109.375 262.94 109.391 263.005 109.391C263.07 109.391 263.133 109.375 263.19 109.343C263.276 109.287 263.336 109.199 263.358 109.099C263.381 108.999 263.363 108.895 263.31 108.807C262.832 108.012 262.17 107.341 261.378 106.851C260.587 106.36 259.69 106.064 258.76 105.987C258.656 105.987 258.555 106.027 258.481 106.099C258.406 106.172 258.363 106.27 258.36 106.374C258.36 106.475 258.4 106.572 258.471 106.644C258.542 106.717 258.638 106.759 258.74 106.761C259.541 106.837 260.313 107.1 260.992 107.528C261.671 107.956 262.24 108.537 262.65 109.224C262.695 109.278 262.754 109.32 262.82 109.343Z" fill="#263238"/>
<path d="M257.09 114.428C256.92 115.421 256.23 116.186 255.55 116.077C254.87 115.967 254.48 115.083 254.65 114.011C254.82 112.938 255.52 112.253 256.19 112.362C256.86 112.471 257.27 113.405 257.09 114.428Z" fill="#263238"/>
<path d="M245.43 112.462C245.26 113.455 244.57 114.219 243.89 114.11C243.21 114.001 242.82 113.067 242.99 112.044C243.16 111.022 243.86 110.277 244.53 110.396C245.2 110.515 245.61 111.429 245.43 112.462Z" fill="#263238"/>
<path d="M244.82 110.505L242.46 109.373C242.46 109.373 243.4 111.508 244.82 110.505Z" fill="#263238"/>
<path d="M256.48 112.472L254.12 111.349C254.12 111.349 255.06 113.485 256.48 112.472Z" fill="#263238"/>
<path d="M241.47 105.54C241.531 105.576 241.6 105.595 241.67 105.595C241.74 105.595 241.81 105.576 241.87 105.54C242.487 105.025 243.22 104.665 244.007 104.493C244.794 104.32 245.612 104.338 246.39 104.547C246.488 104.581 246.596 104.575 246.69 104.53C246.784 104.486 246.856 104.406 246.89 104.308C246.925 104.211 246.919 104.104 246.874 104.011C246.829 103.918 246.748 103.846 246.65 103.812C245.753 103.558 244.807 103.523 243.893 103.71C242.979 103.896 242.124 104.299 241.4 104.884C241.358 104.914 241.323 104.951 241.297 104.995C241.27 105.038 241.253 105.087 241.247 105.137C241.24 105.188 241.244 105.239 241.258 105.288C241.273 105.336 241.297 105.382 241.33 105.421C241.363 105.474 241.412 105.515 241.47 105.54V105.54Z" fill="#263238"/>
<path d="M228.75 247.408C228.75 247.408 228.61 240.297 230.75 234.746H283.1C283.1 234.746 287.81 242.293 289.03 247.408H228.75Z" fill="#407BFF"/>
<path d="M283.89 231.697L284.3 236.345C284.49 236.713 284.06 237.08 283.45 237.08H230.45C229.98 237.08 229.59 236.852 229.56 236.554L229.08 231.896C229.08 231.578 229.46 231.3 229.98 231.3H282.98C283.153 231.282 283.329 231.309 283.488 231.378C283.648 231.448 283.786 231.558 283.89 231.697V231.697Z" fill="#407BFF"/>
<path opacity="0.3" d="M283.89 231.697L284.3 236.345C284.49 236.713 284.06 237.08 283.45 237.08H230.45C229.98 237.08 229.59 236.852 229.56 236.554L229.08 231.896C229.08 231.578 229.46 231.3 229.98 231.3H282.98C283.153 231.282 283.329 231.309 283.488 231.378C283.648 231.448 283.786 231.558 283.89 231.697V231.697Z" fill="#FAFAFA"/>
<path d="M276.76 237.576H278.18C278.47 237.576 278.68 237.437 278.66 237.258L278 231.21C278 231.031 277.73 230.892 277.45 230.892H276C275.71 230.892 275.5 231.031 275.52 231.21L276.18 237.258C276.23 237.437 276.48 237.576 276.76 237.576Z" fill="#407BFF"/>
<path d="M234.47 237.576H235.89C236.17 237.576 236.39 237.437 236.37 237.258L235.7 231.21C235.7 231.031 235.44 230.892 235.15 230.892H233.73C233.45 230.892 233.23 231.031 233.25 231.21L233.92 237.258C233.94 237.437 234.19 237.576 234.47 237.576Z" fill="#407BFF"/>
<path d="M255.62 237.576H257C257.28 237.576 257.5 237.437 257.48 237.258L256.81 231.21C256.81 231.031 256.54 230.892 256.26 230.892H254.84C254.56 230.892 254.34 231.031 254.36 231.21L255.03 237.258C255.09 237.437 255.33 237.576 255.62 237.576Z" fill="#407BFF"/>
<path d="M296.86 171.811C299.16 179.226 301.37 186.681 303.49 194.176L306.68 205.358L308.27 210.92L308.67 212.29L308.87 212.976L308.92 213.135L308.76 212.886C308.507 212.527 308.196 212.211 307.84 211.953C307.057 211.387 306.126 211.06 305.16 211.009C304.43 210.975 303.702 211.118 303.04 211.426C302.32 211.814 302.39 211.903 302.45 211.834C302.619 211.687 302.774 211.524 302.91 211.347C303.381 210.762 303.816 210.148 304.21 209.51C305.09 208.08 305.96 206.471 306.78 204.822C308.48 201.525 310.01 198.029 311.56 194.513C313.11 190.998 314.56 187.442 316.06 183.857C317.56 180.272 318.99 176.667 320.47 173.112L326.86 174.998C325.2 182.745 323.26 190.352 320.86 197.93C319.68 201.734 318.37 205.497 316.86 209.311C316.08 211.218 315.25 213.125 314.22 215.101C313.671 216.17 313.056 217.205 312.38 218.2C311.96 218.824 311.492 219.415 310.98 219.967C310.168 220.882 309.183 221.628 308.08 222.162C306.979 222.694 305.763 222.946 304.54 222.897C303.09 222.817 301.697 222.309 300.54 221.437C299.802 220.885 299.164 220.213 298.65 219.451C298.325 218.962 298.041 218.447 297.8 217.912C297.71 217.693 297.61 217.465 297.54 217.266L297.35 216.779L297.09 216.074L296.57 214.674C295.89 212.817 295.2 210.96 294.57 209.103C293.29 205.388 292.01 201.684 290.81 197.96C288.357 190.518 286.07 183.04 283.95 175.525L296.86 171.811Z" fill="#B65B52"/>
<path d="M292.38 157.093C297.63 158.672 305.66 179.121 305.66 179.121L285.31 193.571C285.31 193.571 276.16 176.092 278.36 169.358C280.66 162.347 286.4 155.286 292.38 157.093Z" fill="#407BFF"/>
<path opacity="0.5" d="M292.38 157.093C297.63 158.672 305.66 179.121 305.66 179.121L285.31 193.571C285.31 193.571 276.16 176.092 278.36 169.358C280.66 162.347 286.4 155.286 292.38 157.093Z" fill="white"/>
<path d="M320.7 175.833L317.91 163.618L329.51 169.696C329.51 169.696 329.65 177.919 324.97 180.511L320.7 175.833Z" fill="#B55B52"/>
<path d="M322.77 153.925L330.17 159.139L329.51 169.696L317.91 163.618L322.77 153.925Z" fill="#B55B52"/>
<path d="M115 92.45H196C197.547 92.4349 199.079 92.7386 200.502 93.3419C201.924 93.9452 203.205 94.8351 204.263 95.9551C205.321 97.0752 206.134 98.4012 206.65 99.8492C207.166 101.297 207.374 102.836 207.26 104.368L205 140.776C204.752 143.981 203.308 146.978 200.952 149.182C198.596 151.387 195.496 152.638 192.26 152.693H182.88L186.71 165.197L168.39 152.693H111.29C109.744 152.708 108.211 152.405 106.788 151.801C105.366 151.198 104.085 150.308 103.027 149.188C101.969 148.068 101.156 146.742 100.64 145.294C100.124 143.846 99.9165 142.307 100.03 140.776L102.27 104.368C102.518 101.164 103.96 98.1678 106.315 95.964C108.669 93.7602 111.765 92.5073 115 92.45V92.45Z" fill="#407BFF"/>
<path d="M188.58 111.518H120.08C119.789 111.517 119.502 111.455 119.236 111.338C118.971 111.22 118.733 111.049 118.537 110.835C118.341 110.621 118.193 110.37 118.1 110.096C118.008 109.822 117.974 109.532 118 109.244V109.244C118.045 108.641 118.315 108.077 118.757 107.662C119.199 107.247 119.782 107.011 120.39 107H188.9C189.189 107 189.476 107.06 189.741 107.175C190.006 107.29 190.244 107.458 190.441 107.669C190.638 107.879 190.789 108.128 190.885 108.399C190.982 108.67 191.021 108.958 191 109.244V109.244C190.964 109.858 190.694 110.435 190.244 110.858C189.795 111.281 189.199 111.517 188.58 111.518V111.518Z" fill="white"/>
<path d="M148 124.816H119.26C118.969 124.818 118.681 124.761 118.413 124.647C118.146 124.533 117.905 124.365 117.706 124.154C117.507 123.944 117.354 123.694 117.256 123.422C117.159 123.149 117.119 122.86 117.14 122.572C117.185 121.967 117.456 121.402 117.901 120.986C118.345 120.571 118.93 120.336 119.54 120.327H148.31C148.602 120.324 148.891 120.381 149.16 120.494C149.429 120.607 149.671 120.774 149.871 120.985C150.071 121.196 150.225 121.446 150.323 121.719C150.421 121.992 150.461 122.283 150.44 122.572C150.392 123.182 150.114 123.752 149.662 124.168C149.21 124.584 148.616 124.816 148 124.816V124.816Z" fill="white"/>
<path d="M172.63 138.115H118.44C118.149 138.117 117.861 138.059 117.593 137.945C117.326 137.831 117.085 137.664 116.886 137.453C116.687 137.242 116.534 136.993 116.436 136.72C116.339 136.448 116.299 136.158 116.32 135.87V135.87C116.363 135.265 116.633 134.698 117.078 134.282C117.523 133.866 118.109 133.632 118.72 133.626H172.91C173.201 133.622 173.49 133.679 173.759 133.792C174.027 133.905 174.268 134.073 174.468 134.284C174.667 134.495 174.82 134.745 174.917 135.018C175.014 135.291 175.052 135.581 175.03 135.87V135.87C174.985 136.475 174.714 137.04 174.269 137.456C173.825 137.871 173.24 138.106 172.63 138.115V138.115Z" fill="white"/>
<path d="M169.11 124.816H157.78C157.489 124.818 157.201 124.761 156.933 124.647C156.666 124.533 156.425 124.365 156.226 124.154C156.027 123.944 155.874 123.694 155.776 123.422C155.679 123.149 155.639 122.86 155.66 122.572V122.572C155.707 121.968 155.979 121.404 156.423 120.989C156.867 120.574 157.45 120.338 158.06 120.327H169.38C169.671 120.324 169.96 120.38 170.229 120.494C170.497 120.607 170.738 120.775 170.938 120.986C171.137 121.197 171.29 121.447 171.387 121.72C171.484 121.993 171.522 122.283 171.5 122.572V122.572C171.455 123.175 171.185 123.739 170.743 124.154C170.301 124.569 169.718 124.805 169.11 124.816Z" fill="white"/>
<path d="M227.79 27.0031H183.63C181.112 27.0406 178.699 28.0121 176.865 29.7266C175.031 31.4412 173.909 33.7748 173.72 36.269L172 64.6128C171.914 65.8045 172.078 67.0009 172.481 68.1266C172.884 69.2524 173.517 70.2829 174.341 71.1535C175.165 72.024 176.162 72.7156 177.268 73.1846C178.375 73.6537 179.567 73.89 180.77 73.8787H188L183.82 83.6114L199.28 73.8787H224.9C227.418 73.8412 229.831 72.8697 231.665 71.1552C233.499 69.4406 234.62 67.107 234.81 64.6128L236.56 36.269C236.646 35.0773 236.482 33.8809 236.079 32.7551C235.676 31.6294 235.042 30.5989 234.218 29.7283C233.395 28.8578 232.398 28.1662 231.292 27.6972C230.185 27.2281 228.993 26.9918 227.79 27.0031V27.0031Z" fill="#407BFF"/>
<g opacity="0.5">
<path d="M227.79 27.0031H183.63C181.112 27.0406 178.699 28.0121 176.865 29.7266C175.031 31.4412 173.909 33.7748 173.72 36.269L172 64.6128C171.914 65.8045 172.078 67.0009 172.481 68.1266C172.884 69.2524 173.517 70.2829 174.341 71.1535C175.165 72.024 176.162 72.7156 177.268 73.1846C178.375 73.6537 179.567 73.89 180.77 73.8787H188L183.82 83.6114L199.28 73.8787H224.9C227.418 73.8412 229.831 72.8697 231.665 71.1552C233.499 69.4406 234.62 67.107 234.81 64.6128L236.56 36.269C236.646 35.0773 236.482 33.8809 236.079 32.7551C235.676 31.6294 235.042 30.5989 234.218 29.7283C233.395 28.8578 232.398 28.1662 231.292 27.6972C230.185 27.2281 228.993 26.9918 227.79 27.0031V27.0031Z" fill="#FAFAFA"/>
</g>
<path d="M206.5 55.0788C206.348 55.703 205.989 56.2585 205.482 56.6564C204.974 57.0543 204.347 57.2716 203.7 57.2736H201.09C201.09 56.5387 201.15 56.0918 201.16 55.9329C201.198 54.5014 201.567 53.0979 202.24 51.8313C203.185 50.4193 204.385 49.1936 205.78 48.2163C206.892 47.4158 207.942 46.5326 208.92 45.5746C209.439 44.9649 209.747 44.2061 209.8 43.4095C209.839 42.8818 209.756 42.3522 209.557 41.8614C209.357 41.3707 209.047 40.932 208.65 40.5791C207.68 39.7537 206.425 39.3337 205.15 39.4072C203.809 39.3709 202.498 39.8071 201.45 40.6387C200.827 41.1491 200.317 41.7812 199.95 42.4959C199.68 43.0179 199.261 43.4491 198.745 43.7353C198.229 44.0215 197.639 44.15 197.05 44.1047V44.1047C196.626 44.0526 196.222 43.8951 195.876 43.6469C195.529 43.3986 195.252 43.0676 195.068 42.6844C194.885 42.3013 194.802 41.8784 194.826 41.4548C194.851 41.0313 194.983 40.6208 195.21 40.2613C195.813 39.2556 196.588 38.3617 197.5 37.6196C199.667 35.8895 202.392 34.997 205.17 35.107C208.44 35.107 210.98 35.9511 212.81 37.6494C213.667 38.3809 214.341 39.2997 214.78 40.3336C215.219 41.3674 215.411 42.4883 215.34 43.6082C215.248 44.881 214.805 46.1042 214.06 47.1437C212.655 48.8614 211.032 50.3904 209.23 51.6922C208.297 52.3395 207.49 53.1506 206.85 54.0857C206.687 54.3989 206.57 54.7332 206.5 55.0788V55.0788ZM200.79 62.2095V61.8917C200.843 61.174 201.165 60.5021 201.693 60.0091C202.22 59.5162 202.915 59.2381 203.64 59.2301H204C204.347 59.2251 204.69 59.2916 205.01 59.4256C205.329 59.5596 205.617 59.758 205.854 60.0083C206.092 60.2585 206.275 60.5552 206.392 60.8794C206.508 61.2037 206.555 61.5484 206.53 61.8917V62.2095C206.478 62.9281 206.156 63.6011 205.628 64.0957C205.101 64.5902 204.405 64.8704 203.68 64.881H203.36C203.009 64.8918 202.66 64.8291 202.335 64.697C202.011 64.5649 201.717 64.3665 201.475 64.1145C201.233 63.8625 201.046 63.5626 200.928 63.2344C200.81 62.9062 200.763 62.557 200.79 62.2095V62.2095Z" fill="white"/>
</svg>
