<svg width="500" height="370" viewBox="0 0 500 370" fill="none" xmlns="http://www.w3.org/2000/svg">
<path d="M500 325.15H0V325.398H500V325.15Z" fill="#EBEBEB"/>
<path d="M409.67 341.259H393.11V341.507H409.67V341.259Z" fill="#EBEBEB"/>
<path d="M367 337.654H329.19V337.902H367V337.654Z" fill="#EBEBEB"/>
<path d="M334.08 331.914H265V332.162H334.08V331.914Z" fill="#EBEBEB"/>
<path d="M65.15 333.582H52.46V333.83H65.15V333.582Z" fill="#EBEBEB"/>
<path d="M110.89 333.582H74.0599V333.83H110.89V333.582Z" fill="#EBEBEB"/>
<path d="M211.86 337.773H152.33V338.021H211.86V337.773Z" fill="#EBEBEB"/>
<path d="M237 280.857H43.91C42.3973 280.854 40.9475 280.256 39.8788 279.192C38.8102 278.129 38.21 276.688 38.21 275.186V5.62111C38.2231 4.12747 38.8292 2.6993 39.8964 1.64682C40.9637 0.594346 42.4059 0.00255868 43.91 0H237C238.514 0 239.967 0.597454 241.038 1.66093C242.108 2.7244 242.71 4.16678 242.71 5.67076V275.186C242.71 276.69 242.108 278.132 241.038 279.196C239.967 280.259 238.514 280.857 237 280.857V280.857ZM43.91 0.198626C42.4636 0.201257 41.0774 0.773712 40.0556 1.79034C39.0338 2.80697 38.46 4.1847 38.46 5.62111V275.186C38.46 276.622 39.0338 278 40.0556 279.017C41.0774 280.033 42.4636 280.606 43.91 280.608H237C238.447 280.606 239.834 280.034 240.858 279.017C241.881 278.001 242.457 276.623 242.46 275.186V5.62111C242.457 4.18378 241.881 2.80608 240.858 1.78973C239.834 0.773389 238.447 0.201252 237 0.198626H43.91Z" fill="#EBEBEB"/>
<path d="M453.31 280.857H260.21C258.696 280.854 257.246 280.256 256.175 279.193C255.105 278.13 254.503 276.689 254.5 275.186V5.62111C254.516 4.12656 255.124 2.69841 256.193 1.6462C257.262 0.593999 258.705 0.00253078 260.21 0H453.31C454.812 0.00516873 456.252 0.598111 457.317 1.65031C458.382 2.70251 458.987 4.12918 459 5.62111V275.186C459 276.687 458.401 278.126 457.335 279.189C456.268 280.252 454.821 280.851 453.31 280.857V280.857ZM260.21 0.198626C258.763 0.201252 257.375 0.773389 256.352 1.78973C255.329 2.80608 254.753 4.18378 254.75 5.62111V275.186C254.753 276.623 255.329 278.001 256.352 279.017C257.375 280.034 258.763 280.606 260.21 280.608H453.31C454.757 280.606 456.145 280.034 457.168 279.017C458.191 278.001 458.767 276.623 458.77 275.186V5.62111C458.767 4.18378 458.191 2.80608 457.168 1.78973C456.145 0.773389 454.757 0.201252 453.31 0.198626H260.21Z" fill="#EBEBEB"/>
<path d="M427.09 35.3157H303.53V315.159H427.09V35.3157Z" fill="#F5F5F5"/>
<path d="M416.48 308.446H314.14C313.116 308.446 312.134 308.042 311.411 307.323C310.687 306.604 310.28 305.629 310.28 304.612V45.8528C310.28 44.8361 310.687 43.861 311.411 43.1421C312.134 42.4232 313.116 42.0193 314.14 42.0193H416.48C417.503 42.0219 418.483 42.4266 419.207 43.145C419.93 43.8633 420.337 44.8369 420.34 45.8528V304.612C420.337 305.628 419.93 306.602 419.207 307.32C418.483 308.039 417.503 308.443 416.48 308.446V308.446ZM314.14 42.5159C313.249 42.5159 312.394 42.8674 311.764 43.4932C311.134 44.119 310.78 44.9678 310.78 45.8528V304.612C310.78 305.497 311.134 306.346 311.764 306.972C312.394 307.598 313.249 307.949 314.14 307.949H416.48C417.371 307.949 418.226 307.598 418.856 306.972C419.486 306.346 419.84 305.497 419.84 304.612V45.8528C419.84 44.9678 419.486 44.119 418.856 43.4932C418.226 42.8674 417.371 42.5159 416.48 42.5159H314.14Z" fill="#E0E0E0"/>
<path d="M427.09 325.15H413.64L409.86 315.15H427.09V325.15Z" fill="#F5F5F5"/>
<path d="M315.23 325.15H328.67L332.45 315.15H315.23V325.15Z" fill="#E0E0E0"/>
<path d="M303.53 325.15H316.98L320.75 315.15H303.53V325.15Z" fill="#F5F5F5"/>
<path d="M427.08 325.14H439.08L439.08 35.3058H427.08L427.08 325.14Z" fill="#E0E0E0"/>
<path d="M365.31 308.446C365.244 308.446 365.18 308.42 365.133 308.373C365.086 308.327 365.06 308.263 365.06 308.198V42.2676C365.06 42.2017 365.086 42.1386 365.133 42.092C365.18 42.0454 365.244 42.0193 365.31 42.0193C365.376 42.0193 365.44 42.0454 365.487 42.092C365.534 42.1386 365.56 42.2017 365.56 42.2676V308.198C365.56 308.263 365.534 308.327 365.487 308.373C365.44 308.42 365.376 308.446 365.31 308.446Z" fill="#E0E0E0"/>
<path d="M378.84 175.228C378.84 175.86 378.651 176.478 378.297 177.004C377.944 177.53 377.441 177.94 376.852 178.182C376.264 178.424 375.617 178.487 374.992 178.364C374.367 178.241 373.794 177.936 373.343 177.489C372.893 177.042 372.586 176.472 372.462 175.852C372.338 175.231 372.402 174.588 372.645 174.004C372.889 173.42 373.302 172.92 373.831 172.569C374.361 172.217 374.983 172.03 375.62 172.03C376.473 172.032 377.291 172.37 377.894 172.969C378.497 173.568 378.837 174.38 378.84 175.228Z" fill="#E0E0E0"/>
<path d="M358.22 175.228C358.22 175.86 358.031 176.478 357.677 177.004C357.323 177.53 356.82 177.94 356.232 178.182C355.644 178.424 354.996 178.487 354.372 178.364C353.747 178.241 353.173 177.936 352.723 177.489C352.273 177.042 351.966 176.472 351.842 175.852C351.717 175.231 351.781 174.588 352.025 174.004C352.269 173.42 352.681 172.92 353.211 172.569C353.74 172.217 354.363 172.03 355 172.03C355.853 172.032 356.67 172.37 357.274 172.969C357.877 173.568 358.217 174.38 358.22 175.228V175.228Z" fill="#E0E0E0"/>
<path d="M69.1399 323.78H81.8099L81.8099 222.262H69.1399L69.1399 323.78Z" fill="#E0E0E0"/>
<path d="M65.15 222.262V323.76H252.33V222.262H65.15ZM248.33 319.787H69.15V226.234H248.33V319.787Z" fill="#F5F5F5"/>
<path d="M65.15 254.39V258.363H252.33V254.39H65.15Z" fill="#F5F5F5"/>
<path d="M65.15 287.69V291.662H252.33V287.69H65.15Z" fill="#F5F5F5"/>
<path d="M252.33 323.78H265V222.262H252.33V323.78Z" fill="#E0E0E0"/>
<path d="M261.89 323.78H68.26V325.14H261.89V323.78Z" fill="#E0E0E0"/>
<path d="M256.82 119.9H83.34C82.9423 119.9 82.62 120.221 82.62 120.615V215.41C82.62 215.804 82.9423 216.125 83.34 216.125H256.82C257.218 216.125 257.54 215.804 257.54 215.41V120.615C257.54 120.221 257.218 119.9 256.82 119.9Z" fill="#E0E0E0"/>
<path d="M177.72 221.507H162.99L164.05 198.596H178.78L177.72 221.507Z" fill="#E0E0E0"/>
<path d="M176.92 221.507H162.19L163.24 198.596H177.97L176.92 221.507Z" fill="#E6E6E6"/>
<path d="M256.01 119.9H82.5299C82.1323 119.9 81.8099 120.221 81.8099 120.615V215.41C81.8099 215.804 82.1323 216.125 82.5299 216.125H256.01C256.408 216.125 256.73 215.804 256.73 215.41V120.615C256.73 120.221 256.408 119.9 256.01 119.9Z" fill="#F0F0F0"/>
<path d="M251.17 214.069C251.17 214.218 251.215 214.364 251.298 214.488C251.382 214.612 251.5 214.709 251.639 214.766C251.778 214.823 251.931 214.838 252.078 214.809C252.226 214.78 252.361 214.708 252.467 214.603C252.574 214.497 252.646 214.363 252.675 214.216C252.705 214.07 252.69 213.918 252.632 213.78C252.575 213.642 252.477 213.524 252.352 213.441C252.227 213.358 252.08 213.314 251.93 213.314C251.728 213.314 251.535 213.394 251.393 213.535C251.25 213.677 251.17 213.869 251.17 214.069V214.069Z" fill="#E0E0E0"/>
<path d="M247.62 214.069C247.62 214.272 247.701 214.466 247.846 214.61C247.99 214.753 248.186 214.834 248.39 214.834C248.542 214.834 248.691 214.789 248.818 214.705C248.944 214.621 249.043 214.501 249.101 214.362C249.16 214.222 249.175 214.068 249.145 213.92C249.115 213.771 249.042 213.635 248.934 213.528C248.827 213.421 248.69 213.348 248.54 213.319C248.391 213.289 248.236 213.305 248.095 213.362C247.955 213.42 247.834 213.518 247.75 213.644C247.665 213.77 247.62 213.918 247.62 214.069Z" fill="white"/>
<path d="M252.73 210.861V125.164C252.73 124.451 252.148 123.873 251.43 123.873L87.11 123.873C86.392 123.873 85.81 124.451 85.81 125.164V210.861C85.81 211.574 86.392 212.152 87.11 212.152H251.43C252.148 212.152 252.73 211.574 252.73 210.861Z" fill="#E0E0E0"/>
<path d="M185.85 220.226H155.39C154.855 220.239 154.346 220.459 153.973 220.84C153.599 221.22 153.39 221.731 153.39 222.262H187.9C187.9 221.995 187.847 221.73 187.744 221.483C187.641 221.236 187.49 221.012 187.3 220.823C187.109 220.634 186.883 220.484 186.635 220.381C186.386 220.279 186.119 220.226 185.85 220.226V220.226Z" fill="#E0E0E0"/>
<path d="M180 220.226H149.51C149.24 220.225 148.972 220.277 148.722 220.378C148.473 220.48 148.245 220.63 148.054 220.819C147.862 221.008 147.711 221.233 147.607 221.481C147.503 221.729 147.45 221.994 147.45 222.262H182C182 221.731 181.791 221.22 181.417 220.84C181.044 220.46 180.535 220.239 180 220.226Z" fill="#E6E6E6"/>
<path d="M222.2 26.6455H117.89V93.9002H222.2V26.6455Z" fill="#E0E0E0"/>
<path d="M220.66 26.6455H116.35V93.9002H220.66V26.6455Z" fill="#F5F5F5"/>
<path d="M213.76 87.0578V33.5083L123.26 33.5083V87.0578H213.76Z" fill="#FAFAFA"/>
<path d="M133.56 87.0479L152.28 33.5083H173.29L154.57 87.0479H133.56Z" fill="white"/>
<path d="M159.74 87.0479L178.47 33.5083H190.86L172.13 87.0479H159.74Z" fill="white"/>
<path d="M250 370C357.082 370 443.89 364.966 443.89 358.758C443.89 352.549 357.082 347.515 250 347.515C142.917 347.515 56.11 352.549 56.11 358.758C56.11 364.966 142.917 370 250 370Z" fill="#F5F5F5"/>
<path d="M359.87 70.1348C356.07 71.7039 351.41 84.0386 360.43 89.6597C365.43 92.7682 372.7 83.7009 373.69 76.9774C374.37 72.3594 370.74 65.6459 359.87 70.1348Z" fill="#263238"/>
<path d="M337.51 68.3172C333.71 69.8864 332.16 87.7825 338.08 87.8421C344 87.9017 350.34 81.8833 351.34 75.1599C352 70.512 348.39 63.8283 337.51 68.3172Z" fill="#263238"/>
<path d="M344.94 77.732C348.4 78.7251 355.94 57.7503 351.47 53.1719C347 48.5936 340 51.1162 336.83 58.7335C334.67 63.9176 335 74.981 344.94 77.732Z" fill="#263238"/>
<path d="M333 109.751C332.85 112.482 332.54 114.964 332.2 117.557C331.86 120.149 331.4 122.651 330.9 125.194C330.4 127.736 329.81 130.259 329.11 132.781C328.41 135.304 327.61 137.747 326.73 140.269C326.26 141.501 325.73 142.732 325.25 143.964L324.42 145.781L324 146.715C323.754 147.209 323.47 147.684 323.15 148.135C322.753 148.701 322.278 149.209 321.74 149.644C321.069 150.197 320.289 150.605 319.451 150.843C318.613 151.081 317.734 151.143 316.87 151.025C316.199 150.926 315.544 150.743 314.92 150.479C313.302 149.703 311.867 148.597 310.71 147.231C308.916 145.146 307.363 142.867 306.08 140.438C305.44 139.286 304.85 138.114 304.31 136.932C303.77 135.751 303.25 134.589 302.78 133.327L306.89 131.182C308.31 133.119 309.83 135.095 311.35 136.952C312.765 138.737 314.331 140.398 316.03 141.918C316.565 142.425 317.198 142.82 317.89 143.08C317.89 143.08 317.89 143.08 317.75 143C317.519 142.952 317.281 142.952 317.05 143C316.812 143.056 316.588 143.157 316.39 143.298C316.26 143.378 316.21 143.447 316.22 143.408C316.237 143.33 316.26 143.253 316.29 143.179L316.6 142.385L317.23 140.746C317.63 139.644 317.98 138.512 318.36 137.399C319.05 135.125 319.7 132.831 320.23 130.447C320.76 128.064 321.23 125.75 321.72 123.376C322.21 121.003 322.49 118.599 322.83 116.196C323.17 113.793 323.43 111.34 323.64 109.075L333 109.751Z" fill="#7F3E3B"/>
<path d="M327.21 98.6574C323.97 99.4817 322.14 120.764 322.14 120.764L330.76 125.909C330.76 125.909 336 110.237 335.17 103.395C334.6 98.4687 329.65 98.0417 327.21 98.6574Z" fill="#7F3E3B"/>
<path d="M307.15 131.629L302.73 123.535L299.33 132.165C299.33 132.165 303.1 136.664 306.84 135.9L307.15 131.629Z" fill="#7F3E3B"/>
<path d="M300.2 121.499L297.75 128.878L299.33 132.165L302.73 123.535L300.2 121.499Z" fill="#7F3E3B"/>
<path d="M345.63 348.786H336.45L332.55 315.308H345.15L345.63 348.786Z" fill="#7F3E3B"/>
<path d="M402.6 334.515L393.9 337.425L380.73 308.049L393.03 304.593L402.6 334.515Z" fill="#7F3E3B"/>
<path d="M392.39 336.055L401.57 331.397C401.725 331.314 401.905 331.291 402.077 331.331C402.248 331.371 402.399 331.472 402.5 331.616L407.27 338.299C407.384 338.472 407.459 338.666 407.492 338.869C407.525 339.072 407.514 339.28 407.46 339.479C407.406 339.678 407.311 339.863 407.18 340.023C407.049 340.182 406.885 340.312 406.7 340.405C403.47 341.974 401.83 342.57 397.8 344.626C395.32 345.887 391.8 347.992 388.39 349.73C384.98 351.468 383.04 348.201 384.31 347.168C390.01 342.55 390.05 340.147 391.31 337.237C391.523 336.732 391.904 336.314 392.39 336.055V336.055Z" fill="#263238"/>
<path d="M336.14 347.734H346.45C346.626 347.732 346.797 347.793 346.931 347.907C347.065 348.02 347.153 348.177 347.18 348.35L348.35 356.454C348.374 356.659 348.354 356.866 348.291 357.063C348.228 357.26 348.123 357.441 347.984 357.594C347.845 357.747 347.674 357.869 347.484 357.952C347.294 358.034 347.088 358.075 346.88 358.073C343.29 358.013 341.56 357.804 337.02 357.804C334.23 357.804 328.46 358.093 324.61 358.093C320.76 358.093 320.55 354.309 322.16 353.961C329.35 352.432 332.16 350.306 334.6 348.29C335.031 347.931 335.577 347.734 336.14 347.734V347.734Z" fill="#263238"/>
<path d="M326.64 98.6474C326.64 98.6474 322.26 100.177 331.02 153.647H368.29C367.67 138.591 367.65 129.295 374.9 98.3793C369.68 97.3182 364.389 96.6345 359.07 96.3334C353.437 95.9305 347.783 95.9305 342.15 96.3334C334.88 96.969 326.64 98.6474 326.64 98.6474Z" fill="#263238"/>
<path d="M357.4 77.3845C356.33 82.7871 355.26 92.6986 359.07 96.3036C354.315 101.323 348.773 105.545 342.66 108.807C337.37 100.296 342.15 96.3136 342.15 96.3136C348.22 94.8735 348.06 90.3548 347.01 86.1936L357.4 77.3845Z" fill="#7F3E3B"/>
<path opacity="0.2" d="M353.16 80.9795L347 86.1835C347.258 87.1602 347.432 88.1569 347.52 89.1629C349.84 88.8252 353.03 86.3027 353.28 83.8894C353.418 82.9202 353.377 81.9342 353.16 80.9795V80.9795Z" fill="black"/>
<path d="M361.47 66.5396C360.37 75.4778 360.1 79.3411 355.24 83.691C347.93 90.2456 337.06 86.9385 335.44 77.8117C333.98 69.5985 336.02 56.3005 345.12 53.2417C347.122 52.5577 349.268 52.3935 351.352 52.7648C353.436 53.136 355.39 54.0304 357.029 55.3628C358.667 56.6953 359.935 58.4217 360.712 60.3779C361.49 62.3341 361.75 64.4552 361.47 66.5396V66.5396Z" fill="#7F3E3B"/>
<path d="M331 153.647C331 153.647 323.76 223.861 324.36 251.649C324.99 280.559 330.84 316.311 330.84 316.311H346.79C346.79 316.311 346.1 282.247 347.2 253.864C348.39 222.908 358.29 153.647 358.29 153.647H331Z" fill="#407BFF"/>
<path opacity="0.3" d="M331 153.647C331 153.647 323.76 223.861 324.36 251.649C324.99 280.559 330.84 316.311 330.84 316.311H346.79C346.79 316.311 346.1 282.247 347.2 253.864C348.39 222.908 358.29 153.647 358.29 153.647H331Z" fill="white"/>
<path d="M348.18 317.9H330.13L328.81 313.282L349.02 312.726L348.18 317.9Z" fill="#263238"/>
<path opacity="0.2" d="M347.1 171.116C337.94 189.409 345.26 222.759 348.5 235.183C350.16 216.542 352.96 193.749 355.14 177.015C353.75 167.551 351.32 162.684 347.1 171.116Z" fill="black"/>
<path d="M340.86 153.647C340.86 153.647 349.31 226.642 355.68 250.07C363.25 277.877 378.73 308.615 378.73 308.615L394.73 304.116C394.73 304.116 385.73 266.615 379.94 251.957C367.59 220.683 378.16 174.066 368.29 153.637L340.86 153.647Z" fill="#407BFF"/>
<path opacity="0.3" d="M340.86 153.647C340.86 153.647 349.31 226.642 355.68 250.07C363.25 277.877 378.73 308.615 378.73 308.615L394.73 304.116C394.73 304.116 385.73 266.615 379.94 251.957C367.59 220.683 378.16 174.066 368.29 153.637L340.86 153.647Z" fill="white"/>
<path d="M395.72 306.539L379.08 311.117L376.09 306.887L394.54 300.779L395.72 306.539Z" fill="#263238"/>
<path d="M346.64 68.3967C346.59 69.1316 346.16 69.7076 345.64 69.6778C345.12 69.648 344.8 69.0323 344.85 68.2974C344.9 67.5625 345.32 66.9864 345.8 67.0162C346.28 67.046 346.68 67.6618 346.64 68.3967Z" fill="#263238"/>
<path d="M338.28 67.9001C338.28 68.635 337.81 69.211 337.33 69.1812C336.85 69.1515 336.49 68.5357 336.54 67.8008C336.59 67.0659 337.01 66.4899 337.49 66.5197C337.97 66.5495 338.33 67.1652 338.28 67.9001Z" fill="#263238"/>
<path d="M337.7 66.5396L335.96 65.9238C335.96 65.9238 336.78 67.3937 337.7 66.5396Z" fill="#263238"/>
<path d="M340.78 69.1714C340.024 70.8067 339.045 72.3306 337.87 73.7001C338.229 73.9897 338.649 74.1976 339.098 74.3091C339.547 74.4206 340.015 74.4331 340.47 74.3456L340.78 69.1714Z" fill="#630F0F"/>
<path d="M344.7 77.2952C344.284 77.3307 343.866 77.3307 343.45 77.2952C343.418 77.3021 343.385 77.3018 343.353 77.2943C343.321 77.2868 343.291 77.2722 343.265 77.2518C343.24 77.2313 343.219 77.2054 343.205 77.1759C343.191 77.1465 343.183 77.1143 343.183 77.0817C343.183 77.0491 343.191 77.0168 343.205 76.9874C343.219 76.958 343.24 76.9321 343.265 76.9116C343.291 76.8911 343.321 76.8766 343.353 76.8691C343.385 76.8616 343.418 76.8612 343.45 76.8681C344.368 76.9444 345.291 76.8043 346.145 76.4591C346.998 76.114 347.757 75.5736 348.36 74.8819C348.401 74.8442 348.454 74.8232 348.51 74.8232C348.566 74.8232 348.619 74.8442 348.66 74.8819C348.684 74.8977 348.704 74.9182 348.719 74.942C348.734 74.9657 348.745 74.9924 348.749 75.0202C348.754 75.0481 348.753 75.0766 348.746 75.104C348.739 75.1315 348.727 75.1573 348.71 75.1798C347.697 76.3711 346.261 77.1288 344.7 77.2952Z" fill="#263238"/>
<path d="M340.33 55.1385C338.07 57.9093 354.43 73.1141 360.45 70.8299C366.47 68.5457 366.89 61.1867 361.11 55.2875C357.17 51.2554 346.8 47.2034 340.33 55.1385Z" fill="#263238"/>
<path d="M362.62 73.0446C362.134 74.7328 360.994 76.161 359.45 77.0171C357.4 78.1294 355.86 76.4312 355.99 74.2364C356.11 72.2501 357.32 69.2707 359.59 69.1019C360.083 69.0703 360.577 69.1601 361.026 69.3635C361.476 69.5668 361.868 69.8773 362.168 70.2675C362.468 70.6576 362.666 71.1152 362.745 71.5997C362.824 72.0842 362.781 72.5806 362.62 73.0446V73.0446Z" fill="#7F3E3B"/>
<path d="M351.27 64.7917C351.212 64.7901 351.154 64.777 351.101 64.7531C351.048 64.7292 351 64.6951 350.96 64.6526C350.599 64.246 350.146 63.9298 349.639 63.7296C349.131 63.5294 348.584 63.451 348.04 63.5006C347.984 63.5106 347.927 63.5095 347.872 63.4974C347.816 63.4853 347.764 63.4625 347.717 63.4302C347.671 63.3979 347.631 63.3567 347.601 63.3092C347.57 63.2616 347.55 63.2085 347.54 63.153C347.53 63.0975 347.531 63.0407 347.543 62.9856C347.555 62.9306 347.578 62.8785 347.611 62.8324C347.643 62.7862 347.685 62.7469 347.733 62.7167C347.781 62.6865 347.834 62.666 347.89 62.6564C348.577 62.5779 349.273 62.6651 349.919 62.9106C350.565 63.1561 351.141 63.5527 351.6 64.0667C351.64 64.1064 351.672 64.1536 351.694 64.2055C351.716 64.2575 351.727 64.3133 351.727 64.3696C351.727 64.4259 351.716 64.4816 351.694 64.5336C351.672 64.5856 351.64 64.6328 351.6 64.6725C351.557 64.7148 351.505 64.7474 351.448 64.768C351.391 64.7885 351.33 64.7966 351.27 64.7917V64.7917Z" fill="#263238"/>
<path d="M335.72 63.6693C335.635 63.6784 335.549 63.6626 335.473 63.624C335.397 63.5853 335.334 63.5254 335.291 63.4516C335.249 63.3779 335.229 63.2934 335.234 63.2086C335.239 63.1238 335.269 63.0423 335.32 62.9741C335.722 62.4161 336.254 61.963 336.87 61.6534C337.487 61.3438 338.169 61.1871 338.86 61.1964C338.916 61.2004 338.972 61.2153 339.022 61.2404C339.073 61.2654 339.118 61.3002 339.155 61.3426C339.192 61.385 339.221 61.4343 339.239 61.4876C339.257 61.5409 339.264 61.5972 339.26 61.6533C339.256 61.7094 339.241 61.7641 339.216 61.8144C339.191 61.8648 339.156 61.9096 339.113 61.9465C339.07 61.9834 339.021 62.0116 338.967 62.0294C338.913 62.0473 338.856 62.0544 338.8 62.0505C338.254 62.0566 337.718 62.1911 337.234 62.4432C336.751 62.6953 336.335 63.0576 336.02 63.5005C335.944 63.591 335.837 63.651 335.72 63.6693Z" fill="#263238"/>
<path d="M378.93 108.122C381.098 113.366 382.944 118.735 384.46 124.201C386.105 129.741 387.217 135.424 387.78 141.173L387.9 143.437C387.946 144.023 387.946 144.61 387.9 145.195C387.749 146.434 387.198 147.591 386.33 148.493C385.623 149.209 384.751 149.744 383.79 150.052C383.164 150.253 382.516 150.383 381.86 150.439C380.903 150.511 379.941 150.484 378.99 150.36C375.974 149.915 373.016 149.142 370.17 148.056C364.839 146.095 359.661 143.745 354.68 141.024L356.54 136.793C359.14 137.598 361.78 138.402 364.4 139.157C367.02 139.912 369.64 140.627 372.23 141.243C373.52 141.551 374.81 141.819 376.07 142.037C377.245 142.259 378.435 142.398 379.63 142.454C380.055 142.482 380.482 142.455 380.9 142.375C381.04 142.375 381.08 142.305 381 142.325C380.7 142.418 380.43 142.59 380.22 142.822C379.835 143.221 379.58 143.726 379.49 144.272C379.49 144.858 379.44 144.212 379.4 143.974L379.2 142.117C378.361 136.943 377.137 131.837 375.54 126.842C373.95 121.767 372.13 116.603 370.24 111.697L378.93 108.122Z" fill="#7F3E3B"/>
<path d="M374.86 98.3792C378.52 99.859 383.1 119.741 383.1 119.741L375.32 126.068C375.32 126.068 368 111.23 367.67 104.417C367.43 99.3127 371.63 97.0683 374.86 98.3792Z" fill="#7F3E3B"/>
<path d="M388.42 339.223C388.247 339.149 388.092 339.037 387.967 338.896C387.843 338.755 387.752 338.589 387.7 338.408C387.65 338.287 387.634 338.155 387.653 338.026C387.672 337.897 387.727 337.775 387.81 337.674C388.54 336.76 391.81 337.088 392.21 337.127C392.254 337.132 392.296 337.149 392.33 337.178C392.364 337.206 392.388 337.244 392.4 337.286C392.411 337.325 392.41 337.367 392.398 337.406C392.385 337.445 392.362 337.479 392.33 337.505C391.4 338.299 389.67 339.57 388.55 339.263L388.42 339.223ZM391.64 337.515C390.32 337.415 388.53 337.465 388.15 337.942C388.119 337.991 388.102 338.048 388.102 338.106C388.102 338.164 388.119 338.22 388.15 338.269C388.186 338.403 388.256 338.526 388.352 338.627C388.448 338.727 388.567 338.802 388.7 338.845C389.27 339.014 390.36 338.518 391.64 337.515V337.515Z" fill="#407BFF"/>
<path d="M390.69 337.177C389.69 336.79 388.69 336.184 388.5 335.518C388.454 335.352 388.467 335.174 388.536 335.016C388.605 334.857 388.726 334.726 388.88 334.644C389.017 334.55 389.173 334.487 389.337 334.459C389.501 334.432 389.669 334.441 389.83 334.486C391.11 334.813 392.33 337.147 392.38 337.246C392.399 337.28 392.409 337.317 392.409 337.356C392.409 337.394 392.399 337.432 392.38 337.465C392.359 337.496 392.33 337.521 392.297 337.538C392.264 337.555 392.227 337.564 392.19 337.564C391.673 337.511 391.167 337.381 390.69 337.177V337.177ZM389.85 334.952H389.72C389.618 334.926 389.513 334.921 389.409 334.938C389.306 334.955 389.207 334.994 389.12 335.052C388.89 335.211 388.89 335.35 388.92 335.449C389.09 336.065 390.7 336.909 391.79 337.127C391.354 336.241 390.684 335.489 389.85 334.952V334.952Z" fill="#407BFF"/>
<path d="M332.69 349.323C331.906 349.396 331.121 349.196 330.47 348.757C330.321 348.63 330.207 348.468 330.137 348.286C330.067 348.104 330.044 347.907 330.07 347.714C330.077 347.595 330.115 347.479 330.18 347.379C330.245 347.278 330.334 347.195 330.44 347.138C331.57 346.522 335.22 348.38 335.64 348.598C335.68 348.617 335.713 348.649 335.733 348.689C335.753 348.728 335.759 348.773 335.75 348.817C335.744 348.86 335.725 348.901 335.694 348.933C335.664 348.966 335.624 348.987 335.58 348.995C334.629 349.196 333.662 349.306 332.69 349.323V349.323ZM331.06 347.436C330.919 347.427 330.777 347.454 330.65 347.516C330.608 347.537 330.572 347.57 330.548 347.61C330.523 347.651 330.51 347.697 330.51 347.744C330.487 347.871 330.498 348.003 330.542 348.124C330.586 348.246 330.661 348.355 330.76 348.439C331.31 348.936 332.82 349.025 334.86 348.687C333.673 348.06 332.389 347.637 331.06 347.436V347.436Z" fill="#407BFF"/>
<path d="M335.54 349.005H335.45C334.35 348.509 332.19 346.542 332.36 345.509C332.36 345.271 332.57 344.963 333.18 344.904C333.395 344.881 333.612 344.901 333.818 344.965C334.024 345.028 334.216 345.132 334.38 345.271C335.53 346.264 335.75 348.687 335.75 348.787C335.756 348.825 335.751 348.864 335.735 348.899C335.719 348.935 335.693 348.964 335.66 348.985C335.622 349.002 335.581 349.008 335.54 349.005V349.005ZM333.35 345.311H333.22C332.82 345.311 332.8 345.509 332.79 345.559C332.69 346.185 334.16 347.724 335.27 348.399C335.182 347.371 334.773 346.396 334.1 345.609C333.896 345.421 333.629 345.315 333.35 345.311Z" fill="#407BFF"/>
<path d="M368.85 151.482L369.8 154.789C369.93 155.047 369.63 155.315 369.2 155.315H330.84C330.5 155.315 330.22 155.147 330.2 154.938L329.86 151.621C329.86 151.393 330.13 151.204 330.5 151.204H368.24C368.357 151.193 368.476 151.213 368.583 151.262C368.69 151.31 368.782 151.386 368.85 151.482Z" fill="#407BFF"/>
<path opacity="0.8" d="M368.85 151.482L369.8 154.789C369.93 155.047 369.63 155.315 369.2 155.315H330.84C330.5 155.315 330.22 155.147 330.2 154.938L329.86 151.621C329.86 151.393 330.13 151.204 330.5 151.204H368.24C368.357 151.193 368.476 151.213 368.583 151.262C368.69 151.31 368.782 151.386 368.85 151.482Z" fill="white"/>
<path d="M363.78 155.673H364.78C364.98 155.673 365.14 155.564 365.12 155.445L364.65 151.134C364.65 151.015 364.46 150.906 364.26 150.906H363.26C363.06 150.906 362.9 151.015 362.92 151.134L363.39 155.445C363.4 155.564 363.58 155.673 363.78 155.673Z" fill="#407BFF"/>
<path opacity="0.3" d="M363.78 155.673H364.78C364.98 155.673 365.14 155.564 365.12 155.445L364.65 151.134C364.65 151.015 364.46 150.906 364.26 150.906H363.26C363.06 150.906 362.9 151.015 362.92 151.134L363.39 155.445C363.4 155.564 363.58 155.673 363.78 155.673Z" fill="white"/>
<path d="M333.68 155.673H334.68C334.88 155.673 335.03 155.564 335.02 155.445L334.54 151.134C334.54 151.015 334.35 150.906 334.15 150.906H333.15C332.95 150.906 332.8 151.015 332.81 151.134L333.29 155.445C333.3 155.564 333.48 155.673 333.68 155.673Z" fill="#407BFF"/>
<path opacity="0.3" d="M333.68 155.673H334.68C334.88 155.673 335.03 155.564 335.02 155.445L334.54 151.134C334.54 151.015 334.35 150.906 334.15 150.906H333.15C332.95 150.906 332.8 151.015 332.81 151.134L333.29 155.445C333.3 155.564 333.48 155.673 333.68 155.673Z" fill="white"/>
<path d="M348.73 155.673H349.73C349.93 155.673 350.08 155.564 350.07 155.445L349.6 151.134C349.6 151.015 349.41 150.906 349.21 150.906H348.21C348.01 150.906 347.86 151.015 347.87 151.134L348.35 155.445C348.35 155.564 348.53 155.673 348.73 155.673Z" fill="#407BFF"/>
<path opacity="0.3" d="M348.73 155.673H349.73C349.93 155.673 350.08 155.564 350.07 155.445L349.6 151.134C349.6 151.015 349.41 150.906 349.21 150.906H348.21C348.01 150.906 347.86 151.015 347.87 151.134L348.35 155.445C348.35 155.564 348.53 155.673 348.73 155.673Z" fill="white"/>
<path d="M352.366 113.035L302.912 108.894L296.956 179.038L346.41 183.179L352.366 113.035Z" fill="#407BFF"/>
<path opacity="0.95" d="M352.366 113.035L302.912 108.894L296.956 179.038L346.41 183.179L352.366 113.035Z" fill="white"/>
<path d="M352.377 113.027L302.923 108.886L302.504 113.814L351.959 117.956L352.377 113.027Z" fill="#407BFF"/>
<path d="M333.728 147.269C339.171 142.704 339.858 134.621 335.261 129.215C330.664 123.809 322.525 123.127 317.082 127.692C311.639 132.258 310.953 140.341 315.549 145.746C320.146 151.152 328.285 151.834 333.728 147.269Z" fill="#407BFF"/>
<path d="M325.41 153.071C324.97 153.071 324.52 153.071 324.08 153.071C320.983 152.809 318.033 151.64 315.604 149.713C313.176 147.786 311.377 145.188 310.435 142.246C309.493 139.303 309.45 136.15 310.313 133.184C311.175 130.218 312.904 127.572 315.28 125.582C317.656 123.591 320.573 122.345 323.662 122.001C326.752 121.656 329.874 122.229 332.635 123.647C335.397 125.065 337.673 127.264 339.176 129.967C340.679 132.669 341.342 135.753 341.08 138.829H340.68H341.08C340.735 142.719 338.934 146.34 336.033 148.976C333.133 151.613 329.342 153.073 325.41 153.071V153.071ZM325.41 122.671C321.463 122.654 317.667 124.173 314.835 126.903C312.003 129.632 310.36 133.355 310.259 137.274C310.158 141.192 311.607 144.993 314.294 147.864C316.982 150.734 320.695 152.444 324.638 152.627C328.58 152.811 332.438 151.453 335.384 148.845C338.33 146.238 340.131 142.587 340.399 138.677C340.668 134.766 339.383 130.907 336.82 127.926C334.257 124.945 330.621 123.08 326.69 122.731C326.22 122.691 325.8 122.671 325.37 122.671H325.41Z" fill="white"/>
<path d="M340.477 161.037L307.793 158.3L307.535 161.338L340.22 164.075L340.477 161.037Z" fill="#407BFF"/>
<path d="M337.501 166.824L309.759 164.501L309.501 167.539L337.243 169.862L337.501 166.824Z" fill="#407BFF"/>
<path d="M324.201 171.743L304.81 170.119L304.552 173.157L323.944 174.781L324.201 171.743Z" fill="#407BFF"/>
<path d="M341.434 173.184L326.317 171.918L326.059 174.956L341.176 176.222L341.434 173.184Z" fill="#407BFF"/>
<path d="M357.47 136.903L350.54 129.861L349.64 139.088C349.64 139.088 354.5 142.395 357.89 140.647L357.47 136.903Z" fill="#7F3E3B"/>
<path d="M342.89 128.848L342.56 136.615L350.93 139.832L350.54 129.861L342.89 128.848Z" fill="#7F3E3B"/>
<path d="M346.05 67.066L344.31 66.4602C344.31 66.4602 345.14 67.8903 346.05 67.066Z" fill="#263238"/>
<path d="M370.51 255.363H283.63V358.748H370.51V255.363Z" fill="#407BFF"/>
<path opacity="0.3" d="M370.51 255.363H283.63V358.748H370.51V255.363Z" fill="black"/>
<path d="M370.51 255.363H283.63L301.06 245.631H387.94L370.51 255.363Z" fill="#407BFF"/>
<path opacity="0.3" d="M370.51 255.363H283.63L301.06 245.631H387.94L370.51 255.363Z" fill="black"/>
<path d="M198.94 245.631H112.06L129.49 255.363H216.37L198.94 245.631Z" fill="#407BFF"/>
<path opacity="0.3" d="M198.94 245.631H112.06L129.49 255.363H216.37L198.94 245.631Z" fill="black"/>
<path d="M129.49 358.758H283.63V255.373H129.49V358.758Z" fill="#407BFF"/>
<path opacity="0.1" d="M235.14 335.181H283.63V291.99H235.14V335.181Z" fill="#F0F0F0"/>
<path opacity="0.1" d="M172.85 268.453V291.99H196.55V268.453H172.85Z" fill="#F0F0F0"/>
<path opacity="0.1" d="M143.5 268.453V291.99H167.2V268.453H143.5Z" fill="#F0F0F0"/>
<path opacity="0.1" d="M308.66 291.99H283.63V335.181H308.66V291.99Z" fill="#E6E6E6"/>
<path d="M242.625 112.681L171.196 116.97L176.572 205.287L248.002 200.997L242.625 112.681Z" fill="#407BFF"/>
<path opacity="0.8" d="M242.625 112.681L171.196 116.97L176.572 205.287L248.002 200.997L242.625 112.681Z" fill="white"/>
<path d="M242.624 112.68L171.194 116.969L171.936 129.162L243.366 124.873L242.624 112.68Z" fill="#407BFF"/>
<path opacity="0.2" d="M239.179 130.705L176.803 134.45L177.781 150.519L240.157 146.774L239.179 130.705Z" fill="#407BFF"/>
<path opacity="0.2" d="M240.482 152.019L178.105 155.765L179.084 171.834L241.46 168.089L240.482 152.019Z" fill="#407BFF"/>
<path opacity="0.2" d="M241.775 173.345L179.399 177.091L180.377 193.16L242.753 189.414L241.775 173.345Z" fill="#407BFF"/>
<path opacity="0.1" d="M247.99 200.999L211.8 203.174L215.81 154.491L245.33 157.341L247.99 200.999Z" fill="black"/>
<path d="M263.83 218.478H155.36V255.363H263.83V218.478Z" fill="#407BFF"/>
<path opacity="0.5" d="M263.83 218.478H155.36V255.363H263.83V218.478Z" fill="white"/>
<path d="M263.83 218.478H155.36V227.317H263.83V218.478Z" fill="#407BFF"/>
<path opacity="0.7" d="M256.96 231.349H162.23V242.999H256.96V231.349Z" fill="white"/>
<path opacity="0.7" d="M256.96 246.812H162.23V255.363H256.96V246.812Z" fill="white"/>
<path opacity="0.1" d="M263.83 241.161L207.28 237.179L209.59 218.478H263.83V241.161Z" fill="black"/>
<path d="M312.514 168.437L219.807 158.272L211.654 231.616L304.361 241.78L312.514 168.437Z" fill="#407BFF"/>
<path opacity="0.9" d="M312.514 168.437L219.807 158.272L211.654 231.616L304.361 241.78L312.514 168.437Z" fill="white"/>
<path d="M312.509 168.438L219.802 158.273L219.179 163.88L311.885 174.045L312.509 168.438Z" fill="#407BFF"/>
<path opacity="0.2" d="M247.936 173.03L224.399 170.449L221.818 193.666L245.355 196.247L247.936 173.03Z" fill="#407BFF"/>
<path opacity="0.2" d="M244.512 203.842L220.975 201.262L218.394 224.479L241.931 227.06L244.512 203.842Z" fill="#407BFF"/>
<path opacity="0.2" d="M276.527 176.166L252.99 173.585L250.409 196.803L273.946 199.383L276.527 176.166Z" fill="#407BFF"/>
<path opacity="0.2" d="M305.128 179.297L281.591 176.717L275.609 230.535L299.146 233.116L305.128 179.297Z" fill="#407BFF"/>
<path opacity="0.2" d="M273.112 206.98L249.575 204.399L246.994 227.617L270.531 230.197L273.112 206.98Z" fill="#407BFF"/>
</svg>
