<svg width="229" height="171" viewBox="0 0 229 171" fill="none" xmlns="http://www.w3.org/2000/svg">
<path d="M229 150.131H0.0599365V150.246H229V150.131Z" fill="#E0E0E0"/>
<path d="M180.089 153.611H172.369V153.726H180.089V153.611Z" fill="#E0E0E0"/>
<path d="M205.447 153.556H185.043V153.671H205.447V153.556Z" fill="#E0E0E0"/>
<path d="M146.916 154.326H121.517V154.44H146.916V154.326Z" fill="#E0E0E0"/>
<path d="M118.88 154.326H109.392V154.44H118.88V154.326Z" fill="#E0E0E0"/>
<path d="M69.4565 153.442H65.2898V153.556H69.4565V153.442Z" fill="#E0E0E0"/>
<path d="M78.8841 153.442H71.9976V153.556H78.8841V153.442Z" fill="#E0E0E0"/>
<path d="M61.1641 155.507H30.6876V155.621H61.1641V155.507Z" fill="#E0E0E0"/>
<path d="M108.577 129.71H20.1653C19.4727 129.709 18.8089 129.433 18.3196 128.943C17.8302 128.452 17.5554 127.788 17.5554 127.095V2.81304C17.5614 2.1244 17.8389 1.46594 18.3276 0.980701C18.8163 0.495458 19.4767 0.222615 20.1653 0.221436H108.577C109.271 0.221436 109.936 0.496891 110.426 0.987204C110.916 1.47752 111.192 2.14252 111.192 2.83593V127.095C111.192 127.789 110.916 128.454 110.426 128.944C109.936 129.434 109.271 129.71 108.577 129.71V129.71ZM20.1653 0.313012C19.5031 0.314225 18.8684 0.578154 18.4005 1.04687C17.9327 1.51558 17.6699 2.15078 17.6699 2.81304V127.095C17.6699 127.758 17.9327 128.393 18.4005 128.862C18.8684 129.33 19.5031 129.594 20.1653 129.595H108.577C109.24 129.594 109.875 129.33 110.344 128.862C110.812 128.393 111.076 127.758 111.077 127.095V2.81304C111.076 2.15036 110.812 1.51517 110.344 1.04659C109.875 0.578005 109.24 0.314222 108.577 0.313012H20.1653Z" fill="#E0E0E0"/>
<path d="M207.621 129.71H119.205C118.512 129.709 117.847 129.433 117.357 128.943C116.867 128.453 116.592 127.788 116.59 127.095V2.81304C116.598 2.12398 116.876 1.46553 117.365 0.980414C117.855 0.495298 118.516 0.222602 119.205 0.221436H207.621C208.309 0.223819 208.969 0.497193 209.456 0.982308C209.944 1.46742 210.221 2.12519 210.227 2.81304V127.095C210.227 127.787 209.953 128.451 209.464 128.941C208.976 129.431 208.313 129.707 207.621 129.71V129.71ZM119.205 0.313012C118.542 0.314222 117.907 0.578005 117.438 1.04659C116.97 1.51517 116.706 2.15036 116.705 2.81304V127.095C116.706 127.758 116.97 128.393 117.438 128.862C117.907 129.33 118.542 129.594 119.205 129.595H207.621C208.284 129.594 208.919 129.33 209.388 128.862C209.857 128.393 210.12 127.758 210.122 127.095V2.81304C210.12 2.15036 209.857 1.51517 209.388 1.04659C208.919 0.578005 208.284 0.314222 207.621 0.313012H119.205Z" fill="#E0E0E0"/>
<path d="M145.57 94.3341H123.885V150.131H145.57V94.3341Z" fill="#E0E0E0"/>
<path d="M141.449 150.131H145.57V138.414H137.131L141.449 150.131Z" fill="#F0F0F0"/>
<path d="M64.5248 94.3341H42.8396V150.131H64.5248V94.3341Z" fill="#E0E0E0"/>
<path d="M145.565 94.3341H60.9307V142.943H145.565V94.3341Z" fill="#F0F0F0"/>
<path d="M104.631 97.8644V128.295H142.374V97.8644H104.631Z" fill="#E0E0E0"/>
<path d="M64.1265 97.869V128.3H101.87V97.869H64.1265Z" fill="#E0E0E0"/>
<path d="M142.374 138.414V136.175H104.631V138.414H142.374Z" fill="#E0E0E0"/>
<path d="M101.87 138.414V136.175H64.1266V138.414H101.87Z" fill="#E0E0E0"/>
<path d="M142.369 134.087V131.848H104.626V134.087H142.369Z" fill="#E0E0E0"/>
<path d="M101.865 134.092V131.853H64.1219V134.092H101.865Z" fill="#E0E0E0"/>
<path d="M86.732 101.143H79.2731C77.6682 101.143 76.0802 100.816 74.6057 100.182C73.1313 99.5487 71.8013 98.6214 70.697 97.4568H95.2989C94.196 98.6207 92.8676 99.5477 91.3947 100.181C89.9219 100.815 88.3354 101.142 86.732 101.143V101.143Z" fill="#F0F0F0"/>
<path d="M127.616 101.143H120.153C118.548 101.143 116.96 100.817 115.485 100.183C114.011 99.5495 112.681 98.6218 111.577 97.4568H136.192C135.088 98.6218 133.758 99.5495 132.284 100.183C130.809 100.817 129.221 101.143 127.616 101.143V101.143Z" fill="#F0F0F0"/>
<path d="M65.0516 150.131H60.9307V138.414H69.3694L65.0516 150.131Z" fill="#F0F0F0"/>
<path d="M145.103 8.91656H31.3561V73.8897H145.103V8.91656Z" fill="#E0E0E0"/>
<path d="M151.394 6.91101H27.5327C27.3785 6.91101 27.2306 6.97228 27.1215 7.08133C27.0125 7.19038 26.9512 7.33829 26.9512 7.49252V7.49252C26.9506 7.56927 26.9652 7.64538 26.9941 7.71646C27.0231 7.78754 27.0658 7.85219 27.1199 7.90667C27.1739 7.96115 27.2383 8.0044 27.3091 8.03391C27.38 8.06342 27.4559 8.07861 27.5327 8.07861H151.394C151.471 8.07861 151.547 8.06342 151.617 8.03391C151.688 8.0044 151.753 7.96115 151.807 7.90667C151.861 7.85219 151.903 7.78754 151.932 7.71646C151.961 7.64538 151.976 7.56927 151.975 7.49252V7.49252C151.975 7.33829 151.914 7.19038 151.805 7.08133C151.696 6.97228 151.548 6.91101 151.394 6.91101V6.91101Z" fill="#E0E0E0"/>
<path d="M147.593 8.91656H32.519V73.8897H147.593V8.91656Z" fill="#E6E6E6"/>
<path d="M145.103 73.8898H31.3561V78.5189H145.103V73.8898Z" fill="#E0E0E0"/>
<path d="M151.742 73.8898H36.6675V78.5189H151.742V73.8898Z" fill="#E6E6E6"/>
<path d="M144.1 70.4007V12.4056L36.0035 12.4056V70.4007H144.1Z" fill="#F5F5F5"/>
<path d="M89.5022 70.4007L109.974 12.4056H119.635L99.1635 70.4007H89.5022Z" fill="#FAFAFA"/>
<path d="M101.242 70.4007L121.714 12.4056H125.478L105.011 70.4007H101.242Z" fill="#FAFAFA"/>
<path d="M144.1 70.4007V12.4056H143.656V70.4007H144.1Z" fill="#E0E0E0"/>
<path d="M36.0447 5.86713H30.0419V61.8292H36.0447V5.86713Z" fill="#EBEBEB"/>
<path d="M38.3846 5.86713H33.7096V61.8292H38.3846V5.86713Z" fill="#E0E0E0"/>
<path d="M42.0475 5.86713H36.0447V61.8292H42.0475V5.86713Z" fill="#EBEBEB"/>
<path d="M44.3872 5.86713H39.7123V61.8292H44.3872V5.86713Z" fill="#E0E0E0"/>
<path d="M48.0503 5.86713H42.0475V61.8292H48.0503V5.86713Z" fill="#EBEBEB"/>
<path d="M141.865 5.86713H138.408V61.8292H141.865V5.86713Z" fill="#EBEBEB"/>
<path d="M143.221 5.86713H140.524V61.8292H143.221V5.86713Z" fill="#E0E0E0"/>
<path d="M145.327 5.86713H141.87V61.8292H145.327V5.86713Z" fill="#EBEBEB"/>
<path d="M146.678 5.86713H143.981V61.8292H146.678V5.86713Z" fill="#E0E0E0"/>
<path d="M148.784 5.86713H145.327V61.8292H148.784V5.86713Z" fill="#EBEBEB"/>
<path d="M180.25 30.1439H172.575V51.0828H180.25V30.1439Z" fill="#E6E6E6"/>
<path d="M169.659 54.5764L167.882 59.4161H169.659L180.524 54.5764H169.659Z" fill="#F0F0F0"/>
<path d="M167.882 54.5764V59.4161L178.752 54.5764H167.882Z" fill="#E0E0E0"/>
<path d="M188.244 54.5764L186.468 59.4161H188.244L199.11 54.5764H188.244Z" fill="#F0F0F0"/>
<path d="M186.468 54.5764V59.4161L197.338 54.5764H186.468Z" fill="#E0E0E0"/>
<path d="M159.91 54.8008H171.728V51.1148H159.91V54.8008Z" fill="#E0E0E0"/>
<path d="M205.447 51.1149H171.724V54.8008H205.447V51.1149Z" fill="#F0F0F0"/>
<path d="M193.033 51.0828H174.356L172.044 25.7117H190.721L193.033 51.0828Z" fill="#E0E0E0"/>
<path d="M194 51.0828H175.323L173.015 25.7117H191.692L194 51.0828Z" fill="#F0F0F0"/>
<path d="M177.878 48.276L176.078 28.5184H189.137L190.936 48.276H177.878Z" fill="#FAFAFA"/>
<path d="M72.1347 86.1885C72.1347 86.1885 64.0806 72.3101 75.2529 61.2615C75.2529 61.2615 78.1696 63.1617 78.1238 65.7166C78.078 68.2716 75.0011 68.9218 75.665 71.0464C76.3289 73.1709 79.2319 75.2726 77.3225 77.0354C75.4132 78.7983 77.6293 80.3642 77.5011 82.53C77.3729 84.6958 72.1347 86.1885 72.1347 86.1885Z" fill="#E0E0E0"/>
<path d="M72.7441 87.4568C72.7441 87.4568 76.0088 71.7469 61.9244 64.7826C61.9244 64.7826 59.7586 67.507 60.6057 69.9154C61.4528 72.3239 64.5755 71.9713 64.6213 74.2012C64.6671 76.4311 62.57 79.334 64.9327 80.4055C67.2953 81.4769 65.6927 83.6656 66.4986 85.6711C67.3045 87.6766 72.7441 87.4568 72.7441 87.4568Z" fill="#E0E0E0"/>
<path d="M60.4087 83.9769C60.4087 83.9769 60.6743 94.3341 70.9399 94.3341C81.2056 94.3341 81.4712 83.9769 81.4712 83.9769H60.4087Z" fill="#F0F0F0"/>
<path d="M181.541 150.131H182.589L185.575 135.406L186.101 132.828L189.357 116.802H201.852L208.624 150.131H209.673L202.773 116.166C202.748 116.05 202.685 115.947 202.593 115.872C202.502 115.798 202.387 115.758 202.269 115.758H188.94C188.822 115.757 188.708 115.797 188.617 115.872C188.526 115.946 188.463 116.05 188.441 116.166L185.579 130.259L185.044 132.837L181.541 150.131Z" fill="#EBEBEB"/>
<path d="M161.481 150.131H162.529L169.302 116.784H181.797L185.043 132.837L185.565 135.406L188.555 150.131H189.622L186.11 132.828L185.579 130.259L182.717 116.166C182.693 116.05 182.63 115.947 182.538 115.872C182.446 115.798 182.332 115.758 182.214 115.758H168.885C168.767 115.758 168.652 115.798 168.561 115.872C168.469 115.947 168.405 116.05 168.381 116.166L161.481 150.131Z" fill="#EBEBEB"/>
<path d="M192.283 116.271H169.325C167.218 116.27 165.195 115.444 163.69 113.969C162.185 112.494 161.318 110.489 161.275 108.382L160.419 73.4823C160.407 72.7059 160.55 71.9349 160.839 71.2141C161.128 70.4933 161.557 69.837 162.101 69.2833C162.645 68.7296 163.294 68.2895 164.01 67.9885C164.726 67.6875 165.494 67.5316 166.271 67.5298H180.662C182.103 67.5296 183.493 68.0597 184.568 69.019C185.643 69.9783 186.327 71.2998 186.491 72.7314L192.283 116.271Z" fill="#E6E6E6"/>
<path d="M179.759 111.871H202.227C203.062 111.871 203.862 112.202 204.452 112.792C205.042 113.382 205.373 114.182 205.373 115.017V115.126C205.373 115.43 205.252 115.721 205.038 115.936C204.823 116.151 204.532 116.271 204.228 116.271H179.759V111.871Z" fill="#E6E6E6"/>
<path d="M114.53 170.809C163.561 170.809 203.308 168.489 203.308 165.626C203.308 162.763 163.561 160.443 114.53 160.443C65.499 160.443 25.7516 162.763 25.7516 165.626C25.7516 168.489 65.499 170.809 114.53 170.809Z" fill="#F5F5F5"/>
<path d="M85.4774 33.7751C85.4792 32.9222 85.4102 32.0707 85.2713 31.2292C84.6577 27.5101 82.7527 24.1263 79.8912 21.6726C77.0297 19.2189 73.3948 17.8525 69.6256 17.8134H69.4882C66.9595 17.8149 64.4674 18.4177 62.2175 19.5721C59.9676 20.7265 58.0245 22.3993 56.5485 24.4526C56.3058 24.7869 56.0906 25.1303 55.8709 25.4737C55.853 25.4964 55.8376 25.5209 55.8251 25.5469C54.322 28.0329 53.5301 30.8838 53.5357 33.7888V33.8208C53.5451 37.1972 54.6243 40.4837 56.6183 43.2083C58.6124 45.933 61.4186 47.9556 64.634 48.9857C67.8494 50.0158 71.3085 50.0003 74.5145 48.9416C77.7206 47.8828 80.5087 45.8353 82.4783 43.0929C82.7164 42.7587 82.9362 42.4198 83.1514 42.0718C83.1693 42.0492 83.1846 42.0246 83.1972 41.9986C84.6984 39.519 85.4873 36.6737 85.4774 33.7751V33.7751ZM54.2179 33.4133C54.2708 30.799 55.0013 28.2431 56.3379 25.9957H61.3334C60.57 28.3952 60.1703 30.8954 60.1475 33.4133H54.2179ZM62.0339 25.9957H69.1585V33.4133H60.8343C60.8494 30.8937 61.2541 28.3916 62.0339 25.9957V25.9957ZM69.8454 25.3089V18.4773C70.8357 18.5671 71.7841 18.9195 72.5926 19.4984C74.2914 20.6614 75.7154 22.7035 76.7136 25.3089H69.8454ZM76.9608 25.9957C77.5273 27.7109 77.896 29.4853 78.0597 31.2842C78.1284 31.9985 78.1605 32.7082 78.1696 33.4133H69.8454V25.9957H76.9608ZM68.1512 18.6696C68.4799 18.5762 68.8176 18.5179 69.1585 18.4956V25.3226H62.2903C63.5724 21.8702 65.6512 19.361 68.1512 18.6559V18.6696ZM69.1585 34.1139V41.5315H62.0477C61.4811 39.8121 61.1154 38.0328 60.9579 36.2293C60.8938 35.515 60.8572 34.8053 60.848 34.1002L69.1585 34.1139ZM69.1585 42.2184V49.0499C68.1684 48.9595 67.2201 48.6071 66.4113 48.0289C64.7171 46.8658 63.2931 44.8237 62.2903 42.2184H69.1585ZM70.8527 48.8714C70.5241 48.9652 70.1864 49.0235 69.8454 49.0454V42.2046H76.7136C75.4315 45.6433 73.3527 48.1571 70.8527 48.8576V48.8714ZM69.8454 41.5453V34.1047H78.1696C78.1567 36.6245 77.752 39.127 76.97 41.5224L69.8454 41.5453ZM78.8564 34.1047H84.8089C84.7535 36.7187 84.0232 39.2739 82.6889 41.5224H77.6705C78.4339 39.1229 78.8337 36.6226 78.8564 34.1047V34.1047ZM84.8089 33.4179H78.8564C78.8564 32.6945 78.8107 31.9619 78.742 31.2247C78.5857 29.4499 78.2341 27.6979 77.6934 26.0003H82.6797C83.6433 27.6363 84.2939 29.4375 84.5983 31.3117C84.7073 32.0074 84.7715 32.7094 84.7906 33.4133L84.8089 33.4179ZM78.4581 21.3619C79.9547 22.4399 81.2451 23.7784 82.2677 25.3134H77.4416C76.4159 22.4792 74.8729 20.2355 72.9818 18.9352L72.8353 18.839C74.8544 19.2912 76.761 20.1478 78.4398 21.3573L78.4581 21.3619ZM66.1549 18.8482C64.2272 20.1165 62.6429 22.4242 61.5761 25.3134H56.7683L57.1026 24.8235C59.277 21.7881 62.4928 19.6594 66.1365 18.8436L66.1549 18.8482ZM54.25 34.1047H60.1795C60.1795 34.8282 60.2253 35.5608 60.294 36.298C60.4525 38.0724 60.8041 39.8242 61.3425 41.5224H56.3287C55.3632 39.8872 54.7125 38.0857 54.4102 36.211C54.2962 35.5143 54.232 34.8105 54.2179 34.1047H54.25ZM56.7866 42.2092H61.5761C62.6017 45.0435 64.1448 47.2871 66.0358 48.5875L66.1869 48.6836C62.3396 47.8098 58.9746 45.4922 56.7866 42.2092V42.2092ZM72.8628 48.6699C74.7859 47.4061 76.3702 45.0939 77.4416 42.2046H82.2402C82.1303 42.3695 82.0204 42.5343 81.9059 42.6946C79.7297 45.7314 76.5098 47.8589 72.8628 48.6699Z" fill="#407BFF"/>
<path opacity="0.8" d="M85.4774 33.7751C85.4792 32.9222 85.4102 32.0707 85.2713 31.2292C84.6577 27.5101 82.7527 24.1263 79.8912 21.6726C77.0297 19.2189 73.3948 17.8525 69.6256 17.8134H69.4882C66.9595 17.8149 64.4674 18.4177 62.2175 19.5721C59.9676 20.7265 58.0245 22.3993 56.5485 24.4526C56.3058 24.7869 56.0906 25.1303 55.8709 25.4737C55.853 25.4964 55.8376 25.5209 55.8251 25.5469C54.322 28.0329 53.5301 30.8838 53.5357 33.7888V33.8208C53.5451 37.1972 54.6243 40.4837 56.6183 43.2083C58.6124 45.933 61.4186 47.9556 64.634 48.9857C67.8494 50.0158 71.3085 50.0003 74.5145 48.9416C77.7206 47.8828 80.5087 45.8353 82.4783 43.0929C82.7164 42.7587 82.9362 42.4198 83.1514 42.0718C83.1693 42.0492 83.1846 42.0246 83.1972 41.9986C84.6984 39.519 85.4873 36.6737 85.4774 33.7751V33.7751ZM54.2179 33.4133C54.2708 30.799 55.0013 28.2431 56.3379 25.9957H61.3334C60.57 28.3952 60.1703 30.8954 60.1475 33.4133H54.2179ZM62.0339 25.9957H69.1585V33.4133H60.8343C60.8494 30.8937 61.2541 28.3916 62.0339 25.9957V25.9957ZM69.8454 25.3089V18.4773C70.8357 18.5671 71.7841 18.9195 72.5926 19.4984C74.2914 20.6614 75.7154 22.7035 76.7136 25.3089H69.8454ZM76.9608 25.9957C77.5273 27.7109 77.896 29.4853 78.0597 31.2842C78.1284 31.9985 78.1605 32.7082 78.1696 33.4133H69.8454V25.9957H76.9608ZM68.1512 18.6696C68.4799 18.5762 68.8176 18.5179 69.1585 18.4956V25.3226H62.2903C63.5724 21.8702 65.6512 19.361 68.1512 18.6559V18.6696ZM69.1585 34.1139V41.5315H62.0477C61.4811 39.8121 61.1154 38.0328 60.9579 36.2293C60.8938 35.515 60.8572 34.8053 60.848 34.1002L69.1585 34.1139ZM69.1585 42.2184V49.0499C68.1684 48.9595 67.2201 48.6071 66.4113 48.0289C64.7171 46.8658 63.2931 44.8237 62.2903 42.2184H69.1585ZM70.8527 48.8714C70.5241 48.9652 70.1864 49.0235 69.8454 49.0454V42.2046H76.7136C75.4315 45.6433 73.3527 48.1571 70.8527 48.8576V48.8714ZM69.8454 41.5453V34.1047H78.1696C78.1567 36.6245 77.752 39.127 76.97 41.5224L69.8454 41.5453ZM78.8564 34.1047H84.8089C84.7535 36.7187 84.0232 39.2739 82.6889 41.5224H77.6705C78.4339 39.1229 78.8337 36.6226 78.8564 34.1047V34.1047ZM84.8089 33.4179H78.8564C78.8564 32.6945 78.8107 31.9619 78.742 31.2247C78.5857 29.4499 78.2341 27.6979 77.6934 26.0003H82.6797C83.6433 27.6363 84.2939 29.4375 84.5983 31.3117C84.7073 32.0074 84.7715 32.7094 84.7906 33.4133L84.8089 33.4179ZM78.4581 21.3619C79.9547 22.4399 81.2451 23.7784 82.2677 25.3134H77.4416C76.4159 22.4792 74.8729 20.2355 72.9818 18.9352L72.8353 18.839C74.8544 19.2912 76.761 20.1478 78.4398 21.3573L78.4581 21.3619ZM66.1549 18.8482C64.2272 20.1165 62.6429 22.4242 61.5761 25.3134H56.7683L57.1026 24.8235C59.277 21.7881 62.4928 19.6594 66.1365 18.8436L66.1549 18.8482ZM54.25 34.1047H60.1795C60.1795 34.8282 60.2253 35.5608 60.294 36.298C60.4525 38.0724 60.8041 39.8242 61.3425 41.5224H56.3287C55.3632 39.8872 54.7125 38.0857 54.4102 36.211C54.2962 35.5143 54.232 34.8105 54.2179 34.1047H54.25ZM56.7866 42.2092H61.5761C62.6017 45.0435 64.1448 47.2871 66.0358 48.5875L66.1869 48.6836C62.3396 47.8098 58.9746 45.4922 56.7866 42.2092V42.2092ZM72.8628 48.6699C74.7859 47.4061 76.3702 45.0939 77.4416 42.2046H82.2402C82.1303 42.3695 82.0204 42.5343 81.9059 42.6946C79.7297 45.7314 76.5098 47.8589 72.8628 48.6699Z" fill="#FAFAFA"/>
<path d="M189.755 41.3849H45.7976V76.2663H189.755V41.3849Z" fill="#407BFF"/>
<path opacity="0.6" d="M189.755 41.3849H45.7976V76.2663H189.755V41.3849Z" fill="#FAFAFA"/>
<path d="M186.509 44.6313H42.5513V79.5126H186.509V44.6313Z" fill="#407BFF"/>
<path opacity="0.3" d="M186.509 44.6313H42.5513V79.5126H186.509V44.6313Z" fill="black"/>
<path d="M183.262 47.8777H39.3048V82.759H183.262V47.8777Z" fill="#407BFF"/>
<path opacity="0.1" d="M183.262 47.8777H39.3048V82.759H183.262V47.8777Z" fill="#FAFAFA"/>
<path d="M176.394 75.8908V54.7459L46.1729 54.7459V75.8908H176.394Z" fill="#407BFF"/>
<path opacity="0.9" d="M176.394 75.8908V54.7459L46.1729 54.7459V75.8908H176.394Z" fill="#FAFAFA"/>
<path d="M154.489 54.7458V75.8907H155.254V54.7458H154.489Z" fill="#407BFF"/>
<path opacity="0.6" d="M154.489 54.7458V75.8907H155.254V54.7458H154.489Z" fill="#FAFAFA"/>
<path d="M49.4194 57.6626V72.9741H50.1841V57.6626H49.4194Z" fill="#407BFF"/>
<path opacity="0.6" d="M49.4194 57.6626V72.9741H50.1841V57.6626H49.4194Z" fill="#FAFAFA"/>
<path d="M165.094 67.9877C164.538 67.9875 163.991 67.8503 163.501 67.5882C163.011 67.3261 162.594 66.9473 162.285 66.4853C161.977 66.0232 161.787 65.4922 161.732 64.9393C161.678 64.3864 161.761 63.8285 161.973 63.3152C162.186 62.802 162.522 62.349 162.951 61.9965C163.381 61.644 163.891 61.4029 164.436 61.2944C164.981 61.186 165.544 61.2136 166.075 61.3747C166.607 61.5359 167.091 61.8257 167.484 62.2184V62.2184C167.957 62.691 168.279 63.2933 168.409 63.949C168.54 64.6046 168.473 65.2843 168.217 65.9019C167.961 66.5196 167.528 67.0474 166.972 67.4187C166.416 67.79 165.762 67.988 165.094 67.9877V67.9877ZM165.094 62.1498C164.524 62.1499 163.971 62.3478 163.531 62.7096C163.09 63.0715 162.789 63.5749 162.678 64.134C162.567 64.6932 162.654 65.2735 162.923 65.776C163.192 66.2786 163.627 66.6722 164.154 66.8899C164.681 67.1076 165.267 67.1358 165.812 66.9697C166.357 66.8037 166.828 66.4536 167.144 65.9793C167.461 65.5049 167.602 64.9356 167.546 64.3684C167.489 63.8011 167.237 63.2711 166.834 62.8686V62.8686C166.608 62.6354 166.337 62.4497 166.039 62.3223C165.74 62.195 165.419 62.1285 165.094 62.1269V62.1498Z" fill="#407BFF"/>
<path d="M169.476 69.4255C169.415 69.4253 169.355 69.413 169.299 69.3894C169.244 69.3659 169.193 69.3314 169.151 69.2882L166.838 66.9759C166.79 66.9348 166.751 66.8843 166.724 66.8275C166.696 66.7707 166.681 66.7088 166.679 66.6458C166.676 66.5827 166.687 66.5198 166.71 66.4611C166.733 66.4023 166.768 66.349 166.812 66.3043C166.857 66.2597 166.91 66.2248 166.969 66.2018C167.028 66.1788 167.091 66.1681 167.154 66.1706C167.217 66.173 167.279 66.1884 167.336 66.2159C167.392 66.2434 167.443 66.2823 167.484 66.3303L169.796 68.6426C169.881 68.7284 169.929 68.8444 169.929 68.9654C169.929 69.0863 169.881 69.2024 169.796 69.2882C169.712 69.3744 169.596 69.4238 169.476 69.4255V69.4255Z" fill="#407BFF"/>
<g opacity="0.6">
<path d="M165.094 67.9877C164.538 67.9875 163.991 67.8503 163.501 67.5882C163.011 67.3261 162.594 66.9473 162.285 66.4853C161.977 66.0232 161.787 65.4922 161.732 64.9393C161.678 64.3864 161.761 63.8285 161.973 63.3152C162.186 62.802 162.522 62.349 162.951 61.9965C163.381 61.644 163.891 61.4029 164.436 61.2944C164.981 61.186 165.544 61.2136 166.075 61.3747C166.607 61.5359 167.091 61.8257 167.484 62.2184V62.2184C167.957 62.691 168.279 63.2933 168.409 63.949C168.54 64.6046 168.473 65.2843 168.217 65.9019C167.961 66.5196 167.528 67.0474 166.972 67.4187C166.416 67.79 165.762 67.988 165.094 67.9877V67.9877ZM165.094 62.1498C164.524 62.1499 163.971 62.3478 163.531 62.7096C163.09 63.0715 162.789 63.5749 162.678 64.134C162.567 64.6932 162.654 65.2735 162.923 65.776C163.192 66.2786 163.627 66.6722 164.154 66.8899C164.681 67.1076 165.267 67.1358 165.812 66.9697C166.357 66.8037 166.828 66.4536 167.144 65.9793C167.461 65.5049 167.602 64.9356 167.546 64.3684C167.489 63.8011 167.237 63.2711 166.834 62.8686V62.8686C166.608 62.6354 166.337 62.4497 166.039 62.3223C165.74 62.195 165.419 62.1285 165.094 62.1269V62.1498Z" fill="#FAFAFA"/>
<path d="M169.476 69.4255C169.415 69.4252 169.355 69.413 169.299 69.3894C169.244 69.3658 169.193 69.3314 169.151 69.2881L166.838 66.9758C166.79 66.9348 166.751 66.8843 166.724 66.8275C166.696 66.7707 166.681 66.7088 166.679 66.6457C166.676 66.5827 166.687 66.5198 166.71 66.461C166.733 66.4023 166.768 66.3489 166.812 66.3043C166.857 66.2597 166.91 66.2247 166.969 66.2017C167.028 66.1787 167.091 66.1681 167.154 66.1705C167.217 66.1729 167.279 66.1884 167.336 66.2159C167.392 66.2434 167.443 66.2823 167.484 66.3302L169.796 68.6425C169.881 68.7283 169.929 68.8443 169.929 68.9653C169.929 69.0863 169.881 69.2023 169.796 69.2881C169.712 69.3744 169.596 69.4238 169.476 69.4255V69.4255Z" fill="#FAFAFA"/>
</g>
<path d="M134.031 20.2995H119.635V20.6566H134.031V20.2995Z" fill="#407BFF"/>
<path d="M134.031 21.8151H119.635V22.1723H134.031V21.8151Z" fill="#407BFF"/>
<path d="M134.031 23.3353H119.635V23.6925H134.031V23.3353Z" fill="#407BFF"/>
<path d="M134.031 24.8509H119.635V25.208H134.031V24.8509Z" fill="#407BFF"/>
<path d="M134.031 26.3665H119.635V26.7236H134.031V26.3665Z" fill="#407BFF"/>
<path d="M129.022 27.8866H119.635V28.2437H129.022V27.8866Z" fill="#407BFF"/>
<g opacity="0.5">
<path d="M134.031 20.2995H119.635V20.6566H134.031V20.2995Z" fill="#FAFAFA"/>
<path d="M134.031 21.8151H119.635V22.1723H134.031V21.8151Z" fill="#FAFAFA"/>
<path d="M134.031 23.3353H119.635V23.6925H134.031V23.3353Z" fill="#FAFAFA"/>
<path d="M134.031 24.8509H119.635V25.208H134.031V24.8509Z" fill="#FAFAFA"/>
<path d="M134.031 26.3665H119.635V26.7236H134.031V26.3665Z" fill="#FAFAFA"/>
<path d="M129.022 27.8867H119.635V28.2438H129.022V27.8867Z" fill="#FAFAFA"/>
</g>
<path d="M47.3818 85.7719H32.0428V86.0008H47.3818V85.7719Z" fill="#407BFF"/>
<path d="M47.3818 86.7426H32.0428V86.9715H47.3818V86.7426Z" fill="#407BFF"/>
<path d="M47.3818 87.7132H32.0428V87.9421H47.3818V87.7132Z" fill="#407BFF"/>
<path d="M47.3818 88.684H32.0428V88.9129H47.3818V88.684Z" fill="#407BFF"/>
<path d="M47.3818 89.6547H32.0428V89.8836H47.3818V89.6547Z" fill="#407BFF"/>
<path d="M41.6858 90.6299H32.0428V90.8589H41.6858V90.6299Z" fill="#407BFF"/>
<g opacity="0.4">
<path d="M47.3818 85.7719H32.0428V86.0008H47.3818V85.7719Z" fill="#FAFAFA"/>
<path d="M47.3818 86.7426H32.0428V86.9715H47.3818V86.7426Z" fill="#FAFAFA"/>
<path d="M47.3818 87.7132H32.0428V87.9421H47.3818V87.7132Z" fill="#FAFAFA"/>
<path d="M47.3818 88.684H32.0428V88.9129H47.3818V88.684Z" fill="#FAFAFA"/>
<path d="M47.3818 89.6547H32.0428V89.8836H47.3818V89.6547Z" fill="#FAFAFA"/>
<path d="M41.6858 90.6299H32.0428V90.8588H41.6858V90.6299Z" fill="#FAFAFA"/>
</g>
<path d="M97.7944 22.5477C97.0269 22.5477 96.2909 22.8526 95.7482 23.3953C95.2055 23.938 94.9006 24.674 94.9006 25.4415V34.9883C94.9006 35.7558 95.2055 36.4919 95.7482 37.0346C96.2909 37.5772 97.0269 37.8821 97.7944 37.8821V37.8821C98.5619 37.8821 99.298 37.5772 99.8407 37.0346C100.383 36.4919 100.688 35.7558 100.688 34.9883V25.4415C100.688 24.674 100.383 23.938 99.8407 23.3953C99.298 22.8526 98.5619 22.5477 97.7944 22.5477V22.5477Z" fill="#407BFF"/>
<path opacity="0.2" d="M97.7944 22.5477C97.0269 22.5477 96.2909 22.8526 95.7482 23.3953C95.2055 23.938 94.9006 24.674 94.9006 25.4415V34.9883C94.9006 35.7558 95.2055 36.4919 95.7482 37.0346C96.2909 37.5772 97.0269 37.8821 97.7944 37.8821V37.8821C98.5619 37.8821 99.298 37.5772 99.8407 37.0346C100.383 36.4919 100.688 35.7558 100.688 34.9883V25.4415C100.688 24.674 100.383 23.938 99.8407 23.3953C99.298 22.8526 98.5619 22.5477 97.7944 22.5477V22.5477Z" fill="#FAFAFA"/>
<path d="M105.047 16.8563C104.282 16.8599 103.55 17.1664 103.01 17.7087C102.47 18.251 102.167 18.985 102.167 19.7501V34.9883C102.167 35.7558 102.472 36.4919 103.015 37.0346C103.558 37.5773 104.294 37.8822 105.061 37.8822V37.8822C105.829 37.8822 106.565 37.5773 107.107 37.0346C107.65 36.4919 107.955 35.7558 107.955 34.9883V19.7501C107.955 19.3689 107.88 18.9915 107.733 18.6395C107.587 18.2875 107.373 17.9679 107.102 17.699C106.832 17.4301 106.512 17.2172 106.159 17.0726C105.806 16.928 105.428 16.8545 105.047 16.8563Z" fill="#407BFF"/>
<path opacity="0.3" d="M105.047 16.8563C104.282 16.8599 103.55 17.1664 103.01 17.7087C102.47 18.251 102.167 18.985 102.167 19.7501V34.9883C102.167 35.7558 102.472 36.4919 103.015 37.0346C103.558 37.5773 104.294 37.8822 105.061 37.8822V37.8822C105.829 37.8822 106.565 37.5773 107.107 37.0346C107.65 36.4919 107.955 35.7558 107.955 34.9883V19.7501C107.955 19.3689 107.88 18.9915 107.733 18.6395C107.587 18.2875 107.373 17.9679 107.102 17.699C106.832 17.4301 106.512 17.2172 106.159 17.0726C105.806 16.928 105.428 16.8545 105.047 16.8563Z" fill="black"/>
<path d="M112.295 28.2392C111.528 28.2392 110.792 28.5441 110.249 29.0868C109.706 29.6295 109.402 30.3655 109.402 31.133V34.9883C109.402 35.7558 109.706 36.4919 110.249 37.0346C110.792 37.5773 111.528 37.8822 112.295 37.8822V37.8822C112.676 37.8828 113.053 37.8083 113.404 37.6632C113.756 37.518 114.075 37.305 114.345 37.0362C114.614 36.7674 114.827 36.4482 114.973 36.0968C115.119 35.7454 115.194 35.3688 115.194 34.9883V31.133C115.194 30.7526 115.119 30.3759 114.973 30.0245C114.827 29.6731 114.614 29.3539 114.345 29.0852C114.075 28.8164 113.756 28.6033 113.404 28.4582C113.053 28.313 112.676 28.2386 112.295 28.2392V28.2392Z" fill="#407BFF"/>
<path opacity="0.6" d="M112.295 28.2392C111.528 28.2392 110.792 28.5441 110.249 29.0868C109.706 29.6295 109.402 30.3655 109.402 31.133V34.9883C109.402 35.7558 109.706 36.4919 110.249 37.0346C110.792 37.5773 111.528 37.8822 112.295 37.8822V37.8822C112.676 37.8828 113.053 37.8083 113.404 37.6632C113.756 37.518 114.075 37.305 114.345 37.0362C114.614 36.7674 114.827 36.4482 114.973 36.0968C115.119 35.7454 115.194 35.3688 115.194 34.9883V31.133C115.194 30.7526 115.119 30.3759 114.973 30.0245C114.827 29.6731 114.614 29.3539 114.345 29.0852C114.075 28.8164 113.756 28.6033 113.404 28.4582C113.053 28.313 112.676 28.2386 112.295 28.2392V28.2392Z" fill="#FAFAFA"/>
<path d="M173.418 93.6886H185.117L165.144 72.9741L173.418 93.6886Z" fill="#407BFF"/>
<g opacity="0.1">
<path d="M173.418 93.6886H185.117L165.144 72.9741L173.418 93.6886Z" fill="black"/>
</g>
<g style="mix-blend-mode:multiply">
<path d="M162.172 82.7544L165.144 72.9741L166.829 82.7544H162.172Z" fill="#407BFF"/>
</g>
<path d="M165.144 72.9741V101.958L167.213 99.8928L173.418 93.6886L165.144 72.9741Z" fill="#407BFF"/>
<path opacity="0.3" d="M165.144 72.9741V101.958L167.213 99.8928L173.418 93.6886L165.144 72.9741Z" fill="#FAFAFA"/>
<path d="M185.831 10.8032H160.19C158.89 10.808 157.645 11.326 156.726 12.2445C155.807 13.163 155.287 14.4075 155.281 15.7071V28.9489C155.287 30.2477 155.806 31.4915 156.724 32.4099C157.643 33.3282 158.886 33.8468 160.185 33.8528H178.999L178.862 38.482L183.61 33.8528H185.822C187.121 33.848 188.366 33.33 189.286 32.4115C190.205 31.493 190.724 30.2485 190.73 28.9489V15.7071C190.724 14.4091 190.206 13.166 189.289 12.2477C188.372 11.3295 187.129 10.8104 185.831 10.8032V10.8032ZM159.613 16.4442C159.613 16.0799 159.758 15.7305 160.015 15.4729C160.273 15.2153 160.622 15.0706 160.986 15.0706H166.889C167.253 15.0706 167.602 15.2153 167.86 15.4729C168.117 15.7305 168.262 16.0799 168.262 16.4442C168.262 16.8086 168.117 17.1579 167.86 17.4156C167.602 17.6732 167.253 17.8179 166.889 17.8179H160.982C160.618 17.8167 160.27 17.6714 160.014 17.4139C159.757 17.1565 159.613 16.8078 159.613 16.4442V16.4442ZM184.375 29.2649H174.173C173.976 29.2995 173.773 29.2904 173.58 29.2384C173.386 29.1863 173.206 29.0926 173.053 28.9636C172.899 28.8347 172.776 28.6737 172.691 28.492C172.607 28.3103 172.563 28.1123 172.563 27.9119C172.563 27.7114 172.607 27.5134 172.691 27.3317C172.776 27.15 172.899 26.989 173.053 26.8601C173.206 26.7311 173.386 26.6374 173.58 26.5853C173.773 26.5333 173.976 26.5242 174.173 26.5588H184.375C184.572 26.5242 184.775 26.5333 184.969 26.5853C185.162 26.6374 185.342 26.7311 185.496 26.8601C185.649 26.989 185.772 27.15 185.857 27.3317C185.942 27.5134 185.986 27.7114 185.986 27.9119C185.986 28.1123 185.942 28.3103 185.857 28.492C185.772 28.6737 185.649 28.8347 185.496 28.9636C185.342 29.0926 185.162 29.1863 184.969 29.2384C184.775 29.2904 184.572 29.2995 184.375 29.2649V29.2649ZM184.375 23.5368H162.356C162.158 23.5714 161.955 23.5624 161.762 23.5103C161.568 23.4583 161.388 23.3645 161.235 23.2356C161.081 23.1066 160.958 22.9456 160.873 22.764C160.789 22.5823 160.745 22.3842 160.745 22.1838C160.745 21.9833 160.789 21.7853 160.873 21.6036C160.958 21.4219 161.081 21.2609 161.235 21.132C161.388 21.0031 161.568 20.9093 161.762 20.8572C161.955 20.8052 162.158 20.7961 162.356 20.8307H184.375C184.572 20.7961 184.775 20.8052 184.969 20.8572C185.162 20.9093 185.342 21.0031 185.496 21.132C185.649 21.2609 185.772 21.4219 185.857 21.6036C185.942 21.7853 185.986 21.9833 185.986 22.1838C185.986 22.3842 185.942 22.5823 185.857 22.764C185.772 22.9456 185.649 23.1066 185.496 23.2356C185.342 23.3645 185.162 23.4583 184.969 23.5103C184.775 23.5624 184.572 23.5714 184.375 23.5368V23.5368ZM184.375 17.8087H171.339C170.975 17.8087 170.625 17.664 170.368 17.4064C170.11 17.1488 169.965 16.7994 169.965 16.4351C169.965 16.0708 170.11 15.7214 170.368 15.4638C170.625 15.2062 170.975 15.0614 171.339 15.0614H184.375C184.739 15.0614 185.089 15.2062 185.346 15.4638C185.604 15.7214 185.749 16.0708 185.749 16.4351C185.749 16.7994 185.604 17.1488 185.346 17.4064C185.089 17.664 184.739 17.8087 184.375 17.8087Z" fill="#407BFF"/>
<path d="M145.73 36.7769C144.635 33.7686 142.963 31.0032 140.808 28.6358H104.401C102.246 31.0032 100.574 33.7686 99.4792 36.7769L104.516 61.8504C108.369 66.0274 113.549 68.7417 119.177 69.5321C124.804 70.3226 130.532 69.1405 135.387 66.1866C140.242 63.2328 143.924 58.6894 145.809 53.3282C147.693 47.9671 147.664 42.1188 145.725 36.7769H145.73Z" fill="#407BFF"/>
<path opacity="0.1" d="M145.73 36.7769C144.635 33.7686 142.963 31.0032 140.808 28.6358H104.401C102.246 31.0032 100.574 33.7686 99.4792 36.7769L104.516 61.8504C108.369 66.0274 113.549 68.7417 119.177 69.5321C124.804 70.3226 130.532 69.1405 135.387 66.1866C140.242 63.2328 143.924 58.6894 145.809 53.3282C147.693 47.9671 147.664 42.1188 145.725 36.7769H145.73Z" fill="#FAFAFA"/>
<path d="M147.181 46.3146C146.921 52.0961 144.625 57.5993 140.698 61.8505H104.525C101.471 58.5323 99.387 54.4396 98.4989 50.0184C97.6108 45.5972 97.9531 41.0171 99.4885 36.777H145.734C146.845 39.8286 147.337 43.0709 147.181 46.3146V46.3146Z" fill="#407BFF"/>
<path opacity="0.9" d="M147.181 46.3146C146.921 52.0961 144.625 57.5993 140.698 61.8505H104.525C101.471 58.5323 99.387 54.4396 98.4989 50.0184C97.6108 45.5972 97.9531 41.0171 99.4885 36.777H145.734C146.845 39.8286 147.337 43.0709 147.181 46.3146V46.3146Z" fill="#FAFAFA"/>
<path opacity="0.3" d="M147.181 46.3146C146.897 52.3985 144.36 58.1594 140.065 62.4776C135.77 66.7959 130.023 69.3631 123.94 69.6805C117.858 69.9978 111.875 68.0426 107.153 64.1948C102.432 60.3469 99.3101 54.8813 98.3937 48.86C97.4774 42.8387 98.8323 36.6917 102.195 31.6136C105.558 26.5355 110.689 22.889 116.59 21.3826C122.491 19.8762 128.742 20.6175 134.128 23.4625C139.513 26.3076 143.648 31.0531 145.73 36.7769C146.841 39.8286 147.334 43.0706 147.181 46.3146V46.3146Z" fill="white"/>
<path opacity="0.4" d="M136.471 24.8629L101.096 57.1251C100.919 56.7985 100.745 56.4688 100.574 56.1361C99.492 53.9707 98.7404 51.6557 98.3438 49.2679V49.2679L128.898 21.4013C131.602 22.1138 134.163 23.2846 136.471 24.8629Z" fill="white"/>
<path opacity="0.4" d="M145.936 37.3677L112.698 67.6976C109.251 66.1765 106.199 63.8829 103.779 60.9943L140.098 27.8712C142.745 30.5485 144.742 33.7973 145.936 37.3677V37.3677Z" fill="white"/>
<path d="M147.172 30.9939C144.366 26.1287 140.18 22.205 135.144 19.7194C130.107 17.2338 124.447 16.298 118.878 17.0303C113.31 17.7626 108.084 20.1303 103.861 23.8336C99.639 27.5369 96.6099 32.4095 95.1574 37.8348C93.7049 43.2601 93.8944 48.9944 95.7017 54.312C97.5091 59.6297 100.853 64.2917 105.311 67.7083C109.769 71.1248 115.14 73.1424 120.744 73.5056C126.349 73.8689 131.935 72.5615 136.797 69.7489C143.308 65.9819 148.058 59.7846 150.003 52.5182C151.948 45.2517 150.93 37.5103 147.172 30.9939V30.9939ZM103.216 56.3788C101.002 52.5447 99.9747 48.1402 100.264 43.7222C100.553 39.3043 102.146 35.0714 104.841 31.5587C107.536 28.0461 111.212 25.4115 115.405 23.988C119.597 22.5646 124.117 22.4162 128.394 23.5617C132.671 24.7072 136.511 27.0952 139.431 30.4236C142.35 33.7519 144.217 37.8713 144.796 42.2608C145.374 46.6502 144.638 51.1126 142.68 55.0836C140.723 59.0547 137.631 62.3561 133.798 64.5703C131.252 66.0405 128.442 66.9949 125.527 67.3789C122.613 67.7629 119.652 67.569 116.812 66.8083C113.973 66.0477 111.311 64.7351 108.979 62.9456C106.647 61.1561 104.69 58.9247 103.22 56.3788H103.216Z" fill="#407BFF"/>
<path opacity="0.1" d="M147.172 30.9939C144.366 26.1287 140.18 22.205 135.144 19.7194C130.107 17.2338 124.447 16.298 118.878 17.0303C113.31 17.7626 108.084 20.1303 103.861 23.8336C99.639 27.5369 96.6099 32.4095 95.1574 37.8348C93.7049 43.2601 93.8944 48.9944 95.7017 54.312C97.5091 59.6297 100.853 64.2917 105.311 67.7083C109.769 71.1248 115.14 73.1424 120.744 73.5056C126.349 73.8689 131.935 72.5615 136.797 69.7489C143.308 65.9819 148.058 59.7846 150.003 52.5182C151.948 45.2517 150.93 37.5103 147.172 30.9939V30.9939ZM103.216 56.3788C101.002 52.5447 99.9747 48.1402 100.264 43.7222C100.553 39.3043 102.146 35.0714 104.841 31.5587C107.536 28.0461 111.212 25.4115 115.405 23.988C119.597 22.5646 124.117 22.4162 128.394 23.5617C132.671 24.7072 136.511 27.0952 139.431 30.4236C142.35 33.7519 144.217 37.8713 144.796 42.2608C145.374 46.6502 144.638 51.1126 142.68 55.0836C140.723 59.0547 137.631 62.3561 133.798 64.5703C131.252 66.0405 128.442 66.9949 125.527 67.3789C122.613 67.7629 119.652 67.569 116.812 66.8083C113.973 66.0477 111.311 64.7351 108.979 62.9456C106.647 61.1561 104.69 58.9247 103.22 56.3788H103.216Z" fill="black"/>
<path d="M57.3224 74.3734L60.8297 75.1884L57.9222 77.3588C57.9222 77.3588 55.8388 76.4156 55.7427 74.9366L57.3224 74.3734Z" fill="#E4897B"/>
<path d="M62.707 77.5237L60.1795 79.2087L57.9221 77.3589L60.8297 75.1931L62.707 77.5237Z" fill="#E4897B"/>
<path d="M102.383 60.1288C98.6554 62.8761 94.8321 65.486 90.9904 68.0364C87.1488 70.5868 83.2569 73.0731 79.3466 75.5136C75.4363 77.9541 71.4893 80.3442 67.5287 82.6657C65.5506 83.847 63.5543 84.9917 61.5762 86.1547C60.5936 86.7802 59.5224 87.2541 58.3985 87.5604C57.7989 87.7195 57.1858 87.8222 56.567 87.8672C55.8801 87.9232 55.1887 87.8878 54.5111 87.7619C54.0269 87.6661 53.5663 87.4757 53.1557 87.2017C52.745 86.9277 52.3925 86.5754 52.1182 86.165C51.8439 85.7546 51.6532 85.2942 51.557 84.81C51.4609 84.3258 51.4611 83.8274 51.5578 83.3433C51.5892 83.1877 51.632 83.0347 51.686 82.8855C51.9071 82.2363 52.2151 81.6202 52.6018 81.0539C52.9467 80.5448 53.3392 80.0695 53.7739 79.6345C54.602 78.8146 55.5481 78.1232 56.5808 77.5832C58.5817 76.4431 60.5689 75.2938 62.5836 74.1628C66.5946 71.8963 70.6423 69.6893 74.6991 67.5098C78.7559 65.3303 82.8631 63.2195 86.9932 61.159C91.1232 59.0986 95.2854 57.0931 99.5345 55.2432C100.176 54.9597 100.899 54.9231 101.566 55.1404C102.232 55.3577 102.795 55.8137 103.146 56.4207C103.497 57.0277 103.611 57.7429 103.467 58.429C103.323 59.1151 102.93 59.7237 102.364 60.138L102.383 60.1288Z" fill="#407BFF"/>
<path opacity="0.1" d="M102.383 60.1288C98.6554 62.8761 94.8321 65.486 90.9904 68.0364C87.1488 70.5868 83.2569 73.0731 79.3466 75.5136C75.4363 77.9541 71.4893 80.3442 67.5287 82.6657C65.5506 83.847 63.5543 84.9917 61.5762 86.1547C60.5936 86.7802 59.5224 87.2541 58.3985 87.5604C57.7989 87.7195 57.1858 87.8222 56.567 87.8672C55.8801 87.9232 55.1887 87.8878 54.5111 87.7619C54.0269 87.6661 53.5663 87.4757 53.1557 87.2017C52.745 86.9277 52.3925 86.5754 52.1182 86.165C51.8439 85.7546 51.6532 85.2942 51.557 84.81C51.4609 84.3258 51.4611 83.8274 51.5578 83.3433C51.5892 83.1877 51.632 83.0347 51.686 82.8855C51.9071 82.2363 52.2151 81.6202 52.6018 81.0539C52.9467 80.5448 53.3392 80.0695 53.7739 79.6345C54.602 78.8146 55.5481 78.1232 56.5808 77.5832C58.5817 76.4431 60.5689 75.2938 62.5836 74.1628C66.5946 71.8963 70.6423 69.6893 74.6991 67.5098C78.7559 65.3303 82.8631 63.2195 86.9932 61.159C91.1232 59.0986 95.2854 57.0931 99.5345 55.2432C100.176 54.9597 100.899 54.9231 101.566 55.1404C102.232 55.3577 102.795 55.8137 103.146 56.4207C103.497 57.0277 103.611 57.7429 103.467 58.429C103.323 59.1151 102.93 59.7237 102.364 60.138L102.383 60.1288Z" fill="black"/>
<path d="M62.405 52.6837C62.176 53.0546 61.915 53.5033 61.6678 53.9245C61.4205 54.3458 61.1778 54.7853 60.9489 55.2295C60.491 56.104 60.0331 56.9923 59.5753 57.8943C59.1174 58.7964 58.7465 59.7259 58.371 60.6416C58.1879 61.0995 57.9956 61.5574 57.8262 62.0153L57.5697 62.7158C57.5194 62.8486 57.5102 62.9036 57.4782 62.9997C57.4461 63.0959 57.4324 63.1874 57.4049 63.279C57.2262 64.1839 57.1357 65.104 57.1348 66.0263C57.1119 67.0107 57.1348 68.0135 57.1897 69.0254C57.2447 70.0373 57.2996 71.0538 57.3912 72.0703C57.4827 73.0868 57.5743 74.1216 57.6705 75.129L55.9031 75.4907C55.5917 74.4696 55.349 73.4531 55.1064 72.4229C54.8637 71.3927 54.6805 70.3579 54.502 69.3047C54.3234 68.2516 54.2043 67.1939 54.1265 66.0996C54.0312 64.9536 54.0604 63.8006 54.2135 62.6609C54.241 62.5006 54.2639 62.3495 54.3051 62.203C54.3463 62.0565 54.3875 61.8504 54.4241 61.7451L54.6485 60.9667C54.795 60.4493 54.9644 59.9365 55.1384 59.4282C55.491 58.4072 55.8756 57.4044 56.306 56.4154C56.7364 55.4264 57.1943 54.4603 57.6796 53.5079C57.9315 53.05 58.197 52.56 58.4672 52.0884C58.7373 51.6168 59.0075 51.1727 59.3463 50.6736L62.405 52.6837Z" fill="#E4897B"/>
<path d="M60.4497 147.227C60.1407 147.217 59.8337 147.174 59.5339 147.099C59.5179 147.096 59.5031 147.088 59.4916 147.077C59.4801 147.065 59.4725 147.05 59.4698 147.034C59.4669 147.018 59.4688 147.001 59.4753 146.986C59.4818 146.97 59.4926 146.957 59.5065 146.947C59.6301 146.865 60.7107 146.169 61.1274 146.357C61.1737 146.378 61.2134 146.411 61.2424 146.453C61.2714 146.495 61.2886 146.544 61.2922 146.595C61.3137 146.676 61.3122 146.762 61.288 146.843C61.2638 146.924 61.2177 146.996 61.1548 147.053C60.9485 147.194 60.698 147.256 60.4497 147.227ZM59.7491 146.979C60.3719 147.103 60.8389 147.08 61.0175 146.915C61.0567 146.878 61.0854 146.83 61.1007 146.778C61.1159 146.726 61.1172 146.671 61.1045 146.618C61.1039 146.594 61.0967 146.572 61.0837 146.552C61.0708 146.533 61.0526 146.517 61.0312 146.508C60.816 146.412 60.1887 146.714 59.7491 146.979V146.979Z" fill="#407BFF"/>
<path d="M59.5293 147.103C59.5159 147.107 59.5016 147.107 59.4881 147.103C59.475 147.096 59.4641 147.086 59.4568 147.073C59.4495 147.06 59.446 147.045 59.4469 147.03C59.4469 146.989 59.4469 145.963 59.8361 145.62C59.8842 145.576 59.9409 145.544 60.0024 145.524C60.064 145.504 60.129 145.498 60.1933 145.505C60.2608 145.506 60.3259 145.53 60.3776 145.574C60.4293 145.617 60.4645 145.677 60.4771 145.743C60.5596 146.142 59.9094 146.911 59.5614 147.117C59.5497 147.115 59.5388 147.11 59.5293 147.103ZM60.1383 145.656C60.0689 145.657 60.0021 145.683 59.9506 145.729C59.7254 146.061 59.6101 146.455 59.6209 146.856C59.9597 146.581 60.3627 146.004 60.3123 145.762C60.3123 145.72 60.2802 145.675 60.1749 145.661L60.1383 145.656Z" fill="#407BFF"/>
<path d="M76.6679 147.227C76.2906 147.221 75.9149 147.178 75.5461 147.099C75.5285 147.097 75.5122 147.089 75.4997 147.076C75.4872 147.064 75.4794 147.047 75.4774 147.03C75.4754 147.012 75.4786 146.995 75.4868 146.979C75.495 146.964 75.5077 146.951 75.5232 146.943C75.6834 146.86 77.1029 146.137 77.5379 146.375C77.5797 146.397 77.6152 146.429 77.6409 146.468C77.6666 146.507 77.6816 146.553 77.6844 146.599C77.6944 146.675 77.6854 146.752 77.6582 146.823C77.631 146.894 77.5865 146.957 77.5287 147.007C77.2755 147.177 76.9715 147.255 76.6679 147.227V147.227ZM75.8254 146.98C76.6175 147.112 77.199 147.076 77.4188 146.883C77.4553 146.849 77.4831 146.807 77.4998 146.76C77.5166 146.713 77.5218 146.663 77.515 146.613C77.5148 146.594 77.5096 146.576 77.4999 146.56C77.4903 146.544 77.4765 146.531 77.46 146.522C77.2219 146.393 76.4069 146.7 75.8254 146.98Z" fill="#407BFF"/>
<path d="M75.5598 147.103C75.5525 147.106 75.5447 147.108 75.5369 147.108C75.529 147.108 75.5212 147.106 75.514 147.103C75.5008 147.096 75.4902 147.086 75.4836 147.073C75.477 147.059 75.4748 147.044 75.4774 147.03C75.4774 146.989 75.5644 146.027 76.0085 145.656C76.1361 145.549 76.3005 145.497 76.4664 145.51C76.6999 145.533 76.764 145.652 76.7823 145.748C76.8464 146.151 76.0085 146.92 75.5827 147.121L75.5598 147.103ZM76.4114 145.656C76.3039 145.657 76.2001 145.696 76.1184 145.766C75.8558 146.076 75.6958 146.46 75.6605 146.865C76.0909 146.604 76.6633 146 76.6221 145.757C76.6221 145.757 76.6221 145.675 76.4572 145.661L76.4114 145.656Z" fill="#407BFF"/>
<path d="M67.8262 38.9335C68.1055 41.0718 68.742 45.408 67.1943 46.7175C67.1943 46.7175 67.6522 48.897 71.5534 49.1488C75.8666 49.4281 73.7512 47.1433 73.7512 47.1433C71.4343 46.429 71.6083 44.6845 72.1257 43.0728L67.8262 38.9335Z" fill="#E4897B"/>
<path d="M75.8253 34.5883C75.7977 34.5876 75.7709 34.5797 75.7474 34.5654C75.7275 34.5553 75.7098 34.5412 75.6954 34.5241C75.6811 34.5069 75.6704 34.487 75.6639 34.4656C75.6575 34.4442 75.6555 34.4217 75.6581 34.3995C75.6606 34.3773 75.6676 34.3558 75.6787 34.3364C75.7977 34.0942 75.9735 33.8844 76.1912 33.7249C76.4089 33.5654 76.6619 33.461 76.9288 33.4207C76.9697 33.4222 77.0087 33.4386 77.0385 33.4668C77.0684 33.4949 77.0869 33.533 77.0909 33.5738C77.0948 33.6146 77.0837 33.6554 77.0598 33.6888C77.0359 33.7221 77.0007 33.7456 76.9608 33.7549V33.7549C76.752 33.7914 76.5545 33.8757 76.3837 34.0012C76.2129 34.1267 76.0735 34.29 75.9764 34.4784C75.9634 34.5085 75.9425 34.5347 75.9159 34.554C75.8893 34.5734 75.858 34.5852 75.8253 34.5883V34.5883Z" fill="#263238"/>
<path d="M77.0569 36.4656C77.3724 37.0944 77.7729 37.6768 78.2474 38.1964C78.1114 38.3146 77.9511 38.4017 77.7779 38.4516C77.6047 38.5014 77.4227 38.5127 77.2446 38.4848L77.0569 36.4656Z" fill="#DE5753"/>
<path d="M76.7549 35.9985C76.7824 36.287 76.9564 36.5022 77.1395 36.4839C77.3227 36.4656 77.4601 36.2229 77.4326 35.9344C77.4051 35.646 77.2311 35.4308 77.0434 35.4491C76.8557 35.4674 76.7275 35.7147 76.7549 35.9985Z" fill="#263238"/>
<path d="M76.9839 35.4719L77.6524 35.2109C77.6524 35.2109 77.3319 35.7787 76.9839 35.4719Z" fill="#263238"/>
<path d="M71.6404 147.016H75.2073L75.4454 138.765H71.8785L71.6404 147.016Z" fill="#E4897B"/>
<path d="M55.4453 147.016H59.0122L60.1569 138.765H56.5946L55.4453 147.016Z" fill="#E4897B"/>
<path d="M59.2318 146.604H55.2253C55.1567 146.603 55.0901 146.628 55.0379 146.672C54.9857 146.717 54.9514 146.779 54.9415 146.847L54.4836 150.015C54.4746 150.095 54.4825 150.176 54.5069 150.253C54.5313 150.33 54.5716 150.4 54.6252 150.46C54.6788 150.52 54.7445 150.569 54.8179 150.602C54.8913 150.634 54.9709 150.652 55.0514 150.652C56.425 150.629 57.121 150.546 58.8838 150.546C59.9644 150.546 61.5487 150.656 63.0459 150.656C64.5432 150.656 64.621 149.177 63.9983 149.045C61.2053 148.445 60.7657 147.616 59.8225 146.824C59.6578 146.683 59.4485 146.605 59.2318 146.604V146.604Z" fill="#263238"/>
<path d="M75.3263 146.604H71.3244C71.2555 146.602 71.1884 146.626 71.136 146.671C71.0836 146.716 71.0496 146.778 71.0405 146.847L70.5827 150.015C70.5743 150.095 70.5829 150.177 70.6079 150.253C70.6328 150.33 70.6736 150.401 70.7275 150.461C70.7815 150.521 70.8474 150.569 70.921 150.601C70.9946 150.634 71.0744 150.651 71.155 150.652C72.5287 150.629 73.2246 150.546 74.9829 150.546C76.0681 150.546 78.3071 150.656 79.8044 150.656C81.3016 150.656 81.3795 149.177 80.7568 149.045C77.9637 148.445 76.8648 147.616 75.9215 146.824C75.7557 146.682 75.5446 146.604 75.3263 146.604V146.604Z" fill="#263238"/>
<path d="M75.4408 138.765L75.3218 143.019H71.7549L71.8785 138.765H75.4408Z" fill="#CE6F64"/>
<path d="M56.5897 138.765H60.1566L59.5659 143.019H55.999L56.5897 138.765Z" fill="#CE6F64"/>
<path d="M63.9251 53.2332C63.2481 54.2908 62.4641 55.2759 61.5853 56.1728L61.1778 55.9027L56.6631 52.9035C56.6631 52.9035 59.1265 47.409 60.9809 47.1297C62.7529 46.8458 64.0441 48.6773 64.6439 50.637C64.8729 51.3467 64.4928 52.3083 63.9251 53.2332Z" fill="#407BFF"/>
<path opacity="0.6" d="M63.9251 53.2332C63.2481 54.2908 62.4641 55.2759 61.5853 56.1728L61.1778 55.9027L56.6631 52.9035C56.6631 52.9035 59.1265 47.409 60.9809 47.1297C62.7529 46.8458 64.0441 48.6773 64.6439 50.637C64.8729 51.3467 64.4928 52.3083 63.9251 53.2332Z" fill="#FAFAFA"/>
<path d="M63.925 53.2331C63.2481 54.2907 62.464 55.2758 61.5852 56.1727L61.1777 55.9026C61.3792 54.2542 62.0202 52.6196 62.7528 52.1022C63.2016 52.148 63.5999 52.6242 63.925 53.2331Z" fill="#407BFF"/>
<path opacity="0.4" d="M63.925 53.2331C63.2481 54.2907 62.464 55.2758 61.5852 56.1727L61.1777 55.9026C61.3792 54.2542 62.0202 52.6196 62.7528 52.1022C63.2016 52.148 63.5999 52.6242 63.925 53.2331Z" fill="#FAFAFA"/>
<path d="M79.3692 55.9758C79.154 57.3495 78.8747 58.9658 78.4992 60.8843C78.0413 63.3386 77.4003 66.2827 76.5898 69.8038L62.1437 68.8881C62.7664 63.0226 63.0091 59.3962 60.9807 47.1479C63.0315 46.8614 65.1006 46.7252 67.1713 46.7404C69.3642 46.726 71.5554 46.8683 73.7281 47.1662C76.5303 47.6241 79.6805 48.4666 79.6805 48.4666C79.6805 48.4666 80.4864 48.7825 79.3692 55.9758Z" fill="#407BFF"/>
<path opacity="0.6" d="M79.3692 55.9758C79.154 57.3495 78.8747 58.9658 78.4992 60.8843C78.0413 63.3386 77.4003 66.2827 76.5898 69.8038L62.1437 68.8881C62.7664 63.0226 63.0091 59.3962 60.9807 47.1479C63.0315 46.8614 65.1006 46.7252 67.1713 46.7404C69.3642 46.726 71.5554 46.8683 73.7281 47.1662C76.5303 47.6241 79.6805 48.4666 79.6805 48.4666C79.6805 48.4666 80.4864 48.7825 79.3692 55.9758Z" fill="#FAFAFA"/>
<path d="M79.3696 55.9759C79.1544 57.3495 78.875 58.9658 78.4996 60.8843C77.7051 59.1945 77.0452 57.4445 76.5261 55.6508H79.2093L79.3696 55.9759Z" fill="#407BFF"/>
<path opacity="0.4" d="M79.3696 55.9759C79.1544 57.3495 78.875 58.9658 78.4996 60.8843C77.7051 59.1945 77.0452 57.4445 76.5261 55.6508H79.2093L79.3696 55.9759Z" fill="#FAFAFA"/>
<path d="M67.0385 35.9252C67.5834 39.4189 67.7437 40.9116 69.6897 42.5462C72.6155 45.0096 76.7868 43.5718 77.295 39.9821C77.7529 36.754 76.7822 31.58 73.2062 30.5085C72.4196 30.2672 71.5843 30.2312 70.7799 30.4039C69.9754 30.5766 69.2285 30.9523 68.6103 31.4952C67.9921 32.0382 67.5231 32.7303 67.248 33.5057C66.9729 34.2811 66.9008 35.1141 67.0385 35.9252V35.9252Z" fill="#E4897B"/>
<path d="M72.7711 69.5566C72.7711 69.5566 72.5422 75.9165 71.9927 83.9386C71.5348 90.6694 70.8434 98.5633 69.8773 104.855L69.8498 105.029C68.1145 116.164 60.4266 142.19 60.4266 142.19H55.564C55.564 142.19 59.5704 117.052 60.4495 106.018C62.6794 78.1464 57.0933 74.9916 62.1437 68.8469L72.7711 69.5566Z" fill="#407BFF"/>
<path opacity="0.3" d="M72.7711 69.5566C72.7711 69.5566 72.5422 75.9165 71.9927 83.9386C71.5348 90.6694 70.8434 98.5633 69.8773 104.855L69.8498 105.029C68.1145 116.164 60.4266 142.19 60.4266 142.19H55.564C55.564 142.19 59.5704 117.052 60.4495 106.018C62.6794 78.1464 57.0933 74.9916 62.1437 68.8469L72.7711 69.5566Z" fill="black"/>
<path d="M71.9929 83.9386C71.535 90.6695 70.8436 98.5633 69.8775 104.855C68.2337 96.6814 65.5322 84.7445 69.1586 76.9239C70.024 79.1446 71.0314 81.6538 71.9929 83.9386Z" fill="#407BFF"/>
<path opacity="0.4" d="M71.9929 83.9386C71.535 90.6695 70.8436 98.5633 69.8775 104.855C68.2337 96.6814 65.5322 84.7445 69.1586 76.9239C70.024 79.1446 71.0314 81.6538 71.9929 83.9386Z" fill="black"/>
<path d="M76.5899 69.8084C76.5899 69.8084 80.7108 94.2317 80.4636 105.102C80.2209 116.411 76.0771 142.19 76.0771 142.19H71.2602C71.2602 142.19 72.0203 117.066 71.5944 105.963C71.1366 93.8563 66.0083 69.117 66.0083 69.117L76.5899 69.8084Z" fill="#407BFF"/>
<path opacity="0.3" d="M76.5899 69.8084C76.5899 69.8084 80.7108 94.2317 80.4636 105.102C80.2209 116.411 76.0771 142.19 76.0771 142.19H71.2602C71.2602 142.19 72.0203 117.066 71.5944 105.963C71.1366 93.8563 66.0083 69.117 66.0083 69.117L76.5899 69.8084Z" fill="black"/>
<path d="M70.4362 142.419H76.8969L77.4006 140.253L70.2073 140.304L70.4362 142.419Z" fill="#263238"/>
<path d="M54.8589 142.419H61.3196L61.8232 140.253L54.9047 140.304L54.8589 142.419Z" fill="#263238"/>
<path d="M61.979 68.0136L61.2464 69.2681C61.1869 69.3643 61.3014 69.4742 61.4662 69.4834L76.6175 70.4678C76.7457 70.4678 76.8601 70.422 76.8739 70.3396L77.0891 69.0529C77.0891 68.9659 76.9929 68.8835 76.851 68.8744L62.1988 67.922C62.1577 67.9201 62.1167 67.9273 62.0787 67.9432C62.0407 67.959 62.0067 67.983 61.979 68.0136V68.0136Z" fill="#263238"/>
<path d="M63.8379 69.7718L63.4487 69.7443C63.3709 69.7443 63.3114 69.694 63.3205 69.6482L63.6136 67.9769C63.6136 67.9311 63.6914 67.8945 63.7692 67.8991L64.163 67.922C64.2408 67.922 64.2958 67.9723 64.2912 68.0227L63.9982 69.6894C63.989 69.7397 63.9158 69.7764 63.8379 69.7718Z" fill="#407BFF"/>
<path opacity="0.3" d="M63.8379 69.7718L63.4487 69.7443C63.3709 69.7443 63.3114 69.694 63.3205 69.6482L63.6136 67.9769C63.6136 67.9311 63.6914 67.8945 63.7692 67.8991L64.163 67.922C64.2408 67.922 64.2958 67.9723 64.2912 68.0227L63.9982 69.6894C63.989 69.7397 63.9158 69.7764 63.8379 69.7718Z" fill="black"/>
<path d="M73.3208 70.3853L72.9316 70.3624C72.8538 70.3624 72.7943 70.312 72.8034 70.2617L73.0965 68.595C73.0965 68.5446 73.1743 68.5126 73.2567 68.5172L73.6459 68.54C73.7238 68.54 73.7833 68.5904 73.7741 68.6408L73.4811 70.3075C73.4857 70.3578 73.4124 70.3899 73.3208 70.3853Z" fill="#407BFF"/>
<path opacity="0.3" d="M73.3208 70.3853L72.9316 70.3624C72.8538 70.3624 72.7943 70.312 72.8034 70.2617L73.0965 68.595C73.0965 68.5446 73.1743 68.5126 73.2567 68.5172L73.6459 68.54C73.7238 68.54 73.7833 68.5904 73.7741 68.6408L73.4811 70.3075C73.4857 70.3578 73.4124 70.3899 73.3208 70.3853Z" fill="black"/>
<path d="M80.5004 52.1296C81.0499 53.9612 81.5718 55.8156 82.0801 57.6654L83.614 63.2012L83.8063 63.888L83.8567 64.0574L83.8796 64.1444V64.1902C83.8959 64.2508 83.9158 64.3104 83.9391 64.3688C84.0515 64.6471 84.2059 64.9065 84.397 65.138C84.9437 65.715 85.5771 66.2032 86.2743 66.5849C87.8716 67.4494 89.5611 68.1313 91.311 68.6179L91.0454 70.4036C88.9922 70.2978 86.9696 69.8602 85.0563 69.1078C83.9976 68.6929 83.0221 68.0912 82.1762 67.3313C81.6917 66.8821 81.2889 66.3523 80.9858 65.7653C80.9039 65.6066 80.832 65.443 80.7706 65.2754L80.7202 65.1518L80.6881 65.0648L80.6286 64.8953L80.3859 64.2039C79.7449 62.3724 79.1497 60.5409 78.5865 58.6819C78.0233 56.8229 77.4692 54.9914 76.9656 53.1232L80.5004 52.1296Z" fill="#E4897B"/>
<path d="M79.6806 48.4483C81.5121 49.0481 83.4352 55.0372 83.4352 55.0372L76.8234 57.8852C76.8234 57.8852 74.0761 51.1635 75.2941 49.6433C76.5121 48.1232 77.5789 47.7615 79.6806 48.4483Z" fill="#407BFF"/>
<path opacity="0.6" d="M79.6806 48.4483C81.5121 49.0481 83.4352 55.0372 83.4352 55.0372L76.8234 57.8852C76.8234 57.8852 74.0761 51.1635 75.2941 49.6433C76.5121 48.1232 77.5789 47.7615 79.6806 48.4483Z" fill="#FAFAFA"/>
<path d="M76.146 30.3071C74.9784 28.8648 65.9581 27.8345 65.4774 31.7632C62.2722 34.0068 65.3125 39.8035 65.7704 41.2779C63.5589 41.8915 56.4342 44.3274 61.6495 49.0619C66.8647 53.7963 74.6853 52.9905 76.2147 48.0912C77.2861 44.6662 73.884 38.9336 73.9573 36.928C74.0306 34.9225 78.1469 32.7568 76.146 30.3071Z" fill="#263238"/>
<path d="M66.4019 42.0013C66.3852 42.0019 66.3686 41.9984 66.3535 41.9912C66.3383 41.9841 66.3251 41.9734 66.3149 41.9601C65.4862 40.9528 62.6015 35.6597 63.6134 33.1413C63.7704 32.7506 64.0364 32.4133 64.3799 32.1697C64.7233 31.9261 65.1296 31.7866 65.5503 31.7677C65.5651 31.7658 65.5801 31.7669 65.5945 31.771C65.6088 31.7751 65.6222 31.7821 65.6337 31.7915C65.6453 31.8009 65.6548 31.8126 65.6617 31.8258C65.6686 31.839 65.6728 31.8535 65.6739 31.8684C65.6778 31.8981 65.67 31.9282 65.652 31.9522C65.634 31.9761 65.6074 31.9921 65.5777 31.9966C65.1996 32.0106 64.8333 32.1328 64.5225 32.3487C64.2116 32.5646 63.9692 32.8651 63.8241 33.2146C62.8488 35.6505 65.6785 40.82 66.4889 41.809C66.5034 41.8251 66.5128 41.8452 66.5159 41.8666C66.519 41.8881 66.5157 41.91 66.5064 41.9295C66.4971 41.9491 66.4822 41.9655 66.4636 41.9766C66.445 41.9878 66.4236 41.9932 66.4019 41.9922V42.0013Z" fill="#263238"/>
<path d="M73.2429 36.7128C73.3451 37.3815 73.6673 37.997 74.1587 38.4619C74.8089 39.0846 75.4224 38.6588 75.4819 37.8667C75.5369 37.157 75.2622 35.9802 74.4929 35.6505C73.7237 35.3209 73.1468 35.9207 73.2429 36.7128Z" fill="#E4897B"/>
<path d="M89.0673 68.1234L91.668 67.2397L91.2605 70.367C91.2605 70.367 90.2348 70.8249 88.907 69.671L87.6387 68.8606L88.6368 68.3157C88.7737 68.2377 88.9179 68.1733 89.0673 68.1234Z" fill="#E4897B"/>
<path d="M93.4858 67.2305L92.6891 69.9641L91.2605 70.3624L91.668 67.2397L93.4858 67.2305Z" fill="#E4897B"/>
</svg>
